<?xml version="1.0" encoding="utf-8"?>
<!-- Generator: Adobe Illustrator 19.0.0, SVG Export Plug-In . SVG Version: 6.00 Build 0)  -->
<svg version="1.1" id="Layer_1" xmlns="http://www.w3.org/2000/svg" xmlns:xlink="http://www.w3.org/1999/xlink" x="0px" y="0px"
	 viewBox="0 0 4096 3112" style="enable-background:new 0 0 4096 3112;" xml:space="preserve">
<polygon id="BladderOverlay" points="1599.8,1008.8 1782.8,972.8 1983.8,984.8 2181.8,1044.8 2334.8,1134.8 2445.9,1269.8 
	2478.9,1452.8 2439.9,1602.8 2364.9,1728.8 2250.8,1860.8 2103.8,1947.9 1968.8,1989.9 1899.8,2085.9 1857.8,2244.9 1851.8,2382.9 
	1854.8,2502.9 1782,2516.7 1788.8,2376.9 1788.8,2262.9 1752.8,2091.9 1662.8,1950.9 1494.8,1908.9 1368.8,1809.8 1266.7,1683.8 
	1209.7,1548.8 1185.7,1398.8 1224.7,1266.8 1296.7,1164.8 1404.8,1092.8 1518.8,1032.8 "/>
</svg>
