<?xml version="1.0" encoding="utf-8"?>
<!-- Generator: Adobe Illustrator 19.0.0, SVG Export Plug-In . SVG Version: 6.00 Build 0)  -->
<svg version="1.1" id="Layer_1" xmlns="http://www.w3.org/2000/svg" xmlns:xlink="http://www.w3.org/1999/xlink" x="0px" y="0px"
	 viewBox="0 0 4096 3112" style="enable-background:new 0 0 4096 3112;" xml:space="preserve">
<polygon id="BrainOverlay" points="1018,1816 994,1716 952,1662 936,1572 937.2,1515.9 930,1414 974,1352 990,1264 1038,1202 
	1092,1132 1146,1066 1202,998 1266,950 1328,892 1436,832 1544,798 1648,782 1718,742 1820,730 1916,710 1998,690 2060,704 
	2170,704 2262,704 2332,722 2420,772 2488,790 2564,846 2628,886 2658,944 2716,972 2772,1022 2832,1080 2876,1118 2896,1192 
	2940,1246 2990,1312 3022,1484 3038,1546 3030,1654 2984.3,1733.6 2916,1752 2958,1834 2936,1950 2924,2048 2898,2130 2834,2212 
	2778,2290 2658,2324 2532,2276 2442,2286 2474,2308 2538,2432 2562,2462 2416,2482 2362,2408 2240,2294 2208,2232 2098,2208 
	2010,2106 1970,2056 1890,2132 1790.8,2169.5 1690,2112 1588,2080 1514,2016 1496.7,1917.7 1448,1898 1360,1922 1254,1922 
	1159.8,1858.9 1054,1852 "/>
</svg>
