<?xml version="1.0" encoding="utf-8"?>
<!-- Generator: Adobe Illustrator 19.0.0, SVG Export Plug-In . SVG Version: 6.00 Build 0)  -->
<svg version="1.1" id="Layer_1" xmlns="http://www.w3.org/2000/svg" xmlns:xlink="http://www.w3.org/1999/xlink" x="0px" y="0px"
	 viewBox="0 0 4096 3112" style="enable-background:new 0 0 4096 3112;" xml:space="preserve">
<path id="HeartOverlay" d="M1465.1,725.6l55.5-21l78-7.5l82.5,18l16.5,57l4.5,57l19.5-19.5l37.5-63l79.5-63l60-27l-15-109.5
	l-22.5-63l21-31.5l51-12l36,15l27,70.5l12,75l31.5-9l10.5-60v-45l21-21l39,9l52.5,21l18,21l16.5-15l8.5-74.1l48.5-0.9l41.1,23.3
	l11.3,41.2l-15,64.5l-30,79.5l-1.5,25.5l42,39l27,52.5l13.5,48l7.5,36l76.5-9l93-10.5l124.5,22.5l90,30l64.5,40.5l67.5,42l-12,66
	l-58.5,37.5l-121.5-49.5l-114-13.5l-90,9l-63.1,35.3l-71.8,54.7l-27,37.5l39,21l55.5,22.5l90-36l83.8-23.7l43.7,41.7l16.5,46.5
	l-3,54l-58.5,24l-43.5,15l27,27l76.5,12l102,21l9,46.5l-31.5,79.5l-78-12l-21,4.5l24,55.5l60,114l69,166.5l40.5,162l10.5,127.5
	l7.5,156c0,0-4.5,177-6,184.5c-1.5,7.5-28.5,159-28.5,159l-54,94.5l-96,58.5l-154.5,12l-187.5-60l-172.5-54l-3.5,139.5l-134.5,9
	l-87.8-28.6l-15.7-98.9l-52.5-157.5l-94.5-66l-60-65.2l-14.4,86l-80,13.6l-103.5-25.5l-60.4-45.7l13.9-126.8l19.5-136.5l3-51
	l-18-31.5l-24,10.5l-12.5-32.4l3.5-27.6l-78-93l-49.5-148.5l-7.5-121.5l-81,75l-55.5-30l-34.6-89.2l117.1-114.8l-111-40.3l-18-66.2
	l15-72.4l126,27.4l139.5-33l78-30l24-43.5l12-144l1.5-21l-97.5,39l-111,45l-31.5-45l4.5-63l84-55.5l105-34.5l40.5-7.5l10.5-103.5
	L1465.1,725.6z"/>
</svg>
