<?xml version="1.0" encoding="utf-8"?>
<!-- Generator: Adobe Illustrator 19.0.0, SVG Export Plug-In . SVG Version: 6.00 Build 0)  -->
<svg version="1.1" id="Layer_1" xmlns="http://www.w3.org/2000/svg" xmlns:xlink="http://www.w3.org/1999/xlink" x="0px" y="0px"
	 viewBox="0 0 4096 3112" style="enable-background:new 0 0 4096 3112;" xml:space="preserve">
<path id="KidneysOverlay" d="M2338.6,1098.5l1.4,9.5l62,52l112-8l88-84l46-128l-12-168l-52-114l-92-96l-96-20l-76,16l-50,52l-16,54
	l12,66l40,32l25.7,25.8c0,0-4.7,17.8-7.6,32.9L2254,840l-130,2l-46-112l8-140l-2-210l4-108l-22-24l-66-6l-22,36l-8,214l-10,216
	l-16,70l-24-56l-14-166l-6-184l-4-126l-60,0l-8,96l-2,160l14,244l-68,110l-98-30l-21.9-14.1l9.9-9.9l40-32l12-66l-16-54l-50-52
	l-76-16l-96,20l-92,96l-52,114l-12,168l46,128l88,84l112,8l62-52l10-68.3l20,14.3l66,140l16,168l-8,138l26,216l9.7,45l-59.7,81
	l-88,186l-46,160l68-146l120-132l30.9-32.1l9.1,42.1l-2,122l-48,128l-6,92l30,56l28-40l-18-38l22-120l38-116l-2-144l-7.5-27.3
	l15.1-15.7l12.4-12.9l3.8-4.4l136.2-157l56,95.3l94,102l0,0l16,18v132l44,144l20,108l-22,30l42,34l14-40l-22-124l-32-114l3.7-142.1
	l34.3,20.1l26,28l52,40l60,38l40,38l100,162l-68-148c0,0-98-148-102-154c-2.2-3.3-61.9-72.8-116.1-135.9L2276,1690l8-222l-10-126
	l40-212L2338.6,1098.5z M1808,1720l5.9,18.4l-10.2,13.8l-7.7-28.2l-26-114l16-198l18-130l-14-144l-78-138l-28-20.9l18-7.1l126-22
	l22,118l-18,118l16,278l24,198L1808,1720z M2280,982l-58,126l-10,140l32,200l4,152l-30,126l-12.2,43.8c-5.3-6.2-10.4-12.1-15.1-17.6
	l0.4-1.2l-47-67l-78-274l-6-222l24-180l68-60l150,8L2280,982z"/>
</svg>
