<?xml version="1.0" encoding="utf-8"?>
<!-- Generator: Adobe Illustrator 19.0.0, SVG Export Plug-In . SVG Version: 6.00 Build 0)  -->
<svg version="1.1" id="Layer_1" xmlns="http://www.w3.org/2000/svg" xmlns:xlink="http://www.w3.org/1999/xlink" x="0px" y="0px"
	 viewBox="0 0 4096 3112" style="enable-background:new 0 0 4096 3112;" xml:space="preserve">
<path id="LargeIntestinesOverlay" d="M1508,868l84,44l54,18l65.9,41.2l58.1,4.8l61.4,25.6L1887,991l67,29l63-12l51,6l19,9l22-19
	l49-18l60-1l49,6l18-37l68-22l47-14l26,1.1l23-27.1l57-24h31l52-18l64-8l74,30l50,62l21,66l-20,88l-17,32l-3,60l-56.3,82.1
	l-3.7,67.9l-36.9,99.8l18.9,76.2l-25,79l33,80l-10.4,110.4l22.4,81.6l-23,106l6,70l-34,96l-42.6,36.5L2565,2235l-61,39h-122l-51,23
	l-105-8l-55-36l-23,3l-56-15l-4,58l-47,60l-8,31l9,84l-23,44l-40,71l-7,63l-29,8l-35.4-6.6l-4.6-56.4l-28-44l-25-58l-9-61l18-43v-37
	l-16-43l-17-99l24-81l39-56l46-31l59-20l84,11l23,23l74-12l56,11l48,22l29-31l53-29l23-51l33-42l21.7-14l-9.7-66l8-60l28-48l-35-71
	v-53l15-34l-33-64l7-73l7-35.6l-20-61.4l17-61c0,0,27-42,30-43s-2-36-2-36l-68,15l-23.9-6.8L2320,1240l-92,34l-73.9-4.7L2095,1299
	l-103,4l-49.5-20.6L1894,1299l-92-3l-31-23.1l-51,5.1l-78-19l-31-37l-19-2l-9,28l-23,43.3c0,0,7,34.7,7,37.7s-1,55-1,55l-16.8,40.1
	l13.8,33.9l14,44l-14,53l-13.8,13.3l27.8,33.7l4,39l-8,44l23,23l11,27l5.8,64l29.2,30l6,61l-8,41l-11.3,24.2l-2.7,40.8l23,26l29,32
	l15,39l-3,61l-21,39l-23.8-5l-3.2-21l11-30l-1-45l-20-39l-46-15l-32.5,13.6l-34.5,7.4l-66-13l-51-26l-31-46l-10-41l-38-40l-16-53
	l6-71l2-27c0,0-9-26-9-30s-2-66-2-66s7-36,9-40s15-30,15-30l-24-59l6-50l26.6-47.7L1315,1343l18-40l15-31l-39-70l4-43l11-36l-16-91
	l12-54l32-44l35-14l18.2-2.2L1426,899l37-19l28-9L1508,868z"/>
</svg>
