<?xml version="1.0" encoding="utf-8"?>
<!-- Generator: Adobe Illustrator 19.0.0, SVG Export Plug-In . SVG Version: 6.00 Build 0)  -->
<svg version="1.1" id="Layer_1" xmlns="http://www.w3.org/2000/svg" xmlns:xlink="http://www.w3.org/1999/xlink" x="0px" y="0px"
	 viewBox="0 0 4096 3112" style="enable-background:new 0 0 4096 3112;" xml:space="preserve">
<path id="LiverOverlay" d="M1458,740l164-16l152,4l130,6l148,22l44,8l92-2l72-16l52,20l12,20l58-28l76-16l58,6l188,64l130,64l156,64
	c0,0,178,108,180,114s138,104,138,104l52,74l-3.7,61.4l-2.3,30.6l-104,30l-176-12l-120,22l-118,44l-116,60l-126,130l-108,128
	l-102,90l-142,28l-134-2l-55.3-12.3L1968,1954l-28,88l20,66l16,104l-36,92l-20,56l56,134l60.1,127.9L1972,2662l-31.1-14.9L1910,2574
	l-50-116l-20-116l-12-134l12-100l-36-98l-84,6l-136-48l-162-54l-122,4l-120,80l-104,142l-96,80l-54-42c0,0-62-154-64-186
	s-44-220-44-226s-8-176-8-176l12-210l16-114l38-146c0,0,52-94,58-100s108-108,108-108l116-80"/>
</svg>
