<?xml version="1.0" encoding="utf-8"?>
<!-- Generator: Adobe Illustrator 19.0.0, SVG Export Plug-In . SVG Version: 6.00 Build 0)  -->
<svg version="1.1" id="Layer_1" xmlns="http://www.w3.org/2000/svg" xmlns:xlink="http://www.w3.org/1999/xlink" x="0px" y="0px"
	 viewBox="0 0 4096 3112" style="enable-background:new 0 0 4096 3112;" xml:space="preserve">
<path id="LungsOverlay" d="M3026,2066l-8,296l-18,202l-60,68l-134-14l-180-40l-162-8l-118-34l-132-98l-66-130l14-144l24-130l-10-96
	l-72-156l-16-180l6.1-30.1c-22.7-11.1-40.1-19.9-40.1-19.9l-112,10.1l18.1,110c0,0-22.5,160.5-18,162s-16.5,153-16.5,153l6,157.5
	l16.5,198l-42,141l-124.5,36l-193.5,37.5l-186,52.5l-157.5-9l-118.5-85.5l-51-168l-3-147c0,0,9-124.5,9-133.5c0-9,10.5-144,10.5-144
	l22.5-130.5l28.5-135l52.5-135l39-109.5l63-108l78-127.5l82.5-106.5l94.5-90l82.5-49.5l64.5-13.5l106.5,30l69,85.5l22.5,114
	l16.5,127.5l-2.7,79.3l37.1-33.9l28-128l6-226l2-220l-15-41.6l-7-58.4l-16-76l6-88l80,22l94-18l34,6l12,52l-34,70v56l-8.5,35.7
	L2104,748l2,174l-2,256l14,182l21.5,34l31.4-87.4L2212,1148l80-142l108-70l98-2l88,66l126,148l132,226l78,206l66,188L3026,2066z"/>
</svg>
