<?xml version="1.0" encoding="utf-8"?>
<!-- Generator: Adobe Illustrator 19.0.0, SVG Export Plug-In . SVG Version: 6.00 Build 0)  -->
<svg version="1.1" id="Layer_1" xmlns="http://www.w3.org/2000/svg" xmlns:xlink="http://www.w3.org/1999/xlink" x="0px" y="0px"
	 viewBox="0 0 4096 3112" style="enable-background:new 0 0 4096 3112;" xml:space="preserve">
<path id="PancreasOverlay" d="M1396,1038l150-56l102-10l170-50h176l260,8l172,62l158-14l168,18l166,12l198,2l158-16l152-40l100-34
	l50,16l-31.4,92.7L3512,1148l-76,108l-162,144l-210,108l-182,54l-194,36l-156,30l-162,18l-106,22l-156,40l-140,24l-162,44l-112,28
	l-150,52l-78,64l-38,74c0,0,66,44,68,50s32,94,32,94l92,38l10,108l-44,136l-214,66l-250,42l-156,22l-160-42l-144-90l-160-114
	l-68-126l-26-148l-12-210c0,0,18-146,20-152s72-108,72-108l42-148l76-80l116-78l80-52l142-14l150-62l90-36L1396,1038z"/>
</svg>
