<?xml version="1.0" encoding="utf-8"?>
<!-- Generator: Adobe Illustrator 19.0.0, SVG Export Plug-In . SVG Version: 6.00 Build 0)  -->
<svg version="1.1" id="Layer_1" xmlns="http://www.w3.org/2000/svg" xmlns:xlink="http://www.w3.org/1999/xlink" x="0px" y="0px"
	 viewBox="0 0 4096 3112" style="enable-background:new 0 0 4096 3112;" xml:space="preserve">
<path id="SmallIntestinesOverlay" d="M1398.8,663.7l186-3l100.1,12.6l-67.1,86.4l-15,111l36,114l58.8,83.4l99.3-42.5l105.9-61.8
	l134.8,13l153.2-16l84,48l15.9,48.6l77.1-48.6l141-78l138,24l57,69l-9,138l-31.4,55l13.4,92.1l42,72l-12,111l-88.3,57l52.3,75
	l29.2,135.6l36.8,41.4l42,120l-30,135l-73.2,78.1l-61.8,116.9l-78,39l-114.3-21.3l-35.7,54.3l-69,90l-108,15l-128.6-45.1l-81.5,87.1
	l-129,42l-117-27l-107.4-102.3l-93.7,24.3l-66.2-9.1l-38.8,48.1l-72,15l-99-24l-39-57l34.8-63.5l37.2-107.5l3-99l54.1-109.2
	l-66.1-64.8l6-114l37.8-71.2l-88.8-81.9c0,0-51.6-71.4-57.3-85.2s-2.7-103.8,0.3-112.8c3-9,66-117,66-117l45-33l-84-69l-33-93
	l12-108l90-72l96-6l-30-78l9-123L1398.8,663.7z"/>
</svg>
