<?xml version="1.0" encoding="utf-8"?>
<!-- Generator: Adobe Illustrator 19.0.0, SVG Export Plug-In . SVG Version: 6.00 Build 0)  -->
<svg version="1.1" id="Layer_1" xmlns="http://www.w3.org/2000/svg" xmlns:xlink="http://www.w3.org/1999/xlink" x="0px" y="0px"
	 viewBox="0 0 4096 3112" style="enable-background:new 0 0 4096 3112;" xml:space="preserve">
<path id="StomachOverlay" d="M1671.8,498.7L1728,436l56,6l46,50l12,80l30,112l56,144l102,160l124,154.1l76,15.9l82-58l148-52l120,6
	l130,36l112,84l78,116l38,90l8,172l-48,156l-64,182l-92,166l-98,132l-130,162l-192,124l-246,68l-220-12l-170-70c0,0-140-104-142-110
	s-106-168-106-168l-77.6-46l-8.9-74.7l-77.3-16.8l-46.8-31.9L1138,2044l-28,96l-12,114l60,86l84,54l108,58l70,8l24,72l-52.3,122.7
	L1274,2626l-102-40l-118-72l-84-126l-50-164l16-154l46-110l108-126l98-44l51.3,0.3l78.7-18.3l80,12l51,16.7l47-30.7l108-2l116,30
	l54,20l188-22l86-12l66-100l20-124l20-132l-44-112l-174-166l-110-160c0,0-94-188-92-194s-44-160-44-160L1671.8,498.7z"/>
</svg>
