<?xml version="1.0" encoding="utf-8"?>
<!-- Generator: Adobe Illustrator 19.0.0, SVG Export Plug-In . SVG Version: 6.00 Build 0)  -->
<svg version="1.1" id="Layer_1" xmlns="http://www.w3.org/2000/svg" xmlns:xlink="http://www.w3.org/1999/xlink" x="0px" y="0px"
	 viewBox="0 0 4096 3112" enable-background="new 0 0 4096 3112" xml:space="preserve">
<pattern  y="3112" width="89" height="89" patternUnits="userSpaceOnUse" id="New_Pattern_Swatch_1" viewBox="0 -89 89 89" overflow="visible">
	<g>
		<polygon fill="none" points="0,0 89,0 89,-89 0,-89 		"/>
		<polygon fill="#38291E" points="89,0 0,0 0,-89 89,-89 		"/>
	</g>
</pattern>
<pattern  y="3112" width="89" height="89" patternUnits="userSpaceOnUse" id="New_Pattern_Swatch_3" viewBox="0 -89 89 89" overflow="visible">
	<g>
		<polygon fill="none" points="0,0 89,0 89,-89 0,-89 		"/>
		<polygon fill="#725D54" points="89,0 0,0 0,-89 89,-89 		"/>
	</g>
</pattern>
<pattern  y="3112" width="89" height="89" patternUnits="userSpaceOnUse" id="New_Pattern_Swatch_4" viewBox="0 -89 89 89" overflow="visible">
	<g>
		<polygon fill="none" points="0,0 89,0 89,-89 0,-89 		"/>
		<polygon fill="#6D503D" points="89,0 0,0 0,-89 89,-89 		"/>
	</g>
</pattern>
<pattern  y="3112" width="89" height="89" patternUnits="userSpaceOnUse" id="New_Pattern_Swatch_5" viewBox="0 -89 89 89" overflow="visible">
	<g>
		<polygon fill="none" points="0,-89 89,-89 89,0 0,0 		"/>
		<polygon fill="#AA8368" points="89,0 0,0 0,-89 89,-89 		"/>
	</g>
</pattern>
<pattern  y="3112" width="89" height="89" patternUnits="userSpaceOnUse" id="New_Pattern_Swatch_6" viewBox="0 -89 89 89" overflow="visible">
	<g>
		<polygon fill="none" points="0,0 89,0 89,-89 0,-89 		"/>
		<polygon fill="#E0B496" points="89,0 0,0 0,-89 89,-89 		"/>
	</g>
</pattern>
<g id="Man_Body">
	<g>
		<defs>
			<path id="SVGID_1_" d="M2461.37,1579.55c0,0-13.99-22.09-25.03-24.3c0,0,12.52,60.03,7.73,143.98c0,0-5.9,17.3-23.57,3.68
				c0,0,7.37,30.19-7.73,28.72c-15.09-1.47-16.57-1.1-17.67-11.05c0,0-12.88,20.25-22.82-4.05c0,0-9.58-82.48-22.47-97.21
				c0,0,8.84,60.39,3.69,80.64c0,0-7,22.83-20.26-8.1c0,0-7.36-67.75-15.47-91.32c-8.1-23.56-11.41-45.29-5.15-67.75
				c6.25-22.46-11.79-79.9-11.79-79.9s-19.33-60.39-44.19-88.56c-24.86-28.17-42.53-127.04-42.53-127.04s-8.29-45.29-6.08-64.62
				c2.21-19.33-25.22-94.45-25.22-94.45s-21.18,30.38-33.33,91.14s7.73,107.52,2.57,180.8c0,0,58.18,189.27,53.76,354.97
				c0,0-0.43,51.37-12.54,106.85c-7.21,33.05-9.18,67.07-5.55,100.69c1.58,14.66,2.22,30.63,0.41,45.07c0,0,3.19,24.11,3.48,47.31
				c0.15,11.59,2.02,23.08,5.54,34.12c9.91,31.1,24.68,105.81-15.64,205.79c0,0-25.77,89.1-26.51,159.8c0,0,5.52,34.99-1.47,67.76
				c0,0,4.42,37.56,27.24,65.18c22.83,27.62,14.36,63.7,14.36,63.7s-5.89,9.94-11.05,3.31c0,0,1.84,21.36-17.3,11.42
				c0,0,2.94,18.78-18.42,7.36c0,0-7.37,19.52-22.83-1.47c0,0-14.73,30.93-37.56,0.74c-22.82-30.2-13.99-62.6-13.99-62.6
				s5.52-20.62-2.95-39.4c-8.47-18.78-0.36-42.71-0.36-42.71s-18.42-22.83-4.42-54.51c13.99-31.66,39.39-95.37,4.78-173.44
				c-34.61-78.06,0.74-178.96,0.74-178.96s2.57-51.73-12.34-73.27c-7.15-10.32-10.11-25.84-11.25-39.21
				c-1.67-19.44-5.12-38.67-10.34-57.46c-5.35-19.25-10.51-43.8-8.79-62.4c3.31-35.71-32.78-123.72-32.78-123.72
				s-20.25-92.79-12.52-122.07l-12.06-0.19h-0.22l-12.27,0.19c7.73,29.27-12.52,122.07-12.52,122.07s-36.09,88.01-32.78,123.72
				c1.73,18.6-3.44,43.15-8.79,62.4c-5.22,18.8-8.67,38.03-10.34,57.46c-1.15,13.37-4.11,28.89-11.25,39.21
				c-14.91,21.54-12.34,73.27-12.34,73.27s35.35,100.9,0.74,178.96c-34.61,78.07-9.2,141.78,4.78,173.44
				c14,31.67-4.42,54.51-4.42,54.51s8.11,23.93-0.36,42.71c-8.47,18.78-2.95,39.4-2.95,39.4s8.84,32.4-13.99,62.6
				c-22.83,30.19-37.56-0.74-37.56-0.74c-15.47,20.99-22.83,1.47-22.83,1.47c-21.35,11.42-18.42-7.36-18.42-7.36
				c-19.14,9.94-17.3-11.42-17.3-11.42c-5.16,6.63-11.05-3.31-11.05-3.31s-8.47-36.08,14.36-63.7
				c22.82-27.62,27.24-65.18,27.24-65.18c-6.99-32.78-1.47-67.76-1.47-67.76c-0.74-70.7-26.51-159.8-26.51-159.8
				c-40.32-99.98-25.55-174.68-15.64-205.79c3.52-11.04,5.39-22.53,5.54-34.12c0.29-23.2,3.48-47.31,3.48-47.31
				c-1.81-14.44-1.17-30.41,0.41-45.07c3.63-33.63,1.66-67.65-5.55-100.69c-12.1-55.48-12.54-106.85-12.54-106.85
				c-4.42-165.7,53.77-354.97,53.77-354.97c-5.16-73.28,14.73-120.05,2.57-180.8s-33.33-91.14-33.33-91.14s-27.43,75.12-25.22,94.45
				s-6.08,64.62-6.08,64.62s-17.67,98.87-42.53,127.04c-24.86,28.17-44.19,88.56-44.19,88.56s-18.04,57.44-11.79,79.9
				c6.26,22.46,2.95,44.19-5.15,67.75c-8.11,23.57-15.47,91.32-15.47,91.32c-13.26,30.93-20.26,8.1-20.26,8.1
				c-5.15-20.25,3.69-80.64,3.69-80.64c-12.89,14.74-22.47,97.21-22.47,97.21c-9.94,24.3-22.82,4.05-22.82,4.05
				c-1.1,9.94-2.58,9.58-17.67,11.05c-15.1,1.47-7.73-28.72-7.73-28.72c-17.67,13.62-23.57-3.68-23.57-3.68
				c-4.78-83.96,7.73-143.98,7.73-143.98c-11.05,2.21-25.03,24.3-25.03,24.3c-34.99,11.42-27.99-11.41-20.62-18.78
				c7.37-7.36,10.31-27.24,18.42-30.19c8.1-2.95,26.51-16.93,26.51-16.93c9.57-21.36,49.34-40.51,49.34-40.51
				c14.74-48.61,25.78-146.56,25.78-146.56c-0.74-109.73,39.77-201.78,39.77-201.78c4.42-111.95,30.19-155.4,30.19-155.4
				c-14.73-161.28,47.87-196.63,142.14-216.52C1887.42,732.99,1897,702.8,1897,702.8c-2.82-19.38-3.11-36.9-2.65-49.91
				c0.41-11.58-1.63-23.04-5.39-33.99c-3.79-11.05-2.28-24.36-2.28-24.36c-18.4,13.26-26.51-18.42-26.51-18.42
				c-12.29-30.41-11.93-49.71-6.55-58c5.96-9.19,20.15-6.59,27.52,1.52l1.13,1.24l11.76-100.53l72.45-12.06l0.06-0.04l86.85,64.03
				l9.25,32.86l3.31,15.47c7.11-7.83,15.76-8.44,21.94,0.14c5.8,8.06,7.64,24-5.04,55.37c0,0-8.11,31.67-26.51,18.42
				c0,0,1.52,13.31-2.28,24.36c-3.76,10.96-5.81,22.42-5.39,33.99c0.46,13.01,0.17,30.53-2.65,49.91c0,0,9.58,30.19,103.84,50.08
				c94.27,19.88,156.87,55.23,142.14,216.52c0,0,25.77,43.45,30.19,155.4c0,0,40.51,92.05,39.77,201.78
				c0,0,11.05,97.95,25.78,146.56c0,0,39.77,19.14,49.34,40.51c0,0,18.42,13.99,26.51,16.93c8.11,2.95,11.05,22.83,18.42,30.19
				C2489.36,1568.14,2496.35,1590.97,2461.37,1579.55z"/>
		</defs>
		<use xlink:href="#SVGID_1_"  overflow="visible" fill="url(#New_Pattern_Swatch_6)"/>
		<clipPath id="SVGID_2_">
			<use xlink:href="#SVGID_1_"  overflow="visible"/>
		</clipPath>
		<g opacity="0.63" clip-path="url(#SVGID_2_)">
			<path fill="url(#New_Pattern_Swatch_5)" d="M1748.58,980.35c7.89,13.8,18.43,26.28,31.69,35.04
				c23.9,15.8,54.73,18.17,82.82,12.53c28.09-5.63,54.12-18.53,79.65-31.53c-24.09,6.09-48.35,12.21-73.15,13.78
				c-24.8,1.57-50.45-1.67-72.37-13.37c-29.86-15.94-50.46-47.29-55.08-80.82c-4.76-34.52,8.42-59.91,22.94-89.62
				C1727.58,866.18,1721.8,933.5,1748.58,980.35z"/>
			<path fill="url(#New_Pattern_Swatch_5)" d="M2182.99,980.35c-7.89,13.8-18.43,26.28-31.69,35.04
				c-23.9,15.8-54.73,18.17-82.82,12.53c-28.09-5.63-54.12-18.53-79.65-31.53c24.09,6.09,48.35,12.21,73.15,13.78
				c24.8,1.57,50.45-1.67,72.37-13.37c29.86-15.94,50.46-47.29,55.08-80.82c4.76-34.52-8.42-59.91-22.94-89.62
				C2203.99,866.18,2209.77,933.5,2182.99,980.35z"/>
			<path fill="url(#New_Pattern_Swatch_5)" d="M2148.2,1120.91c-2.6-13.98-1.38-28.34-0.46-42.53s1.49-28.69-2.35-42.38
				c-11.97,9.01-27.72,12.83-42.49,10.3c-14.77-2.53-28.35-11.38-36.63-23.87c30.25,4.54,59.98-8.9,87.61-22.01
				c10.64-5.05,22.42-11.4,25.49-22.77c-6.05,22.57,2.1,48.32,20.04,63.3c-4.57-2.61-9.14-5.22-13.71-7.84
				c-8.1,14.32-4.61,32.01-3.55,48.42c1.3,20.16-1.53,40.56-8.2,59.62c-3.33,9.53-7.1,15.03-14.82,5.22
				C2153.37,1139.07,2149.89,1130,2148.2,1120.91z"/>
			<path fill="url(#New_Pattern_Swatch_5)" d="M1789.38,1120.91c2.6-13.98,1.38-28.34,0.46-42.53s-1.49-28.69,2.35-42.38
				c11.97,9.01,27.72,12.83,42.49,10.3c14.77-2.53,28.35-11.38,36.63-23.87c-30.25,4.54-59.98-8.9-87.61-22.01
				c-10.64-5.05-22.42-11.4-25.49-22.77c6.05,22.57-2.1,48.32-20.04,63.3c4.57-2.61,9.14-5.22,13.71-7.84
				c8.1,14.32,4.61,32.01,3.55,48.42c-1.3,20.16,1.53,40.56,8.2,59.62c3.33,9.53,7.1,15.03,14.82,5.22
				C1784.21,1139.07,1787.69,1130,1789.38,1120.91z"/>
			<path fill="url(#New_Pattern_Swatch_5)" d="M2201.75,1485.86c-0.56,3.95-1.64,8.57-5.32,10.09c-3.23,1.33-6.86-0.45-9.67-2.53
				c-23.95-17.69-27.13-57.65-54.9-68.39c-11.3-4.36-24.34-2.38-35.17,3.05c-10.84,5.44-19.77,14-27.87,23.01
				c-27.61,30.72-43.31,68.63-53.05,108.78c1.91-12.91-1.36-25.64-1.63-38.72c-0.17-7.45-4.8-22.61-4.8-22.61s3.45-30.84,9.43-45.3
				c19.86-48.1,61.1-84.71,82.23-132.26c12.54-28.2,17.51-59.32,18.08-90.19c0.01-0.48,0.02-0.96,0.02-1.44
				c0.39-28.28-12.66-55.11-35.13-72.28c-35.26-26.95-78.96-53.8-113.08-53.8c-36.72,0-81.21,27.23-117.12,55.06
				c-22.22,17.23-35.19,43.88-34.72,71.99c0,0.16,0.01,0.31,0.01,0.47c0.57,30.86,5.55,61.98,18.08,90.19
				c21.13,47.56,62.37,84.17,82.23,132.26c5.97,14.46,13.38,46.28,13.38,46.28s-5.09,15.48-5.25,22.92
				c-0.28,13.08-5.14,24.65-3.22,37.56c-9.73-40.14-27.36-78.18-54.97-108.91c-8.1-9.01-17.03-17.58-27.87-23.01
				c-10.84-5.42-23.87-7.41-35.17-3.05c-27.77,10.74-30.96,50.71-54.91,68.39c-2.79,2.08-6.43,3.86-9.65,2.53
				c-3.69-1.51-4.77-6.13-5.32-10.09c-11.59-82.64-12.96-169.43,18.51-246.71c2.55-6.27,5.52-12.74,10.94-16.81
				c5.06-3.82,12.65,4.22,17.19-0.21c1.8-1.76,3.59-3.63,5.38-5.59c5.79-11.64,85.25-167.78,179.53-167.78
				c97.95,0,178.51,162.66,178.51,162.66s-1.98-2-5.58-5.46c4.62,5.94,9.42,11.43,14.25,16.16c4.53,4.43,12.13-3.61,17.19,0.21
				c5.41,4.08,8.38,10.54,10.94,16.81C2214.71,1316.43,2213.34,1403.22,2201.75,1485.86z"/>
			<path fill="url(#New_Pattern_Swatch_5)" d="M1658.67,946.41c1.75,7.15,4.09,14.93,10.27,18.93c11.8,7.63,27.08-4.22,32.94-16.99
				c5.86-12.77,8.39-28.17,19.52-36.74c6.75,21.76-4.37,45.2-19,62.67c-14.62,17.47-33.05,31.86-45.14,51.17
				c-13.04,20.83-17.71,45.92-18.39,70.49c-0.55,20.19,1.74,41.4,12.95,58.21c11.21,16.81,33.39,27.6,52.27,20.39
				c-19.65,13.97-47.78,11.18-68.13-1.76c-20.34-12.94-34-34.18-43.95-56.14c-21.05-46.43-26.79-99.06-18.73-149.24
				c7.25-45.12,28.11-108.29,66.28-136.87c9.29,10.67,5.98,40.73,7.87,55.45C1650.07,906.31,1653.81,926.49,1658.67,946.41z"/>
			<path fill="url(#New_Pattern_Swatch_5)" d="M2277.49,946.41c-1.75,7.15-4.09,14.93-10.27,18.93
				c-11.8,7.63-27.08-4.22-32.94-16.99c-5.86-12.77-8.39-28.17-19.52-36.74c-6.75,21.76,4.37,45.2,19,62.67s33.05,31.86,45.14,51.17
				c13.04,20.83,17.71,45.92,18.39,70.49c0.55,20.19-1.74,41.4-12.95,58.21c-11.21,16.81-33.39,27.6-52.27,20.39
				c19.65,13.97,47.78,11.18,68.13-1.76c20.34-12.94,34-34.18,43.95-56.14c21.05-46.43,26.79-99.06,18.73-149.24
				c-7.25-45.12-28.11-108.29-66.28-136.87c-9.29,10.67-5.98,40.73-7.87,55.45C2286.09,906.31,2282.35,926.49,2277.49,946.41z"/>
			<path fill="url(#New_Pattern_Swatch_5)" d="M1557.39,1177.23c-2.47,51.63,1.95,103.59,13.1,154.06
				c2.24,10.14,4.85,20.44,10.49,29.17s14.91,15.73,25.3,16.07c18.6,0.6,30.93-18.49,39.32-35.1c14.2-28.11,28.4-56.21,42.6-84.32
				c2.94-5.82,6-11.79,10.93-16.05s12.26-6.43,18.1-3.55c9.21,4.54,9.35,17.45,7.8,27.6c-14.9,97.42-61.66,191.56-51.77,289.62
				c0.67,6.64-1.5,16.39-8.03,15.03c-4.32-0.9-5.6-6.26-6.86-10.49c-5.47-18.34-25.79-29.13-44.93-29.11
				c-19.14,0.02-37.18,8.6-53.75,18.17c-10.62,6.13-24.02,12.79-34.27,6.06c9.69-6.76,19.58-13.71,26.49-23.29
				c6.92-9.58,10.43-22.47,6-33.43c-3.84-9.5-12.71-15.83-19.33-23.65c-10.91-12.89-15.69-30.05-16.73-46.91
				c-1.04-16.86,1.35-33.71,3.21-50.5c4.76-43.04,6.05-86.46,3.86-129.71c-0.75-14.76-1.89-29.72,1.17-44.17
				c3.06-14.46,11.03-28.65,24.17-35.41"/>
			<path fill="url(#New_Pattern_Swatch_5)" d="M2385.19,1182.02c2.47,51.63-1.95,103.59-13.1,154.06
				c-2.24,10.14-4.85,20.44-10.49,29.17s-14.91,15.73-25.3,16.07c-18.6,0.6-30.93-18.49-39.32-35.1
				c-14.2-28.11-28.4-56.21-42.6-84.32c-2.94-5.82-6-11.79-10.93-16.05s-12.26-6.43-18.1-3.55c-9.21,4.54-9.35,17.45-7.8,27.6
				c14.9,97.42,61.66,191.56,51.77,289.62c-0.67,6.64,1.5,16.39,8.03,15.03c4.32-0.9,5.6-6.26,6.86-10.49
				c5.47-18.34,25.79-29.13,44.93-29.11c19.14,0.02,37.18,8.6,53.75,18.17c10.62,6.13,24.02,12.79,34.27,6.06
				c-9.69-6.76-19.58-13.71-26.49-23.29c-6.92-9.58-10.43-22.47-6-33.43c3.84-9.5,12.71-15.83,19.33-23.65
				c10.91-12.89,15.69-30.05,16.73-46.91s-1.35-33.71-3.21-50.5c-4.76-43.04-6.05-86.46-3.86-129.71
				c0.75-14.76,1.89-29.72-1.17-44.17s-11.03-28.65-24.17-35.41"/>
			<path fill="url(#New_Pattern_Swatch_5)" d="M1952.83,517.04c4.21,4.33,5.75,10.56,6.67,16.52c1.53,9.95,1.78,20.04,2.04,30.1
				c0.1,4.05,0.2,8.11-0.24,12.13c-0.2,1.86-0.56,3.79-1.73,5.25c-1.51,1.9-4.03,2.59-6.33,3.4c-2.29,0.8-4.75,2.07-5.48,4.39
				c5.42-7.94,6.37-18.01,7.15-27.59c0.66-8.11,1.32-16.27,0.64-24.38c-0.5-6.06-1.96-12.44-6.33-16.67
				c-1.55-1.5-14.5-8.25-12.93-10.05c1.1-1.27,7.1,1.33,8.49,1.87C1947.76,513.16,1950.59,514.74,1952.83,517.04z"/>
			<path fill="url(#New_Pattern_Swatch_5)" d="M1913.21,686.01c1.37,10.29,1.8,22.6,10.63,28.07c4.84,3,11.01,2.91,16.56,1.61
				c5.54-1.3,10.78-3.68,16.31-5.03c9.94-2.42,20.7-1.32,29.94,3.07c7.85,3.73,15.71,9.92,24.19,8.04
				c7.94-1.76,12.58-9.87,15.74-17.36c8.56-20.27,13.19-38.83,14.34-60.8c-7.21,7.06-13.64,12.41-20.85,19.47
				c-7.08,6.93-14.71,12.47-23.58,16.87c-16.36,8.13-34.22,3.21-50.99-4.03c-16.75-7.23-28.35-21.74-43.5-30.93
				c1.52,5.82,4.01,16.01,6.29,21.9C1910.68,673.04,1912.34,679.47,1913.21,686.01z"/>
			<path fill="url(#New_Pattern_Swatch_5)" d="M1909.03,782.77c-22.43-0.54-44.85-1.07-67.28-1.61c5.89-0.43,11.17-0.9,15.82-3.97
				c4.64-3.07,8.39-7.3,11.91-11.61c5.38-6.59,10.35-13.5,14.9-20.69c2.48-3.92,7.4-16.03,11.95-7.15
				c2.85,5.57,1.29,16.55,3.03,23.04C1900.16,763.72,1905.61,782.69,1909.03,782.77z"/>
			<path fill="url(#New_Pattern_Swatch_5)" d="M2031.48,782.77c22.43-0.54,44.85-1.07,67.28-1.61c-5.89-0.43-11.17-0.9-15.82-3.97
				c-4.64-3.07-8.39-7.3-11.91-11.61c-5.38-6.59-10.35-13.5-14.9-20.69c-2.48-3.92-7.4-16.03-11.95-7.15
				c-2.85,5.57-1.29,16.55-3.03,23.04C2040.36,763.72,2034.91,782.69,2031.48,782.77z"/>
			<path fill="url(#New_Pattern_Swatch_5)" d="M1859.09,1873.58c-5.4-32.44,3.68-65.35,12.67-96.99
				c18.92-66.59,37.84-133.18,56.76-199.77c2.72,8.37,12.75,11.73,21.52,12.51s18.32,0.4,25.43,5.59
				c11.67,8.51,9.97,26.07,7.35,40.28c-13.75,74.42-19.16,150.38-16.22,226c0.75,19.24,2.04,38.45,3.87,57.62
				c1.36,14.24,8.65,36.18,3.05,49.8c-13.08,31.83-45.92,6.23-61.12-7.71C1886.86,1937.47,1864.91,1908.56,1859.09,1873.58z"/>
			<path fill="url(#New_Pattern_Swatch_5)" d="M1886.13,2333.49c3.98,7.4,8.88,15.19,16.8,17.98c16.18,5.7,30.34-12.32,37.09-28.09
				c35.07-81.91,35.83-179.31,0.68-261.38c-18.67-43.58-50.67-36.91-69.03,4.51c-17.38,39.2-23.31,85.69-22.01,128.2
				C1851.14,2242.93,1863.27,2290.93,1886.13,2333.49z"/>
			<path fill="url(#New_Pattern_Swatch_5)" d="M2080.07,1873.58c5.4-32.44-3.68-65.35-12.67-96.99
				c-18.92-66.59-37.84-133.18-56.76-199.77c-2.72,8.37-12.75,11.73-21.52,12.51s-18.32,0.4-25.43,5.59
				c-11.67,8.51-9.97,26.07-7.35,40.28c13.75,74.42,19.16,150.38,16.22,226c-0.75,19.24-2.04,38.45-3.87,57.62
				c-1.36,14.24-8.65,36.18-3.05,49.8c13.08,31.83,45.92,6.23,61.12-7.71C2052.31,1937.47,2074.25,1908.56,2080.07,1873.58z"/>
			<path fill="url(#New_Pattern_Swatch_5)" d="M2076.23,2318.02c-3.98,7.4-8.88,15.19-16.8,17.98
				c-16.18,5.7-30.34-12.32-37.09-28.09c-35.07-81.91-35.83-179.31-0.68-261.38c18.67-43.58,50.67-36.91,69.03,4.51
				c17.38,39.2,23.31,85.69,22.01,128.2C2111.22,2227.46,2099.09,2275.47,2076.23,2318.02z"/>
			<path fill="url(#New_Pattern_Swatch_5)" d="M1979.81,1334.11c2.44-2.66,3.99-5.98,5.52-9.24c1.54,7.28-1.08,15.29-6.63,20.25
				c-7.61,6.79-11.1-2.52-13.43-8.54C1970.28,1339.53,1975.8,1338.42,1979.81,1334.11z"/>
			<path fill="url(#New_Pattern_Swatch_5)" d="M1972.74,1457.22c-0.85,19.83-1.58,39.53-2.43,59.35
				c-0.22,5.21-0.42,10.61,1.56,15.43c1.98,4.82,6.77,8.91,11.95,8.32c-8.76,0.61-18.3,4.39-19.53,13.45
				c-1.23,9.06,3.73,17.86,9.74,24.76c-6.96-4.17-13.78-8.58-20.43-13.24c-2.74-1.92-5.6-4.07-6.71-7.23
				c-1.45-4.14,0.56-8.59,2.07-12.71c5.36-14.63,4.62-30.74,2.69-46.2c-1.93-15.46-2.71-30.31-1.76-45.86
				C1958.83,1459.68,1963.14,1459,1972.74,1457.22z"/>
		</g>
		<g clip-path="url(#SVGID_2_)">
			<g>
				<path fill="url(#New_Pattern_Swatch_4)" d="M2087.07,532.49c-0.57,0.26-1.07,0.61-1.56,0.96c-0.48,0.36-0.92,0.74-1.32,1.16
					c-0.42,0.38-0.78,0.85-1.16,1.26c-0.33,0.48-0.71,0.87-1,1.36c-0.29,0.49-0.64,0.91-0.88,1.43c-0.25,0.51-0.55,0.96-0.78,1.48
					c-0.22,0.52-0.45,1.03-0.69,1.52l-0.59,1.58c-0.22,0.51-0.39,1.05-0.54,1.6l-0.51,1.61c-0.13,0.55-0.26,1.11-0.41,1.66
					c-0.13,0.56-0.31,1.09-0.41,1.66l-0.35,1.69c-0.11,0.57-0.26,1.12-0.34,1.69c-0.19,1.15-0.37,2.29-0.59,3.44l0.02-0.24
					c-0.03,0.51-0.07,0.93-0.12,1.39c-0.05,0.45-0.12,0.89-0.18,1.33c-0.13,0.88-0.29,1.77-0.5,2.64c-0.39,1.75-0.93,3.49-1.67,5.18
					c-0.18,0.42-0.39,0.84-0.61,1.25c-0.22,0.41-0.45,0.82-0.71,1.22c-0.27,0.4-0.53,0.79-0.84,1.16c-0.3,0.38-0.64,0.73-1,1.07
					c-0.36,0.34-0.77,0.63-1.19,0.89c-0.43,0.26-0.91,0.45-1.39,0.57c-0.49,0.12-0.97,0.17-1.44,0.12
					c-0.24-0.04-0.46-0.06-0.68-0.12c-0.22-0.07-0.43-0.15-0.63-0.22l0.64-0.14c0.2-0.05,0.4-0.14,0.59-0.2
					c0.37-0.18,0.7-0.36,0.99-0.6c0.29-0.24,0.52-0.53,0.74-0.82c0.22-0.3,0.4-0.61,0.57-0.94c0.17-0.33,0.32-0.67,0.44-1.03
					c0.14-0.35,0.25-0.72,0.35-1.09c0.1-0.38,0.2-0.75,0.28-1.13c0.08-0.38,0.15-0.77,0.22-1.16c0.28-1.55,0.43-3.16,0.57-4.76
					l0.15-2.42l0.04-1.21c0.02-0.39,0.03-0.82,0.03-1.16l0-0.07l0.02-0.17c0.14-1.26,0.33-2.51,0.5-3.76
					c0.07-0.63,0.26-1.25,0.39-1.87l0.43-1.86c0.15-0.62,0.39-1.23,0.58-1.84c0.2-0.61,0.4-1.22,0.63-1.83l0.79-1.79
					c0.26-0.59,0.55-1.18,0.89-1.74c0.33-0.57,0.66-1.14,1.01-1.69c0.39-0.54,0.78-1.07,1.18-1.6c0.4-0.52,0.89-1,1.33-1.48
					c0.43-0.5,0.99-0.9,1.49-1.33c0.49-0.44,1.1-0.77,1.64-1.14c0.58-0.32,1.17-0.64,1.79-0.87c0.62-0.24,1.26-0.41,1.89-0.54
					C2085.79,532.48,2086.44,532.4,2087.07,532.49z"/>
			</g>
			<g>
				<path fill="url(#New_Pattern_Swatch_4)" d="M2078.51,568.26c0,0,0.06,0.1,0.13,0.3c0.07,0.2,0.19,0.5,0.27,0.88
					c0.1,0.39,0.18,0.85,0.24,1.4c0.02,0.54,0.08,1.17,0.01,1.83c-0.03,0.34-0.06,0.69-0.11,1.05c-0.06,0.36-0.16,0.72-0.24,1.11
					c-0.18,0.76-0.49,1.54-0.85,2.33c-0.41,0.76-0.83,1.58-1.44,2.29c-0.3,0.35-0.56,0.76-0.91,1.08l-1.05,0.96
					c-0.35,0.33-0.75,0.59-1.15,0.84c-0.39,0.26-0.81,0.49-1.21,0.73c-0.4,0.23-0.84,0.37-1.26,0.54c-0.42,0.16-0.84,0.32-1.25,0.45
					c-0.84,0.19-1.67,0.31-2.44,0.41c-0.77,0.08-1.51-0.01-2.17-0.05c-0.67-0.05-1.26-0.12-1.79-0.3c-0.52-0.14-0.97-0.31-1.34-0.44
					c-0.73-0.27-1.12-0.49-1.12-0.49s0.4-0.26,1.08-0.61c0.34-0.17,0.74-0.39,1.19-0.58c0.46-0.18,0.94-0.46,1.46-0.73
					c0.51-0.28,1.08-0.49,1.63-0.81c0.54-0.33,1.1-0.64,1.68-0.93c0.53-0.38,1.09-0.71,1.63-1.06c0.26-0.2,0.5-0.41,0.78-0.59
					c0.27-0.18,0.54-0.37,0.76-0.6l0.75-0.62c0.24-0.21,0.46-0.45,0.7-0.68c0.49-0.43,0.89-0.94,1.35-1.4
					c0.4-0.5,0.85-0.97,1.22-1.47c0.39-0.49,0.76-0.97,1.09-1.44c0.37-0.46,0.64-0.91,0.95-1.31c0.26-0.41,0.55-0.77,0.74-1.08
					c0.2-0.31,0.39-0.55,0.5-0.73C2078.44,568.35,2078.51,568.26,2078.51,568.26z"/>
			</g>
			<g>
				<path fill="url(#New_Pattern_Swatch_4)" d="M1857.43,534.01c0.63-0.1,1.28-0.02,1.93,0.07c0.63,0.13,1.27,0.31,1.89,0.54
					c0.62,0.23,1.2,0.55,1.79,0.87c0.54,0.36,1.15,0.7,1.64,1.14c0.5,0.43,1.06,0.84,1.49,1.33c0.45,0.48,0.94,0.96,1.33,1.48
					c0.4,0.52,0.8,1.05,1.18,1.6c0.35,0.55,0.69,1.12,1.01,1.69c0.34,0.57,0.63,1.15,0.89,1.74l0.79,1.79
					c0.23,0.6,0.43,1.21,0.63,1.83c0.19,0.61,0.43,1.22,0.58,1.84l0.43,1.86c0.13,0.62,0.32,1.24,0.39,1.87
					c0.18,1.25,0.36,2.5,0.5,3.76l0.02,0.17l0,0.07c0,0.34,0.01,0.77,0.03,1.16l0.04,1.21l0.15,2.42c0.13,1.61,0.29,3.21,0.57,4.76
					c0.07,0.39,0.14,0.78,0.22,1.16c0.08,0.38,0.18,0.75,0.28,1.13c0.11,0.37,0.21,0.74,0.35,1.09c0.12,0.36,0.27,0.7,0.44,1.03
					c0.17,0.33,0.35,0.65,0.57,0.94c0.22,0.29,0.46,0.57,0.74,0.82c0.29,0.24,0.62,0.43,0.99,0.6c0.19,0.07,0.38,0.15,0.59,0.2
					l0.64,0.14c-0.2,0.08-0.41,0.16-0.63,0.22c-0.22,0.06-0.45,0.08-0.68,0.12c-0.47,0.05-0.96-0.01-1.44-0.12
					c-0.48-0.13-0.95-0.32-1.39-0.57c-0.42-0.26-0.84-0.56-1.19-0.89c-0.36-0.33-0.7-0.69-1-1.07c-0.31-0.38-0.57-0.77-0.84-1.16
					c-0.26-0.4-0.49-0.81-0.71-1.22c-0.22-0.41-0.43-0.83-0.61-1.25c-0.74-1.69-1.28-3.43-1.67-5.18c-0.21-0.87-0.37-1.75-0.5-2.64
					c-0.07-0.44-0.13-0.89-0.18-1.33c-0.05-0.46-0.09-0.88-0.12-1.39l0.02,0.24c-0.23-1.14-0.41-2.29-0.59-3.44
					c-0.09-0.58-0.23-1.13-0.34-1.69l-0.35-1.69c-0.09-0.57-0.27-1.1-0.41-1.66c-0.15-0.55-0.28-1.1-0.41-1.66l-0.51-1.61
					c-0.15-0.55-0.32-1.09-0.54-1.6l-0.59-1.58c-0.24-0.5-0.47-1-0.69-1.52c-0.23-0.51-0.53-0.97-0.78-1.48
					c-0.24-0.52-0.59-0.93-0.88-1.43c-0.29-0.49-0.67-0.89-1-1.36c-0.37-0.41-0.74-0.87-1.16-1.26c-0.4-0.42-0.85-0.8-1.32-1.16
					C1858.5,534.63,1858.01,534.27,1857.43,534.01z"/>
			</g>
			<g>
				<path fill="url(#New_Pattern_Swatch_4)" d="M1865.99,569.78c0,0,0.06,0.09,0.18,0.27c0.11,0.18,0.3,0.42,0.5,0.73
					c0.19,0.31,0.49,0.67,0.74,1.08c0.31,0.4,0.58,0.85,0.95,1.31c0.33,0.47,0.7,0.95,1.09,1.44c0.37,0.5,0.82,0.97,1.22,1.47
					c0.46,0.46,0.86,0.97,1.35,1.4c0.24,0.22,0.46,0.46,0.7,0.68l0.75,0.62c0.23,0.24,0.49,0.43,0.76,0.6
					c0.27,0.18,0.52,0.39,0.78,0.59c0.55,0.35,1.11,0.68,1.63,1.06c0.57,0.3,1.14,0.6,1.68,0.93c0.54,0.32,1.11,0.53,1.63,0.81
					c0.52,0.28,1,0.55,1.46,0.73c0.45,0.2,0.85,0.42,1.19,0.58c0.67,0.35,1.08,0.61,1.08,0.61s-0.4,0.22-1.12,0.49
					c-0.36,0.13-0.81,0.3-1.34,0.44c-0.52,0.18-1.12,0.25-1.79,0.3c-0.66,0.04-1.4,0.13-2.17,0.05c-0.77-0.1-1.59-0.21-2.44-0.41
					c-0.41-0.13-0.83-0.29-1.25-0.45c-0.42-0.17-0.86-0.31-1.26-0.54c-0.4-0.24-0.81-0.46-1.21-0.73c-0.4-0.25-0.8-0.51-1.15-0.84
					l-1.05-0.96c-0.35-0.32-0.61-0.72-0.91-1.08c-0.61-0.71-1.03-1.52-1.44-2.29c-0.36-0.79-0.67-1.57-0.85-2.33
					c-0.08-0.38-0.18-0.75-0.24-1.11c-0.05-0.36-0.09-0.71-0.11-1.05c-0.07-0.67-0.02-1.3,0.01-1.83c0.06-0.55,0.14-1.01,0.24-1.4
					c0.08-0.38,0.2-0.68,0.27-0.88C1865.93,569.88,1865.99,569.78,1865.99,569.78z"/>
			</g>
			<g>
				<path fill="url(#New_Pattern_Swatch_4)" d="M1901.48,645.17c0,0,0.51,0.39,1.47,1.11c0.97,0.7,2.4,1.74,4.22,3.05
					c3.64,2.6,8.9,6.23,15.36,10.3c3.23,2.02,6.78,4.13,10.57,6.27c3.8,2.13,7.88,4.2,12.15,6.21c4.27,2,8.8,3.77,13.44,5.33
					c4.65,1.55,9.48,2.7,14.33,3.26c1.23,0.16,2.39,0.32,3.53,0.32c1.15,0.02,2.3-0.03,3.44-0.17l0.86-0.12l0.86-0.15
					c0.61-0.12,1.28-0.22,1.84-0.36l1.75-0.39l1.76-0.46c4.69-1.28,9.25-2.86,13.5-4.81c1.08-0.46,2.1-1.01,3.14-1.5
					c1.04-0.49,2.05-1.03,3.04-1.56c0.99-0.54,2-1.03,2.94-1.6c0.95-0.57,1.89-1.13,2.81-1.68c1.85-1.11,3.55-2.34,5.27-3.44
					c1.64-1.2,3.26-2.33,4.77-3.47c1.48-1.19,2.9-2.33,4.24-3.41c1.31-1.14,2.55-2.22,3.71-3.24c1.2-0.99,2.18-2.05,3.17-2.96
					c0.98-0.93,1.87-1.78,2.68-2.55c1.52-1.63,2.77-2.87,3.61-3.74c0.84-0.86,1.29-1.32,1.29-1.32s-0.37,0.53-1.05,1.51
					c-0.69,0.98-1.68,2.45-3.01,4.28c-0.7,0.88-1.49,1.85-2.34,2.91c-0.86,1.06-1.76,2.23-2.85,3.37c-1.07,1.16-2.2,2.4-3.4,3.71
					c-1.28,1.23-2.62,2.53-4.02,3.88c-1.45,1.3-3,2.61-4.59,4c-0.82,0.66-1.68,1.29-2.55,1.96c-0.87,0.65-1.73,1.35-2.67,1.97
					c-3.66,2.6-7.72,5.09-12.12,7.29c-4.41,2.19-9.14,4.18-14.17,5.56l-1.89,0.52l-1.96,0.46c-0.67,0.17-1.26,0.26-1.89,0.39
					l-1.02,0.19l-1.04,0.16c-1.39,0.19-2.79,0.27-4.2,0.26c-1.42,0.01-2.81-0.16-4.12-0.32c-5.31-0.68-10.47-1.99-15.36-3.69
					c-4.91-1.67-9.51-3.81-13.87-6.02c-4.36-2.2-8.39-4.64-12.14-7.05c-3.75-2.39-7.16-4.85-10.25-7.19
					c-3.1-2.32-5.83-4.58-8.22-6.62c-2.4-2.03-4.4-3.89-6.04-5.43c-1.65-1.53-2.87-2.81-3.72-3.67
					C1901.92,645.63,1901.48,645.17,1901.48,645.17z"/>
			</g>
			<g>
				<path fill="url(#New_Pattern_Swatch_4)" d="M1911.98,684.39c0,0,0.65,1.69,1.71,4.65c0.52,1.48,1.19,3.27,1.89,5.34
					c0.71,2.07,1.55,4.39,2.37,6.94c0.87,2.54,1.8,5.3,2.76,8.22c0.96,2.92,1.97,6,3.01,9.18c2.06,6.37,4.26,13.16,6.45,19.95
					c1.05,3.41,2.23,6.77,3.28,10.12c1.1,3.33,2.18,6.61,3.22,9.78c1.07,3.17,2.1,6.23,3.08,9.13c1.01,2.89,1.97,5.62,2.82,8.16
					c0.91,2.52,1.75,4.82,2.5,6.87c0.72,2.06,1.42,3.83,1.99,5.29c1.14,2.92,1.73,4.64,1.73,4.64s-1.02-1.48-2.72-4.15
					c-0.85-1.33-1.91-2.94-2.93-4.89c-1.05-1.93-2.3-4.08-3.5-6.51c-1.18-2.43-2.49-5.06-3.78-7.88c-1.23-2.84-2.54-5.83-3.81-8.97
					c-0.61-1.57-1.23-3.17-1.86-4.79c-0.62-1.62-1.27-3.26-1.84-4.94c-1.17-3.34-2.38-6.73-3.47-10.16
					c-1.08-3.43-2.18-6.85-3.14-10.26c-1-3.39-1.91-6.75-2.75-10.02c-0.87-3.25-1.6-6.43-2.31-9.43c-0.7-3.01-1.28-5.87-1.82-8.51
					c-1.07-5.28-1.81-9.72-2.27-12.84c-0.25-1.55-0.38-2.79-0.5-3.63C1912.03,684.83,1911.98,684.39,1911.98,684.39z"/>
			</g>
			<g>
				<path fill="url(#New_Pattern_Swatch_4)" d="M2034.23,683.65c0,0-0.16,1.81-0.61,4.94c-0.23,1.56-0.5,3.47-0.89,5.63
					c-0.38,2.17-0.8,4.62-1.36,7.26c-0.52,2.66-1.13,5.52-1.83,8.54c-0.7,3.02-1.49,6.19-2.34,9.46c-0.44,1.63-0.9,3.29-1.35,4.97
					c-0.46,1.68-0.93,3.37-1.46,5.07c-1,3.41-2.07,6.85-3.2,10.28c-0.57,1.71-1.14,3.42-1.71,5.13c-0.6,1.69-1.21,3.38-1.8,5.05
					c-1.17,3.35-2.45,6.61-3.7,9.75c-1.22,3.15-2.51,6.16-3.76,9c-0.63,1.42-1.24,2.8-1.83,4.13c-0.63,1.32-1.23,2.59-1.82,3.82
					c-1.16,2.45-2.26,4.67-3.26,6.63c-1.02,1.95-1.95,3.63-2.71,5.02c-1.53,2.77-2.46,4.32-2.46,4.32s0.49-1.75,1.45-4.76
					c0.48-1.5,1.06-3.33,1.77-5.4c0.66-2.09,1.4-4.45,2.27-7c3.36-10.2,7.84-23.81,12.32-37.41c2.24-6.8,4.47-13.6,6.57-19.98
					c1.05-3.19,2.07-6.28,3.04-9.2c0.98-2.92,1.91-5.69,2.77-8.24c1.71-5.11,3.18-9.36,4.23-12.34c0.51-1.49,0.95-2.65,1.23-3.45
					C2034.07,684.08,2034.23,683.65,2034.23,683.65z"/>
			</g>
			<g>
				<path fill="url(#New_Pattern_Swatch_4)" d="M1962.79,801.48c0,0,0.1-0.01,0.29-0.04c0.18-0.01,0.45-0.07,0.77-0.09
					c0.65-0.06,1.55-0.14,2.56-0.16c0.51-0.03,1.04-0.01,1.6-0.03c0.55,0.01,1.12,0.01,1.72,0.02c0.58,0.03,1.18,0.01,1.77,0.06
					c0.59,0.01,1.19,0.03,1.78,0.07c0.58-0.01,1.18,0.08,1.75,0.07c0.57-0.01,1.15,0.08,1.69,0.06c0.55,0.01,1.1,0.07,1.62,0.04
					c0.52-0.01,1.05,0.06,1.52,0.02c0.48-0.01,0.94-0.01,1.37,0.01c0.41-0.03,0.79-0.03,1.11-0.04c0.65-0.02,1.08,0.01,1.08,0.01
					s-0.15,0.37-0.53,0.94c-0.19,0.28-0.42,0.64-0.73,1.01c-0.33,0.33-0.72,0.69-1.17,1.06c-0.45,0.4-0.99,0.68-1.58,1.01
					c-0.59,0.34-1.24,0.57-1.94,0.78c-0.69,0.24-1.42,0.36-2.17,0.45c-0.75,0.13-1.5,0.09-2.26,0.1c-0.75-0.04-1.5-0.14-2.22-0.28
					c-0.71-0.16-1.42-0.32-2.06-0.58c-1.31-0.45-2.43-1.11-3.34-1.75c-0.9-0.66-1.57-1.33-2-1.86
					C1962.98,801.85,1962.79,801.48,1962.79,801.48z"/>
			</g>
			<g>
				<path fill="url(#New_Pattern_Swatch_4)" d="M1760.08,779.94c0,0,0.13-0.05,0.38-0.13c0.25-0.07,0.61-0.2,1.07-0.3
					c0.92-0.24,2.24-0.5,3.82-0.66c3.16-0.35,7.36-0.24,11.48,0.6c1.03,0.23,2.06,0.44,3.05,0.75c1,0.27,1.98,0.61,2.91,0.99
					c0.93,0.35,1.82,0.77,2.65,1.2c0.83,0.41,1.59,0.89,2.26,1.36c0.34,0.24,0.66,0.44,0.96,0.69c0.29,0.25,0.57,0.48,0.82,0.72
					c0.5,0.45,0.91,0.86,1.21,1.27c0.61,0.78,0.88,1.25,0.88,1.25s-0.58-0.1-1.46-0.32c-0.42-0.13-0.99-0.19-1.6-0.3
					c-0.6-0.12-1.27-0.25-2.03-0.34c-0.74-0.12-1.52-0.27-2.37-0.38c-0.84-0.14-1.71-0.29-2.64-0.43c-0.46-0.06-0.92-0.17-1.39-0.25
					c-0.48-0.07-0.95-0.15-1.43-0.24c-0.96-0.18-1.93-0.37-2.91-0.55c-0.97-0.23-1.96-0.39-2.91-0.63
					c-0.96-0.22-1.91-0.44-2.82-0.69c-1.84-0.47-3.55-1-5.02-1.52c-1.47-0.51-2.7-1.02-3.55-1.42
					C1760.58,780.22,1760.08,779.94,1760.08,779.94z"/>
			</g>
			<g>
				<path fill="url(#New_Pattern_Swatch_4)" d="M2185.39,779.39c0,0-0.46,0.31-1.26,0.76c-0.8,0.45-1.95,1.05-3.34,1.66
					c-1.39,0.61-3.02,1.25-4.77,1.83c-0.87,0.31-1.78,0.58-2.71,0.85c-0.92,0.29-1.87,0.51-2.8,0.78c-0.94,0.23-1.89,0.46-2.81,0.68
					c-0.46,0.11-0.93,0.21-1.39,0.3c-0.45,0.1-0.9,0.21-1.35,0.29c-0.89,0.17-1.76,0.34-2.58,0.49c-0.83,0.14-1.61,0.28-2.33,0.4
					c-0.74,0.1-1.4,0.23-2,0.32c-0.61,0.09-1.16,0.15-1.59,0.25c-0.88,0.16-1.45,0.22-1.45,0.22s0.29-0.45,0.9-1.17
					c0.3-0.37,0.7-0.79,1.19-1.21c0.48-0.43,1.05-0.92,1.7-1.36c0.65-0.45,1.36-0.94,2.15-1.36c0.78-0.43,1.62-0.88,2.51-1.25
					c0.88-0.39,1.81-0.77,2.76-1.08c0.95-0.34,1.93-0.61,2.91-0.88c0.99-0.25,1.97-0.47,2.96-0.64c0.98-0.19,1.95-0.31,2.9-0.42
					c1.89-0.2,3.68-0.25,5.22-0.19c1.54,0.06,2.84,0.22,3.75,0.4c0.45,0.06,0.82,0.17,1.06,0.22
					C2185.25,779.35,2185.39,779.39,2185.39,779.39z"/>
			</g>
			<g>
				<path fill="url(#New_Pattern_Swatch_4)" d="M1904.61,1014.32c0,0-0.53,0.27-1.53,0.77c-1.01,0.49-2.48,1.21-4.4,2.03
					c-1.92,0.81-4.27,1.81-7.01,2.78c-2.73,1.01-5.85,2.06-9.3,3.07c-3.45,1-7.21,2.04-11.25,2.87c-2.01,0.47-4.1,0.82-6.23,1.25
					c-2.14,0.37-4.33,0.71-6.57,0.99c-2.24,0.26-4.52,0.57-6.84,0.74c-1.16,0.09-2.32,0.21-3.5,0.29c-1.18,0.05-2.36,0.09-3.55,0.14
					l-1.79,0.07l-1.79,0c-1.2,0-2.4,0-3.6,0c-2.41-0.08-4.83-0.15-7.24-0.31c-2.41-0.25-4.83-0.4-7.22-0.8
					c-1.2-0.17-2.39-0.35-3.58-0.52c-1.19-0.19-2.36-0.45-3.53-0.67c-1.17-0.24-2.35-0.43-3.5-0.72c-1.15-0.3-2.29-0.61-3.42-0.91
					c-2.28-0.55-4.46-1.36-6.63-2.05c-0.54-0.18-1.08-0.35-1.61-0.54c-0.53-0.21-1.05-0.41-1.57-0.62
					c-1.04-0.41-2.07-0.82-3.08-1.24c-1.02-0.39-1.99-0.88-2.95-1.35c-0.96-0.47-1.91-0.93-2.85-1.39c-3.7-1.92-7.1-3.92-10.04-6.04
					c-0.75-0.51-1.48-1.01-2.19-1.5c-0.7-0.51-1.35-1.05-1.99-1.57c-1.27-1.04-2.48-2.03-3.61-2.96c-2.13-2.02-4-3.75-5.43-5.27
					c-1.41-1.56-2.46-2.82-3.2-3.66c-0.73-0.84-1.12-1.29-1.12-1.29s0.46,0.38,1.33,1.08c0.86,0.71,2.15,1.72,3.73,3.05
					c1.62,1.28,3.72,2.69,5.99,4.42c1.21,0.77,2.5,1.58,3.85,2.44c0.68,0.42,1.35,0.89,2.08,1.32c0.73,0.41,1.49,0.82,2.25,1.25
					c1.54,0.84,3.09,1.79,4.83,2.54c0.85,0.41,1.71,0.82,2.59,1.24c0.87,0.43,1.76,0.86,2.69,1.21c0.93,0.38,1.86,0.76,2.81,1.14
					c0.95,0.39,1.9,0.79,2.91,1.1c1,0.33,2,0.67,3,1.03c0.5,0.18,1.01,0.35,1.52,0.53c0.51,0.16,1.04,0.3,1.56,0.45
					c2.1,0.57,4.2,1.26,6.4,1.69c2.18,0.49,4.39,1,6.64,1.37c1.12,0.2,2.25,0.43,3.38,0.6c1.14,0.15,2.29,0.3,3.43,0.45
					c2.29,0.35,4.61,0.45,6.93,0.68c2.32,0.19,4.64,0.29,6.96,0.4c1.16,0.02,2.32,0.03,3.47,0.05l1.73,0.02l1.72-0.04
					c4.59-0.07,9.12-0.28,13.49-0.66c2.19-0.18,4.33-0.46,6.44-0.66c2.1-0.27,4.16-0.48,6.15-0.8c1-0.15,1.98-0.3,2.95-0.44
					c0.97-0.16,1.92-0.33,2.86-0.49c1.88-0.29,3.69-0.65,5.43-0.97c3.46-0.7,6.65-1.35,9.45-2.02c2.81-0.66,5.25-1.27,7.26-1.79
					c2-0.55,3.59-0.95,4.65-1.28C1904.04,1014.49,1904.61,1014.32,1904.61,1014.32z"/>
			</g>
			<g>
				<path fill="url(#New_Pattern_Swatch_4)" d="M2176.36,992.23c0,0-0.3,0.52-0.93,1.45c-0.64,0.92-1.59,2.27-2.96,3.87
					c-2.72,3.2-7.02,7.51-12.97,11.7c-2.96,2.12-6.33,4.17-10.03,6.12c-3.72,1.89-7.73,3.74-12.04,5.24
					c-4.3,1.49-8.81,2.9-13.51,3.85c-1.17,0.24-2.35,0.49-3.53,0.73c-1.19,0.19-2.38,0.38-3.57,0.57c-2.38,0.43-4.8,0.66-7.21,0.93
					c-4.83,0.45-9.67,0.61-14.43,0.6c-4.76-0.02-9.43-0.34-13.93-0.79c-2.25-0.18-4.46-0.45-6.6-0.79
					c-2.15-0.33-4.26-0.59-6.28-1.01c-2.03-0.39-4-0.77-5.91-1.13c-1.9-0.41-3.71-0.89-5.46-1.31c-1.74-0.45-3.43-0.79-5-1.27
					c-1.57-0.47-3.06-0.92-4.45-1.33c-1.4-0.42-2.71-0.8-3.9-1.19c-1.19-0.42-2.28-0.81-3.27-1.16c-1.97-0.69-3.51-1.28-4.56-1.67
					c-1.05-0.39-1.61-0.6-1.61-0.6s0.59,0.11,1.69,0.31c1.1,0.21,2.72,0.48,4.76,0.89c1.02,0.2,2.15,0.42,3.38,0.67
					c1.24,0.21,2.57,0.44,4,0.68c2.85,0.5,6.06,1.06,9.57,1.55c1.76,0.24,3.58,0.55,5.47,0.77c1.89,0.22,3.85,0.46,5.86,0.69
					c2.01,0.28,4.09,0.39,6.2,0.57c1.06,0.08,2.13,0.17,3.2,0.28c1.08,0.1,2.17,0.12,3.27,0.19c4.39,0.3,8.94,0.29,13.54,0.31
					c4.6-0.05,9.28-0.28,13.91-0.76c2.32-0.23,4.65-0.42,6.94-0.8c1.15-0.17,2.29-0.34,3.44-0.5c1.13-0.22,2.26-0.44,3.39-0.65
					c2.26-0.4,4.45-0.98,6.65-1.45c1.1-0.24,2.16-0.58,3.23-0.86c1.06-0.31,2.14-0.56,3.17-0.92c1.04-0.34,2.06-0.67,3.08-1.01
					c1.02-0.33,2-0.73,3-1.07c1.99-0.68,3.87-1.51,5.73-2.27c3.64-1.66,7.06-3.31,10.1-5.07c3.02-1.78,5.75-3.5,8.07-5.19
					c2.3-1.7,4.28-3.25,5.83-4.62c1.54-1.38,2.74-2.49,3.51-3.3C2175.98,992.69,2176.36,992.23,2176.36,992.23z"/>
			</g>
			<g>
				<path fill="url(#New_Pattern_Swatch_4)" d="M1520.55,1551.57c0,0,0.23,0,0.67,0c0.43,0,1.07-0.01,1.88-0.01
					c1.61-0.03,3.88-0.09,6.56-0.28c1.34-0.09,2.78-0.21,4.29-0.39c1.51-0.15,3.09-0.4,4.7-0.65c1.61-0.29,3.27-0.6,4.92-1
					c1.66-0.38,3.32-0.86,4.96-1.37c1.64-0.54,3.25-1.12,4.82-1.77c1.56-0.66,3.09-1.34,4.52-2.1c0.73-0.36,1.43-0.74,2.11-1.13
					c0.69-0.38,1.36-0.76,1.99-1.16c1.3-0.77,2.48-1.58,3.59-2.32c1.07-0.79,2.11-1.48,2.97-2.16c0.85-0.69,1.68-1.23,2.28-1.75
					c1.24-1.02,2.01-1.58,2.01-1.58s-0.39,0.85-1.18,2.29c-0.38,0.73-0.94,1.55-1.58,2.52c-0.63,0.96-1.47,1.96-2.37,3.06
					c-0.49,0.52-0.99,1.07-1.51,1.63c-0.52,0.57-1.14,1.08-1.73,1.64c-0.59,0.57-1.27,1.08-1.94,1.62c-0.66,0.56-1.4,1.05-2.15,1.56
					c-0.73,0.53-1.53,0.99-2.33,1.45c-0.79,0.49-1.64,0.9-2.49,1.32c-1.7,0.85-3.51,1.52-5.33,2.15c-1.85,0.55-3.71,1.06-5.57,1.36
					c-1.86,0.35-3.71,0.51-5.49,0.62c-1.79,0.07-3.51,0.06-5.14-0.07c-1.63-0.11-3.15-0.32-4.54-0.57
					c-2.79-0.51-5.04-1.22-6.57-1.83C1521.37,1552.04,1520.55,1551.57,1520.55,1551.57z"/>
			</g>
			<g>
				<path fill="url(#New_Pattern_Swatch_4)" d="M2369.32,1535.73c0,0,3.09,1.95,7.72,4.87c2.29,1.43,4.95,3.07,7.81,4.74
					c1.44,0.82,2.92,1.67,4.44,2.48c1.52,0.82,3.07,1.62,4.64,2.37c1.56,0.78,3.15,1.46,4.72,2.13c1.58,0.63,3.14,1.25,4.67,1.75
					c0.77,0.26,1.52,0.51,2.27,0.72c0.75,0.23,1.48,0.44,2.2,0.61c0.72,0.19,1.43,0.37,2.12,0.5c0.69,0.14,1.36,0.31,2,0.39
					c0.65,0.1,1.28,0.2,1.87,0.3c0.6,0.07,1.17,0.14,1.71,0.2c1.08,0.12,2.03,0.16,2.83,0.23c1.58,0.02,2.53,0.08,2.53,0.08
					s-0.21,0.1-0.61,0.28c-0.4,0.16-0.99,0.44-1.76,0.73c-0.78,0.23-1.73,0.58-2.86,0.81c-0.57,0.11-1.17,0.22-1.81,0.35
					c-0.64,0.1-1.32,0.15-2.03,0.23c-1.42,0.11-2.98,0.15-4.62,0.02c-0.83-0.03-1.66-0.15-2.51-0.25c-0.86-0.08-1.72-0.28-2.6-0.45
					c-1.76-0.36-3.53-0.86-5.3-1.47c-0.88-0.32-1.76-0.64-2.64-1c-0.86-0.39-1.74-0.74-2.58-1.16c-1.69-0.84-3.36-1.72-4.92-2.71
					c-1.58-0.96-3.07-2-4.47-3.05c-2.79-2.11-5.2-4.32-7.12-6.34c-1.92-2.02-3.36-3.85-4.3-5.18
					C2369.77,1536.56,2369.32,1535.73,2369.32,1535.73z"/>
			</g>
			<g>
				<path fill="url(#New_Pattern_Swatch_4)" d="M1766.16,2018.85c0,0,0.24,0.13,0.7,0.39c0.45,0.26,1.13,0.6,1.97,1.06
					c0.85,0.45,1.89,0.96,3.07,1.55c1.18,0.59,2.54,1.18,4.01,1.83c1.48,0.61,3.07,1.28,4.78,1.85c1.7,0.61,3.51,1.14,5.39,1.59
					c1.87,0.47,3.83,0.74,5.79,0.97c0.98,0.04,1.98,0.15,2.96,0.11c0.49-0.01,0.99,0.01,1.48-0.02l1.47-0.13
					c0.49-0.02,0.98-0.12,1.46-0.19c0.48-0.09,0.97-0.13,1.45-0.25c0.94-0.27,1.91-0.41,2.81-0.77c0.46-0.16,0.92-0.31,1.37-0.46
					c0.44-0.19,0.88-0.38,1.32-0.57c0.9-0.34,1.71-0.85,2.54-1.28c1.64-0.93,3.17-1.97,4.55-3.08c0.73-0.51,1.36-1.11,1.99-1.68
					c0.63-0.56,1.27-1.09,1.81-1.67c1.11-1.13,2.19-2.15,3.03-3.16c0.87-0.99,1.68-1.83,2.26-2.59c1.21-1.48,1.97-2.32,1.97-2.32
					s-0.33,1.06-1.03,2.88c-0.33,0.93-0.82,2-1.45,3.22c-0.32,0.6-0.61,1.28-1.01,1.94c-0.41,0.66-0.84,1.35-1.29,2.07
					c-0.43,0.74-1.01,1.42-1.57,2.16c-0.57,0.73-1.16,1.49-1.87,2.2c-1.35,1.46-2.93,2.89-4.74,4.17c-0.92,0.63-1.84,1.28-2.89,1.78
					c-0.51,0.27-1.03,0.54-1.54,0.81c-0.54,0.22-1.09,0.43-1.64,0.65c-1.09,0.47-2.25,0.74-3.41,1.07
					c-0.58,0.15-1.18,0.22-1.77,0.34c-0.59,0.1-1.18,0.23-1.78,0.25c-2.39,0.25-4.78,0.14-7.09-0.14c-1.14-0.2-2.29-0.35-3.37-0.66
					c-0.54-0.14-1.09-0.28-1.62-0.42c-0.52-0.17-1.05-0.35-1.56-0.52c-4.12-1.4-7.59-3.42-10.36-5.35
					c-2.75-1.97-4.82-3.87-6.17-5.28C1766.81,2019.76,1766.16,2018.85,1766.16,2018.85z"/>
			</g>
			<g>
				<path fill="url(#New_Pattern_Swatch_4)" d="M2120.39,2012.96c0,0,0.21,0.16,0.61,0.45c0.39,0.3,1,0.69,1.73,1.22
					c1.51,1.01,3.65,2.44,6.31,3.89c1.31,0.75,2.78,1.45,4.32,2.17c1.56,0.68,3.21,1.35,4.94,1.91c1.74,0.53,3.53,1.03,5.38,1.32
					c0.92,0.2,1.86,0.23,2.79,0.36c0.94,0.04,1.88,0.13,2.82,0.09l1.41-0.03c0.47-0.01,0.93-0.08,1.4-0.12
					c0.94-0.07,1.86-0.23,2.77-0.39c0.46-0.06,0.91-0.17,1.36-0.29c0.45-0.11,0.9-0.21,1.35-0.32c0.89-0.24,1.74-0.57,2.61-0.82
					c0.85-0.31,1.66-0.68,2.49-0.98c0.81-0.34,1.57-0.75,2.35-1.1c0.79-0.32,1.47-0.8,2.19-1.16c0.72-0.37,1.4-0.76,2.03-1.17
					c0.65-0.4,1.27-0.78,1.86-1.14c0.6-0.36,1.13-0.76,1.65-1.1c1.03-0.71,1.97-1.3,2.68-1.86c1.47-1.08,2.37-1.66,2.37-1.66
					s-0.54,0.9-1.59,2.43c-0.51,0.78-1.2,1.67-2.04,2.65c-0.42,0.49-0.85,1.04-1.35,1.58c-0.52,0.52-1.06,1.07-1.63,1.63
					c-0.56,0.59-1.2,1.13-1.88,1.68c-0.69,0.54-1.35,1.17-2.14,1.68c-0.78,0.53-1.57,1.08-2.42,1.6c-0.87,0.49-1.76,0.98-2.69,1.44
					c-0.96,0.41-1.92,0.86-2.94,1.22c-1.03,0.32-2.06,0.73-3.15,0.93c-1.08,0.24-2.17,0.5-3.3,0.59c-1.12,0.16-2.25,0.2-3.38,0.23
					c-1.13,0.02-2.26-0.09-3.38-0.17c-1.11-0.15-2.22-0.29-3.29-0.56c-2.17-0.44-4.21-1.19-6.1-2.01c-1.9-0.83-3.62-1.83-5.19-2.85
					c-1.55-1.05-2.95-2.11-4.15-3.19c-1.22-1.06-2.24-2.13-3.11-3.1c-0.89-0.95-1.56-1.86-2.12-2.6
					C2120.88,2013.91,2120.39,2012.96,2120.39,2012.96z"/>
			</g>
			<g>
				<path fill="url(#New_Pattern_Swatch_4)" d="M2114.13,2214.38c0,0-0.6-9.49-1.51-23.72c-0.23-3.55-0.47-7.39-0.74-11.46
					c-0.28-4.06-0.57-8.34-0.88-12.77c-0.35-4.42-0.71-8.99-1.07-13.63c-0.36-4.64-0.79-9.35-1.3-14.04c-0.43-4.7-0.95-9.39-1.52-14
					c-0.3-2.3-0.61-4.58-0.88-6.84c-0.32-2.25-0.64-4.47-0.95-6.66c-0.71-4.36-1.37-8.57-2.14-12.55
					c-0.79-3.97-1.57-7.71-2.41-11.14c-0.84-3.43-1.73-6.54-2.55-9.29c-0.45-1.36-0.9-2.63-1.28-3.81c-0.38-1.19-0.84-2.23-1.2-3.2
					c-0.72-1.95-1.42-3.42-1.87-4.44c-0.46-1.02-0.7-1.56-0.7-1.56s0.34,0.49,0.96,1.41c0.61,0.93,1.62,2.25,2.6,4.11
					c0.5,0.92,1.13,1.91,1.68,3.05c0.57,1.13,1.14,2.37,1.78,3.69c0.59,1.34,1.18,2.78,1.82,4.29c0.64,1.52,1.16,3.16,1.79,4.85
					c1.19,3.4,2.35,7.13,3.39,11.12c0.56,1.99,1.01,4.05,1.54,6.15c0.52,2.1,0.9,4.28,1.38,6.47c0.84,4.41,1.7,8.97,2.32,13.64
					c0.64,4.66,1.24,9.41,1.73,14.16c0.45,4.76,0.81,9.52,1.12,14.2c0.33,4.69,0.44,9.31,0.6,13.78c0.15,4.47,0.15,8.79,0.14,12.89
					c0.01,4.1-0.09,7.97-0.21,11.54c-0.09,3.57-0.28,6.84-0.45,9.74c-0.16,2.9-0.37,5.42-0.54,7.5c-0.16,2.08-0.36,3.71-0.47,4.82
					C2114.2,2213.78,2114.13,2214.38,2114.13,2214.38z"/>
			</g>
			<g>
				<path fill="url(#New_Pattern_Swatch_4)" d="M1850.11,2226.53c0,0-0.34-2.32-0.74-6.39c-0.4-4.07-0.89-9.9-1.19-16.9
					c-0.16-3.5-0.3-7.3-0.36-11.31c-0.05-4.02-0.07-8.25,0.01-12.64c0.06-4.38,0.22-8.91,0.45-13.51c0.12-2.3,0.26-4.62,0.41-6.94
					c0.18-2.32,0.37-4.66,0.56-6.99c0.44-4.66,0.92-9.33,1.55-13.9c0.15-1.14,0.31-2.28,0.46-3.42c0.18-1.13,0.35-2.26,0.53-3.37
					c0.34-2.24,0.72-4.44,1.13-6.6c0.79-4.33,1.69-8.49,2.64-12.42c0.96-3.92,2-7.6,3.07-10.96c0.5-1.69,1.05-3.29,1.6-4.8
					c0.54-1.51,1.06-2.95,1.61-4.27c0.55-1.33,1-2.58,1.52-3.71c0.52-1.12,1-2.15,1.44-3.09c0.22-0.46,0.42-0.9,0.62-1.32
					c0.22-0.4,0.42-0.78,0.61-1.13c0.38-0.7,0.7-1.3,0.96-1.78c0.53-0.96,0.81-1.47,0.81-1.47s-0.18,0.56-0.52,1.6
					c-0.33,1.05-0.9,2.54-1.45,4.5c-0.29,0.97-0.61,2.05-0.95,3.23c-0.31,1.18-0.65,2.46-1.02,3.82c-0.38,1.36-0.72,2.82-1.06,4.37
					c-0.35,1.54-0.76,3.15-1.09,4.86c-0.34,1.7-0.74,3.46-1.05,5.31c-0.32,1.84-0.72,3.73-1.02,5.69c-0.67,3.91-1.3,8.05-1.88,12.35
					c-0.6,4.29-1.13,8.74-1.63,13.26c-0.5,4.52-0.96,9.13-1.37,13.74c-0.43,4.61-0.78,9.23-1.13,13.78
					c-0.31,4.55-0.62,9.04-0.91,13.37c-0.55,8.68-0.99,16.8-1.38,23.77C1850.6,2217.22,1850.11,2226.53,1850.11,2226.53z"/>
			</g>
			<g>
				<path fill="url(#New_Pattern_Swatch_4)" d="M2092.78,2506.01c0,0-0.44-0.29-1.24-0.88c-0.78-0.6-1.95-1.47-3.34-2.69
					c-1.4-1.21-3.08-2.71-4.89-4.55c-1.83-1.82-3.83-3.95-5.87-6.39c-2.07-2.42-4.18-5.15-6.31-8.13c-2.07-3.01-4.22-6.23-6.16-9.72
					c-2-3.46-3.87-7.15-5.59-10.98c-0.82-1.93-1.72-3.85-2.44-5.85l-1.14-2.98l-1.04-3.03c-1.36-4.05-2.49-8.17-3.43-12.26
					c-0.94-4.09-1.64-8.17-2.15-12.13c-0.49-3.96-0.84-7.8-0.95-11.46c-0.04-0.91-0.07-1.81-0.11-2.7c0-0.89,0.01-1.76,0.01-2.62
					c0.03-1.72,0.02-3.37,0.09-4.96c0.19-3.17,0.3-6.08,0.65-8.64c0.3-2.56,0.53-4.78,0.88-6.6c0.63-3.64,1.06-5.7,1.06-5.7
					s0.05,2.12,0.04,5.78c-0.05,1.83,0.11,4.06,0.14,6.6c0.02,1.27,0.05,2.62,0.17,4.04c0.08,1.42,0.16,2.91,0.24,4.47
					c0.09,1.55,0.28,3.17,0.43,4.84c0.07,0.83,0.15,1.68,0.22,2.54c0.11,0.86,0.22,1.73,0.33,2.61c0.39,3.53,0.98,7.23,1.65,11.03
					c0.4,1.89,0.69,3.83,1.15,5.77c0.22,0.97,0.45,1.94,0.67,2.92c0.22,0.98,0.43,1.97,0.7,2.94c1.02,3.92,2.12,7.88,3.46,11.76
					l0.97,2.92l1.08,2.88c0.69,1.93,1.49,3.8,2.24,5.68c0.78,1.86,1.61,3.69,2.42,5.51c0.87,1.78,1.67,3.58,2.57,5.29
					c1.71,3.46,3.57,6.71,5.34,9.78c1.84,3.03,3.59,5.91,5.35,8.47c1.76,2.56,3.4,4.9,4.94,6.92c1.53,2.02,2.91,3.76,4.08,5.16
					C2091.31,2504.49,2092.78,2506.01,2092.78,2506.01z"/>
			</g>
			<g>
				<path fill="url(#New_Pattern_Swatch_4)" d="M1858.77,2498.65c0,0,0.33-0.53,0.96-1.53c0.62-1,1.48-2.49,2.59-4.38
					c1.11-1.88,2.39-4.22,3.87-6.87c1.44-2.68,3.05-5.7,4.74-9.04c1.69-3.33,3.42-6.98,5.22-10.85c0.88-1.95,1.79-3.94,2.65-6
					c0.88-2.06,1.77-4.16,2.65-6.31c0.9-2.14,1.7-4.36,2.57-6.59c0.4-1.12,0.8-2.26,1.21-3.39c0.41-1.14,0.85-2.27,1.22-3.42
					c0.78-2.31,1.6-4.62,2.29-6.98c0.36-1.18,0.72-2.36,1.08-3.54l0.98-3.57c1.37-4.74,2.51-9.55,3.51-14.3
					c0.46-2.39,0.91-4.75,1.36-7.09c0.37-2.35,0.73-4.68,1.08-6.96c0.27-2.3,0.54-4.56,0.8-6.77c0.19-2.22,0.38-4.4,0.57-6.51
					c0.1-2.12,0.2-4.19,0.29-6.19c0.12-2,0.07-3.93,0.11-5.8c0.01-0.93,0.03-1.84,0.02-2.73c-0.03-0.89-0.06-1.76-0.09-2.61
					c-0.05-1.7-0.07-3.31-0.13-4.83c-0.25-3.02-0.35-5.68-0.56-7.85c-0.26-2.17-0.4-3.89-0.53-5.06c-0.12-1.17-0.18-1.8-0.18-1.8
					s0.16,0.61,0.47,1.74c0.3,1.14,0.78,2.8,1.32,4.94c0.51,2.14,1,4.77,1.58,7.8c0.25,1.52,0.45,3.14,0.69,4.85
					c0.11,0.86,0.23,1.74,0.34,2.64c0.09,0.9,0.15,1.83,0.23,2.77c0.13,1.89,0.36,3.86,0.42,5.91c0.06,2.05,0.1,4.17,0.13,6.35
					c-0.05,2.18-0.1,4.42-0.15,6.71c-0.12,2.29-0.34,4.62-0.51,6.99c-0.27,2.36-0.55,4.77-0.83,7.2c-0.37,2.42-0.74,4.87-1.21,7.33
					c-0.97,4.9-2.07,9.86-3.43,14.75l-1.06,3.65c-0.39,1.21-0.77,2.41-1.16,3.61c-0.75,2.41-1.61,4.77-2.44,7.13
					c-0.82,2.36-1.78,4.64-2.68,6.91c-0.98,2.24-1.88,4.47-2.89,6.62c-1.92,4.34-4.03,8.41-6.08,12.24
					c-1.03,1.91-2.05,3.76-3.08,5.52c-1.06,1.75-2.05,3.45-3.07,5.05c-1.97,3.23-3.95,6.08-5.7,8.6c-1.77,2.51-3.38,4.64-4.75,6.37
					c-1.35,1.74-2.49,3.04-3.26,3.94C1859.18,2498.18,1858.77,2498.65,1858.77,2498.65z"/>
			</g>
			<g>
				<path fill="url(#New_Pattern_Swatch_4)" d="M1934.07,1495.96c-0.7,2.68-1.31,5.38-1.87,8.09c-0.59,2.7-1.13,5.41-1.61,8.13
					c-0.48,2.72-0.95,5.43-1.35,8.16c-0.4,2.72-0.75,5.46-1.04,8.19c-0.6,5.46-0.97,10.94-0.98,16.39
					c-0.02,5.45,0.26,10.89,1.18,16.18c0.45,2.64,1.07,5.24,1.84,7.76c0.78,2.52,1.75,4.96,2.98,7.23c1.22,2.27,2.69,4.38,4.42,6.21
					c1.73,1.84,3.72,3.37,5.89,4.61c2.17,1.25,4.55,2.14,7.02,2.75c2.48,0.6,5.05,0.94,7.65,1.02c2.61,0.05,5.24-0.02,7.88-0.36
					c2.64-0.29,5.27-0.77,7.9-1.29l0.63-0.13l0.63,0.15c0.45,0.1,1.07,0.23,1.63,0.32c0.58,0.1,1.16,0.17,1.75,0.24
					c1.17,0.14,2.36,0.2,3.54,0.24c2.37,0.05,4.74-0.14,7.04-0.55c1.16-0.17,2.28-0.5,3.41-0.79c1.09-0.38,2.22-0.71,3.25-1.21
					c1.08-0.42,2.07-1.01,3.09-1.55c0.51-0.28,0.96-0.64,1.44-0.95c0.47-0.33,0.97-0.62,1.39-1.02c0.88-0.74,1.79-1.46,2.55-2.34
					c0.39-0.43,0.82-0.82,1.19-1.27l1.07-1.39c1.42-1.86,2.58-3.93,3.58-6.1c0.57-1.05,0.89-2.22,1.34-3.34
					c0.47-1.11,0.77-2.29,1.1-3.46l0.49-1.76c0.16-0.59,0.25-1.2,0.37-1.8c0.22-1.21,0.5-2.4,0.68-3.62
					c0.27-2.45,0.66-4.89,0.71-7.38c0.06-1.24,0.14-2.48,0.18-3.73l0-3.74c0.06-2.5-0.16-5-0.27-7.51l-0.1-1.88l-0.19-1.88
					l-0.37-3.76c-0.19-2.51-0.61-5-0.94-7.51c-0.18-1.25-0.33-2.51-0.54-3.75l-0.64-3.74c-0.43-2.49-0.82-5-1.36-7.47l-1.48-7.47
					l2.25,7.28c0.78,2.42,1.37,4.9,2.02,7.36l0.96,3.7c0.3,1.24,0.54,2.49,0.81,3.73c0.51,2.5,1.12,4.98,1.49,7.51l0.62,3.79
					l0.3,1.9l0.21,1.91c0.26,2.55,0.63,5.09,0.71,7.67l0.22,3.86c0.04,1.29-0.01,2.58-0.02,3.88c0.04,2.59-0.25,5.18-0.44,7.78
					c-0.14,1.3-0.38,2.59-0.56,3.89c-0.11,0.65-0.17,1.3-0.32,1.94l-0.46,1.93c-0.3,1.29-0.58,2.58-1.05,3.83
					c-0.46,1.25-0.79,2.55-1.4,3.75c-1.06,2.46-2.33,4.87-3.94,7.09l-1.21,1.65c-0.43,0.54-0.91,1.03-1.37,1.54
					c-0.89,1.06-1.94,1.95-2.98,2.86c-0.5,0.48-1.08,0.86-1.64,1.26c-0.57,0.39-1.11,0.83-1.71,1.18c-1.2,0.68-2.38,1.42-3.66,1.94
					c-1.25,0.61-2.56,1.01-3.86,1.47c-1.32,0.35-2.64,0.74-3.99,0.96c-2.68,0.5-5.39,0.73-8.09,0.7c-1.35-0.03-2.7-0.09-4.05-0.24
					c-0.67-0.07-1.35-0.15-2.02-0.26c-0.69-0.11-1.32-0.22-2.11-0.4l1.26,0.02c-2.79,0.58-5.6,1.13-8.47,1.4
					c-2.86,0.35-5.77,0.4-8.69,0.32c-2.92-0.12-5.87-0.53-8.76-1.25c-2.89-0.73-5.74-1.82-8.36-3.36c-2.62-1.53-4.99-3.5-7.01-5.74
					c-2.02-2.24-3.68-4.76-5.01-7.39c-1.34-2.64-2.35-5.39-3.14-8.17c-0.79-2.78-1.31-5.62-1.68-8.45
					c-0.74-5.66-0.81-11.33-0.54-16.94c0.32-5.61,1.01-11.17,1.93-16.67c0.48-2.75,1.03-5.48,1.63-8.2
					c0.61-2.72,1.24-5.42,1.97-8.11C1930.48,1506.46,1932.12,1501.15,1934.07,1495.96z"/>
			</g>
			<g>
				<path fill="url(#New_Pattern_Swatch_4)" d="M1949.9,1454.45l0.68,10.95l0.6,10.95l0.53,10.95c0.19,3.65,0.33,7.3,0.48,10.95
					l0.46,10.95l0.4,10.95c0.24,7.3,0.54,14.6,0.72,21.9l0.02,0.86l-0.6,0.75c-0.54,0.66-1.16,1.59-1.66,2.45
					c-0.51,0.88-0.97,1.79-1.36,2.71c-0.77,1.85-1.26,3.78-1.33,5.65c-0.03,0.94,0.05,1.86,0.21,2.75c0.18,0.89,0.49,1.75,0.86,2.58
					c0.82,1.64,1.97,3.16,3.44,4.47l1.16,0.98l1.35,1.11c0.89,0.75,1.76,1.52,2.61,2.3c1.7,1.53,3.35,3.24,4.88,4.63
					c1.58,1.44,3.23,2.78,4.92,3.84c1.68,1.05,3.44,1.8,4.49,1.55c0.35-0.03,0.38-0.1,0.5-0.13l0.18-0.05l0.3-0.12
					c0.39-0.13,0.82-0.35,1.25-0.55c0.86-0.46,1.73-0.97,2.6-1.57c1.73-1.17,3.43-2.51,5.09-3.92c0.83-0.7,1.65-1.43,2.46-2.16
					l2.49-2.3l5.04-4.47l1.28-1.13c0.32-0.32,0.65-0.62,0.98-0.99c0.67-0.7,1.22-1.48,1.72-2.26c0.96-1.59,1.53-3.3,1.59-5.06
					c0.06-1.76-0.41-3.58-1.23-5.34c-0.77-1.78-2.07-3.41-3.36-5.01l-0.63-0.78l0.01-0.83l0.14-11.22l0.2-11.22l0.21-11.22
					l0.28-11.22l0.3-11.22l0.36-11.22l0.42-11.22l0.51-11.22l0.51,11.22l0.42,11.22l0.36,11.22l0.3,11.22l0.28,11.22l0.21,11.22
					l0.2,11.22l0.14,11.22l-0.61-1.61c1.56,1.85,3.13,3.73,4.23,6.06c1.13,2.27,1.91,4.89,1.88,7.62c-0.02,2.73-0.87,5.43-2.2,7.69
					c-0.69,1.11-1.46,2.17-2.32,3.11c-0.41,0.48-0.9,0.94-1.38,1.41l-1.24,1.11l-5,4.51l-2.44,2.29c-0.84,0.78-1.7,1.55-2.58,2.3
					c-1.75,1.51-3.56,2.97-5.54,4.33c-0.98,0.69-2.04,1.32-3.15,1.93c-0.59,0.29-1.16,0.58-1.82,0.82c-0.47,0.23-1.76,0.55-2.25,0.6
					l-0.42,0.05l-0.1,0.01l-0.28,0.02l-0.08,0l-0.32-0.01c-0.44,0-0.86-0.03-1.24-0.11c-0.4-0.05-0.77-0.14-1.12-0.25
					c-0.37-0.09-0.7-0.21-1.03-0.34c-1.31-0.5-2.44-1.13-3.5-1.79c-2.1-1.35-3.93-2.88-5.65-4.47c-1.78-1.65-3.24-3.19-4.86-4.68
					c-0.8-0.74-1.61-1.47-2.43-2.17l-1.24-1.03l-1.4-1.2c-1.86-1.7-3.5-3.79-4.61-6.21c-0.53-1.22-0.94-2.5-1.18-3.82
					c-0.22-1.32-0.29-2.65-0.22-3.95c0.16-2.62,0.87-5.09,1.87-7.36c0.5-1.14,1.08-2.22,1.73-3.27c0.66-1.06,1.3-2,2.2-3.07
					l-0.58,1.61c-0.07-7.3-0.01-14.61-0.02-21.92l0.03-10.96l0.09-10.96c0.03-3.65,0.05-7.31,0.12-10.96l0.17-10.96l0.23-10.96
					L1949.9,1454.45z"/>
			</g>
			<g>
				<path fill="url(#New_Pattern_Swatch_4)" d="M1953.4,582.76c0,0-0.07,0.4-0.23,1.03c-0.15,0.63-0.37,1.49-0.62,2.43
					c-0.26,0.94-0.54,1.98-0.73,2.96c-0.09,0.49-0.17,0.97-0.19,1.39c-0.03,0.43-0.02,0.81,0.03,1.12c0.04,0.32,0.09,0.61,0.21,0.91
					c0.04,0.15,0.14,0.3,0.2,0.48c0.09,0.17,0.21,0.33,0.3,0.51c0.13,0.18,0.26,0.36,0.39,0.54c0.15,0.18,0.31,0.35,0.45,0.54
					c0.34,0.34,0.66,0.72,1.01,1.04c0.33,0.35,0.67,0.66,0.97,0.95c0.3,0.3,0.57,0.58,0.8,0.8c0.46,0.45,0.72,0.77,0.72,0.77
					s-0.37,0.15-1.03,0.28c-0.33,0.07-0.73,0.15-1.19,0.17c-0.46,0.03-0.99,0.04-1.56-0.03c-0.58-0.04-1.2-0.2-1.86-0.4
					c-0.33-0.12-0.66-0.28-1.01-0.43c-0.35-0.16-0.68-0.4-1.03-0.62c-0.67-0.51-1.36-1.14-1.86-2c-0.54-0.82-0.88-1.84-1-2.83
					c-0.13-1-0.02-1.96,0.2-2.81c0.21-0.86,0.56-1.61,0.94-2.26c0.38-0.67,0.83-1.21,1.27-1.7c0.46-0.48,0.92-0.89,1.37-1.22
					c0.9-0.68,1.77-1.08,2.4-1.31c0.3-0.13,0.58-0.18,0.75-0.23C1953.3,582.77,1953.4,582.76,1953.4,582.76z"/>
			</g>
			<g>
				<path fill="url(#New_Pattern_Swatch_4)" d="M1960.58,1329.52c0,0,0.46,0.66,1.2,1.82c0.72,1.14,1.76,2.77,3,4.73
					c1.22,1.93,2.63,4.16,4.25,6.31c0.81,1.07,1.68,2.12,2.58,3c0.9,0.88,1.87,1.54,2.57,1.71c0.35,0.1,0.61,0.12,0.91,0.05
					c0.3-0.07,0.68-0.2,1.08-0.49c0.81-0.56,1.69-1.49,2.45-2.5c0.77-1.02,1.47-2.13,2.12-3.22c0.66-1.08,1.24-2.15,1.8-3.15
					c1.1-2,2.02-3.71,2.71-4.91c0.66-1.2,1.1-1.88,1.1-1.88s0,0.2,0,0.58c-0.01,0.37,0,0.93-0.05,1.62
					c-0.08,1.39-0.26,3.36-0.76,5.71c-0.26,1.17-0.57,2.43-1.02,3.76c-0.45,1.32-1,2.72-1.78,4.13c-0.39,0.71-0.84,1.42-1.39,2.12
					c-0.52,0.71-1.19,1.41-1.99,2.04c-0.8,0.63-1.8,1.23-3,1.52c-1.19,0.31-2.52,0.27-3.65-0.05c-2.29-0.68-3.81-2.03-4.98-3.33
					c-1.19-1.32-2.08-2.7-2.83-4.06c-1.49-2.72-2.41-5.37-3.05-7.67C1960.59,1332.75,1960.58,1329.52,1960.58,1329.52z"/>
			</g>
			<g>
				<path fill="url(#New_Pattern_Swatch_4)" d="M2407.43,1603.49c0,0,0.1,0.88,0.3,2.53c0.21,1.65,0.51,4.06,0.89,7.13
					c0.77,6.14,1.92,14.91,3.38,25.4c0.77,5.24,1.6,10.91,2.48,16.92c0.91,6,1.97,12.3,3.04,18.82c1.08,6.52,2.37,13.23,3.64,20.04
					c1.29,6.81,2.73,13.7,4.3,20.56c1.52,6.87,3.16,13.7,4.96,20.38c1.82,6.67,3.66,13.22,5.71,19.47
					c2.06,6.24,4.17,12.24,6.43,17.82c2.27,5.57,4.61,10.76,7.03,15.42c2.43,4.65,4.89,8.79,7.3,12.3c2.43,3.5,4.76,6.41,6.81,8.7
					c2.1,2.23,3.85,3.92,5.11,5c1.27,1.06,1.95,1.63,1.95,1.63s-0.74-0.48-2.14-1.39c-1.38-0.94-3.36-2.38-5.7-4.46
					c-2.31-2.1-4.99-4.81-7.73-8.21c-2.76-3.38-5.62-7.41-8.38-12.01c-2.78-4.59-5.5-9.74-8.04-15.33
					c-2.56-5.58-5.02-11.57-7.24-17.88c-2.22-6.3-4.4-12.86-6.25-19.63c-1.88-6.75-3.62-13.65-5.21-20.58
					c-1.53-6.95-2.91-13.92-4.15-20.8c-1.26-6.88-2.25-13.69-3.2-20.27c-0.95-6.58-1.68-12.98-2.32-19.04
					c-0.66-6.06-1.15-11.8-1.55-17.1c-0.42-5.3-0.7-10.17-0.91-14.48c-0.23-4.31-0.34-8.08-0.42-11.18c-0.1-3.1-0.08-5.54-0.1-7.2
					C2407.43,1604.37,2407.43,1603.49,2407.43,1603.49z"/>
			</g>
			<g>
				<path fill="url(#New_Pattern_Swatch_4)" d="M2382.02,1620.61c0,0,0.63,3.66,1.72,10.06c0.53,3.2,1.17,7.09,1.91,11.55
					c0.72,4.46,1.53,9.49,2.42,14.98c1.73,10.98,3.76,23.79,5.92,37.52c1.08,6.86,2.2,13.95,3.33,21.15
					c1.12,7.2,2.29,14.51,3.5,21.82c1.16,7.31,2.35,14.62,3.58,21.8c1.26,7.17,2.41,14.25,3.67,21.07
					c1.27,6.82,2.47,13.41,3.72,19.64c1.27,6.22,2.5,12.1,3.76,17.49c1.28,5.39,2.53,10.3,3.81,14.61c1.3,4.3,2.57,8,3.87,10.93
					c1.31,2.93,2.61,5.12,3.8,6.36c0.59,0.62,1.12,1.02,1.51,1.25c0.39,0.22,0.61,0.3,0.61,0.3s-0.22-0.06-0.64-0.24
					c-0.42-0.18-1-0.53-1.68-1.1c-1.35-1.14-2.98-3.21-4.57-6.08c-1.61-2.87-3.27-6.49-4.89-10.74c-1.64-4.25-3.29-9.11-4.87-14.47
					c-1.61-5.35-3.2-11.19-4.72-17.41c-1.53-6.21-3.06-12.77-4.47-19.6c-1.41-6.82-2.88-13.87-4.15-21.08
					c-1.3-7.2-2.57-14.51-3.78-21.84c-1.15-7.33-2.26-14.68-3.32-21.91c-1.08-7.23-1.96-14.36-2.87-21.26
					c-0.91-6.9-1.66-13.58-2.38-19.92c-0.73-6.33-1.33-12.34-1.87-17.88c-0.56-5.54-1-10.62-1.38-15.13
					c-0.4-4.5-0.67-8.44-0.91-11.68c-0.25-3.24-0.37-5.79-0.48-7.53C2382.07,1621.54,2382.02,1620.61,2382.02,1620.61z"/>
			</g>
			<g>
				<path fill="url(#New_Pattern_Swatch_4)" d="M1537.3,1592.44c0,0,0,0.89,0,2.55c-0.01,1.66,0,4.1-0.1,7.2
					c-0.08,3.1-0.19,6.86-0.42,11.18c-0.21,4.31-0.48,9.18-0.91,14.48c-0.4,5.3-0.89,11.04-1.55,17.1
					c-0.64,6.06-1.37,12.45-2.32,19.04c-0.95,6.58-1.93,13.39-3.2,20.27c-1.24,6.88-2.63,13.85-4.15,20.8
					c-1.58,6.93-3.32,13.83-5.21,20.58c-1.85,6.76-4.03,13.32-6.25,19.63c-2.22,6.31-4.68,12.3-7.24,17.88
					c-2.54,5.59-5.27,10.74-8.04,15.33c-2.76,4.61-5.62,8.64-8.38,12.01c-2.74,3.4-5.43,6.11-7.73,8.21
					c-2.34,2.08-4.32,3.52-5.7,4.46c-1.39,0.91-2.14,1.39-2.14,1.39s0.68-0.57,1.95-1.63c1.26-1.07,3-2.76,5.11-5
					c2.06-2.28,4.39-5.19,6.81-8.7c2.41-3.51,4.87-7.65,7.3-12.3c2.41-4.66,4.75-9.85,7.03-15.42c2.26-5.58,4.37-11.57,6.43-17.82
					c2.05-6.25,3.89-12.8,5.71-19.47c1.8-6.68,3.45-13.51,4.96-20.38c1.57-6.86,3.01-13.75,4.3-20.56
					c1.27-6.81,2.56-13.52,3.64-20.04c1.08-6.52,2.13-12.83,3.04-18.82c0.88-6,1.72-11.68,2.48-16.92
					c1.46-10.49,2.61-19.26,3.38-25.4c0.38-3.07,0.69-5.49,0.89-7.13C1537.2,1593.32,1537.3,1592.44,1537.3,1592.44z"/>
			</g>
			<g>
				<path fill="url(#New_Pattern_Swatch_4)" d="M1562.71,1609.56c0,0-0.05,0.93-0.15,2.66c-0.11,1.74-0.24,4.29-0.48,7.53
					c-0.24,3.24-0.51,7.17-0.91,11.68c-0.38,4.51-0.82,9.59-1.38,15.13c-0.54,5.54-1.14,11.54-1.87,17.87
					c-0.72,6.34-1.47,13.02-2.38,19.92c-0.91,6.9-1.79,14.04-2.87,21.26c-1.06,7.23-2.17,14.57-3.32,21.91
					c-1.21,7.33-2.48,14.64-3.78,21.84c-1.27,7.2-2.74,14.25-4.15,21.08c-1.41,6.83-2.94,13.39-4.47,19.6
					c-1.51,6.21-3.11,12.05-4.72,17.41c-1.59,5.36-3.23,10.22-4.87,14.47c-1.62,4.25-3.29,7.88-4.89,10.74
					c-1.59,2.87-3.22,4.94-4.57,6.08c-0.68,0.57-1.26,0.92-1.68,1.1c-0.42,0.18-0.64,0.24-0.64,0.24s0.22-0.09,0.61-0.3
					c0.39-0.22,0.92-0.62,1.51-1.25c1.19-1.24,2.49-3.43,3.8-6.36c1.3-2.93,2.58-6.64,3.87-10.93c1.28-4.3,2.53-9.22,3.81-14.61
					c1.26-5.39,2.49-11.27,3.76-17.49c1.25-6.23,2.45-12.82,3.72-19.64c1.26-6.82,2.41-13.89,3.67-21.07
					c1.24-7.18,2.43-14.48,3.58-21.8c1.21-7.3,2.39-14.61,3.5-21.82c1.13-7.2,2.25-14.29,3.33-21.15
					c2.17-13.73,4.19-26.54,5.92-37.52c0.89-5.49,1.7-10.52,2.42-14.98c0.74-4.46,1.38-8.35,1.91-11.55
					C1562.08,1613.22,1562.71,1609.56,1562.71,1609.56z"/>
			</g>
			<g>
				<path fill="url(#New_Pattern_Swatch_4)" d="M2118.55,2595.49c0,0,0.19,0.36,0.52,1.06c0.32,0.7,0.81,1.72,1.35,3.05
					c0.55,1.33,1.21,2.95,1.87,4.83c0.67,1.89,1.42,4.02,2.09,6.39c0.72,2.36,1.41,4.94,2.06,7.7c0.63,2.76,1.23,5.69,1.71,8.76
					c0.24,1.53,0.48,3.09,0.64,4.68c0.09,0.79,0.18,1.59,0.28,2.4c0.06,0.81,0.13,1.62,0.19,2.43c0.15,1.63,0.2,3.28,0.27,4.93
					c0.04,1.66,0.03,3.32,0.03,4.99c-0.13,3.34-0.3,6.68-0.8,9.95c-0.12,0.82-0.24,1.63-0.35,2.44c-0.16,0.8-0.33,1.61-0.49,2.4
					c-0.29,1.6-0.73,3.15-1.15,4.67c-0.19,0.77-0.44,1.51-0.7,2.25c-0.26,0.73-0.51,1.46-0.76,2.18c-0.54,1.43-1.17,2.79-1.75,4.12
					c-0.67,1.3-1.34,2.54-2,3.74c-0.76,1.14-1.49,2.24-2.19,3.29c-0.77,1.01-1.54,1.95-2.27,2.83c-0.73,0.89-1.57,1.61-2.27,2.34
					c-0.36,0.36-0.71,0.7-1.05,1.04c-0.37,0.3-0.73,0.59-1.07,0.86c-0.69,0.54-1.32,1.04-1.89,1.49c-1.18,0.84-2.2,1.38-2.84,1.79
					c-0.66,0.39-1.01,0.6-1.01,0.6s0.29-0.3,0.82-0.85c0.53-0.55,1.34-1.33,2.3-2.36c0.45-0.54,0.95-1.14,1.49-1.8
					c0.27-0.32,0.55-0.66,0.85-1c0.26-0.37,0.53-0.76,0.81-1.16c0.54-0.81,1.2-1.6,1.72-2.55c0.53-0.95,1.15-1.9,1.72-2.92
					c0.51-1.06,1.04-2.17,1.6-3.31c0.47-1.18,0.95-2.39,1.45-3.65c0.39-1.29,0.88-2.58,1.25-3.94c0.32-1.38,0.79-2.74,1.04-4.2
					c0.28-1.45,0.63-2.89,0.82-4.4c0.11-0.75,0.23-1.5,0.35-2.26c0.09-0.76,0.17-1.53,0.26-2.3c0.35-3.08,0.51-6.24,0.6-9.41
					c0.06-3.17,0.02-6.35-0.12-9.49c-0.12-3.14-0.36-6.23-0.62-9.22c-0.27-2.99-0.59-5.89-0.94-8.63c-0.36-2.74-0.69-5.35-1.06-7.74
					c-0.38-2.4-0.73-4.6-1.05-6.55c-0.34-1.95-0.64-3.66-0.88-5.06C2118.85,2597.1,2118.55,2595.49,2118.55,2595.49z"/>
			</g>
			<g>
				<path fill="url(#New_Pattern_Swatch_4)" d="M2143.22,2595.49c0,0,0.43,1.18,1.15,3.24c0.71,2.05,1.72,4.98,2.94,8.49
					c0.6,1.75,1.25,3.64,1.94,5.64c0.7,1.99,1.43,4.08,2.19,6.25c0.78,2.15,1.59,4.38,2.43,6.62c0.85,2.24,1.72,4.51,2.66,6.74
					c0.9,2.25,1.89,4.45,2.85,6.63c0.51,1.07,1.01,2.13,1.51,3.18c0.53,1.03,1.02,2.07,1.55,3.06c1.06,1.99,2.11,3.89,3.21,5.63
					c0.53,0.88,1.07,1.73,1.63,2.51c0.27,0.4,0.54,0.8,0.8,1.18c0.28,0.37,0.56,0.74,0.83,1.09c0.53,0.73,1.06,1.41,1.6,2.02
					c0.53,0.62,1.01,1.26,1.54,1.76c0.51,0.53,1,1.03,1.44,1.48c0.48,0.43,0.92,0.82,1.31,1.18c0.78,0.75,1.5,1.2,1.95,1.58
					c0.46,0.37,0.71,0.56,0.71,0.56s-0.3-0.1-0.86-0.28c-0.28-0.1-0.63-0.22-1.03-0.36c-0.2-0.07-0.42-0.15-0.66-0.23
					c-0.22-0.11-0.46-0.22-0.71-0.34c-0.5-0.25-1.06-0.52-1.67-0.82c-0.59-0.33-1.19-0.74-1.85-1.16c-0.68-0.4-1.31-0.93-2.03-1.46
					c-0.72-0.52-1.4-1.14-2.11-1.79c-0.73-0.64-1.43-1.35-2.14-2.11c-0.74-0.74-1.42-1.56-2.13-2.41c-1.42-1.69-2.77-3.58-4.06-5.59
					c-1.3-2.01-2.51-4.16-3.66-6.38c-1.13-2.23-2.18-4.53-3.14-6.87c-3.84-9.36-6.15-19.17-7.21-26.59
					c-0.28-1.86-0.46-3.57-0.61-5.09c-0.16-1.52-0.24-2.85-0.3-3.94c-0.07-1.09-0.07-1.96-0.08-2.55
					C2143.22,2595.81,2143.22,2595.49,2143.22,2595.49z"/>
			</g>
			<g>
				<path fill="url(#New_Pattern_Swatch_4)" d="M2160.44,2597.2c0,0,0.55,0.99,1.44,2.72c0.44,0.87,1,1.91,1.59,3.13
					c0.6,1.21,1.28,2.57,2.01,4.06c1.42,2.97,3.08,6.44,4.86,10.15c0.88,1.85,1.8,3.75,2.72,5.69c0.94,1.93,1.87,3.89,2.86,5.82
					c0.95,1.95,1.96,3.86,2.94,5.74c0.51,0.93,1.01,1.86,1.5,2.77c0.51,0.9,1.02,1.79,1.51,2.66c1.03,1.72,2.04,3.37,3.07,4.88
					c0.52,0.74,1.01,1.5,1.54,2.16c0.51,0.68,1.01,1.35,1.53,1.93c0.26,0.3,0.51,0.6,0.75,0.89c0.25,0.28,0.52,0.52,0.76,0.79
					c0.25,0.26,0.49,0.52,0.73,0.76c0.26,0.22,0.51,0.43,0.75,0.64c0.25,0.21,0.48,0.41,0.71,0.61c0.25,0.17,0.48,0.33,0.71,0.49
					c0.46,0.32,0.88,0.64,1.3,0.81c0.42,0.21,0.8,0.41,1.13,0.57c0.35,0.11,0.65,0.21,0.89,0.29c0.5,0.17,0.77,0.26,0.77,0.26
					s-0.28,0.02-0.81,0.05c-0.27,0.01-0.6,0.03-1,0.04c-0.39-0.03-0.83-0.1-1.34-0.18c-0.52-0.05-1.05-0.23-1.64-0.41
					c-0.3-0.09-0.61-0.19-0.93-0.3c-0.3-0.14-0.61-0.29-0.93-0.45c-0.32-0.16-0.66-0.32-1-0.49c-0.32-0.2-0.66-0.4-1-0.61
					c-0.34-0.21-0.7-0.43-1.04-0.67c-0.33-0.25-0.67-0.51-1.02-0.78c-1.4-1.06-2.76-2.37-4.11-3.81c-0.7-0.71-1.31-1.51-1.99-2.29
					c-0.66-0.79-1.27-1.65-1.93-2.5c-1.24-1.74-2.46-3.57-3.59-5.49c-1.14-1.91-2.21-3.9-3.22-5.9c-1-2.01-1.94-4.05-2.79-6.08
					c-0.87-2.03-1.65-4.05-2.36-6.02c-1.42-3.94-2.53-7.69-3.34-10.94c-0.81-3.25-1.34-6-1.65-7.93c-0.17-0.96-0.25-1.74-0.32-2.26
					C2160.47,2597.48,2160.44,2597.2,2160.44,2597.2z"/>
			</g>
			<g>
				<path fill="url(#New_Pattern_Swatch_4)" d="M2177.47,2590.34c0,0,0.6,1.15,1.66,3.15c0.53,0.99,1.17,2.19,1.91,3.57
					c0.76,1.36,1.61,2.89,2.54,4.56c0.93,1.66,1.97,3.44,3.09,5.3c1.11,1.86,2.33,3.79,3.62,5.75c1.31,1.95,2.66,3.95,4.14,5.9
					c1.45,1.97,3.02,3.87,4.64,5.72c1.65,1.81,3.33,3.59,5.13,5.16c1.76,1.62,3.64,3.01,5.5,4.28c0.94,0.61,1.91,1.15,2.84,1.71
					c0.97,0.46,1.9,0.99,2.86,1.37c1.9,0.81,3.77,1.4,5.55,1.82c0.89,0.17,1.76,0.37,2.59,0.51c0.84,0.09,1.64,0.18,2.39,0.26
					c0.76,0.13,1.47,0.03,2.13,0.08c0.67,0.01,1.29,0.03,1.84,0.04c2.21-0.17,3.54-0.21,3.54-0.21s-1.18,0.51-3.35,1.3
					c-1.11,0.26-2.47,0.7-4.07,0.91c-0.81,0.09-1.68,0.19-2.59,0.29c-0.92,0.05-1.88,0-2.9,0c-2.03-0.11-4.23-0.44-6.5-1.07
					c-1.15-0.28-2.25-0.77-3.43-1.17c-1.13-0.49-2.27-1.04-3.41-1.62c-0.55-0.32-1.11-0.65-1.67-0.98l-0.84-0.5l-0.8-0.56
					c-0.54-0.38-1.08-0.76-1.62-1.14c-0.54-0.39-1.03-0.83-1.55-1.25c-2.09-1.66-3.95-3.6-5.77-5.57c-1.73-2.03-3.41-4.11-4.86-6.28
					c-0.37-0.54-0.73-1.08-1.09-1.61c-0.34-0.55-0.67-1.09-1.01-1.64c-0.68-1.07-1.28-2.18-1.88-3.26
					c-1.18-2.17-2.21-4.31-3.11-6.37c-0.9-2.06-1.67-4.04-2.31-5.88c-0.66-1.84-1.16-3.56-1.59-5.09c-0.44-1.52-0.74-2.87-0.99-3.99
					c-0.26-1.11-0.39-2-0.5-2.6C2177.5,2590.66,2177.47,2590.34,2177.47,2590.34z"/>
			</g>
			<g>
				<path fill="url(#New_Pattern_Swatch_4)" d="M1822.59,2595.22c0,0-0.3,1.61-0.82,4.42c-0.25,1.4-0.54,3.1-0.88,5.06
					c-0.31,1.95-0.66,4.15-1.05,6.55c-0.37,2.4-0.7,5-1.06,7.74c-0.34,2.75-0.67,5.64-0.94,8.63c-0.26,2.99-0.5,6.08-0.62,9.22
					c-0.14,3.14-0.17,6.31-0.12,9.49c0.09,3.17,0.25,6.33,0.6,9.41c0.09,0.77,0.17,1.54,0.26,2.3c0.12,0.76,0.23,1.51,0.35,2.26
					c0.19,1.51,0.55,2.96,0.82,4.4c0.25,1.45,0.73,2.81,1.04,4.2c0.37,1.36,0.86,2.65,1.25,3.94c0.5,1.25,0.98,2.47,1.45,3.65
					c0.55,1.14,1.08,2.25,1.6,3.31c0.57,1.03,1.19,1.98,1.72,2.92c0.53,0.95,1.19,1.74,1.72,2.55c0.28,0.4,0.55,0.78,0.81,1.16
					c0.29,0.35,0.58,0.68,0.85,1c0.54,0.65,1.04,1.25,1.49,1.8c0.96,1.03,1.77,1.81,2.3,2.36c0.54,0.56,0.82,0.85,0.82,0.85
					s-0.35-0.21-1.01-0.6c-0.64-0.42-1.66-0.95-2.84-1.79c-0.57-0.45-1.2-0.94-1.89-1.49c-0.35-0.27-0.71-0.56-1.07-0.86
					c-0.34-0.33-0.69-0.68-1.05-1.04c-0.7-0.73-1.54-1.45-2.27-2.34c-0.73-0.89-1.5-1.83-2.27-2.83c-0.7-1.06-1.43-2.16-2.19-3.29
					c-0.66-1.19-1.33-2.44-2-3.74c-0.58-1.33-1.21-2.69-1.75-4.12c-0.25-0.72-0.5-1.45-0.76-2.18c-0.26-0.74-0.51-1.48-0.7-2.25
					c-0.42-1.52-0.86-3.07-1.15-4.67c-0.16-0.8-0.33-1.6-0.49-2.4c-0.12-0.81-0.23-1.62-0.35-2.44c-0.5-3.27-0.68-6.61-0.8-9.95
					c0-1.67-0.01-3.33,0.03-4.99c0.07-1.65,0.12-3.31,0.27-4.93c0.07-0.81,0.13-1.62,0.19-2.43c0.09-0.8,0.18-1.6,0.28-2.4
					c0.17-1.59,0.4-3.15,0.64-4.68c0.48-3.06,1.07-6,1.71-8.76c0.64-2.76,1.34-5.34,2.06-7.7c0.68-2.37,1.42-4.51,2.09-6.39
					c0.66-1.89,1.32-3.51,1.87-4.83c0.54-1.33,1.03-2.35,1.35-3.05C1822.4,2595.58,1822.59,2595.22,1822.59,2595.22z"/>
			</g>
			<g>
				<path fill="url(#New_Pattern_Swatch_4)" d="M1800.59,2595.49c0,0,0,0.31,0,0.9c-0.02,0.59-0.01,1.45-0.08,2.55
					c-0.06,1.09-0.13,2.43-0.3,3.94c-0.15,1.52-0.33,3.23-0.61,5.09c-1.06,7.43-3.37,17.24-7.21,26.59
					c-0.96,2.33-2.01,4.64-3.14,6.87c-1.14,2.22-2.36,4.37-3.66,6.38c-1.3,2.01-2.65,3.9-4.06,5.59c-0.7,0.85-1.39,1.67-2.13,2.41
					c-0.71,0.76-1.41,1.47-2.14,2.11c-0.71,0.65-1.39,1.27-2.11,1.79c-0.71,0.52-1.34,1.05-2.03,1.46
					c-0.67,0.42-1.27,0.83-1.85,1.16c-0.61,0.3-1.16,0.57-1.67,0.82c-0.25,0.12-0.48,0.24-0.71,0.34c-0.23,0.08-0.45,0.16-0.66,0.23
					c-0.41,0.14-0.75,0.26-1.03,0.36c-0.56,0.18-0.86,0.28-0.86,0.28s0.25-0.2,0.71-0.56c0.45-0.38,1.17-0.83,1.95-1.58
					c0.4-0.36,0.83-0.75,1.31-1.18c0.45-0.46,0.93-0.95,1.44-1.48c0.53-0.5,1-1.14,1.54-1.76c0.54-0.61,1.07-1.3,1.6-2.02
					c0.27-0.36,0.55-0.72,0.83-1.09c0.26-0.39,0.53-0.78,0.8-1.18c0.56-0.79,1.1-1.63,1.63-2.51c1.1-1.73,2.15-3.64,3.21-5.63
					c0.53-0.99,1.02-2.03,1.55-3.06c0.5-1.05,1-2.11,1.51-3.18c0.96-2.17,1.95-4.38,2.85-6.63c0.93-2.24,1.81-4.5,2.66-6.74
					c0.85-2.24,1.65-4.46,2.43-6.62c0.76-2.17,1.5-4.26,2.19-6.25c0.69-2,1.34-3.89,1.94-5.64c1.21-3.51,2.23-6.44,2.94-8.49
					C1800.15,2596.68,1800.59,2595.49,1800.59,2595.49z"/>
			</g>
			<g>
				<path fill="url(#New_Pattern_Swatch_4)" d="M1782.27,2597.24c0,0-0.03,0.28-0.09,0.8c-0.07,0.52-0.15,1.29-0.32,2.26
					c-0.31,1.94-0.84,4.68-1.65,7.93c-0.82,3.25-1.92,7-3.34,10.94c-0.71,1.97-1.49,3.99-2.36,6.02c-0.85,2.03-1.79,4.07-2.79,6.08
					c-1.01,2.01-2.08,3.99-3.22,5.9c-1.12,1.92-2.35,3.75-3.59,5.49c-0.66,0.85-1.26,1.7-1.93,2.5c-0.68,0.78-1.3,1.58-1.99,2.29
					c-1.36,1.44-2.72,2.75-4.11,3.81c-0.35,0.26-0.69,0.52-1.02,0.78c-0.34,0.24-0.7,0.46-1.04,0.67c-0.34,0.21-0.67,0.41-1,0.61
					c-0.34,0.17-0.68,0.33-1,0.49c-0.32,0.15-0.63,0.3-0.93,0.45c-0.32,0.12-0.63,0.21-0.93,0.31c-0.59,0.18-1.12,0.36-1.64,0.41
					c-0.51,0.08-0.95,0.15-1.34,0.18c-0.39-0.02-0.73-0.03-1-0.04c-0.53-0.04-0.81-0.05-0.81-0.05s0.27-0.09,0.77-0.26
					c0.24-0.08,0.54-0.18,0.89-0.29c0.33-0.17,0.7-0.36,1.13-0.57c0.42-0.18,0.85-0.49,1.3-0.81c0.23-0.16,0.46-0.32,0.71-0.49
					c0.23-0.2,0.47-0.4,0.71-0.61c0.24-0.21,0.49-0.42,0.75-0.64c0.24-0.25,0.48-0.5,0.73-0.76c0.24-0.27,0.51-0.51,0.76-0.79
					c0.24-0.29,0.49-0.59,0.75-0.89c0.52-0.58,1.02-1.25,1.53-1.93c0.53-0.66,1.02-1.42,1.54-2.16c1.03-1.5,2.04-3.16,3.07-4.88
					c0.5-0.87,1-1.76,1.51-2.66c0.49-0.91,1-1.84,1.5-2.77c0.98-1.88,2-3.79,2.94-5.74c0.99-1.93,1.92-3.89,2.86-5.82
					c0.93-1.94,1.84-3.84,2.72-5.69c1.78-3.71,3.44-7.18,4.86-10.15c0.74-1.49,1.41-2.85,2.01-4.06c0.59-1.21,1.15-2.26,1.59-3.13
					C1781.72,2598.23,1782.27,2597.24,1782.27,2597.24z"/>
			</g>
			<g>
				<path fill="url(#New_Pattern_Swatch_4)" d="M1765.33,2590.06c0,0-0.03,0.32-0.13,0.93c-0.11,0.6-0.24,1.49-0.5,2.6
					c-0.24,1.11-0.55,2.46-0.99,3.99c-0.43,1.52-0.94,3.25-1.59,5.09c-0.64,1.85-1.41,3.82-2.31,5.88c-0.9,2.06-1.93,4.2-3.11,6.37
					c-0.6,1.08-1.2,2.18-1.88,3.26c-0.33,0.54-0.67,1.09-1.01,1.64c-0.36,0.53-0.73,1.07-1.09,1.61c-1.45,2.17-3.12,4.24-4.86,6.28
					c-1.82,1.96-3.68,3.91-5.77,5.57c-0.52,0.42-1.01,0.86-1.55,1.25c-0.54,0.38-1.08,0.76-1.62,1.14l-0.8,0.56l-0.84,0.5
					c-0.56,0.33-1.12,0.65-1.67,0.98c-1.14,0.59-2.28,1.14-3.41,1.62c-1.18,0.4-2.28,0.89-3.43,1.17c-2.27,0.63-4.47,0.96-6.5,1.07
					c-1.02,0-1.99,0.05-2.9,0c-0.91-0.1-1.77-0.2-2.59-0.29c-1.61-0.22-2.96-0.65-4.07-0.91c-2.17-0.79-3.35-1.3-3.35-1.3
					s1.33,0.04,3.54,0.21c0.56-0.01,1.17-0.02,1.84-0.04c0.67-0.05,1.37,0.05,2.13-0.08c0.75-0.08,1.55-0.17,2.39-0.26
					c0.83-0.14,1.7-0.34,2.59-0.51c1.78-0.42,3.65-1.01,5.55-1.82c0.96-0.38,1.89-0.91,2.86-1.37c0.93-0.56,1.9-1.1,2.84-1.71
					c1.86-1.28,3.74-2.66,5.5-4.28c1.79-1.57,3.48-3.35,5.13-5.16c1.62-1.85,3.18-3.76,4.64-5.72c1.48-1.94,2.83-3.95,4.14-5.9
					c1.28-1.97,2.5-3.89,3.62-5.75c1.12-1.86,2.16-3.64,3.09-5.3c0.93-1.67,1.79-3.2,2.54-4.56c0.74-1.38,1.38-2.58,1.91-3.57
					C1764.73,2591.21,1765.33,2590.06,1765.33,2590.06z"/>
			</g>
			<g>
				<path fill="url(#New_Pattern_Swatch_4)" d="M2093.88,2614.27c0,0,0.39,0.19,1.04,0.52c0.63,0.33,1.54,0.8,2.63,1.36
					c1.08,0.54,2.31,1.17,3.63,1.75c0.66,0.29,1.33,0.57,2.02,0.81c0.68,0.25,1.37,0.44,2.06,0.59c0.68,0.14,1.35,0.21,1.98,0.22
					c0.62-0.04,1.24-0.07,1.79-0.28c0.57-0.16,1.09-0.45,1.59-0.76c0.24-0.18,0.48-0.36,0.7-0.53c0.22-0.2,0.43-0.4,0.63-0.58
					c0.21-0.19,0.37-0.41,0.56-0.6c0.19-0.19,0.36-0.38,0.5-0.57c0.28-0.39,0.6-0.71,0.79-1.01c0.42-0.59,0.7-0.92,0.7-0.92
					s0,0.42-0.09,1.17c-0.03,0.38-0.14,0.82-0.27,1.33c-0.11,0.52-0.35,1.08-0.62,1.7c-0.17,0.3-0.34,0.61-0.53,0.93
					c-0.21,0.31-0.47,0.61-0.72,0.93c-0.29,0.29-0.6,0.59-0.94,0.87c-0.36,0.25-0.73,0.54-1.16,0.73c-0.83,0.46-1.8,0.68-2.76,0.79
					c-0.97,0.09-1.93-0.01-2.85-0.18c-0.9-0.22-1.78-0.48-2.58-0.86c-0.81-0.35-1.55-0.78-2.23-1.22c-1.36-0.89-2.49-1.88-3.36-2.81
					c-0.88-0.91-1.51-1.77-1.93-2.39C2094.07,2614.66,2093.88,2614.27,2093.88,2614.27z"/>
			</g>
			<g>
				<path fill="url(#New_Pattern_Swatch_4)" d="M2132.08,2617.31c0,0,0.25,0.02,0.63,0.08c0.39,0.06,0.92,0.17,1.51,0.3
					c1.17,0.26,2.65,0.77,3.75,0.93c0.26,0.05,0.51,0.06,0.69,0.06c0.18-0.01,0.33,0.01,0.48-0.04c0.16-0.03,0.33-0.11,0.52-0.25
					c0.19-0.14,0.37-0.33,0.55-0.52c0.16-0.21,0.35-0.41,0.49-0.61c0.13-0.2,0.29-0.38,0.39-0.54c0.22-0.32,0.38-0.51,0.38-0.51
					s0.13,0.21,0.27,0.59c0.15,0.38,0.29,0.95,0.29,1.69c-0.03,0.37-0.08,0.79-0.26,1.24c-0.18,0.44-0.47,0.93-0.94,1.33
					c-0.45,0.41-1.07,0.69-1.66,0.81c-0.6,0.14-1.17,0.1-1.7,0.04c-1.05-0.17-1.91-0.59-2.61-1.06c-0.71-0.47-1.26-1.02-1.67-1.54
					c-0.41-0.52-0.69-1.01-0.86-1.38C2132.15,2617.55,2132.08,2617.31,2132.08,2617.31z"/>
			</g>
			<g>
				<path fill="url(#New_Pattern_Swatch_4)" d="M2153.63,2614c0,0,0.25,0.01,0.63,0.05c0.39,0.04,0.92,0.12,1.52,0.22
					c0.55,0.11,1.2,0.23,1.89,0.37c0.32,0.06,0.63,0.11,0.91,0.13c0.28,0.03,0.52,0.04,0.66,0c0.15-0.01,0.16-0.03,0.21-0.01
					c0.04,0.02,0.15-0.08,0.28-0.24c0.24-0.37,0.47-0.98,0.64-1.53c0.2-0.59,0.36-1.09,0.48-1.44c0.13-0.37,0.24-0.6,0.24-0.6
					s0.17,0.17,0.41,0.49c0.12,0.16,0.27,0.36,0.39,0.61c0.13,0.24,0.29,0.52,0.4,0.85c0.12,0.32,0.22,0.69,0.28,1.11
					c0.05,0.42,0.06,0.9-0.05,1.43c-0.13,0.53-0.35,1.17-0.92,1.71c-0.54,0.55-1.31,0.84-1.96,0.91c-0.66,0.07-1.23-0.01-1.72-0.15
					c-0.5-0.13-0.93-0.33-1.31-0.54c-0.76-0.43-1.35-0.95-1.79-1.45c-0.44-0.5-0.75-0.98-0.93-1.34
					C2153.7,2614.23,2153.63,2614,2153.63,2614z"/>
			</g>
			<g>
				<path fill="url(#New_Pattern_Swatch_4)" d="M2173.23,2605.44c0,0,0.18-0.03,0.44-0.06c0.26-0.03,0.6-0.05,0.95-0.08
					c0.35-0.02,0.71-0.03,0.99-0.06c0.07-0.01,0.13-0.02,0.2-0.01c0.05-0.02,0.1-0.04,0.15-0.03c0.05,0.01,0.07-0.03,0.09-0.03
					c0.02-0.01,0.05,0.01,0.04-0.01c0,0,0,0.01,0.01,0.02c-0.01-0.01,0,0.01,0.01,0.02c0.02,0.04,0.08,0.01,0.18,0.03
					c0.09-0.05,0.21-0.09,0.34-0.14c0.12-0.09,0.26-0.18,0.4-0.26c0.3-0.17,0.55-0.39,0.78-0.52c0.22-0.14,0.39-0.23,0.39-0.23
					s0.12,0.13,0.26,0.36c0.13,0.24,0.34,0.57,0.39,1.01c0.03,0.22,0.04,0.47,0.03,0.73c-0.06,0.27-0.15,0.57-0.28,0.87
					c-0.09,0.16-0.21,0.3-0.33,0.45c-0.12,0.15-0.24,0.3-0.44,0.42c-0.18,0.12-0.37,0.24-0.56,0.34c-0.2,0.07-0.42,0.13-0.63,0.17
					c-0.41,0.06-0.83,0.04-1.16-0.05c-0.35-0.08-0.64-0.22-0.88-0.38c-0.26-0.15-0.44-0.34-0.61-0.52c-0.16-0.19-0.3-0.37-0.4-0.57
					c-0.2-0.38-0.3-0.74-0.33-1.02C2173.21,2605.61,2173.23,2605.44,2173.23,2605.44z"/>
			</g>
			<g>
				<path fill="url(#New_Pattern_Swatch_4)" d="M2185.94,2596.87c0,0,0.21,0.03,0.52,0.11c0.32,0.07,0.74,0.2,1.2,0.35
					c0.45,0.16,0.94,0.37,1.4,0.56c0.23,0.1,0.44,0.18,0.63,0.25c0.18,0.06,0.33,0.09,0.32,0.08c0.01-0.01-0.33,0.04-0.43,0.21
					c-0.11,0.13,0.01,0.15,0.1,0.01c0.1-0.11,0.22-0.31,0.32-0.51c0.11-0.2,0.21-0.42,0.32-0.62c0.21-0.42,0.43-0.81,0.59-1.08
					c0.16-0.28,0.3-0.45,0.3-0.45s0.16,0.14,0.36,0.4c0.21,0.26,0.46,0.64,0.67,1.15c0.09,0.26,0.19,0.54,0.24,0.87
					c0.05,0.32,0.08,0.69,0.01,1.13c-0.06,0.41-0.22,0.98-0.78,1.53c-0.26,0.26-0.67,0.52-1.06,0.6c-0.21,0.06-0.4,0.08-0.58,0.09
					c-0.19,0.01-0.36,0-0.51-0.02c-0.62-0.11-1.05-0.32-1.4-0.55c-0.34-0.23-0.63-0.48-0.86-0.73c-0.47-0.51-0.77-1.04-0.97-1.54
					c-0.2-0.5-0.3-0.94-0.34-1.27C2185.92,2597.09,2185.94,2596.87,2185.94,2596.87z"/>
			</g>
			<g>
				<path fill="url(#New_Pattern_Swatch_4)" d="M1849.91,2615.38c0,0-0.19,0.39-0.6,1.01c-0.41,0.62-1.04,1.47-1.93,2.39
					c-0.87,0.93-2,1.92-3.36,2.81c-0.68,0.44-1.42,0.87-2.23,1.22c-0.79,0.38-1.67,0.64-2.58,0.86c-0.92,0.17-1.88,0.27-2.85,0.18
					c-0.96-0.11-1.93-0.33-2.76-0.79c-0.43-0.19-0.8-0.48-1.16-0.73c-0.34-0.28-0.65-0.58-0.94-0.87c-0.25-0.32-0.5-0.63-0.72-0.93
					c-0.18-0.32-0.36-0.63-0.53-0.93c-0.27-0.62-0.51-1.18-0.62-1.7c-0.13-0.51-0.24-0.96-0.27-1.33c-0.08-0.75-0.09-1.17-0.09-1.17
					s0.28,0.34,0.7,0.92c0.19,0.3,0.5,0.62,0.79,1.01c0.14,0.2,0.31,0.39,0.5,0.57c0.19,0.19,0.35,0.41,0.56,0.6
					c0.2,0.19,0.41,0.38,0.63,0.58c0.23,0.17,0.46,0.35,0.7,0.53c0.5,0.31,1.02,0.59,1.59,0.76c0.55,0.21,1.17,0.24,1.79,0.28
					c0.63,0,1.3-0.07,1.98-0.22c0.68-0.15,1.37-0.34,2.06-0.59c0.68-0.24,1.36-0.52,2.02-0.81c1.31-0.59,2.54-1.21,3.63-1.75
					c1.09-0.56,2-1.03,2.63-1.36C1849.52,2615.56,1849.91,2615.38,1849.91,2615.38z"/>
			</g>
			<g>
				<path fill="url(#New_Pattern_Swatch_4)" d="M1811.71,2618.42c0,0-0.06,0.24-0.23,0.6c-0.17,0.37-0.45,0.86-0.86,1.38
					c-0.42,0.52-0.97,1.07-1.67,1.54c-0.7,0.47-1.56,0.89-2.61,1.06c-0.53,0.07-1.1,0.1-1.7-0.04c-0.59-0.12-1.2-0.4-1.66-0.81
					c-0.47-0.4-0.77-0.89-0.94-1.33c-0.18-0.45-0.23-0.87-0.26-1.24c-0.01-0.74,0.14-1.3,0.29-1.69c0.15-0.38,0.27-0.59,0.27-0.59
					s0.16,0.19,0.38,0.51c0.1,0.16,0.26,0.34,0.39,0.54c0.13,0.21,0.33,0.4,0.49,0.61c0.18,0.19,0.36,0.39,0.55,0.52
					c0.19,0.14,0.37,0.22,0.52,0.25c0.15,0.05,0.3,0.03,0.48,0.04c0.18,0,0.42-0.02,0.69-0.06c1.1-0.16,2.57-0.66,3.75-0.93
					c0.6-0.14,1.12-0.24,1.51-0.3C1811.46,2618.44,1811.71,2618.42,1811.71,2618.42z"/>
			</g>
			<g>
				<path fill="url(#New_Pattern_Swatch_4)" d="M1790.17,2615.1c0,0-0.07,0.24-0.26,0.59c-0.19,0.36-0.49,0.83-0.93,1.34
					c-0.44,0.5-1.03,1.02-1.79,1.45c-0.38,0.22-0.81,0.41-1.31,0.54c-0.49,0.14-1.06,0.22-1.72,0.15c-0.65-0.08-1.42-0.37-1.96-0.91
					c-0.57-0.54-0.79-1.17-0.92-1.71c-0.11-0.54-0.1-1.01-0.05-1.43c0.06-0.42,0.15-0.79,0.28-1.11c0.11-0.33,0.27-0.6,0.4-0.85
					c0.12-0.25,0.27-0.44,0.39-0.61c0.24-0.32,0.41-0.49,0.41-0.49s0.11,0.23,0.24,0.6c0.12,0.35,0.28,0.84,0.48,1.44
					c0.16,0.55,0.4,1.16,0.64,1.53c0.13,0.16,0.24,0.26,0.28,0.24c0.05-0.01,0.06,0,0.21,0.01c0.14,0.03,0.38,0.02,0.66,0
					c0.28-0.03,0.59-0.08,0.91-0.13c0.69-0.13,1.34-0.26,1.89-0.37c0.6-0.1,1.13-0.18,1.52-0.22
					C1789.92,2615.11,1790.17,2615.1,1790.17,2615.1z"/>
			</g>
			<g>
				<path fill="url(#New_Pattern_Swatch_4)" d="M1770.56,2606.54c0,0,0.02,0.18-0.02,0.45c-0.04,0.27-0.13,0.64-0.33,1.02
					c-0.1,0.19-0.24,0.38-0.4,0.57c-0.18,0.18-0.36,0.37-0.61,0.52c-0.24,0.16-0.53,0.3-0.88,0.38c-0.33,0.09-0.75,0.11-1.16,0.05
					c-0.21-0.05-0.43-0.11-0.63-0.17c-0.2-0.09-0.39-0.22-0.56-0.34c-0.19-0.11-0.31-0.26-0.44-0.42c-0.12-0.15-0.24-0.3-0.33-0.45
					c-0.13-0.3-0.22-0.6-0.28-0.87c-0.01-0.26,0-0.51,0.03-0.73c0.05-0.45,0.26-0.78,0.39-1.01c0.14-0.23,0.26-0.36,0.26-0.36
					s0.17,0.09,0.39,0.23c0.23,0.13,0.48,0.36,0.78,0.52c0.14,0.09,0.28,0.17,0.4,0.26c0.14,0.05,0.26,0.09,0.34,0.14
					c0.1-0.02,0.15,0.01,0.18-0.03c0.01-0.02,0.01-0.04,0.01-0.02c0.01-0.02,0.01-0.02,0.01-0.02c-0.01,0.02,0.03,0.01,0.04,0.01
					c0.02,0,0.04,0.04,0.09,0.03c0.04,0,0.09,0.02,0.15,0.03c0.06,0,0.13,0,0.2,0.01c0.28,0.03,0.64,0.04,0.99,0.06
					c0.35,0.03,0.69,0.05,0.95,0.08C1770.38,2606.51,1770.56,2606.54,1770.56,2606.54z"/>
			</g>
			<g>
				<path fill="url(#New_Pattern_Swatch_4)" d="M1757.86,2597.98c0,0,0.01,0.21-0.03,0.54c-0.04,0.33-0.14,0.78-0.34,1.27
					c-0.2,0.49-0.5,1.03-0.97,1.54c-0.23,0.26-0.51,0.51-0.86,0.73c-0.35,0.23-0.78,0.44-1.4,0.55c-0.15,0.02-0.32,0.03-0.51,0.02
					c-0.18,0-0.37-0.03-0.58-0.09c-0.39-0.08-0.8-0.34-1.06-0.6c-0.55-0.54-0.72-1.12-0.78-1.53c-0.08-0.44-0.05-0.8,0.01-1.13
					c0.05-0.33,0.15-0.61,0.24-0.87c0.21-0.51,0.46-0.89,0.67-1.15c0.21-0.26,0.36-0.4,0.36-0.4s0.13,0.17,0.3,0.45
					c0.16,0.28,0.38,0.66,0.59,1.08c0.11,0.21,0.21,0.43,0.32,0.62c0.1,0.2,0.22,0.4,0.32,0.51c0.09,0.15,0.21,0.13,0.1-0.01
					c-0.1-0.17-0.45-0.22-0.43-0.21c-0.01,0.01,0.13-0.02,0.32-0.08c0.18-0.07,0.4-0.15,0.63-0.25c0.45-0.19,0.94-0.4,1.4-0.56
					c0.46-0.16,0.88-0.28,1.2-0.35C1757.65,2598.01,1757.86,2597.98,1757.86,2597.98z"/>
			</g>
		</g>
		
			<use xlink:href="#SVGID_1_"  overflow="visible" fill="none" stroke="url(#New_Pattern_Swatch_4)" stroke-width="4.4187" stroke-miterlimit="5"/>
	</g>
	<g>
		<defs>
			<path id="SVGID_3_" d="M1843.48,515.37c0,0,0-16.57,5.52-18.78c0,0-30.93-76.59,51.92-113.78c0,0,8.1-23.57,23.93-26.14
				c0,0-10.68,7-11.42,18.41c0,0,21.73-25.04,67.39-15.83c45.66,9.21,83.59-1.47,95,43.08c0,0,10.13,4.23,12.89,25.22
				c2.76,20.99,9.39,9.94,6.08,36.45c0,0,10.49,12.15-1.1,34.25c-11.6,22.09-25.96,23.75-28.72,52.47c0,0,1.66-43.64-4.42-42.53
				s-14.36-16.57-28.17-10.49s-59.1-60.21-59.1-60.21s-9.39-6.08-5.52,3.87c3.87,9.94,9.39,10.49,9.39,10.49s-10.68-1.84-15.1-4.42
				c-4.42-2.58-23.57-35.35-38.66-25.96c0,0-4.05,14.55,13.99,21.73c0,0-18.41,5.52-28.54-1.47c0,0,1.84,29.83-4.23,53.02
				c-6.08,23.2-23.2,0.92-22.46,51.18c0,0-5.66-33.19-29.96-24.9C1852.18,521.03,1847.07,529.18,1843.48,515.37z"/>
		</defs>
		<use xlink:href="#SVGID_3_"  overflow="visible" fill="#513E2E"/>
		<clipPath id="SVGID_4_">
			<use xlink:href="#SVGID_3_"  overflow="visible"/>
		</clipPath>
		<path clip-path="url(#SVGID_4_)" fill="url(#New_Pattern_Swatch_3)" d="M1988.2,472.29c0,0,3.31-27.62-24.3-45.29
			c0,0,17.31-7.73,36.45,19.52c0,0-9.32-24.69-20.62-30.19c0,0,27.99,11.05,41.98,42.71s105.31,43.45,105.31,43.45l-121.52,24.3
			L1988.2,472.29z"/>
		<path clip-path="url(#SVGID_4_)" fill="url(#New_Pattern_Swatch_3)" d="M1998.14,366.24c0,0,32.4-3.68,57.44,33.14
			c25.04,36.82,95,34.61,95,34.61s-71.44,10.31-111.94-12.52c0,0,119.31,90.58,190.01,71.44c0,0-156.13-19.15-192.95-59.65
			c0,0,30.19,30.19,44.92,32.4c0,0-49.34-5.16-104.58-69.23c0,0,29.46,23.57,48.61,21.36c0,0-42.71-19.88-42.71-33.88
			c0,0,33.14,25.78,67.02,26.51c0,0-12.52-31.67-45.66-30.19c0,0,5.16-5.16,14.73-5.16
			C2018.03,375.07,2009.92,366.24,1998.14,366.24z"/>
		<path clip-path="url(#SVGID_4_)" fill="url(#New_Pattern_Swatch_3)" d="M1828.02,515c0,0,32.64,10.88,54.15-16.39
			c7.7-9.77,11.69-21.97,11.67-34.41c-0.02-14.81-7.41-35.69,19.61-53.04c0,0-9.57-3.68-22.09,8.84s-14.73,85.43-68.49,87.64
			s13.99-13.99,13.99-13.99s38.3-25.04,38.3-47.87c0,0-15.93,8.65-23.29,24.86c0,0,7.09-49.16,32.86-65.36s25.78-16.2,25.78-16.2
			s-86.9,19.88-97.95,89.11s-36.09,32.4-36.09,32.4L1828.02,515z"/>
		
			<use xlink:href="#SVGID_3_"  overflow="visible" fill="none" stroke="url(#New_Pattern_Swatch_1)" stroke-width="4.4187" stroke-miterlimit="5"/>
	</g>
	<g id="Eye">
		<path fill="#FFFFFF" d="M1910.56,526.95l16.46-3.8l17.76,5.03l5.55,3.89l-4.13,3.77l-6.76,2.69c0,0-11.95,3.57-24.27-4.19
			l-5.33-5.93L1910.56,526.95z"/>
		<circle fill="#4556AF" cx="1929.7" cy="530.57" r="7.76"/>
		<circle cx="1929.96" cy="530.47" r="4.58"/>
		<circle fill="#FFFFFF" cx="1925.99" cy="529.36" r="2.27"/>
		<circle fill="#FFFFFF" cx="1933.47" cy="530.09" r="1.14"/>
		<path d="M1904.31,526.76c0,0,23.42-15.6,40.9-0.51c0,0,4.31,4.14,9.22,8.09c0,0-4.4,0.04-6.63,1.67
			c-2.22,1.63-8.57,3.54-11.4,3.01c0,0,7.87-1.6,12.35-6.7c0,0-19.03-9.75-35.26-3.06c0,0,0.54,4.73,7.75,8.15
			C1921.23,537.42,1910.08,534.94,1904.31,526.76z"/>
		<path d="M1900.1,514.82c0,0,25-10.53,48.28,1.82c1.52,0.81,3.37,0.91,4.91,0.14c2-1,2.78-1.63-2.38-6.47
			C1942.08,502.02,1915.29,506.26,1900.1,514.82z"/>
	</g>
	<g id="Eye_1_">
		<path fill="#FFFFFF" d="M2033.43,526.95l-16.46-3.8l-17.76,5.03l-5.55,3.89l4.13,3.77l6.76,2.69c0,0,11.95,3.57,24.27-4.19
			l5.33-5.93L2033.43,526.95z"/>
		<circle fill="#4556AF" cx="2014.29" cy="530.57" r="7.76"/>
		<circle cx="2014.02" cy="530.47" r="4.58"/>
		<circle fill="#FFFFFF" cx="2018" cy="529.36" r="2.27"/>
		<circle fill="#FFFFFF" cx="2010.52" cy="530.09" r="1.14"/>
		<path d="M2039.68,526.76c0,0-23.42-15.6-40.9-0.51c0,0-4.31,4.14-9.22,8.09c0,0,4.4,0.04,6.63,1.67c2.22,1.63,8.57,3.54,11.4,3.01
			c0,0-7.87-1.6-12.35-6.7c0,0,19.03-9.75,35.26-3.06c0,0-0.54,4.73-7.75,8.15C2022.75,537.42,2033.91,534.94,2039.68,526.76z"/>
		<path d="M2040.9,514.82c0,0-25-10.53-48.28,1.82c-1.52,0.81-3.37,0.91-4.91,0.14c-2-1-2.78-1.63,2.38-6.47
			C1998.92,502.02,2025.71,506.26,2040.9,514.82z"/>
	</g>
	<ellipse cx="1981.02" cy="596.56" rx="6.08" ry="2.21"/>
	<ellipse cx="1958.56" cy="596.56" rx="6.08" ry="2.21"/>
	<g id="lips">
		<defs>
			<path id="SVGID_5_" d="M1944.01,628.57c0,0,12.81-7.92,19.73-8.81c0,0,2.95,0.1,6.97,3.39c0,0,5.22-3.33,7.14-3.28
				c1.93,0.05,11.51,4.64,19.05,8.75c0,0-12.42,12.24-25.91,9.54C1971,638.16,1957.05,641.18,1944.01,628.57z"/>
		</defs>
		<use xlink:href="#SVGID_5_"  overflow="visible" fill="#D6AF9F"/>
		<clipPath id="SVGID_6_">
			<use xlink:href="#SVGID_5_"  overflow="visible"/>
		</clipPath>
		<path clip-path="url(#SVGID_6_)" fill="none" stroke="#754F4B" stroke-width="1.1047" stroke-miterlimit="5" d="M1937.04,629.14
			l5.67-0.99c0,0,7.94,2.14,15.76,0.68c7.82-1.46,23.59,0.1,23.59,0.1s19.79,1.2,22.96-1.62"/>
		<use xlink:href="#SVGID_5_"  overflow="visible" fill="none" stroke="#754F4B" stroke-width="2.2094" stroke-miterlimit="5"/>
	</g>
	
		<ellipse transform="matrix(0.9312 0.3645 -0.3645 0.9312 490.1272 -591.1697)" fill="#AD8482" stroke="#754F4B" stroke-width="2.2094" stroke-miterlimit="5" cx="1811.32" cy="1002.96" rx="17.87" ry="3.94"/>
	
		<ellipse transform="matrix(-0.9312 0.3645 -0.3645 -0.9312 4461.6484 1163.9208)" fill="#AD8482" stroke="#754F4B" stroke-width="2.2094" stroke-miterlimit="5" cx="2121" cy="1002.96" rx="17.87" ry="3.94"/>
</g>
</svg>
