<?xml version="1.0" encoding="utf-8"?>
<!-- Generator: Adobe Illustrator 19.0.0, SVG Export Plug-In . SVG Version: 6.00 Build 0)  -->
<svg version="1.1" id="Layer_1" xmlns="http://www.w3.org/2000/svg" xmlns:xlink="http://www.w3.org/1999/xlink" x="0px" y="0px"
	 viewBox="0 0 4096 3112" enable-background="new 0 0 4096 3112" xml:space="preserve">
<g id="Man_Highlights">
	<path id="Chest" opacity="0.37" fill="#FFFFFF" d="M1860,793.67c-39.11-7.22-75.93,9.88-91.98,46.27
		c-17.25,39.1-15.29,87.48,9.79,122.08c25.08,34.6,74.27,51.42,113.55,34.61c27.71-11.86,50.92-38.68,81.01-36.97
		c18.87,1.07,34.87,13.42,51.82,21.77c32.3,15.92,71.92,17.32,104.35,1.66c32.43-15.67,56.36-48.74,58.91-84.67
		c2.55-35.92-17.5-73-49.93-88.66c-53.72-25.94-96.95,9.29-147.7,20.34C1939.38,841.08,1905.69,802.1,1860,793.67z"/>
	<path id="Neck" opacity="0.37" fill="#FFFFFF" d="M2038.09,671.63c0,0-22.5,131.99-64.5,131.99s-65.29-136.74-65.29-136.74
		s62.29,72.24,134.29-1.25"/>
	<path id="Head" opacity="0.37" fill="#FFFFFF" d="M1951.1,448.15c0,0,40.5,64.5,100.5,67.5c0,0,10.5,61.5-16.5,112.49
		c0,0-60,84-119.99,3c0,0-27-36-24-96c0,0,34.5-25.5,31.5-75C1922.6,460.15,1939.1,473.64,1951.1,448.15z"/>
	<path id="Left_Arm" opacity="0.37" fill="#FFFFFF" d="M2314.08,1130.61c0,0-22.5,52.5-93,31.5c0,0-7.5-91.5-45-154.49
		c0,0,87-137.99-15-205.49c0,0,54,15,52.5-19.5c0,0,85.5,37.5,63,175.49C2276.58,958.12,2305.08,1015.12,2314.08,1130.61z"/>
	<path id="Right_Arm" opacity="0.37" fill="#FFFFFF" d="M1628.08,1130.61c0,0,22.5,52.5,93,31.5c0,0,7.5-91.5,45-154.49
		c0,0-87-137.99,15-205.49c0,0-54,15-52.5-19.5c0,0-85.5,37.5-63,175.49C1665.58,958.12,1637.08,1015.12,1628.08,1130.61z"/>
	<path id="Left_Forearm" opacity="0.37" fill="#FFFFFF" d="M2221.08,1187.61c0,0,78,31.5,103.49-28.5c0,0,31.5,94.5,24,173.99
		c0,0,6,91.5,25.5,142.49c0,0-34.5-9-52.5,13.5c0,0-22.5-110.99-57-136.49C2264.58,1352.6,2222.58,1271.6,2221.08,1187.61z"/>
	<path id="Right_Forearm" opacity="0.37" fill="#FFFFFF" d="M1721.07,1187.61c0,0-78,31.5-103.49-28.5c0,0-31.5,94.5-24,173.99
		c0,0-6,91.5-25.5,142.49c0,0,34.5-9,52.5,13.5c0,0,22.5-110.99,57-136.49C1677.58,1352.6,1719.57,1271.6,1721.07,1187.61z"/>
	<path id="Left_Hand" opacity="0.37" fill="#FFFFFF" d="M2377.07,1486.09c0,0-22.5-13.5-49.5,13.5c0,0-12,33-9,64.5
		c3,31.5,24,84,19.5,122.99c0,0,7.26,21.92,10.92-0.75c3.67-22.67-8.33-86.67-8.33-86.67s18.67,3.67,27,58.33l10,57.33
		c0,0,11,13,20-2c0,0,14,8.33,16-10.33l4.33-12.67c0,0,13,25.33,20,0c7-25.33-10-144.33-10-144.33s27,5.17,35.5,26.17
		c0,0,22.33,9.5,10.83-11s-42.33-43-42.33-43S2400.48,1484.69,2377.07,1486.09z"/>
	<path id="Right_Hand" opacity="0.37" fill="#FFFFFF" d="M1565.65,1486.09c0,0,22.5-13.5,49.5,13.5c0,0,12,33,9,64.5
		s-24,84-19.5,122.99c0,0-7.26,21.92-10.92-0.75c-3.67-22.67,8.33-86.67,8.33-86.67s-18.67,3.67-27,58.33l-10,57.33c0,0-11,13-20-2
		c0,0-14,8.33-16-10.33l-4.33-12.67c0,0-13,25.33-20,0c-7-25.33,10-144.33,10-144.33s-27,5.17-35.5,26.17c0,0-22.33,9.5-10.83-11
		s42.33-43,42.33-43S1542.24,1484.69,1565.65,1486.09z"/>
	<path id="Abdomen" opacity="0.37" fill="#FFFFFF" d="M1970,1431c0,0-144-34-159-85s5-40,4-151s-37-162-37-162c103,42,192-11,192-11
		s89,53,192,11c0,0-36,51-37,162s19,100,4,151S1970,1431,1970,1431z"/>
	<path id="Penis" opacity="0.37" fill="#FFFFFF" d="M1938,1432.5l31.5,9l33-9.5l2.5,67c0,0,28,93-31.5,87c0,0-64,16.5-35.5-89
		V1432.5z"/>
	<path id="Left_Lower_Limb" opacity="0.37" fill="#FFFFFF" d="M2141,1373c0,0-57,51-124,59c0,0,22,94,8,141s-26,35-26,35
		s6,124,52,203c0,0-13,88,19,170c0,0,100.26,92.34,109,12s-26-127,3-210S2141,1373,2141,1373z"/>
	<path id="Left_Leg" opacity="0.37" fill="#FFFFFF" d="M2080,2023.33c0,0,92,61.33,99.33,10.67c0,0,37.67,77-11.33,208
		c0,0-40,120-24,226c0,0-37,76-72-23c0,0,31-52,31-120s-51-104-25-238C2078,2087,2085,2043.67,2080,2023.33z"/>
	<path id="Right_Lower_Limb" opacity="0.37" fill="#FFFFFF" d="M1801.16,1373c0,0,57,51,124,59c0,0-22,94-8,141s26,35,26,35
		s-6,124-52,203c0,0,13,88-19,170c0,0-100.26,92.34-109,12s26-127-3-210S1801.16,1373,1801.16,1373z"/>
	<path id="Right_Leg" opacity="0.37" fill="#FFFFFF" d="M1862.16,2023.33c0,0-92,61.33-99.33,10.67c0,0-37.67,77,11.33,208
		c0,0,40,120,24,226c0,0,37,76,72-23c0,0-31-52-31-120s51-104,25-238C1864.16,2087,1857.16,2043.67,1862.16,2023.33z"/>
	<path id="Left_Foot" opacity="0.37" fill="#FFFFFF" d="M2073.5,2485.5c0,0,42.5,53.5,73-6c0,0,3.5,35.5,27.5,63s8.5,44.5,8.5,44.5
		s-42,50.5-95.5,5.5c0,0-14.5-12.5-0.5-42S2073.5,2485.5,2073.5,2485.5z"/>
	<path id="Right_Foot" opacity="0.37" fill="#FFFFFF" d="M1870.42,2485.5c0,0-42.5,53.5-73-6c0,0-3.5,35.5-27.5,63
		s-8.5,44.5-8.5,44.5s42,50.5,95.5,5.5c0,0,14.5-12.5,0.5-42S1870.42,2485.5,1870.42,2485.5z"/>
	<path id="Left_Shoulder" opacity="0.37" fill="#FFFFFF" d="M2044.67,716.67c0,0-8,54-34,80c0,0,60-34,147.33-5.33
		c0,0,44-3.33,27.33-21.33C2185.33,770,2076,756.67,2044.67,716.67z"/>
	<path id="Right_Shoulder" opacity="0.37" fill="#FFFFFF" d="M1903.1,716.67c0,0,8,54,34,80c0,0-60-34-147.33-5.33
		c0,0-44-3.33-27.33-21.33C1762.44,770,1871.77,756.67,1903.1,716.67z"/>
</g>
</svg>
