<?xml version="1.0" encoding="utf-8"?>
<!-- Generator: Adobe Illustrator 19.0.0, SVG Export Plug-In . SVG Version: 6.00 Build 0)  -->
<svg width="4096" height="3112" id="Layer_1" xmlns="http://www.w3.org/2000/svg" xmlns:xlink="http://www.w3.org/1999/xlink" x="0px" y="0px"
     viewBox="0 0 4096 3112" enable-background="new 0 0 4096 3112" xml:space="preserve">
<g>
    <path fill="#967171" stroke="#5B2A2A" stroke-width="39.7322" stroke-miterlimit="10" d="M2161.59,1015.62
        c183.02,70.89,372.5,215.74,328.11,510.3c0,0-88.22,349.34-412.33,446.97c-11.3,3.4-22.81,6.06-34.34,8.59
        c-36.01,7.88-194.77,69.12-171.63,535.22c0,0-48.42,37.25-89.39,0c0,0,37.25-543.81-197.41-569.88
        c-234.66-26.07-387.37-350.12-387.37-350.12s-193.82-484.54,458.13-620.24C1824.48,941.24,2000.5,953.22,2161.59,1015.62z"/>
    <path fill="#AF9797" d="M1873.19,1095.51c116.6,0.05,238.3,29.42,324.05,108.42c85.75,79.01,124.33,215.31,67.71,317.24
        c-63.06,113.54-209.35,145.64-338.48,159.56c-108.39,11.69-219.77,18.62-324.92-10.17c-105.15-28.79-204.35-99.31-241.38-201.85
        C1258.52,1187.3,1677.35,1095.43,1873.19,1095.51z"/>
    <path fill="#AF9797" d="M1739.49,1846.94c11.98,47.15,28.23,103.35,74.89,117.09c37.71,11.11,78.44-14.13,98.28-48.07
        c19.84-33.94,23.81-74.53,27.74-113.64c3.93-39.12,8.8-79.78,30.03-112.87c19.03-29.67,49.18-50.06,74.32-74.77
        c25.14-24.71,46.6-58.55,40.14-93.21c-4.5-24.12-22.04-44.1-42.41-57.78c-78.72-52.86-184.84-21.1-271.22,18.01
        c-48.72,22.06-96.93,40.35-147.64,56.92c-54.58,17.83-50.72,20.13-13.73,63.81C1674.05,1678.19,1714.67,1749.32,1739.49,1846.94z"
        />
</g>
</svg>