<?xml version="1.0" encoding="utf-8" standalone="yes"?>
<!-- Generator: Adobe Illustrator 19.0.0, SVG Export Plug-In . SVG Version: 6.00 Build 0)  -->
<svg width="4096" height="3112"  id="Layer_50" xmlns="http://www.w3.org/2000/svg" xmlns:xlink="http://www.w3.org/1999/xlink" x="0px" y="0px"
	 viewBox="0 0 4096 3112" enable-background="new 0 0 4096 3112" xml:space="preserve">
<g>
	<defs>
		<path id="SVGID_1_" d="M2004.91,584.34c0,0-263.42-75.87-309.79,150.68c0,0-13.83,52.42,8.3,70.2
			c22.13,17.78-25.29,61.64-25.29,61.64s-32.01,46.63-1.98,54.53c30.03,7.9,43.86,9.88,24.5,43.86c0,0-5.53,15.02,2.77,19.76
			c0,0-6.72,15.41,4.35,24.89s1.58,30.43,1.58,30.43s-11.85,28.45,32.6,31.61c44.45,3.16,96.22-0.79,100.96,63.62
			c0,0,8.17,34.11-33.45,43.6c-41.62,9.48-105.9,33.72-121.17,49.52c-15.28,15.81-62.17,24.76-90.09,27.92
			c-27.92,3.16-185.98,55.32-185.19,280.02c0,0-0.79,30.29,6.06,68.75c0,0-25.29,64.28-30.56,179.13h202.31l20.02-71.65
			c0,0,8.43,80.61,22.49,202.59c4.18,36.31,8.26,72.62,6.28,109.12c-1.99,36.9-3.63,89.87-1.68,149.28
			c0.68,20.78-1.25,41.54-5.57,61.88c-6.83,32.15-16.25,83.79-16.25,124.09c0,63.22,1.05,87.46-4.21,110.64
			c-5.27,23.18-21.07,83.24-17.91,161.21h722.31c0,0,24.63-92.47-12.99-185.06c-8.31-20.44-12.23-42.43-11.21-64.47
			c1.67-36.05,1.48-93.28-11.36-142.18c-20.55-78.24,0.79-143.04-14.22-252.89c0,0-2.37-82.98,24.5-154.1
			c0,0,14.22-57.95,26.87-116.96l12.64,72.7h216.53c0,0-6.32-109.06-30.03-218.11s-18.97-152.52-18.97-152.52
			s-17.39-127.23-174.65-180.18c0,0-62.83-16.99-83.77-37.54c-20.94-20.55-122.49-75.47-122.49-75.47s-27.26-17.78-23.71-86.93
			c0,0-6.85-56.9,33.72-81.66s72.18-158.58,46.36-233.39S2099.74,604.89,2004.91,584.34z"/>
	</defs>
	<use xlink:href="#SVGID_1_"  overflow="visible" fill="#E5CBB3"/>
	<clipPath id="SVGID_2_">
		<use xlink:href="#SVGID_1_"  overflow="visible"/>
	</clipPath>
	<path clip-path="url(#SVGID_2_)" fill="#BA9983" d="M1994.21,1018.47c47.87,26.79,48.53,95.72,81.11,139.85
		c23.47,31.79,61.8,48.33,98.3,63.47c42.76,17.74,85.53,35.49,128.29,53.23c38.92,16.15,79.32,33.35,106.82,65.27
		c28.07,32.59,38.96,76.23,47.58,118.36c18.36,89.76,30.38,180.81,35.93,272.25c2.42,39.8,3.83,80.68,19.38,117.4
		c15.55,36.71,49.04,68.93,88.9,70.03c33.36,0.92,64.36-20.24,83.42-47.64c19.06-27.4,28.11-60.39,35.45-92.95
		c44.99-199.6,37.24-411.39-26.2-605.92c-63.44-194.53-182.88-371.04-342.48-499.07c-29.06-23.31-71.07-52.9-110.8-47.52
		c-34.16,4.62-30.19,58.76-38.7,87.86c-22.29,76.22-59.91,147.91-109.74,209.73C2062.86,958.32,2030.23,990.55,1994.21,1018.47z"/>
	<path clip-path="url(#SVGID_2_)" fill="#BA9983" d="M1912.06,1054.15c-20.07,27.07-11.31,65.85-23.48,97.27
		c-11.69,30.2-41.09,49.69-70.56,63.12c-64.83,29.55-136.99,39.26-203.35,65.17c-66.37,25.91-131.09,75.33-143.59,145.47
		c-8.07,45.27,6.92,91.13,10.33,136.99c7.63,102.59-42.42,199.64-91.02,290.3c-14.45,26.95-34.08,57.39-64.62,59.07
		c-20.8,1.15-40.19-12.63-51.41-30.19c-11.22-17.56-15.75-38.46-19.62-58.93c-25.61-135.29-31.2-276.86,6.54-409.28
		c37.74-132.42,122.64-255.06,244.89-318.44c32.52-16.86,69.39-29.75,106.44-29.26c29.47,0.39,45.8,16.85,72.44,23.45
		c34.49,8.56,79.05,0.78,113.58-4.55C1822.32,1080.7,1897.17,1074.23,1912.06,1054.15z"/>
	<path clip-path="url(#SVGID_2_)" fill="#BA9983" d="M2321.01,1601.08c-62.79,80.91-119.54,168.18-152.04,265.3
		c-32.5,97.12-39.22,205.44-3.07,301.26c20.55,54.47,54.16,103.43,73.1,158.48c37.54,109.14,9.81,238.43-70.35,321.47
		c-80.16,83.04-209.43,115.21-318.66,77.94s-192.19-142.79-201.09-257.86c-9.5-122.98,57.77-237.18,89.05-356.5
		c39.56-150.86,19.6-316.48-54.66-453.63c-9-16.62-22.8-35.07-41.63-33.48c-18.16,1.53-28.76,20.69-35.87,37.47
		c-120.58,284.35-178.31,595.16-167.88,903.84c1.28,37.9,4.18,77.71,24.78,109.54c26.33,40.67,75.63,59.46,122.6,71.33
		c112.53,28.43,230.03,31.66,345.92,25.26c124.29-6.87,247.75-24.62,370.35-46.19c85.72-15.08,180.1-37.74,228.65-109.98
		c33.74-50.2,37.73-114.41,34.97-174.82c-5.25-115.03-31.59-228.95-76.43-334.97c-22.42-53.01-49.47-104.08-80.84-152.34
		c-14.98-23.05-35.87-44.76-48.59-68.95c-10.47-19.91-7.72-40.17-8.1-62.27C2349.95,1747.49,2339.81,1673.17,2321.01,1601.08z"/>
	<use xlink:href="#SVGID_1_"  overflow="visible" fill="none" stroke="#5B4839" stroke-width="25.2886" stroke-miterlimit="11"/>
</g>
<path fill="#664A44" d="M1750.68,1330.88c-55.05,62.26-83.82,144.22-95.17,226.55c-11.35,82.33-6.5,165.92-1.63,248.88
	c9.19,156.53,18.38,313.06,27.57,469.6c4.31,73.41,10.09,151.16,52.76,211.06c61.23,85.94,182.35,108.83,285.98,88.93
	c48.37-9.29,96.64-27.08,132.36-60.99c39.52-37.51,59.95-91.14,70.33-144.62c27.81-143.25-8.04-291.76,7.94-436.81
	c9.65-87.59,38.11-172.81,41.35-260.87c3.56-96.85-24.61-194.6-79.14-274.72c-40.9-60.09-96.47-110.01-160.25-144.8
	c-57.38-31.3-123.05-20.5-182.21,5.01C1812.46,1274.52,1778.14,1299.82,1750.68,1330.88z"/>
</svg>
