<?xml version="1.0" encoding="utf-8"?>
<!-- Generator: Adobe Illustrator 19.0.0, SVG Export Plug-In . SVG Version: 6.00 Build 0)  -->
<svg width="4096" height="3112" id="Layer_1" xmlns="http://www.w3.org/2000/svg" xmlns:xlink="http://www.w3.org/1999/xlink" x="0px" y="0px"
	 viewBox="0 0 4096 3112" enable-background="new 0 0 4096 3112" xml:space="preserve">
<path fill="#2E417A" stroke="#232E49" stroke-width="15" stroke-miterlimit="10" d="M1597.34,2161.22l-4.58,15.94l-5.22-9.16
	l18.5-52l126.1-215.93l173.99-223.49l128.99-155.99l104.99,214.49l151.49,166.49l88.5,107.99l71.27,82.63
	c-177.59-90.83-349.53-235.69-447.33-409.53l0,0c-18.21,34.73-42.53,65.89-71.81,91.98
	C1853.86,1844.52,1687.87,2002.4,1597.34,2161.22z"/>
<path fill="#4B5E7F" d="M2364.71,2020.77c-54.94-34.86-107.17-74.2-154.26-116.36c-80.04-71.65-143.91-149.39-189.86-231.06
	l-17.15-30.48l-16.24,30.97c-17.21,32.82-39.96,61.96-67.63,86.63c-52.28,46.61-130.4,120.37-204.09,205.77l32.41-55.49
	l173.04-222.27L2031,1555.39l93.24,190.48L2277.22,1914L2364.71,2020.77z"/>
<path fill="#772F2F" stroke="#512828" stroke-width="15" stroke-miterlimit="10" d="M1977.86,261.69c0,0,57.01-48,111.01,0
	l-5.76,450.44c0,0-1.5,286.49,311.98,148.49l-6,113.99c0,0-86.01-36.49-188.8-28.08c-12.03,0.98-24.09,1.2-36.15,0.78
	c-28.33-0.99-92.06,12.64-99.03,153.3c-9,181.49-0.08,486.39,125.92,650.39s281,321,321,467c0,0-125.5-198-185.93-238.43
	c-78.12-52.26-166.32-157.3-217.49-226.49c-18.62-25.18-41.97-49.83-55.08-78.27c-17.25-37.41-52.89-82.42-121.49,33.19
	c-21.41,36.08-374,424-350,540c0,0-48-52,122-346s272-302,264-592s14-363-184-352s-192,118-192,118l-17-340c0,0,47,119,214,127
	s163-110,163-110L1977.86,261.69z"/>
<path fill="#844545" d="M1655.41,2033.01c17.86-36.86,39.58-77.41,65.07-121.5c51.63-89.29,97.81-153.17,134.91-204.5
	c85.66-118.49,137.36-190,131.63-397.54c-0.84-30.41-1.36-59.03-1.82-84.29c-1.89-104.38-3.14-173.33-23.33-218.44
	c-21.86-48.87-63.38-68.8-143.3-68.8c-10.94,0-22.59,0.35-35.61,1.07c-95.16,5.29-147.24,32.25-175.72,60.95l-9.93-198.66
	c2.84,2.98,5.86,5.99,9.05,9c32.1,30.25,89.68,67.24,181.75,71.65c5.69,0.27,11.34,0.41,16.79,0.41
	c58.04,0,102.29-15.33,131.53-45.57c33.24-34.38,34.62-76.14,34.6-83.42l25.31-481.52c7.99-5,22.83-12.52,39.74-12.52
	c12.02,0,23.1,3.71,33.67,11.32l-5.64,441.36c-0.02,3.99,0.19,98.34,59.64,158.09c31.08,31.24,72.16,47.08,122.1,47.08
	c37.75,0,80.93-9.26,128.7-27.56l-3.08,58.54c-28.85-9.12-79.97-21.9-139.92-21.9c-11.04,0-22.08,0.44-32.8,1.32
	c-7.45,0.61-15.19,0.92-23.01,0.92c-3.58,0-7.26-0.06-10.93-0.19c-1.07-0.04-2.18-0.06-3.33-0.06c-32.13,0-107.67,16.7-115.34,171.4
	c-8.59,173.28-3.15,489.82,129.83,662.9c31.3,40.73,64.62,81.34,96.85,120.62c23.04,28.08,45.78,55.79,67.47,83.13
	c-1.23-0.9-2.44-1.75-3.62-2.54c-70.93-47.46-156.42-145.79-212.78-221.99c-5.41-7.32-11.22-14.6-16.83-21.65
	c-13.67-17.15-27.8-34.88-36.28-53.28c-15.89-34.45-36.41-51.92-61-51.92c-30.44,0-60.33,26.49-94.09,83.36
	c-3.73,6.29-24.65,31.58-48.87,60.87c-52.22,63.14-131.13,158.56-196.04,251.48C1665.46,2018.28,1660.34,2025.73,1655.41,2033.01z"
	/>
<path fill="#2E417A" stroke="#232E49" stroke-width="15" stroke-miterlimit="10" d="M1836.85,243.69c0,0,21-27,69.01,0
	c0,0-17.73,405.45,22.77,504.44c40.5,99,51,94.5,172.49,97.5c121.49,3,287.99-3,314.98-79.5l-9,272.99
	c0,0,31.5-149.99-235.49-128.99c-226.94,17.85-238.22,66.04-236.5,80.1c0.52,4.24,0.8,8.5,0.63,12.77
	c-2.53,61.19-28.95,400.68,18.58,479.29c0,0-11.53,51.47-39.95,103.39c-10.99,20.07-50.15,76.58-50.15,76.58
	S1818.03,1348,1844.03,1112c21.33-193.59-55.59-193.39-83.92-187.06c-9.45,2.11-18.99,3.74-28.59,4.98
	c-49.16,6.32-180.81,31.73-203.49,124.09c-28,114,46-352,46-352s62,258,206,144c0,0,65.73-24.67,48.67-310
	c-2.79-46.67-1.91-93.49,2.66-140.01l4.68-149.99L1836.85,243.69z"/>
<path fill="#4B5E7F" d="M1876.65,1610.02c-11.56-97.48-33.1-320.13-13.73-495.94c5.21-47.28,5.04-87.11-0.51-118.36
	c-5.02-28.26-14.59-50.43-28.44-65.9c-15.05-16.8-35.06-25.69-57.86-25.69c-6.65,0-13.42,0.76-20.13,2.26
	c-8.56,1.91-17.6,3.48-26.87,4.68c-41.94,5.39-125.8,21.86-178.04,70.05c7.99-57.14,19.44-133.13,30.08-201.8
	c23.84,52.77,65.33,114.76,128.66,114.76c0,0,0.01,0,0.01,0c26.12,0,53.18-10.75,80.47-31.96c8.28-4.59,24.92-18.33,38.47-57.97
	c19.78-57.87,26.15-148.47,18.92-269.28c-2.73-45.59-1.85-91.69,2.6-137.02l0.06-0.63l4.48-143.82c2.47-1.34,6.33-2.7,11.82-2.7
	c5.91,0,12.52,1.53,19.76,4.56c-1.14,30.58-3.83,113.69-3.33,203.65c0.85,153.38,10.26,253.12,27.98,296.43
	c42.14,103.02,61.87,106.37,173.54,108.92c5.13,0.12,10.48,0.24,16.07,0.38c16.1,0.4,30.91,0.59,45.29,0.59
	c72.09,0,128.76-4.99,173.25-15.24c31.54-7.27,56.97-17.41,76.14-30.33l-3.97,120.45c-2.33-2.26-4.81-4.49-7.45-6.68
	c-35.37-29.39-90.43-44.3-163.63-44.3c-15.78,0-32.65,0.7-50.15,2.07c-73.26,5.76-131.44,15.27-172.94,28.26
	c-34.17,10.69-57.01,23.52-69.84,39.22c-11.53,14.11-11.9,27.28-11.09,33.87c0.45,3.7,0.62,6.87,0.5,9.68
	c-0.3,7.16-0.94,18.39-1.75,32.6c-2.94,51.62-8.42,147.71-7.81,238.06c0.72,106.63,9.54,176.16,26.9,211.91
	c-4.03,15.09-15.48,53.55-36.39,91.76C1893.64,1583.96,1885.32,1596.94,1876.65,1610.02z"/>
<g>
	<defs>
		<path id="SVGID_171_" d="M1775.63,1087.53c35.59,82.64,30.23,176.77,17.93,265.9c-12.3,89.14-30.92,179.04-19.73,268.32
			c14.68,117.17,80.03,226.15,78.04,344.22c-1.64,97.19-48.91,187.91-61.74,284.26c-2.86,21.45-3.91,43.81,3.25,64.23
			c7.15,20.42,24.08,38.61,45.49,41.77c-1.7,22.15-3.39,44.29-5.09,66.44c-62.73-18.73-89.45-95.77-82.64-160.87
			c6.81-65.11,36.87-125.65,47.88-190.18c23.82-139.53-42.8-277.32-58.42-418c-11.69-105.29,5.4-211.74,0.39-317.56
			s-38-218.96-123.94-280.9c-39.6-28.54-92.16-49.25-106.27-95.98c-7.09-23.48-16.85-100.38,12.47-102.39
			c25.61-1.76,80.81,47.09,101.55,61.67C1687.19,962.3,1744.96,1016.32,1775.63,1087.53z"/>
	</defs>
	<use xlink:href="#SVGID_171_"  overflow="visible" fill="#D1B599"/>
	<clipPath id="SVGID_272_">
		<use xlink:href="#SVGID_171_"  overflow="visible"/>
	</clipPath>
	<path clip-path="url(#SVGID_272_)" fill="#DBC6B2" d="M1756.13,1108.53c35.59,82.64,30.23,176.77,17.93,265.9
		s-30.92,179.04-19.73,268.32c14.68,117.17,80.03,226.15,78.04,344.22c-1.64,97.19-48.91,187.91-61.74,284.26
		c-2.86,21.45-3.91,43.81,3.25,64.23c7.15,20.43,24.08,38.61,45.49,41.77c-1.7,22.15-3.39,44.29-5.09,66.44
		c-62.73-18.73-89.45-95.77-82.64-160.87c6.81-65.11,36.87-125.65,47.88-190.18c23.82-139.53-42.8-277.32-58.42-418
		c-11.69-105.29,5.4-211.74,0.39-317.56c-5.01-105.82-38-218.96-123.94-280.9c-39.6-28.54-92.16-49.25-106.27-95.98
		c-7.09-23.48-16.85-100.38,12.47-102.39c25.61-1.76,80.81,47.09,101.55,61.67C1667.7,983.3,1725.46,1037.32,1756.13,1108.53z"/>
	<use xlink:href="#SVGID_171_"  overflow="visible" fill="none" stroke="#66503D" stroke-width="15" stroke-miterlimit="10"/>
</g>
<g>
	<defs>
		<path id="SVGID_373_" d="M2243.62,1054.38c-35.59,85.81-30.23,183.54-17.93,276.09s30.92,185.9,19.73,278.61
			c-14.68,121.66-80.03,234.82-78.04,357.41c1.64,100.92,48.91,195.11,61.74,295.16c2.86,22.27,3.91,45.48-3.25,66.69
			c-7.15,21.21-24.08,40.09-45.49,43.37c1.7,22.99,3.39,45.99,5.09,68.98c62.73-19.44,89.45-99.44,82.64-167.04
			c-6.81-67.6-36.87-130.47-47.88-197.47c-23.82-144.87,42.8-287.94,58.42-434.01c11.69-109.33-5.4-219.85-0.39-329.73
			c5.01-109.88,38-227.35,123.94-291.66c39.6-29.63,92.16-51.14,106.27-99.66c7.09-24.38,16.85-104.22-12.47-106.31
			c-25.61-1.83-80.81,48.9-101.55,64.03C2332.05,924.35,2274.29,980.44,2243.62,1054.38z"/>
	</defs>
	<use xlink:href="#SVGID_373_"  overflow="visible" fill="#D1B599"/>
	<clipPath id="SVGID_474_">
		<use xlink:href="#SVGID_373_"  overflow="visible"/>
	</clipPath>
	<path clip-path="url(#SVGID_474_)" fill="#DBC6B2" d="M2263.12,1076.18c-35.59,85.81-30.23,183.54-17.93,276.09
		c12.3,92.55,30.92,185.9,19.73,278.61c-14.68,121.66-80.03,234.82-78.04,357.41c1.64,100.92,48.91,195.11,61.74,295.16
		c2.86,22.27,3.91,45.48-3.25,66.69s-24.08,40.09-45.49,43.37c1.7,22.99,3.39,45.99,5.09,68.98
		c62.73-19.44,89.45-99.44,82.64-167.04c-6.81-67.6-36.87-130.47-47.88-197.47c-23.82-144.87,42.8-287.94,58.42-434.01
		c11.69-109.33-5.4-219.85-0.39-329.73c5.01-109.88,38-227.35,123.94-291.66c39.6-29.63,92.16-51.14,106.27-99.66
		c7.09-24.38,16.85-104.22-12.47-106.31c-25.61-1.83-80.81,48.9-101.55,64.03C2351.55,946.15,2293.78,1002.24,2263.12,1076.18z"/>
	<use xlink:href="#SVGID_373_"  overflow="visible" fill="none" stroke="#66503D" stroke-width="15.2847" stroke-miterlimit="10"/>
</g>
<g>
	<defs>
		<path id="SVGID_575_" d="M1533.24,578.9c0,0,184.45-26.42,184.67,144.31c0.04,32.39-14.21,63.35-39.39,83.72
			c-10.92,8.83-24.75,16.45-42.2,20.87c0,0,46.66,79.82-24.86,160.27c0,0,93.65,156.68-54.27,210.91
			c-73.96,27.11-131.07-14.96-169.69-63.82c-42.57-53.85-65.77-120.37-67.59-188.99c-2.24-84.13,12.54-214.39,107.11-311.51
			C1427.02,634.66,1469.57,586.94,1533.24,578.9z"/>
	</defs>
	<use xlink:href="#SVGID_575_"  overflow="visible" fill="#774545"/>
	<clipPath id="SVGID_676_">
		<use xlink:href="#SVGID_575_"  overflow="visible"/>
	</clipPath>
	<path clip-path="url(#SVGID_676_)" fill="#875D5D" d="M1314.82,757.29c-3.22,125.3,44.07,251.18,129,343.35
		c18.59,20.18,41.62,39.95,69.06,40.34c19.47,0.28,38.23-9.83,50.94-24.57c12.71-14.75,19.79-33.71,22.8-52.95
		c1.55-9.92,1.43-21.65-6.31-28.04c-7.17-5.92-17.58-4.63-26.88-4.37c-26.95,0.76-54.02-10.51-72.47-30.16
		c-18.45-19.66-27.99-47.38-25.53-74.23c26.36,12.38,55.69,20.78,84.51,16.55c28.81-4.24,56.7-23.37,64.79-51.35
		c8.31-28.76-5.8-60.25-27.6-80.77s-50.17-32.33-77.87-43.7c24.24-28.16,72.75-30.36,99.45-4.51c7.93,7.69,15.04,17.88,25.96,19.58
		c14.71,2.28,26.34-12.13,32.81-25.54c12.7-26.33,18.64-58.94,3.62-84.02c-9.95-16.61-27.81-27.35-46.53-32.33
		c-92.73-24.69-197.97-3.27-264.29,66.09C1337.72,719.79,1315.28,739.14,1314.82,757.29z"/>
	<g clip-path="url(#SVGID_676_)">
		<path fill="#5B2A2A" d="M1554.55,778.79c0,0,0.65,0.05,1.85,0.19c1.2,0.15,2.97,0.32,5.2,0.65c1.12,0.16,2.34,0.32,3.68,0.58
			c1.34,0.27,2.77,0.61,4.32,0.95c1.55,0.34,3.19,0.76,4.94,1.18c1.72,0.46,3.47,1.06,5.34,1.63c1.85,0.6,3.8,1.2,5.77,1.93
			c1.96,0.75,3.97,1.59,6.05,2.42c1.04,0.42,2.1,0.84,3.14,1.32c1.03,0.5,2.08,1,3.14,1.51c2.12,1.02,4.28,2.08,6.44,3.23
			c2.14,1.19,4.28,2.45,6.46,3.72c2.21,1.22,4.3,2.69,6.43,4.13c4.35,2.77,8.4,6.09,12.55,9.28c3.91,3.48,7.94,6.82,11.48,10.57
			c1.81,1.83,3.65,3.59,5.26,5.54c1.66,1.9,3.31,3.76,4.87,5.64c1.53,1.91,2.99,3.83,4.38,5.72c0.7,0.95,1.39,1.88,2.07,2.8
			c0.67,0.93,1.28,1.89,1.89,2.83c1.21,1.89,2.4,3.71,3.51,5.49c1.09,1.8,2.04,3.6,2.98,5.31c0.91,1.73,1.82,3.35,2.6,4.94
			c0.73,1.63,1.44,3.15,2.06,4.6c0.62,1.45,1.23,2.8,1.74,4.06c0.51,1.27,0.9,2.47,1.27,3.54c0.75,2.14,1.25,3.86,1.62,5
			c0.36,1.16,0.53,1.78,0.53,1.78s-0.45-0.48-1.24-1.4c-0.78-0.93-1.97-2.25-3.37-3.98c-0.73-0.85-1.46-1.83-2.33-2.85
			c-0.9-1-1.83-2.11-2.84-3.27c-1.01-1.16-2.04-2.42-3.14-3.73c-1.14-1.27-2.35-2.61-3.6-4.01c-1.26-1.38-2.48-2.89-3.87-4.35
			c-1.4-1.45-2.79-2.98-4.25-4.53c-0.74-0.77-1.43-1.58-2.19-2.37c-0.77-0.77-1.55-1.55-2.34-2.34c-1.6-1.55-3.11-3.24-4.76-4.84
			c-1.7-1.57-3.36-3.2-5.06-4.85c-0.85-0.82-1.69-1.66-2.61-2.43c-0.88-0.8-1.77-1.61-2.66-2.42c-3.51-3.3-7.31-6.39-11-9.59
			c-3.84-3.03-7.58-6.18-11.48-9.01c-0.96-0.73-1.92-1.45-2.88-2.17c-0.93-0.76-1.91-1.43-2.88-2.1c-1.94-1.35-3.85-2.69-5.71-4.07
			c-1.89-1.32-3.82-2.49-5.65-3.77c-0.92-0.63-1.83-1.24-2.74-1.86c-0.91-0.59-1.84-1.13-2.73-1.71c-1.79-1.14-3.56-2.22-5.25-3.32
			c-1.69-1.09-3.4-1.99-5-2.98c-1.61-0.97-3.15-1.9-4.62-2.78c-1.48-0.83-2.9-1.6-4.22-2.37c-1.32-0.77-2.58-1.47-3.73-2.17
			c-1.17-0.67-2.29-1.21-3.27-1.77c-1.98-1.06-3.51-1.98-4.57-2.57C1555.1,779.14,1554.55,778.79,1554.55,778.79z"/>
	</g>
	<g clip-path="url(#SVGID_676_)">
		<path fill="#5B2A2A" d="M1511.99,976.92c0,0,0.65,0.1,1.86,0.32c1.2,0.24,2.98,0.54,5.2,1.03c1.12,0.21,2.34,0.55,3.68,0.78
			c1.35,0.19,2.77,0.45,4.3,0.7c1.52,0.24,3.12,0.56,4.79,0.85c1.71,0.22,3.51,0.46,5.38,0.7c1.88,0.21,3.79,0.6,5.8,0.76
			c2.02,0.15,4.09,0.37,6.22,0.56c1.07,0.08,2.13,0.23,3.22,0.3c1.09,0.05,2.2,0.09,3.32,0.14c2.24,0.06,4.5,0.29,6.81,0.33
			c2.32-0.03,4.67,0,7.04,0.04c1.19,0.02,2.38,0.05,3.58-0.04c1.2-0.04,2.4-0.09,3.61-0.13c4.84-0.06,9.72-0.61,14.62-0.96
			c4.86-0.66,9.75-1.12,14.5-2.05c1.19-0.21,2.38-0.41,3.56-0.61c1.19-0.15,2.35-0.43,3.51-0.69c2.32-0.51,4.61-1.03,6.88-1.48
			c2.26-0.51,4.42-1.21,6.6-1.72c1.09-0.27,2.16-0.55,3.22-0.81c1.06-0.29,2.07-0.66,3.09-0.96c2.04-0.62,4.03-1.25,5.98-1.81
			c1.94-0.58,3.74-1.33,5.53-1.93c1.78-0.62,3.51-1.2,5.13-1.78c1.6-0.64,3.11-1.28,4.56-1.83c1.45-0.56,2.8-1.1,4.08-1.57
			c1.26-0.49,2.36-1.05,3.41-1.48c2.06-0.92,3.74-1.57,4.86-2.05c1.14-0.47,1.76-0.7,1.76-0.7s-0.44,0.49-1.3,1.36
			c-0.87,0.86-2.11,2.17-3.78,3.76c-0.83,0.79-1.74,1.7-2.8,2.6c-1.06,0.88-2.25,1.8-3.51,2.8c-1.26,1-2.63,2.03-4.07,3.13
			c-1.47,1.04-3.09,2.02-4.76,3.11c-0.83,0.54-1.7,1.07-2.58,1.62c-0.89,0.53-1.76,1.14-2.72,1.62c-1.89,1.01-3.87,2-5.91,3.05
			c-1.02,0.52-2.05,1.06-3.12,1.53c-1.08,0.45-2.18,0.91-3.28,1.37c-1.11,0.47-2.23,0.93-3.38,1.37c-1.15,0.44-2.28,0.95-3.47,1.33
			c-2.37,0.79-4.8,1.53-7.27,2.29c-2.45,0.84-5.01,1.32-7.57,1.91c-5.11,1.32-10.43,1.88-15.72,2.66
			c-5.34,0.31-10.67,0.85-15.94,0.59c-2.63-0.05-5.24-0.01-7.8-0.33c-2.57-0.24-5.1-0.47-7.58-0.76c-2.47-0.35-4.9-0.8-7.26-1.25
			c-1.18-0.23-2.34-0.45-3.49-0.67c-1.15-0.24-2.26-0.57-3.37-0.86c-2.21-0.61-4.35-1.18-6.4-1.78c-1.03-0.27-2.02-0.69-2.99-1.03
			c-0.97-0.36-1.93-0.7-2.85-1.06c-1.85-0.73-3.63-1.35-5.3-2.07c-1.65-0.8-3.22-1.52-4.67-2.25c-1.45-0.73-2.8-1.38-4.02-2.03
			c-1.21-0.66-2.26-1.35-3.23-1.95c-1.93-1.2-3.42-2.23-4.45-2.89C1512.53,977.3,1511.99,976.92,1511.99,976.92z"/>
	</g>
	<use xlink:href="#SVGID_575_"  overflow="visible" fill="none" stroke="#5B2A2A" stroke-width="14.864" stroke-miterlimit="10"/>
</g>
<g>
	<defs>
		<path id="SVGID_777_" d="M2432.91,542.81c0,0-184.35-27.1-185.2,143.63c-0.16,32.39,13.97,63.41,39.08,83.86
			c10.88,8.87,24.69,16.54,42.12,21.03c0,0-46.96,79.64,24.27,160.36c0,0-94.22,156.33,53.49,211.1
			c73.86,27.39,131.12-14.48,169.92-63.19c42.76-53.69,66.21-120.13,68.29-188.74c2.55-84.12-11.75-214.44-105.96-311.91
			C2538.92,598.96,2496.54,551.09,2432.91,542.81z"/>
	</defs>
	<use xlink:href="#SVGID_777_"  overflow="visible" fill="#774545"/>
	<clipPath id="SVGID_878_">
		<use xlink:href="#SVGID_777_"  overflow="visible"/>
	</clipPath>
	<path clip-path="url(#SVGID_878_)" fill="#875D5D" d="M2650.67,722.01c2.76,125.31-45,251.01-130.26,342.88
		c-18.67,20.11-41.77,39.8-69.2,40.09c-19.47,0.21-38.2-9.97-50.85-24.76s-19.67-33.79-22.61-53.03
		c-1.52-9.93-1.35-21.65,6.42-28.02c7.19-5.9,17.6-4.57,26.89-4.27c26.95,0.86,54.05-10.31,72.58-29.9
		c18.52-19.59,28.16-47.28,25.8-74.13c-26.41,12.29-55.77,20.58-84.57,16.24c-28.8-4.34-56.62-23.58-64.6-51.58
		c-8.21-28.79,6.02-60.23,27.89-80.67c21.87-20.45,50.29-32.14,78.03-43.42c-24.14-28.25-72.64-30.63-99.43-4.87
		c-7.96,7.66-15.1,17.83-26.03,19.48c-14.72,2.23-26.29-12.23-32.71-25.66c-12.6-26.37-18.42-59.01-3.31-84.04
		c10.01-16.58,27.91-27.25,46.64-32.16c92.82-24.34,197.98-2.54,264.04,67.06C2627.9,684.42,2650.27,703.85,2650.67,722.01z"/>
	<g clip-path="url(#SVGID_878_)">
		<path fill="#5B2A2A" d="M2410.86,742.63c0,0-0.55,0.35-1.6,0.95c-1.06,0.58-2.59,1.5-4.58,2.55c-0.98,0.55-2.11,1.09-3.28,1.76
			c-1.15,0.69-2.41,1.39-3.74,2.16c-1.33,0.77-2.75,1.53-4.23,2.36c-1.47,0.88-3.01,1.8-4.63,2.76c-1.6,0.98-3.32,1.88-5.01,2.96
			c-1.69,1.1-3.46,2.17-5.26,3.31c-0.89,0.58-1.83,1.11-2.74,1.7c-0.9,0.61-1.82,1.22-2.74,1.85c-1.83,1.27-3.77,2.44-5.66,3.75
			c-1.86,1.36-3.78,2.7-5.73,4.04c-0.97,0.67-1.95,1.34-2.89,2.09c-0.96,0.72-1.92,1.43-2.88,2.16c-3.91,2.82-7.67,5.96-11.51,8.97
			c-3.71,3.19-7.51,6.27-11.04,9.55c-0.9,0.81-1.79,1.61-2.67,2.41c-0.92,0.77-1.77,1.6-2.62,2.42c-1.7,1.64-3.38,3.27-5.08,4.83
			c-1.66,1.6-3.18,3.28-4.78,4.83c-0.79,0.78-1.57,1.56-2.35,2.33c-0.76,0.78-1.46,1.59-2.2,2.36c-1.46,1.54-2.87,3.06-4.27,4.51
			c-1.4,1.45-2.61,2.96-3.88,4.34c-1.26,1.39-2.47,2.73-3.62,4c-1.11,1.3-2.14,2.56-3.16,3.72c-1.02,1.16-1.95,2.26-2.85,3.26
			c-0.88,1.01-1.62,1.99-2.35,2.84c-1.41,1.72-2.6,3.05-3.39,3.97c-0.8,0.92-1.25,1.39-1.25,1.39s0.17-0.63,0.53-1.78
			c0.38-1.15,0.88-2.86,1.64-5c0.37-1.07,0.77-2.27,1.28-3.53c0.52-1.26,1.13-2.6,1.75-4.05c0.63-1.45,1.35-2.97,2.08-4.59
			c0.78-1.59,1.7-3.21,2.62-4.93c0.94-1.7,1.9-3.5,3-5.3c1.12-1.78,2.32-3.59,3.53-5.47c0.61-0.94,1.23-1.9,1.9-2.83
			c0.69-0.92,1.38-1.85,2.08-2.8c1.4-1.89,2.87-3.8,4.4-5.71c1.57-1.87,3.23-3.73,4.89-5.63c1.62-1.94,3.47-3.7,5.29-5.52
			c3.55-3.74,7.59-7.07,11.51-10.53c4.16-3.17,8.22-6.48,12.58-9.23c2.14-1.43,4.23-2.89,6.45-4.1c2.18-1.27,4.33-2.52,6.47-3.7
			c2.17-1.14,4.33-2.2,6.46-3.21c1.06-0.51,2.11-1.01,3.15-1.5c1.04-0.48,2.1-0.89,3.14-1.31c2.08-0.83,4.09-1.65,6.06-2.4
			c1.97-0.73,3.92-1.32,5.78-1.91c1.87-0.56,3.63-1.15,5.35-1.61c1.75-0.41,3.39-0.82,4.94-1.16c1.55-0.34,2.99-0.67,4.33-0.94
			c1.34-0.25,2.56-0.41,3.68-0.56c2.22-0.32,4-0.48,5.2-0.63C2410.21,742.67,2410.86,742.63,2410.86,742.63z"/>
	</g>
	<g clip-path="url(#SVGID_878_)">
		<path fill="#5B2A2A" d="M2452.69,940.91c0,0-0.54,0.39-1.56,1.06c-1.03,0.66-2.52,1.68-4.46,2.88c-0.97,0.6-2.02,1.29-3.23,1.94
			c-1.23,0.64-2.58,1.29-4.03,2.02c-1.45,0.72-3.02,1.44-4.67,2.23c-1.67,0.72-3.45,1.33-5.3,2.05c-0.93,0.36-1.88,0.69-2.86,1.05
			c-0.98,0.33-1.96,0.75-3,1.02c-2.06,0.6-4.2,1.15-6.41,1.76c-1.1,0.29-2.22,0.62-3.37,0.85c-1.15,0.22-2.32,0.43-3.5,0.66
			c-2.36,0.44-4.78,0.88-7.26,1.23c-2.48,0.28-5.01,0.51-7.58,0.73c-2.57,0.31-5.17,0.26-7.8,0.3c-5.27,0.24-10.6-0.32-15.93-0.65
			c-5.29-0.8-10.61-1.37-15.71-2.72c-2.56-0.6-5.12-1.09-7.57-1.94c-2.46-0.77-4.89-1.51-7.26-2.31c-1.19-0.39-2.32-0.91-3.47-1.35
			c-1.14-0.45-2.27-0.91-3.37-1.39c-1.11-0.47-2.2-0.93-3.28-1.38c-1.07-0.48-2.1-1.02-3.12-1.54c-2.03-1.06-4.01-2.06-5.89-3.07
			c-0.96-0.48-1.83-1.09-2.71-1.63c-0.88-0.55-1.74-1.08-2.57-1.63c-1.66-1.1-3.28-2.08-4.75-3.13c-1.43-1.11-2.8-2.14-4.06-3.15
			c-1.25-1.01-2.43-1.92-3.5-2.81c-1.05-0.9-1.96-1.81-2.79-2.61c-1.66-1.59-2.9-2.91-3.77-3.77c-0.85-0.88-1.29-1.36-1.29-1.36
			s0.63,0.23,1.76,0.7c1.13,0.48,2.81,1.14,4.86,2.07c1.04,0.43,2.14,1,3.4,1.5c1.28,0.47,2.63,1.02,4.07,1.58
			c1.45,0.56,2.96,1.2,4.55,1.85c1.62,0.6,3.35,1.18,5.13,1.8c1.79,0.6,3.58,1.37,5.52,1.95c1.94,0.57,3.93,1.21,5.97,1.84
			c1.03,0.3,2.03,0.68,3.09,0.97c1.06,0.27,2.13,0.55,3.22,0.83c2.18,0.52,4.34,1.22,6.59,1.74c2.28,0.45,4.56,0.98,6.88,1.5
			c1.16,0.26,2.32,0.54,3.51,0.7c1.18,0.21,2.37,0.42,3.56,0.63c4.74,0.95,9.64,1.43,14.49,2.11c4.89,0.36,9.77,0.94,14.61,1.01
			c1.21,0.05,2.41,0.1,3.61,0.15c1.2,0.1,2.39,0.07,3.58,0.06c2.37-0.02,4.72-0.05,7.04-0.01c2.31-0.04,4.58-0.26,6.81-0.31
			c1.12-0.04,2.23-0.09,3.32-0.13c1.09-0.07,2.16-0.22,3.23-0.29c2.13-0.18,4.2-0.39,6.22-0.53c2.02-0.16,3.93-0.53,5.81-0.74
			c1.88-0.24,3.68-0.47,5.39-0.68c1.68-0.29,3.27-0.6,4.8-0.83c1.52-0.24,2.95-0.49,4.3-0.68c1.34-0.22,2.57-0.56,3.68-0.76
			c2.22-0.48,4.01-0.77,5.21-1.01C2452.03,941,2452.69,940.91,2452.69,940.91z"/>
	</g>
	<use xlink:href="#SVGID_777_"  overflow="visible" fill="none" stroke="#5B2A2A" stroke-width="14.864" stroke-miterlimit="10"/>
</g>
<g>
	<path fill="#8C6565" stroke="#5B2A2A" stroke-width="16" stroke-miterlimit="10" d="M2153.48,2252.55
		c73.7,28.55,150,86.88,132.13,205.5c0,0-35.52,140.68-166.05,179.99c-4.55,1.37-9.18,2.44-13.83,3.46
		c-14.5,3.17-78.43,27.83-69.11,215.53c0,0-19.5,15-36,0c0,0,15-218.99-79.5-229.49c-94.5-10.5-155.99-140.99-155.99-140.99
		s-78.05-195.12,184.49-249.77C2017.73,2222.6,2088.61,2227.42,2153.48,2252.55z"/>
	<path fill="#9B7B7B" d="M2037.34,2284.72c46.95,0.02,95.96,11.85,130.49,43.66c34.53,31.82,50.07,86.7,27.27,127.75
		c-25.4,45.72-84.3,58.65-136.3,64.26c-43.65,4.71-88.5,7.5-130.84-4.09c-42.34-11.59-82.29-39.99-97.2-81.28
		C1789.81,2321.69,1958.47,2284.69,2037.34,2284.72z"/>
	<path fill="#9B7B7B" d="M1983.5,2587.32c4.83,18.99,11.37,41.62,30.16,47.15c15.19,4.47,31.59-5.69,39.58-19.36
		c7.99-13.67,9.59-30.01,11.17-45.76c1.58-15.75,3.54-32.13,12.09-45.45c7.66-11.95,19.81-20.16,29.93-30.11
		c10.12-9.95,18.77-23.58,16.16-37.53c-1.81-9.71-8.87-17.76-17.08-23.27c-31.7-21.29-74.43-8.5-109.22,7.25
		c-19.62,8.88-39.03,16.25-59.46,22.92c-21.98,7.18-20.42,8.11-5.53,25.69C1957.15,2519.37,1973.51,2548.01,1983.5,2587.32z"/>
</g>
</svg>
