<?xml version="1.0" encoding="utf-8"?>
<!-- Generator: Adobe Illustrator 19.0.0, SVG Export Plug-In . SVG Version: 6.00 Build 0)  -->
<svg width="4096" height="3112" id="Layer_1" xmlns="http://www.w3.org/2000/svg" xmlns:xlink="http://www.w3.org/1999/xlink" x="0px" y="0px"
	 viewBox="0 0 4096 3112" enable-background="new 0 0 4096 3112" xml:space="preserve">
<g>
	<defs>
		<path id="SVGID_141_" d="M914.92,1871.47c0,0-37.61,495.89,125.75,298.09c163.36-197.81,249.47-326.31,492.46-221.48
			c242.99,104.83,407.54,90.22,519.54-118.42c112.01-208.63-205.45-489.5-205.45-489.5l-678.16,56.49l-241.98,373.09L914.92,1871.47
			z"/>
	</defs>
	<use xlink:href="#SVGID_141_"  overflow="visible" fill="#60201E"/>
	<clipPath id="SVGID_242_">
		<use xlink:href="#SVGID_141_"  overflow="visible"/>
	</clipPath>
	<path clip-path="url(#SVGID_242_)" fill="#682E2E" d="M915.24,2480.77c26.4-129.98,71.1-256.23,132.39-373.85
		c41.94-80.49,92.46-157.94,160.45-218.06c67.99-60.12,155.15-101.93,245.9-102.67c50.29-0.41,100.17,11.57,150.43,9.79
		c101.59-3.6,194.46-63.89,260.33-141.32c65.86-77.43,108.88-171.23,151.08-263.71l-627.31-388.73l-768.63,412.65l105.61,590.82
		L915.24,2480.77z"/>
	<use xlink:href="#SVGID_141_"  overflow="visible" fill="none" stroke="#4C1919" stroke-width="20.2314" stroke-miterlimit="10"/>
</g>
<g>
	<defs>
		<path id="SVGID_343_" d="M924.88,2151.16c0,0-228.03-468.58-31.39-1051.39c0,0,112.74-339.48,714.67-378.36
			c0,0,319.94-21.39,535.13,61.18l6.39,248.62l-43.97,213.91l-143.44,260.95l-50.45,121l-0.6-91.59c0,0,11.7,124.97-223.78,39.11
			s-474.17-240.41-683.83,234.44C1003.61,1809.04,926.94,1992.18,924.88,2151.16z"/>
	</defs>
	<use xlink:href="#SVGID_343_"  overflow="visible" fill="#842A24"/>
	<clipPath id="SVGID_444_">
		<use xlink:href="#SVGID_343_"  overflow="visible"/>
	</clipPath>
	<path clip-path="url(#SVGID_444_)" fill="#91433D" d="M961.43,2286.61c0,0-253.81-753.93,254.51-1053.17
		c243.16-143.14,438.63,309.18,670.41,34.54s-38.54-856.53-133.41-857.9c-94.86-1.37-985.49,306.87-985.49,306.87l-447.62,1215.3
		L961.43,2286.61z"/>
	<use xlink:href="#SVGID_343_"  overflow="visible" fill="none" stroke="#4C1919" stroke-width="20.2314" stroke-miterlimit="10"/>
</g>
<g>
	<defs>
		<path id="SVGID_545_" d="M1940.94,2647.07c0,0,39.89,31.76,95.21-25.13c0,0-103.88-221.53-113.33-292.85l-6.28-30.75
			c0,0-39.43-113.54-21.58-147.87c17.85-34.34,73.3-118.59,72.48-203.64c0,0,3.62-123.92-8.62-159.1l-42.86,17.64
			c0,0,18.33,235.21-36.62,226.67c0,0-28.62-3.29-80.82-218.24l-57.56-16.23c0,0,46.76,205.19,99.47,301.4
			C1840.42,2098.96,1772.01,2331.94,1940.94,2647.07z"/>
	</defs>
	<use xlink:href="#SVGID_545_"  overflow="visible" fill="#567739"/>
	<clipPath id="SVGID_646_">
		<use xlink:href="#SVGID_545_"  overflow="visible"/>
	</clipPath>
	<path clip-path="url(#SVGID_646_)" fill="#718C56" d="M2011.23,2695.87c-76.16-108.12-127.41-233.68-148.66-364.21
		c-7.74-47.58-11.53-96.47-2.78-143.88c4.7-25.48,13.02-50.85,10.85-76.67c-1.86-22.11-11.28-42.76-20-63.16
		c-33.66-78.73-58.82-161.09-74.9-245.2c31.43-20.06,69.47-29.58,106.65-26.69c20.85,1.62,42.86,7.97,55.91,24.31
		c13.21,16.55,14.39,39.47,13.65,60.63c-1.64,47.12-9.86,94-24.36,138.86c-4.8,14.84-10.35,30.04-8.88,45.56
		c1.71,18.04,12.65,33.75,23.95,47.91c27.83,34.88,60.33,66.42,82.7,105.03c28.75,49.63,38.87,107.53,48.51,164.07
		c9.27,54.4,18.55,108.79,27.82,163.19c5.38,31.53,10.54,65.11-1.94,94.55c-12.43,29.32-42.42,50.08-74.18,52.38l200.37,16.09
		l107.74-454.28l-275.34-644.41l-593.24,45.75l-96.65,758.01l606.66,442.96L2011.23,2695.87z"/>
	<use xlink:href="#SVGID_545_"  overflow="visible" fill="none" stroke="#213A0C" stroke-width="13.4876" stroke-miterlimit="10"/>
</g>
<g>
	<defs>
		<path id="SVGID_747_" d="M1918.38,2369.82c86.25-163.29,60.69-181.24,36.55-285.5c-24.14-104.26-154.9-166.88-197.42-173.88
			c-42.52-7.01-147.38-74.46-147.38-74.46l-41.88,14.15c0.45,36.89,79.96,77.5,123.52,96.99c13.37,5.98,27.15,10.92,41.23,14.96
			c27.75,7.96,93.36,33.29,148.72,104.58c72.34,93.17,3.12,246.65,3.12,246.65"/>
	</defs>
	<use xlink:href="#SVGID_747_"  overflow="visible" fill="#567739"/>
	<clipPath id="SVGID_848_">
		<use xlink:href="#SVGID_747_"  overflow="visible"/>
	</clipPath>
	<path clip-path="url(#SVGID_848_)" fill="#718C56" d="M1595.6,1872.54c37.2,13.91,74.4,27.82,111.6,41.74
		c56.83,21.25,115.09,43.35,160.36,83.75c45.8,40.87,75.37,99.47,81.02,160.59s-12.66,124.15-50.19,172.73
		c-2.87-8.96-5.74-17.92-8.6-26.88l-281.63-211.54L1595.6,1872.54z"/>
	<use xlink:href="#SVGID_747_"  overflow="visible" fill="none" stroke="#213A0C" stroke-width="13.4876" stroke-miterlimit="10"/>
</g>
<g>
	<defs>
		<path id="SVGID_949_" d="M1296.23,1533.14c0,0,100.73,36.05,133.38,127.99c0,0,16.1,59,125.33,110.54
			c109.23,51.54,75.37,135.04,75.37,135.04s-60.88,53.17-139.54-43.05s-229.58-95.66-229.58-95.66s-157.43-20.03-119.49-162.08
			c17.53-65.65,89.22-101.48,151.44-74.17C1294.16,1532.19,1295.19,1532.65,1296.23,1533.14z"/>
	</defs>
	<use xlink:href="#SVGID_949_"  overflow="visible" fill="#567739"/>
	<clipPath id="SVGID_10410_">
		<use xlink:href="#SVGID_949_"  overflow="visible"/>
	</clipPath>
	<path clip-path="url(#SVGID_10410_)" fill="#718C56" d="M1435.1,1892.98c12.8,34.47,58.22,52.22,90.99,35.56
		c32.77-16.66,45.21-63.81,24.91-94.46c-21.99-33.2-67.67-39.46-100.34-62.22c-39.8-27.72-56.87-77-78.36-120.48
		s-57.2-88.17-105.69-88.83c-44.23-0.6-81.99,39.7-88.21,83.5c-6.22,43.8,13.63,88.07,42.96,121.18
		c29.33,33.11,67.45,56.97,104.99,80.36L1435.1,1892.98z"/>
	<use xlink:href="#SVGID_949_"  overflow="visible" fill="none" stroke="#213A0C" stroke-width="13.4876" stroke-miterlimit="10"/>
</g>
<path fill="#682E2E" d="M1722,1724c0,0,139,100,237,48l2,15.5l-121.5,34.5l-77-10.5L1713,1787l-91-66L1722,1724z"/>
<g>
	<path fill="#4C1919" d="M1704.65,1781.6c0,0,5.27,1.11,14.27,2.79c4.51,0.82,9.94,1.8,16.13,2.79c3.1,0.49,6.36,1.04,9.83,1.51
		c0.87,0.12,1.71,0.32,2.53,0.6c0.82,0.29,1.62,0.68,2.43,1.06c1.62,0.77,3.38,1.3,5.14,1.92c7.07,2.39,14.8,4.79,23.07,6.91
		c8.27,2.14,17.06,4.08,26.22,5.56c9.15,1.52,18.67,2.6,28.35,3.09c9.68,0.53,19.5,0.41,29.25-0.37c9.75-0.75,19.4-2.29,28.7-4.49
		c9.31-2.2,18.28-5.07,26.65-8.57c8.38-3.48,16.19-7.52,23.3-11.85c7.12-4.31,13.52-8.95,19.16-13.56c1.42-1.14,2.85-2.22,4.05-3.5
		c0.61-0.63,1.18-1.28,1.85-1.81c0.65-0.55,1.43-0.94,2.17-1.37c2.93-1.74,5.81-3.33,8.39-5.01c1.32-0.82,2.59-1.62,3.82-2.39
		c1.24-0.77,2.37-1.59,3.51-2.33c2.27-1.49,4.36-2.89,6.2-4.22c1.88-1.32,3.55-2.49,5.01-3.52c1.44-1.06,2.67-1.97,3.67-2.7
		c2.03-1.46,3.12-2.24,3.12-2.24s-0.5,1.24-1.43,3.56c-0.48,1.16-1.08,2.59-1.8,4.26c-0.74,1.66-1.67,3.53-2.71,5.65
		c-1,2.15-2.27,4.41-3.66,6.9c-1.34,2.53-2.99,5.13-4.75,7.95c-0.87,1.43-1.81,2.85-2.84,4.29c-1.02,1.46-2.06,2.96-3.14,4.49
		c-0.53,0.78-1.13,1.51-1.83,2.16c-0.69,0.65-1.48,1.2-2.26,1.78c-0.78,0.57-1.53,1.21-2.28,1.86c-0.77,0.62-1.55,1.25-2.34,1.89
		c-6.27,5.12-13.41,10.3-21.37,15.12c-7.95,4.84-16.7,9.37-26.08,13.27c-18.76,7.82-40.06,12.86-61.47,14.54
		c-10.71,0.86-21.44,0.99-31.93,0.41c-10.5-0.54-20.76-1.71-30.58-3.33c-9.83-1.6-19.21-3.67-28.02-5.94
		c-8.81-2.26-17.01-4.81-24.51-7.34c-1.88-0.62-3.68-1.34-5.53-1.81c-0.92-0.25-1.83-0.48-2.7-0.81c-0.87-0.32-1.68-0.76-2.46-1.26
		c-3.11-1.98-6.02-3.91-8.71-5.77c-5.37-3.76-9.9-7.23-13.51-10.22c-3.62-2.99-6.35-5.48-8.17-7.22
		C1705.56,1782.59,1704.65,1781.6,1704.65,1781.6z"/>
</g>
<path fill="#C4945B" stroke="#602E00" stroke-width="20.2314" stroke-miterlimit="10" d="M2084.08,795.97c0,0,4.62-59.53,64.8-41.18
	c60.18,18.36,91.27-7.47,91.27-7.47s82.78-30.37,97.76,85.44s-333.95,697.79-333.95,697.79s-63.61,162.62-3.69,254.25
	c0,0-152.84-59.2-112.59-254.57c40.25-195.38,241.18-142.15,211.69-578.22C2099.35,952.02,2066.71,837.83,2084.08,795.97z"/>
<g>
	<defs>
		<path id="SVGID_11411_" d="M2008.06,1505.78c0,0-120.57,302.51,84.51,333.39c205.09,30.88,282.65-31.55,282.65-31.55
			s59.55-17.63,233.05-224.91s437.85-250.95,503.27-239.46c65.42,11.49,247.14,15.07,244.8-49.8s-491.98-149.9-491.98-149.9
			l-749.29,284.12L2008.06,1505.78z"/>
	</defs>
	<use xlink:href="#SVGID_11411_"  overflow="visible" fill="#60201E"/>
	<clipPath id="SVGID_12412_">
		<use xlink:href="#SVGID_11411_"  overflow="visible"/>
	</clipPath>
	<path clip-path="url(#SVGID_12412_)" fill="#682E2E" d="M2264.64,1325.04c0,0-277.59,302.74-59.79,395.78s503.51-623.18,1242-393.07
		s-268.43-742.08-268.43-742.08L2264.64,1325.04z"/>
	<use xlink:href="#SVGID_11411_"  overflow="visible" fill="none" stroke="#4C1919" stroke-width="20.2314" stroke-miterlimit="10"/>
</g>
<g>
	<defs>
		<path id="SVGID_13413_" d="M2532.88,750.26c0,0,458.18,156.81,749.48,388.59c0,0,121.14,84.47,73.99,154.6
			c0,0-84.9,19.08-202.14-16.32c-117.25-35.4-446.99-3.23-589.83,84.51c-142.84,87.74-238.54,122.02-342.62,214.69
			c-104.08,92.67-217.82-45.77-217.82-45.77s9.38-76.13,69.41-158.75c60.02-82.61,114.81-152.8,115.73-238.29
			c0.93-85.49,16.95-247.95,90.92-319.21S2440.5,728.73,2532.88,750.26z"/>
	</defs>
	<use xlink:href="#SVGID_13413_"  overflow="visible" fill="#842A24"/>
	<clipPath id="SVGID_14414_">
		<use xlink:href="#SVGID_13413_"  overflow="visible"/>
	</clipPath>
	<path clip-path="url(#SVGID_14414_)" fill="#91433D" d="M1945.44,929.98c77.92-81.25,172.15-156.45,283.88-170.2
		c90.68-11.16,181.08,19.7,264.85,56.17c166.89,72.65,421.16,175.85,560.34,293.15c10.22,8.62,20.86,18.11,24.46,30.98
		c6.85,24.49-16.28,48.93-41.19,54.06c-24.91,5.13-50.36-2.96-75-9.27c-143.51-36.76-399.69-18.29-525.18,60.44
		c-52.67,33.04-99.42,74.85-152.18,107.76c-52.76,32.9-114.49,57.05-176.14,48.93c-53.29-7.02-100.34-37.1-145.39-66.41
		c-120.53-78.43-246.59-162.94-310.07-291.98L1945.44,929.98z"/>
	<use xlink:href="#SVGID_13413_"  overflow="visible" fill="none" stroke="#4C1919" stroke-width="20.2314" stroke-miterlimit="10"/>
</g>
</svg>
