<?xml version="1.0" encoding="utf-8"?>
<!-- Generator: Adobe Illustrator 19.0.0, SVG Export Plug-In . SVG Version: 6.00 Build 0)  -->
<svg width="4096" height="3112"  id="Layer_1" xmlns="http://www.w3.org/2000/svg" xmlns:xlink="http://www.w3.org/1999/xlink" x="0px" y="0px"
	 viewBox="0 0 4096 3112" enable-background="new 0 0 4096 3112" xml:space="preserve">
<g>
	<defs>
		<path id="SVGID_111_" d="M1976.14,1168.78c-12.65,171.53-77.91,226.54-131.17,242.29c-35.02,10.36-50.71,51.14-32.52,82.81
			c33.27,57.94,81.65,119.39,122.29,80.84c57.94-54.97,141.4-20.6,167.9-7.44c5.21,2.59,9.97,5.97,14.15,10.02l34.9,33.77
			c13,12.58,31.28,18.6,49.06,15.22c27.01-5.13,48.79-29.98-27.15-126.03c-107.91-136.48-69.72-647.39-59.82-760.02
			c1.14-12.97,6.73-25.11,15.74-34.51c11.62-12.12,24.77-30.71,13.7-44.73c-17.87-22.63-5.96-52.42,10.72-69.1
			c9.97-9.97,16.11-28.02,19.43-40.93c2.8-10.87,2.33-22.31-1.36-32.91c-7.21-20.72-24.63-49.93-63.34-32.19
			c-51.23,23.48-90.98,9.67-98.7,6.54c-1.38-0.56-2.76-1.07-4.17-1.52c-11.04-3.5-51.44-14.47-62.71,8.08
			c-8.6,17.2-5.91,45.19-3.05,62.38c1.46,8.76,5.04,16.99,10.24,24.19c24.28,33.66,13.68,53.91,7.1,80.2
			c-4.24,16.98,4.11,30.49,11.6,38.66c7.85,8.57,12.69,19.49,14.16,31.03c2.14,16.83,4.18,44.83,3.73,89.35
			C1985.96,914,1982.16,1087.1,1976.14,1168.78z"/>
	</defs>
	<use xlink:href="#SVGID_111_"  overflow="visible" fill="#C1ACB3"/>
	<clipPath id="SVGID_212_">
		<use xlink:href="#SVGID_111_"  overflow="visible"/>
	</clipPath>
	<path clip-path="url(#SVGID_212_)" fill="#9B7C84" d="M2079.36,452.7c-16.96,8.73,7.08,36.78,15.15,54.06
		c8.07,17.29,12.84,39.96-0.36,53.73c-10.47,10.92-27.42,11.14-42.43,13.06c-15,1.92-32.47,9.3-34.28,24.32
		c-1.83,15.22,13.91,26.62,28.53,31.24c14.62,4.62,31.36,6.91,41.3,18.58c3.45,4.06,5.85,9.56,4.44,14.69
		c-3.47,12.63-21.71,9.89-34.62,12.1c-17,2.9-29.13,19.13-32.96,35.94c-3.84,16.81-1.16,34.32,0.94,51.44
		c10.56,85.86,6.27,172.81-0.2,259.07c-7.82,104.38-18.81,208.53-32.94,312.25c-1.91,14.02-3.92,28.19-9.14,41.34
		c-24.48,61.66-112.05,86.4-122.9,151.85c-5.7,34.33,13.76,69.11,41.23,90.47c27.47,21.36,61.82,31.61,95.69,39.62
		c43.25,10.22,88.16,17.52,132.04,10.48c43.88-7.05,86.99-30.43,108.63-69.24c4.69-8.4,8.37-17.67,8.37-27.3
		c0-8.75-3.03-17.24-6.87-25.1c-32.68-66.93,126.7-181.39,99.01-250.53c-13.87-34.64-28.32-45.9-19.66-82.2
		c13.98-58.56-188.78-56.1-153.15-104.63C2165.19,1107.93,2635.57,166.37,2079.36,452.7z"/>
	<path clip-path="url(#SVGID_212_)" fill="#C1ACB3" d="M2079.78,712.57c0,0-36.04,87.41-184.35-125.97
		C1895.43,586.61,2029.52,731.13,2079.78,712.57z"/>
	<path clip-path="url(#SVGID_212_)" fill="#C1ACB3" d="M2076.06,764.25c0,0-36.04,87.41-184.35-125.97
		C1891.7,638.28,2025.8,782.8,2076.06,764.25z"/>
	<path clip-path="url(#SVGID_212_)" fill="#C1ACB3" d="M2076.06,810.26c0,0-36.04,87.41-184.35-125.97
		C1891.7,684.29,2025.8,828.81,2076.06,810.26z"/>
	<path clip-path="url(#SVGID_212_)" fill="#C1ACB3" d="M2074.57,853.44c0,0-36.04,87.41-184.35-125.97
		C1890.21,727.48,2024.31,872,2074.57,853.44z"/>
	<path clip-path="url(#SVGID_212_)" fill="#C1ACB3" d="M2072.78,900.02c0,0-36.04,87.41-184.35-125.97
		C1888.43,774.05,2022.52,918.57,2072.78,900.02z"/>
	<path clip-path="url(#SVGID_212_)" fill="#C1ACB3" d="M2070.99,942.23c0,0-36.04,87.41-184.35-125.97
		C1886.64,816.27,2020.74,960.78,2070.99,942.23z"/>
	<path clip-path="url(#SVGID_212_)" fill="#C1ACB3" d="M2070.77,988.25c0,0-36.04,87.41-184.35-125.97
		C1886.42,862.28,2020.51,1006.8,2070.77,988.25z"/>
	<path clip-path="url(#SVGID_212_)" fill="#C1ACB3" d="M2069.21,1040.51c0,0-36.04,87.41-184.35-125.97
		C1884.85,914.55,2018.95,1059.07,2069.21,1040.51z"/>
	<path clip-path="url(#SVGID_212_)" fill="#C1ACB3" d="M2066.97,1094.57c0,0-36.04,87.41-184.35-125.97
		C1882.62,968.6,2016.72,1113.12,2066.97,1094.57z"/>
	<path clip-path="url(#SVGID_212_)" fill="#C1ACB3" d="M2067.27,1142.97c0,0-36.04,87.41-184.35-125.97
		C1882.92,1017,2017.01,1161.52,2067.27,1142.97z"/>
	<path clip-path="url(#SVGID_212_)" fill="#C1ACB3" d="M2065.33,1193c0,0-36.04,87.41-184.35-125.97
		C1880.98,1067.03,2015.08,1211.55,2065.33,1193z"/>
	<path clip-path="url(#SVGID_212_)" fill="#C1ACB3" d="M2061.91,1243.03c0,0-36.04,87.41-184.35-125.97
		C1877.56,1117.07,2011.65,1261.59,2061.91,1243.03z"/>
	<path clip-path="url(#SVGID_212_)" fill="#C1ACB3" d="M2060.12,1288.15c0,0-36.04,87.41-184.35-125.97
		C1875.77,1162.19,2009.87,1306.71,2060.12,1288.15z"/>
	<path clip-path="url(#SVGID_212_)" fill="#C1ACB3" d="M2080.15,1333.87c0,0-53.15,99.72-271.91-143.72
		C1808.24,1190.15,2006.02,1355.03,2080.15,1333.87z"/>
	<path clip-path="url(#SVGID_212_)" fill="#C1ACB3" d="M1994.3,1482.76c0,0,75.46-84.12-228.22-206.17
		C1766.08,1276.59,1988.78,1405.87,1994.3,1482.76z"/>
	<g clip-path="url(#SVGID_212_)">
		<path fill="none" stroke="#602E33" stroke-width="10.7216" stroke-miterlimit="10" d="M2015.75,716.98c0,0,33.36,19.06,66.71,0"/>
		<path fill="none" stroke="#602E33" stroke-width="10.7216" stroke-miterlimit="10" d="M2012.17,768.2c0,0,33.36,19.06,66.71,0"/>
		<path fill="none" stroke="#602E33" stroke-width="10.7216" stroke-miterlimit="10" d="M2012.17,814.67c0,0,33.36,19.06,66.71,0"/>
		<path fill="none" stroke="#602E33" stroke-width="10.7216" stroke-miterlimit="10" d="M2010.39,857.55c0,0,33.36,19.06,66.71,0"/>
		<path fill="none" stroke="#602E33" stroke-width="10.7216" stroke-miterlimit="10" d="M2008.6,904.01c0,0,33.36,19.06,66.71,0"/>
		<path fill="none" stroke="#602E33" stroke-width="10.7216" stroke-miterlimit="10" d="M2006.81,946.3c0,0,33.36,19.06,66.71,0"/>
		<path fill="none" stroke="#602E33" stroke-width="10.7216" stroke-miterlimit="10" d="M2006.81,992.17c0,0,33.36,19.06,66.71,0"/>
		<path fill="none" stroke="#602E33" stroke-width="10.7216" stroke-miterlimit="10" d="M2005.03,1044.58c0,0,33.36,19.06,66.71,0"
			/>
		<path fill="none" stroke="#602E33" stroke-width="10.7216" stroke-miterlimit="10" d="M2003.24,1098.19c0,0,33.36,19.06,66.71,0"
			/>
		<path fill="none" stroke="#602E33" stroke-width="10.7216" stroke-miterlimit="10" d="M2003.24,1147.04c0,0,33.36,19.06,66.71,0"
			/>
		<path fill="none" stroke="#602E33" stroke-width="10.7216" stroke-miterlimit="10" d="M2001.45,1197.07c0,0,33.36,19.06,66.71,0"
			/>
		<path fill="none" stroke="#602E33" stroke-width="10.7216" stroke-miterlimit="10" d="M1997.88,1247.1c0,0,33.36,19.06,66.71,0"/>
		<path fill="none" stroke="#602E33" stroke-width="10.7216" stroke-miterlimit="10" d="M1996.09,1292.37c0,0,33.36,19.06,66.71,0"
			/>
		<path fill="none" stroke="#602E33" stroke-width="13.5922" stroke-miterlimit="10" d="M1975.24,1340.03c0,0,53.61,19.06,107.22,0"
			/>
		<path fill="none" stroke="#602E33" stroke-width="13.5922" stroke-miterlimit="10" d="M2100.25,1408.44c0,0-50.19,26.8-72.2,79.27
			"/>
		<path fill="none" stroke="#602E33" stroke-width="13.5922" stroke-miterlimit="10" d="M1989.82,1486.83
			c0,0-13.85-55.18-59.43-89.24"/>
	</g>
	<use xlink:href="#SVGID_111_"  overflow="visible" fill="none" stroke="#602E33" stroke-width="16.0825" stroke-miterlimit="10"/>
</g>
<g>
	<defs>
		<path id="SVGID_313_" d="M1532.08,998.12c0,0-554.42,465.57-444.1,1421.51c0.91,7.87,2.46,15.67,4.7,23.27
			c14.83,50.23,81.31,205.24,330.71,166.15c9.57-1.5,18.97-3.97,28.03-7.39c50.47-19.01,245.48-89.24,373.72-90.01
			c128.82-0.78,128.23-211.19,125.85-266.48c-0.33-7.71-1.29-15.37-2.88-22.92c-8.33-39.65-37.35-191.43-15.75-290.17
			c25.02-114.36,35.74-315.69,16.68-371.68c-19.06-55.99-47.65-179.89-39.31-225.15c7.64-41.48,14.28-159.97-58.89-330.73
			c-18.52-43.22-56.88-74.9-103.04-83.86C1693.81,910.19,1617.26,918.5,1532.08,998.12z"/>
	</defs>
	<use xlink:href="#SVGID_313_"  overflow="visible" fill="#A45F63"/>
	<clipPath id="SVGID_414_">
		<use xlink:href="#SVGID_313_"  overflow="visible"/>
	</clipPath>
	<path clip-path="url(#SVGID_414_)" fill="#894C52" d="M1909.04,858.78c-13.69-5.97-30.3,1.41-39.41,13.24
		c-9.11,11.83-12.4,27.03-15,41.74c-18.95,107.17-14.38,218.43,13.29,323.68c39.45,150.06,125.7,293.09,114.44,447.84
		c-2.26,31.12-14.5,68.32-45.15,74.1c-36.44,6.88-60.59-34.69-88.52-59.09c-46.66-40.77-116.92-35.65-177.58-23.03
		c-60.66,12.62-125.27,30.11-182.81,7.12c-41.47-16.57-72.09-51.64-103.82-83.06c-199.71-197.74-485.22-278.35-720.11-432.67
		L1909.04,858.78z"/>
	<path clip-path="url(#SVGID_414_)" fill="#894C52" d="M1237.24,2694.82c0,0,59.83-69.31,106.96-109.5
		c29.79-25.4,60.02-51.09,95.32-68.03c28.17-13.52,60.08-21.84,82.03-44.08c16.83-17.05,25.83-40.51,42.19-58.01
		c29.42-31.46,76.55-38.02,119.63-37.94c43.07,0.08,87.81,4.62,127.8-11.4c58.17-23.3,92.15-84.97,106.92-145.87
		c14.77-60.9,15.05-124.64,30.38-185.4c12.2-48.38,33.5-101.12,10.9-145.6c-7.44-14.65-19.1-26.73-31.36-37.67
		c-53.71-47.92-121.05-77.72-188.92-101.7c-143.47-50.69-298.23-78.78-448.42-54.33s-295.29,106.68-372.57,237.77
		c-58.97,100.02-74.99,222.04-56.65,336.69c18.34,114.65,69.3,222.35,135.61,317.66c22.24,31.96,47.35,63.66,81.86,81.69
		C1144.91,2703.62,1177.81,2649.94,1237.24,2694.82"/>
	<path clip-path="url(#SVGID_414_)" fill="#AA7B81" stroke="#602E33" stroke-width="16.0825" stroke-miterlimit="10" d="
		M1172.91,2630.49c0,0,59.83-69.31,106.96-109.5c29.79-25.4,60.02-51.09,95.32-68.03c28.17-13.52,60.08-21.84,82.03-44.08
		c16.83-17.05,25.83-40.51,42.19-58.01c29.42-31.46,76.55-38.02,119.63-37.94c43.07,0.08,87.81,4.62,127.8-11.4
		c58.17-23.3,92.15-84.97,106.92-145.87s15.05-124.64,30.38-185.4c12.2-48.38,33.5-101.12,10.9-145.6
		c-7.44-14.65-19.1-26.73-31.36-37.67c-53.71-47.92-121.05-77.72-188.92-101.7c-143.47-50.69-298.23-78.78-448.42-54.33
		s-295.3,106.68-372.57,237.77c-58.97,100.02-74.99,222.04-56.65,336.69c18.34,114.65,69.3,222.35,135.61,317.66
		c22.24,31.96,47.35,63.66,81.86,81.69C1080.58,2639.29,1113.48,2585.61,1172.91,2630.49"/>
	<path clip-path="url(#SVGID_414_)" fill="#AA7B81" stroke="#602E33" stroke-width="16.0825" stroke-miterlimit="10" d="
		M1081.49,1694.7c78.25,4.07,155.88,19.71,229.59,46.27c62.37,22.47,125.46,53.26,191.39,46.41c27.12-2.82,53.38-12.02,80.6-13.64
		c43.06-2.57,84.83,13.9,123.94,32.09s78.1,38.7,120.75,45.09c42.66,6.39,90.92-4.37,117.05-38.68
		c17.81-23.39,22.88-53.9,25.55-83.18c2.59-28.28,3.47-56.69,4.36-85.08c0.49-15.73,0.97-31.62-2.08-47.06
		c-3.8-19.25-12.92-36.98-21.87-54.45c-39.69-77.4-78.42-155.81-103.99-238.95c-25.57-83.14-37.62-171.81-22.91-257.54
		c5.87-34.24,15.96-67.81,18.84-102.43c2.88-34.62-2.35-71.65-23.89-98.91c-37.07-46.9-106.56-49.18-166.06-43.33
		c-29.76,2.93-59.8,6.95-87.58,18.03c-36.58,14.59-67.35,40.65-95.66,68.03c-119.98,116.06-208.18,264.65-252.61,425.56
		c-14.85,53.78-25.06,109.33-48.6,159.92c-11.32,24.31-25.64,47.3-34.56,72.59c-9.89,28.03-12.83,57.96-15.69,87.54
		c-2.75,28.45-5.51,56.9-8.26,85.35c9.2,0.02,18.4,0.04,27.59,0.06"/>
	<path clip-path="url(#SVGID_414_)" fill="#C4A5AC" d="M1791.11,837.34c-13.69-5.97-30.3,1.41-39.41,13.24
		c-9.11,11.83-12.4,27.03-15,41.74c-18.95,107.17-14.38,218.43,13.29,323.68c39.45,150.06,125.7,293.09,114.44,447.84
		c-2.26,31.12-14.5,68.32-45.15,74.1c-36.44,6.88-60.59-34.69-88.52-59.09c-46.66-40.77-116.92-35.65-177.58-23.03
		c-60.66,12.62-125.27,30.11-182.81,7.12c-41.47-16.57-72.09-51.64-103.82-83.06c-199.71-197.74-485.22-278.35-720.11-432.67
		L1791.11,837.34z"/>
	<path clip-path="url(#SVGID_414_)" fill="#C4A5AC" d="M1188.99,2514.64c0,0,41.1-128.06,137.59-156.66s125.09-109,144.74-132.23
		s125.09-48.25,216.22,0c91.13,48.25,125.09-284.12,125.09-284.12s-91.58,0-173.33-48.25c-67.45-39.81-112.24,37.44-203.71,6.25
		c-19.66-6.7-130.89-57.18-153.68-72.37c-75.54-50.36-117.94-35.74-117.94-35.74S1065.1,2287.1,1188.99,2514.64z"/>
	<use xlink:href="#SVGID_313_"  overflow="visible" fill="none" stroke="#602E33" stroke-width="16.0825" stroke-miterlimit="10"/>
</g>
<g>
	<defs>
		<path id="SVGID_515_" d="M2555.24,962.57c0,0,523.53,485.59,474.86,1309.36c-2.49,42.08-3.73,84.24-3.41,126.39
			c0.8,103.71-19.45,316.57-208.79,226.02c0,0-225.14-64.33-337.71-48.24c-112.57,16.08-321.63-117.93-332.35-294.83
			c-10.72-176.9,77.73-251.95,16.08-367.2c-58.97-110.24-105.67-205.77-53.32-446.11c3.58-16.41,6.98-32.87,10.07-49.39
			c4.42-23.63,18.17-76.46,50.24-111.9c0,0,33.06-292.46,206.39-365.73C2377.3,940.94,2477.65,894.84,2555.24,962.57z"/>
	</defs>
	<use xlink:href="#SVGID_515_"  overflow="visible" fill="#A45F63"/>
	<clipPath id="SVGID_616_">
		<use xlink:href="#SVGID_515_"  overflow="visible"/>
	</clipPath>
	<path clip-path="url(#SVGID_616_)" fill="#894C52" d="M2096.37,1974.63c128.15,64.77,235.33,170.28,302.11,297.4
		c21.53,40.98,39.02,84.21,64.13,123.1s59.35,74.08,103.15,89.08c20.24,6.93,41.7,9.3,62.7,13.41
		c147.58,28.84,264.68,141.4,353.87,262.47l529.69-357.43l-243.02-489.62l-879.17-264.47l-464.6,82.2L2096.37,1974.63z"/>
	<path clip-path="url(#SVGID_616_)" fill="#AA7B81" stroke="#602E33" stroke-width="16.0825" stroke-miterlimit="10" d="
		M2696.26,2333.06c0.92-33.02,1.84-66.03,2.77-99.05c2.21-79.28,4.45-158.85,17.33-237.11c8.29-50.41,21.2-100.65,45.4-145.63
		c34.6-64.3,93-116.22,162.23-139.45c69.23-23.23,148.7-16.52,211.2,21.24c69.69,42.1,113.56,118.22,133.26,197.22
		s17.92,161.6,14.35,242.94c-4.42,100.71-11.49,202.05-37.24,299.51c-11.67,44.19-27.72,88.4-57.08,123.43
		c-29.36,35.02-74.22,59.67-119.69,55c-63.2-6.49-107.13-63.58-160.92-97.41c-33.77-21.24-72.35-33.56-107.48-52.47
		c-35.13-18.91-68.46-47.05-78.83-85.58c-3.72-13.82-4.31-28.38-8.58-42.04c-5.8-18.58-18.55-34.91-35.17-45.04L2696.26,2333.06z"/>
	<g clip-path="url(#SVGID_616_)">
		<defs>
			<path id="SVGID_717_" d="M2210.03,1024.62c66.49,56.73,74.72,169.24,17.21,235.05c-35.43,40.54-88.3,61.55-127.74,98.2
				c-86.74,80.61-90.29,217.89-60.75,332.56c17.55,68.14,45.6,135.56,94.7,185.96c27.86,28.59,61.51,50.73,93.9,74.07
				c60.43,43.55,117.31,92.04,169.88,144.81c64.94,65.19,126.39,144.87,127.48,236.87c0.17,14.14-0.96,29.07,5.55,41.63
				c6.44,12.42,19.13,20.12,31.2,27.18c50.29,29.43,112.86,59.28,163.66,30.75c28.34-15.92,44.8-46.36,59.76-75.22
				c69.26-133.58,139.06-268.54,177.26-414.09c18.59-70.85,29.48-143.46,40.33-215.9c11.83-78.96,23.68-158.16,25.59-237.98
				c2.37-98.87-10.54-197.43-24.97-295.27c-12.09-81.97-26.04-165.97-68.01-237.41c-33.68-57.32-83.79-103.45-138.08-141.84
				c-66.54-47.05-143.55-84.51-225.03-85.53c-139.5-1.74-256.09,100.01-357.7,195.61L2210.03,1024.62z"/>
		</defs>
		<use xlink:href="#SVGID_717_"  overflow="visible" fill="#AA7B81"/>
		<clipPath id="SVGID_818_">
			<use xlink:href="#SVGID_717_"  overflow="visible"/>
		</clipPath>
		<path clip-path="url(#SVGID_818_)" fill="#C4A5AC" d="M2054.11,1766.88c95.2-3.6,185.08,43.09,263.14,97.71
			c131.21,91.82,247.8,216.86,288.16,371.84c8.34,32.03,14.42,67.02,37.89,90.36c3.02,3.01,6.72,5.93,10.98,5.83
			c4.47-0.1,8.13-3.46,11.15-6.76c25.97-28.35,38.75-66.02,50.86-102.51c21.12-63.68,42.24-127.35,63.36-191.03
			c22.14-66.74,44.33-133.71,57.68-202.76c6.64-34.38,11.07-69.71,6.01-104.36c-4.6-31.5-16.86-61.3-29.01-90.73
			c-44.16-106.91-88.31-213.81-132.47-320.72c-20.17-48.85-40.44-97.88-67.21-143.44c-69.75-118.72-180.29-208.19-296.86-281.49
			c-10.25-6.44-20.74-12.86-32.41-16.09c-26.01-7.19-53.89,2.58-76.8,16.84c-31.34,19.51-56.92,47.31-77.49,77.97
			c-37.27,55.52-58.6,119.93-79.5,183.45c-33.08,100.53-66.54,203.4-64.72,309.23c1.74,101.73,36,199.75,69.86,295.7
			c4.89,13.84,12.59,30.02,27.2,31.43"/>
		<use xlink:href="#SVGID_717_"  overflow="visible" fill="none" stroke="#602E33" stroke-width="16.0825" stroke-miterlimit="10"/>
	</g>
	<use xlink:href="#SVGID_515_"  overflow="visible" fill="none" stroke="#602E33" stroke-width="16.0825" stroke-miterlimit="10"/>
</g>
<path fill="#C4A5AC" d="M2991.78,2008.42c13.8,163.41,3.87,328.81-29.38,489.4c-9.82,4.51-21.68-0.43-29.41-7.98
	c-7.73-7.55-12.76-17.4-19.6-25.77c-25.58-31.33-70.58-36.73-110.9-39.82c-7.11-11.76-3.82-27.42,3.76-38.89
	c7.59-11.47,18.77-19.96,28.81-29.35c47.72-44.67,69.51-109.73,89.54-171.95c21.84-67.83,43.68-135.66,65.52-203.49L2991.78,2008.42
	z"/>
</svg>
