<?xml version="1.0" encoding="utf-8"?>
<!-- Generator: Adobe Illustrator 19.0.0, SVG Export Plug-In . SVG Version: 6.00 Build 0)  -->
<svg width="4096" height="3112" id="Layer_1" xmlns="http://www.w3.org/2000/svg" xmlns:xlink="http://www.w3.org/1999/xlink" x="0px" y="0px"
	 viewBox="0 0 4096 3112" enable-background="new 0 0 4096 3112" xml:space="preserve">
<g>
	<defs>
		<path id="SVGID_151_" d="M708.48,2439.03c0,0-177.12-17.71-199.26-163.84c0,0-110.7-67.9-84.13-216.97c0,0-75.28-90.04-23.62-262.73
			c0,0-23.62-113.65,75.28-227.31c0,0-13.28-59.04,57.56-119.56c0,0-11.81-53.14,53.14-90.04c0,0,33.95-91.51,163.84-112.18
			c0,0,35.42-70.85,121.03-42.8c0,0,48.71-53.14,136.16-40.96c0,0,92.99-77.49,194.83-50.92c0,0,55.35-90.78,200.37-76.38
			c0,0,101.85-91.88,221.4-50.92c0,0,38.75-58.67,120.66-39.85c0,0,78.6-68.63,201.11-18.45c0,0,118.08-48.71,211.07,7.38
			c0,0,138.01-61.99,280.81,58.67c0,0,104.06-43.17,191.51-3.32c0,0,90.78-45.39,181.55,4.43c0,0,38.75-18.82,97.42,18.82
			c0,0,98.52-23.25,160.52,9.96c0,0,61.99-44.28,143.91-15.5c0,0,43.17-47.6,128.41-23.25c0,0,64.21-38.75,109.59-28.78
			c0,0,176.02-121.77,92.99,74.17c0,0-6.64,130.63-92.25,195.57c0,0-26.57,78.23-119.56,113.65c0,0-70.85,109.23-202.21,128.41
			c0,0-36.9,50.18-100.37,53.14c0,0-67.9,53.14-181.55,44.28c0,0-106.27,57.56-172.69,28.04c0,0-64.95,47.23-113.65,25.09
			c0,0-90.04,64.94-209.59,16.24c0,0-28.04,53.14-135.79,38.38c0,0-54.98,54.61-142.44,28.04c0,0-74.17,57.56-152.77,33.21
			c0,0-60.89,63.1-187.09,45.39c0,0-65.31,69-142.07,58.67c0,0-159.41,45.76-150.55,166.79c0,0,92.25,23.62,103.32,136.53
			c0,0,135.06,19.93,90.78,146.13c0,0,33.21,192.62-219.19,174.91c0,0-68.63,88.56-239.12,57.56c0,0-108.49,94.1-255.72,7.75
			C922.14,2526.48,773.8,2551.94,708.48,2439.03z"/>
	</defs>
	<use xlink:href="#SVGID_151_"  overflow="visible" fill="#BF8840"/>
	<clipPath id="SVGID_252_">
		<use xlink:href="#SVGID_151_"  overflow="visible"/>
	</clipPath>
	<g clip-path="url(#SVGID_252_)">
		<path fill="#D8B466" d="M2957.17,772.8c-5.69-10.12-8.12-21.78-6.74-33.31c0.11-0.89,0.23-1.71,0.37-2.44
			c6.32-33.02,23.78-65.09,52.26-82.96c28.48-17.88,68.62-18.55,94.19,3.29c19.24,16.43,27.92,43.14,25.94,68.36
			s-13.59,48.96-29.15,68.91c-14.15,18.15-31.57,33.61-45.22,52.14c-13.65,18.53-23.53,41.64-19.3,64.27
			c3.49,18.66,15.9,34.17,24.93,50.88c16.45,30.44,20.71,71.09-1.34,97.76c-21.33,25.79-63.19,29.42-90.95,10.71
			s-40.38-55.64-33.94-88.48c4.14-21.13,15.2-42.57,8.67-63.09c-5.86-18.39-24.85-30.01-43.89-33.15
			c-19.04-3.14-38.45,0.54-57.51,3.58c-19.06,3.03-38.93,5.37-57.37-0.31c-28.06-8.64-48.74-37.05-48.32-66.41
			c0.41-29.36,21.87-57.18,50.16-65.03c24.57-6.82,51.16,0.63,73.34,13.21c22.18,12.58,41.15,30,61.59,45.26
			c9.67,7.22,20.45,14.23,32.51,14.51s25.07-9.04,24.29-21.08C2971.01,799.2,2963.25,783.61,2957.17,772.8z"/>
		<path fill="#D8B466" d="M2825.55,1140.7c11.5-1.58,23.24,0.44,33.46,5.94c0.79,0.42,1.51,0.84,2.14,1.24
			c28.4,17.99,51.83,45.99,58.02,79.05c6.18,33.05-7.91,70.64-37.6,86.42c-22.34,11.88-50.37,10.15-73.11-0.94
			s-40.56-30.6-53.42-52.39c-11.7-19.82-19.68-41.7-31.92-61.19c-12.24-19.49-30.11-37.16-52.71-41.53
			c-18.64-3.6-37.62,2.26-56.47,4.53c-34.36,4.14-73.74-6.8-90.46-37.1c-16.17-29.31-4.19-69.58,23.39-88.54
			c27.59-18.96,66.57-17.16,94.77,0.87c18.14,11.6,34.03,29.76,55.51,31.2c19.25,1.3,37.03-12.11,46.94-28.68
			c9.9-16.56,13.6-35.97,17.76-54.82c4.17-18.84,9.28-38.18,21.33-53.26c18.33-22.94,52.35-31.75,79.51-20.6
			c27.16,11.15,45.17,41.32,42.1,70.52c-2.67,25.36-19.35,47.36-39.19,63.38c-19.84,16.02-43,27.28-64.69,40.7
			c-10.26,6.35-20.73,13.8-25.43,24.92c-4.69,11.12-0.78,26.64,10.7,30.33C2795.91,1143.89,2813.27,1142.39,2825.55,1140.7z"/>
		<path fill="#D8B466" d="M3267.56,1102.38c9.25,7.01,16.12,16.74,19.45,27.86c0.26,0.85,0.47,1.66,0.64,2.39
			c7.36,32.81,4.12,69.17-14.88,96.92s-55.55,44.35-87.7,34.51c-24.19-7.4-42.79-28.44-51.03-52.37s-7.04-50.32-0.72-74.82
			c5.75-22.29,15.57-43.4,20.7-65.84s4.99-47.57-7.91-66.64c-10.63-15.73-28.2-25.01-43.13-36.73
			c-27.22-21.37-47.32-56.95-37.72-90.2c9.29-32.16,46.24-52.16,79.15-46.06c32.91,6.1,59.21,34.94,66.39,67.63
			c4.62,21.03,3.02,45.11,17.19,61.32c12.7,14.53,34.75,17.62,53.47,12.91c18.72-4.71,35.05-15.82,51.32-26.2
			c16.27-10.38,33.56-20.43,52.74-22.58c29.18-3.26,59.46,14.57,70.78,41.66c11.32,27.09,2.72,61.16-20.1,79.63
			c-19.82,16.04-47.17,19.8-72.53,17.1c-25.36-2.7-49.7-11.12-74.52-16.97c-11.74-2.77-24.42-4.9-35.6-0.36
			c-11.18,4.54-19.39,18.28-13.88,29.02C3244.35,1083.67,3257.68,1094.89,3267.56,1102.38z"/>
		<path fill="#D8B466" d="M3116.24,1316.33c8.11-8.3,18.63-13.9,30.08-15.82c0.88-0.15,1.7-0.26,2.45-0.33
			c33.47-3.2,69.15,4.56,94.3,26.88c25.15,22.32,37.06,60.66,23.28,91.33c-10.37,23.08-33.57,38.9-58.34,44.08
			c-24.76,5.18-50.8,0.69-74.32-8.64c-21.39-8.49-41.12-20.87-62.73-28.77s-46.57-10.89-67.1-0.49
			c-16.94,8.58-28.34,24.85-41.84,38.2c-24.6,24.34-62.42,39.83-94.21,26.15c-30.74-13.24-45.97-52.4-35.8-84.29
			c10.17-31.89,42.07-54.37,75.4-57.41c21.44-1.95,45.13,2.64,62.99-9.38c16.01-10.78,21.83-32.27,19.5-51.43
			c-2.33-19.16-11.31-36.76-19.57-54.2c-8.26-17.44-16.08-35.85-15.8-55.15c0.42-29.36,21.89-57.18,50.18-65.02
			c28.29-7.84,61.02,4.95,76.5,29.9c13.44,21.67,13.75,49.28,7.9,74.1c-5.85,24.82-17.24,47.92-26.15,71.81
			c-4.22,11.31-7.92,23.62-4.81,35.28s15.71,21.53,27.05,17.4C3094.79,1337.02,3107.58,1325.2,3116.24,1316.33z"/>
		<path fill="#D8B466" d="M2583.83,861.76c8.11-8.3,18.63-13.9,30.08-15.82c0.88-0.15,1.7-0.26,2.45-0.33
			c33.47-3.2,69.15,4.56,94.3,26.88c25.15,22.32,37.06,60.66,23.28,91.33c-10.37,23.08-33.57,38.9-58.34,44.08
			c-24.76,5.18-50.8,0.69-74.32-8.64c-21.39-8.49-41.12-20.87-62.73-28.77s-46.57-10.89-67.1-0.49
			c-16.94,8.58-28.34,24.85-41.84,38.2c-24.6,24.34-62.42,39.83-94.21,26.15c-30.74-13.24-45.97-52.4-35.8-84.29
			c10.17-31.89,42.07-54.37,75.4-57.41c21.44-1.95,45.13,2.64,62.99-9.38c16.01-10.78,21.83-32.27,19.5-51.43
			c-2.33-19.16-11.31-36.76-19.57-54.2c-8.26-17.44-16.08-35.85-15.8-55.15c0.42-29.36,21.89-57.18,50.18-65.02
			c28.29-7.84,61.02,4.95,76.5,29.9c13.44,21.67,13.75,49.28,7.9,74.1c-5.85,24.82-17.24,47.92-26.15,71.81
			c-4.22,11.31-7.92,23.62-4.81,35.28c3.11,11.66,15.71,21.53,27.05,17.4C2562.37,882.45,2575.16,870.63,2583.83,861.76z"/>
		<path fill="#D8B466" d="M2573.56,1428.08c11.58,0.85,22.64,5.27,31.48,12.79c0.68,0.58,1.3,1.13,1.83,1.66
			c24.03,23.52,41.1,55.79,40.25,89.41s-22.47,67.43-54.8,76.68c-24.33,6.95-51.38-0.58-71.31-16.17s-33.28-38.39-41.32-62.38
			c-7.31-21.83-10.56-44.88-18.46-66.5c-7.9-21.62-21.7-42.62-42.89-51.61c-17.48-7.41-37.27-5.64-56.18-7.35
			c-34.46-3.12-70.7-22.03-80.73-55.15c-9.71-32.03,10.41-68.93,41.34-81.71c30.93-12.79,68.68-2.9,92.5,20.62
			c15.32,15.13,27.08,36.2,47.79,42.09c18.56,5.28,38.74-4.13,51.88-18.26s20.8-32.35,28.81-49.91
			c8.01-17.56,17.04-35.41,31.97-47.64c22.71-18.61,57.82-20.13,82.05-3.57s35.56,49.83,26.47,77.75
			c-7.9,24.25-28.8,42.28-51.55,53.82c-22.74,11.53-47.75,17.72-71.75,26.31c-11.36,4.07-23.16,9.17-30.06,19.07
			c-6.91,9.9-6.32,25.89,4.14,31.9C2543.91,1425.03,2561.19,1427.18,2573.56,1428.08z"/>
		<path fill="#D8B466" d="M3602.25,1251.54c11.58,0.85,22.64,5.27,31.48,12.79c0.68,0.58,1.3,1.13,1.83,1.66
			c24.03,23.52,41.1,55.79,40.25,89.41c-0.84,33.61-22.47,67.43-54.8,76.68c-24.33,6.95-51.38-0.58-71.31-16.17
			s-33.28-38.39-41.32-62.38c-7.31-21.83-10.56-44.88-18.46-66.5c-7.9-21.62-21.7-42.62-42.89-51.61
			c-17.48-7.41-37.27-5.64-56.18-7.35c-34.46-3.12-70.7-22.03-80.73-55.15c-9.71-32.03,10.41-68.93,41.34-81.71
			c30.93-12.79,68.68-2.9,92.5,20.62c15.32,15.13,27.08,36.2,47.79,42.09c18.56,5.28,38.74-4.13,51.88-18.26
			c13.14-14.13,20.8-32.35,28.81-49.91c8.01-17.56,17.04-35.41,31.97-47.64c22.71-18.61,57.82-20.13,82.05-3.57
			c24.24,16.57,35.56,49.83,26.47,77.75c-7.9,24.25-28.8,42.28-51.55,53.82c-22.74,11.53-47.75,17.72-71.75,26.31
			c-11.36,4.07-23.16,9.17-30.06,19.07c-6.91,9.9-6.32,25.89,4.14,31.9C3572.6,1248.48,3589.88,1250.63,3602.25,1251.54z"/>
		<path fill="#D8B466" d="M2785.96,1617.18c5.17,10.39,7,22.16,5.05,33.61c-0.15,0.88-0.31,1.69-0.49,2.42
			c-7.99,32.66-27.04,63.8-56.39,80.21s-69.47,15.05-93.9-8.05c-18.38-17.38-25.7-44.5-22.45-69.59
			c3.25-25.09,16.06-48.2,32.6-67.34c15.05-17.41,33.23-31.96,47.8-49.78c14.57-17.82,25.6-40.4,22.53-63.21
			c-2.54-18.82-14.15-34.93-22.32-52.07c-14.89-31.24-17.09-72.05,6.29-97.57c22.61-24.68,64.6-26.18,91.37-6.09
			c26.77,20.09,37.51,57.61,29.42,90.09c-5.21,20.89-17.34,41.75-11.85,62.57c4.92,18.66,23.3,31.23,42.16,35.33
			c18.86,4.1,38.43,1.4,57.62-0.66c19.19-2.06,39.15-3.39,57.28,3.21c27.59,10.05,46.8,39.47,44.9,68.77
			c-1.9,29.3-24.74,56-53.39,62.41c-24.89,5.57-51.06-3.22-72.58-16.91c-21.52-13.69-39.58-32.04-59.22-48.32
			c-9.29-7.7-19.7-15.24-31.73-16.14c-12.03-0.9-25.5,7.76-25.33,19.83C2773.48,1590.11,2780.44,1606.08,2785.96,1617.18z"/>
		<path fill="#D8B466" d="M2211.45,1225.32c5.17,10.39,7,22.16,5.05,33.61c-0.15,0.88-0.31,1.69-0.49,2.42
			c-7.99,32.66-27.04,63.8-56.39,80.21c-29.35,16.41-69.47,15.05-93.9-8.05c-18.38-17.38-25.7-44.5-22.45-69.59
			c3.25-25.09,16.06-48.2,32.6-67.34c15.05-17.41,33.23-31.96,47.8-49.78c14.57-17.82,25.6-40.4,22.53-63.21
			c-2.54-18.82-14.15-34.94-22.32-52.07c-14.89-31.24-17.09-72.05,6.29-97.57c22.61-24.68,64.6-26.18,91.37-6.09
			c26.77,20.09,37.51,57.61,29.42,90.09c-5.21,20.89-17.34,41.75-11.85,62.57c4.92,18.66,23.3,31.23,42.16,35.33
			c18.86,4.1,38.43,1.4,57.62-0.66c19.19-2.06,39.15-3.39,57.28,3.21c27.59,10.05,46.8,39.47,44.9,68.77
			c-1.9,29.3-24.74,56-53.39,62.41c-24.88,5.57-51.06-3.22-72.58-16.91c-21.52-13.69-39.58-32.04-59.22-48.32
			c-9.29-7.7-19.7-15.24-31.73-16.14s-25.5,7.76-25.33,19.83C2198.96,1198.25,2205.92,1214.21,2211.45,1225.32z"/>
		<path fill="#D8B466" d="M2306.42,1612.8c-11.25-2.88-21.35-9.19-28.73-18.15c-0.57-0.69-1.08-1.34-1.51-1.95
			c-19.5-27.39-30.61-62.17-23.84-95.11s34.02-62.41,67.47-65.8c25.17-2.55,50.47,9.64,67.34,28.5
			c16.86,18.86,25.99,43.66,29.66,68.69c3.34,22.77,2.47,46.04,6.43,68.72c3.96,22.67,13.84,45.78,33.11,58.37
			c15.9,10.38,35.69,12.13,54,17.15c33.37,9.15,65.7,34.16,69.73,68.53c3.9,33.24-22.41,66.01-55.12,73.13
			c-32.7,7.13-68.12-9.27-87.41-36.62c-12.41-17.6-20.26-40.41-39.61-49.87c-17.34-8.48-38.86-2.78-54.29,8.81
			s-26.18,28.17-37.16,44.04c-10.98,15.87-23.02,31.84-39.87,41.25c-25.64,14.31-60.46,9.61-81.39-10.97
			c-20.93-20.59-26.21-55.33-12.33-81.2c12.05-22.47,35.82-36.53,60.24-43.87c24.42-7.34,50.12-9.01,75.27-13.23
			c11.9-2,24.41-4.94,32.96-13.46s10.79-24.37,1.55-32.13C2335.06,1621.05,2318.43,1615.88,2306.42,1612.8z"/>
		<path fill="#D8B466" d="M2045.05,1436.09c2.25-11.39,7.99-21.83,16.52-29.7c0.66-0.6,1.28-1.15,1.87-1.62
			c26.27-20.99,60.37-34.01,93.64-29.09s64.2,30.5,69.45,63.71c3.95,24.99-6.82,50.93-24.71,68.82
			c-17.89,17.89-42.15,28.37-66.94,33.43c-22.55,4.6-45.83,5.02-68.25,10.24c-22.42,5.22-44.94,16.36-56.44,36.3
			c-9.48,16.45-10.13,36.31-14.12,54.87c-7.28,33.83-30.46,67.49-64.55,73.43c-32.98,5.74-67.15-18.71-76.08-50.97
			c-8.94-32.26,5.46-68.53,31.71-89.31c16.88-13.37,39.22-22.48,47.59-42.32c7.5-17.78,0.61-38.96-11.82-53.72
			c-12.43-14.76-29.58-24.58-46.04-34.66c-16.46-10.08-33.07-21.22-43.4-37.52c-15.71-24.8-12.96-59.83,6.43-81.88
			c19.39-22.04,53.79-29.24,80.39-16.82c23.11,10.79,38.47,33.73,47.15,57.7c8.68,23.98,11.78,49.55,17.39,74.42
			c2.66,11.77,6.29,24.1,15.27,32.16c8.98,8.06,24.93,9.42,32.17-0.24C2038.41,1465.16,2042.64,1448.26,2045.05,1436.09z"/>
		<path fill="#D8B466" d="M2264.23,1701.76c2.25-11.39,7.99-21.83,16.52-29.7c0.66-0.6,1.28-1.15,1.87-1.62
			c26.27-20.99,60.37-34.01,93.64-29.09c33.26,4.92,64.2,30.5,69.45,63.71c3.95,24.99-6.82,50.93-24.71,68.82
			s-42.15,28.37-66.94,33.43c-22.55,4.6-45.83,5.02-68.25,10.24c-22.42,5.22-44.94,16.36-56.44,36.3
			c-9.48,16.45-10.13,36.31-14.12,54.87c-7.28,33.83-30.46,67.49-64.55,73.43c-32.98,5.74-67.15-18.71-76.08-50.97
			c-8.94-32.26,5.46-68.53,31.71-89.31c16.88-13.37,39.22-22.48,47.59-42.32c7.5-17.78,0.61-38.96-11.82-53.72
			c-12.43-14.76-29.58-24.58-46.04-34.66c-16.46-10.08-33.07-21.22-43.4-37.52c-15.71-24.8-12.96-59.83,6.43-81.88
			c19.39-22.04,53.79-29.24,80.39-16.82c23.11,10.79,38.47,33.73,47.15,57.7s11.78,49.55,17.39,74.42
			c2.66,11.77,6.29,24.1,15.27,32.16s24.93,9.42,32.17-0.24C2257.59,1730.83,2261.82,1713.93,2264.23,1701.76z"/>
		<path fill="#D8B466" d="M1675.83,1223.17c-10.56,4.81-22.39,6.24-33.76,3.89c-0.87-0.18-1.68-0.37-2.4-0.57
			c-32.37-9.11-62.83-29.22-78.22-59.12c-15.39-29.9-12.65-69.95,11.28-93.57c18-17.78,45.36-24.15,70.32-20.04
			s47.62,17.7,66.18,34.9c16.88,15.64,30.8,34.31,48.11,49.48s39.49,26.98,62.4,24.69c18.89-1.89,35.4-12.94,52.81-20.51
			c31.73-13.81,72.6-14.6,97.29,9.64c23.89,23.45,23.94,65.47,2.94,91.53c-21,26.06-58.87,35.51-91.05,26.3
			c-20.7-5.92-41.13-18.77-62.12-14c-18.82,4.27-32.01,22.21-36.76,40.92c-4.75,18.71-2.73,38.36-1.32,57.61
			c1.4,19.25,2.04,39.24-5.18,57.14c-10.99,27.22-41.06,45.41-70.28,42.51c-29.21-2.9-55.11-26.65-60.53-55.51
			c-4.71-25.06,4.98-50.92,19.4-71.95c14.42-21.03,33.39-38.46,50.33-57.52c8.02-9.02,15.91-19.16,17.22-31.16
			c1.31-12-6.88-25.75-18.94-26C1703.31,1211.62,1687.11,1218.03,1675.83,1223.17z"/>
		<path fill="#D8B466" d="M1891.95,899.68c-9.85-6.14-17.58-15.21-21.9-25.98c-0.33-0.83-0.62-1.61-0.85-2.32
			c-10.31-32.01-10.39-68.51,6.01-97.87c16.4-29.35,51.29-49.21,84.2-42.34c24.77,5.17,45.2,24.44,55.58,47.52
			c10.38,23.07,11.58,49.47,7.51,74.44c-3.7,22.72-11.56,44.64-14.63,67.45s-0.64,47.83,13.92,65.64
			c12.02,14.7,30.35,22.35,46.29,32.66c29.05,18.81,52.3,52.42,45.76,86.4c-6.33,32.87-41.31,56.15-74.64,53.06
			c-33.33-3.09-62.13-29.42-72.26-61.32c-6.51-20.52-7.1-44.64-22.68-59.51c-13.97-13.32-36.21-14.39-54.42-8
			c-18.21,6.39-33.47,18.94-48.73,30.75s-31.57,23.4-50.47,27.27c-28.76,5.89-60.54-9.11-74.27-35.06
			c-13.73-25.95-8.26-60.66,12.78-81.13c18.28-17.78,45.18-24,70.68-23.62s50.5,6.56,75.75,10.13c11.95,1.69,24.77,2.67,35.49-2.88
			c10.72-5.54,17.65-19.97,11.19-30.16C1916.76,916.2,1902.47,906.25,1891.95,899.68z"/>
		<path fill="#D8B466" d="M1682.73,1653.52c-9.85-6.14-17.58-15.21-21.9-25.98c-0.33-0.83-0.62-1.61-0.85-2.32
			c-10.31-32.01-10.39-68.51,6.01-97.87s51.29-49.21,84.2-42.34c24.77,5.17,45.2,24.44,55.58,47.52
			c10.38,23.07,11.58,49.47,7.51,74.44c-3.7,22.72-11.56,44.64-14.63,67.45s-0.64,47.83,13.92,65.64
			c12.02,14.7,30.35,22.35,46.29,32.66c29.05,18.81,52.3,52.42,45.76,86.4c-6.33,32.87-41.31,56.15-74.64,53.06
			c-33.33-3.09-62.13-29.42-72.26-61.32c-6.51-20.52-7.1-44.64-22.68-59.51c-13.97-13.32-36.21-14.39-54.42-8
			c-18.21,6.39-33.47,18.94-48.73,30.75c-15.26,11.81-31.57,23.4-50.47,27.27c-28.76,5.89-60.54-9.11-74.27-35.06
			s-8.26-60.66,12.78-81.13c18.28-17.78,45.18-24,70.68-23.62c25.5,0.39,50.5,6.56,75.75,10.13c11.95,1.69,24.77,2.67,35.49-2.88
			c10.72-5.54,17.65-19.97,11.19-30.16C1707.55,1670.04,1693.25,1660.09,1682.73,1653.52z"/>
		<path fill="#D8B466" d="M1523.02,1492.93c11.58-0.79,23.15,2.04,32.97,8.24c0.75,0.48,1.44,0.94,2.05,1.38
			c27.09,19.91,48.53,49.46,52.42,82.86c3.89,33.4-12.77,69.92-43.48,83.62c-23.11,10.3-50.95,6.65-72.87-5.99
			c-21.92-12.63-38.35-33.33-49.67-55.95c-10.3-20.58-16.76-42.96-27.62-63.25c-10.86-20.29-27.48-39.15-49.72-45.07
			c-18.35-4.88-37.69-0.35-56.65,0.62c-34.56,1.76-73.09-11.88-87.68-43.26c-14.11-30.35,0.62-69.7,29.45-86.71
			c28.83-17.01,67.59-12.53,94.48,7.41c17.29,12.83,31.9,32.04,53.23,34.96c19.12,2.62,37.78-9.53,48.8-25.37
			c11.02-15.84,16.05-34.95,21.51-53.46c5.46-18.51,11.89-37.45,24.95-51.66c19.87-21.62,54.41-28.06,80.74-15.06
			c26.33,13,42.21,44.34,37.13,73.26c-4.41,25.11-22.58,45.91-43.47,60.53s-44.78,24.25-67.34,36.13
			c-10.68,5.62-21.64,12.34-27.09,23.11c-5.45,10.77-2.62,26.52,8.58,31C1493.23,1494.07,1510.65,1493.77,1523.02,1492.93z"/>
		<path fill="#D8B466" d="M1378.83,1028.73c-1.91-11.45-0.22-23.24,4.99-33.61c0.4-0.8,0.79-1.53,1.18-2.17
			c17.18-28.91,44.5-53.12,77.36-60.24s70.83,5.9,87.45,35.13c12.51,21.99,11.58,50.06,1.14,73.11
			c-10.44,23.05-29.44,41.41-50.85,54.89c-19.48,12.26-41.12,20.86-60.26,33.65s-36.29,31.16-40.01,53.87
			c-3.07,18.74,3.33,37.54,6.13,56.32c5.12,34.22-4.7,73.9-34.51,91.48c-28.83,17-69.43,6.17-89.17-20.86
			c-19.74-27.04-19.05-66.05-1.82-94.75c11.08-18.46,28.78-34.86,29.61-56.38c0.75-19.28-13.16-36.67-30-46.1
			c-16.84-9.43-36.35-12.57-55.3-16.2s-38.43-8.19-53.84-19.8c-23.45-17.67-33.23-51.42-22.85-78.89
			c10.37-27.47,40.02-46.33,69.29-44.09c25.43,1.95,47.89,18,64.47,37.37c16.58,19.37,28.5,42.21,42.52,63.51
			c6.64,10.08,14.39,20.33,25.63,24.71c11.25,4.37,26.65,0.03,30.02-11.56C1382.87,1058.27,1380.87,1040.96,1378.83,1028.73z"/>
		<path fill="#D8B466" d="M1333.21,1807.23c-8.86-7.5-15.19-17.59-17.91-28.88c-0.21-0.87-0.38-1.68-0.5-2.42
			c-5.57-33.16-0.36-69.29,20.12-95.96s57.87-41.27,89.45-29.7c23.76,8.71,41.18,30.73,48.11,55.06
			c6.93,24.33,4.29,50.63-3.35,74.75c-6.95,21.94-17.9,42.49-24.25,64.62c-6.34,22.12-7.56,47.23,4.27,66.97
			c9.76,16.28,26.8,26.51,41.07,39.02c26.02,22.82,44.16,59.44,32.76,92.12c-11.02,31.61-49,49.57-81.54,41.69
			c-32.53-7.88-57.22-38.1-62.61-71.14c-3.47-21.25-0.56-45.2-13.83-62.16c-11.89-15.2-33.74-19.48-52.69-15.8
			c-18.94,3.68-35.86,13.89-52.67,23.37c-16.81,9.48-34.62,18.58-53.89,19.68c-29.31,1.67-58.58-17.78-68.41-45.44
			c-9.83-27.66,0.61-61.22,24.4-78.42c20.66-14.94,48.18-17.21,73.35-13.14c25.17,4.07,49.02,13.8,73.49,20.99
			c11.58,3.4,24.12,6.22,35.53,2.29c11.41-3.93,20.36-17.2,15.44-28.22C1355.37,1827.16,1342.67,1815.24,1333.21,1807.23z"/>
		<path fill="#D8B466" d="M1049.31,1796.58c6.94,9.31,10.83,20.56,10.95,32.17c0.01,0.89-0.01,1.72-0.05,2.47
			c-2.05,33.56-15.26,67.59-41.22,88.96c-25.96,21.37-65.68,27.17-93.84,8.78c-21.18-13.83-33.2-39.22-34.47-64.48
			c-1.27-25.27,7.22-50.29,20.1-72.07c11.71-19.81,27.01-37.37,38.18-57.49c11.16-20.13,18.01-44.31,10.92-66.21
			c-5.84-18.06-20.14-31.86-31.23-47.27c-20.21-28.09-29.63-67.86-11.17-97.13c17.86-28.31,58.91-37.26,88.83-22.25
			c29.92,15.01,47.17,50.01,44.98,83.42c-1.41,21.49-9.63,44.17-0.53,63.68c8.16,17.49,28.48,26.58,47.77,27.26
			c19.29,0.68,38.07-5.46,56.58-10.9c18.51-5.45,37.92-10.3,56.94-7.03c28.93,4.98,53.07,30.52,56.42,59.69
			s-14.38,59.51-41.44,70.91c-23.5,9.9-50.82,5.91-74.43-3.73c-23.61-9.64-44.65-24.49-66.87-37.01
			c-10.51-5.92-22.1-11.5-34.1-10.24c-12,1.26-23.71,12.17-21.4,24.02C1032.21,1772.16,1041.9,1786.64,1049.31,1796.58z"/>
		<path fill="#D8B466" d="M1086.5,1323.27c-6.4-9.68-9.65-21.14-9.11-32.74c0.04-0.89,0.1-1.72,0.19-2.46
			c3.94-33.39,19.06-66.62,46.19-86.49s67.12-23.41,94.18-3.46c20.37,15.01,30.93,41.03,30.76,66.33
			c-0.17,25.3-10.06,49.8-24.15,70.82c-12.82,19.12-29.09,35.78-41.37,55.24s-20.49,43.22-14.65,65.48
			c4.81,18.37,18.3,32.95,28.5,48.96c18.59,29.19,25.74,69.43,5.65,97.61c-19.43,27.25-60.93,33.87-89.95,17.19
			s-44.26-52.6-40.18-85.83c2.62-21.37,12.12-43.55,4.14-63.55c-7.16-17.92-26.93-28.15-46.15-29.92
			c-19.22-1.77-38.32,3.29-57.11,7.68c-18.79,4.39-38.44,8.14-57.24,3.79c-28.6-6.61-51.26-33.47-52.95-62.78
			c-1.69-29.31,17.73-58.6,45.39-68.45c24.02-8.56,51.07-3.03,74.1,7.93c23.02,10.96,43.19,26.98,64.66,40.74
			c10.16,6.51,21.41,12.73,33.46,12.15c12.05-0.58,24.36-10.81,22.72-22.77C1102.19,1348.62,1093.34,1333.62,1086.5,1323.27z"/>
		<path fill="#D8B466" d="M931.52,997.07c-6.4-9.68-9.65-21.14-9.11-32.74c0.04-0.89,0.1-1.72,0.19-2.46
			c3.94-33.39,19.06-66.62,46.19-86.49s67.12-23.41,94.18-3.46c20.37,15.01,30.93,41.03,30.76,66.33
			c-0.17,25.3-10.06,49.8-24.15,70.82c-12.82,19.12-29.09,35.78-41.37,55.24c-12.29,19.46-20.49,43.22-14.65,65.48
			c4.81,18.37,18.3,32.95,28.5,48.96c18.59,29.19,25.74,69.43,5.65,97.61c-19.43,27.25-60.93,33.87-89.95,17.19
			c-29.02-16.68-44.26-52.6-40.18-85.83c2.62-21.37,12.12-43.55,4.14-63.55c-7.16-17.92-26.93-28.15-46.15-29.92
			s-38.32,3.29-57.11,7.68s-38.44,8.14-57.24,3.79c-28.6-6.61-51.26-33.47-52.95-62.78c-1.69-29.31,17.73-58.6,45.39-68.45
			c24.02-8.56,51.07-3.03,74.1,7.93s43.19,26.98,64.66,40.74c10.16,6.51,21.41,12.73,33.46,12.15
			c12.05-0.58,24.36-10.81,22.72-22.77C947.21,1022.42,938.35,1007.42,931.52,997.07z"/>
		<path fill="#D8B466" d="M712.33,1320.32c-6.4-9.68-9.65-21.14-9.11-32.74c0.04-0.89,0.1-1.72,0.19-2.46
			c3.94-33.39,19.06-66.62,46.19-86.49c27.13-19.87,67.12-23.41,94.18-3.46c20.37,15.01,30.93,41.03,30.76,66.33
			c-0.17,25.3-10.06,49.8-24.15,70.82c-12.82,19.12-29.09,35.78-41.37,55.24c-12.29,19.46-20.49,43.22-14.65,65.48
			c4.81,18.37,18.3,32.95,28.5,48.96c18.59,29.19,25.74,69.43,5.65,97.61c-19.43,27.25-60.93,33.87-89.95,17.19
			c-29.02-16.68-44.26-52.6-40.18-85.83c2.62-21.37,12.12-43.55,4.14-63.55c-7.16-17.92-26.93-28.15-46.15-29.92
			c-19.22-1.77-38.32,3.29-57.11,7.68c-18.79,4.39-38.44,8.14-57.24,3.79c-28.6-6.61-51.26-33.47-52.95-62.78
			c-1.69-29.31,17.73-58.6,45.39-68.45c24.02-8.56,51.07-3.03,74.1,7.93c23.02,10.96,43.19,26.98,64.66,40.74
			c10.16,6.51,21.41,12.73,33.46,12.15c12.05-0.58,24.36-10.81,22.72-22.77C728.02,1345.66,719.16,1330.67,712.33,1320.32z"/>
		<path fill="#D8B466" d="M1214.91,2152.79c-6.4-9.68-9.65-21.14-9.11-32.74c0.04-0.89,0.1-1.72,0.19-2.46
			c3.94-33.39,19.06-66.62,46.19-86.49c27.13-19.87,67.12-23.41,94.18-3.46c20.37,15.01,30.93,41.03,30.76,66.33
			s-10.06,49.8-24.15,70.82c-12.82,19.12-29.09,35.78-41.37,55.24c-12.29,19.46-20.49,43.22-14.65,65.48
			c4.81,18.37,18.3,32.95,28.5,48.96c18.59,29.19,25.74,69.43,5.65,97.61c-19.43,27.25-60.93,33.87-89.95,17.19
			s-44.26-52.6-40.18-85.83c2.62-21.37,12.12-43.55,4.14-63.55c-7.16-17.92-26.93-28.15-46.15-29.92
			c-19.22-1.77-38.32,3.29-57.11,7.68c-18.79,4.39-38.44,8.14-57.24,3.79c-28.6-6.61-51.26-33.47-52.95-62.78
			c-1.69-29.31,17.73-58.6,45.39-68.45c24.02-8.56,51.07-3.03,74.1,7.93c23.02,10.96,43.19,26.98,64.66,40.74
			c10.16,6.51,21.41,12.73,33.46,12.15c12.05-0.58,24.36-10.81,22.72-22.77C1230.6,2178.14,1221.75,2163.14,1214.91,2152.79z"/>
		<path fill="#D8B466" d="M1460.82,2518.48c5.11,10.42,6.88,22.2,4.86,33.63c-0.16,0.88-0.32,1.69-0.5,2.42
			c-8.17,32.62-27.4,63.65-56.84,79.89c-29.44,16.25-69.55,14.66-93.86-8.58c-18.29-17.48-25.44-44.64-22.05-69.71
			c3.39-25.07,16.33-48.11,32.98-67.16c15.15-17.33,33.41-31.78,48.08-49.51s25.83-40.25,22.88-63.08
			c-2.43-18.83-13.95-35.01-22.02-52.2c-14.71-31.32-16.68-72.15,6.84-97.53c22.75-24.55,64.75-25.82,91.41-5.58
			s37.19,57.82,28.91,90.25c-5.32,20.86-17.57,41.65-12.2,62.5c4.81,18.69,23.13,31.36,41.96,35.56
			c18.83,4.21,38.42,1.62,57.62-0.34c19.2-1.96,39.17-3.17,57.26,3.53c27.53,10.2,46.57,39.74,44.51,69.02s-25.06,55.86-53.74,62.11
			c-24.92,5.43-51.04-3.51-72.48-17.32s-39.4-32.27-58.94-48.65c-9.25-7.75-19.61-15.35-31.64-16.32
			c-12.03-0.96-25.54,7.62-25.44,19.68C1448.49,2491.34,1455.36,2507.35,1460.82,2518.48z"/>
		<path fill="#D8B466" d="M1700.87,2225.66c-1.78,11.47-7.08,22.14-15.28,30.35c-0.63,0.63-1.23,1.2-1.8,1.69
			c-25.38,22.06-58.92,36.47-92.36,32.92c-33.44-3.55-65.41-27.83-72.02-60.8c-4.97-24.81,4.72-51.17,21.86-69.77
			c17.14-18.61,40.94-30.09,65.5-36.16c22.34-5.52,45.59-6.91,67.77-13.04c22.18-6.14,44.23-18.2,54.89-38.6
			c8.79-16.83,8.62-36.69,11.85-55.4c5.88-34.1,27.65-68.69,61.47-76.03c32.71-7.09,67.86,15.93,78.12,47.79
			c10.26,31.86-2.64,68.7-28,90.54c-16.31,14.05-38.26,24.07-45.81,44.24c-6.76,18.08,0.99,38.95,14.02,53.19
			s30.57,23.34,47.42,32.73c16.86,9.39,33.92,19.84,44.91,35.7c16.72,24.13,15.41,59.25-3.05,82.07
			c-18.47,22.82-52.54,31.43-79.63,20.12c-23.53-9.83-39.83-32.12-49.49-55.71s-13.81-49.02-20.45-73.64
			c-3.14-11.65-7.28-23.82-16.59-31.5c-9.31-7.68-25.3-8.39-32.13,1.56C1706.31,2196.35,1702.77,2213.41,1700.87,2225.66z"/>
		<path fill="#D8B466" d="M704.56,1937.84c-1.78,11.47-7.08,22.14-15.28,30.35c-0.63,0.63-1.23,1.2-1.8,1.69
			c-25.38,22.06-58.92,36.47-92.36,32.92s-65.41-27.83-72.02-60.8c-4.97-24.81,4.72-51.17,21.86-69.78
			c17.14-18.61,40.94-30.09,65.5-36.16c22.34-5.52,45.59-6.91,67.77-13.04c22.18-6.14,44.23-18.2,54.89-38.6
			c8.79-16.83,8.62-36.69,11.85-55.4c5.88-34.1,27.65-68.69,61.47-76.03c32.71-7.09,67.86,15.93,78.12,47.79s-2.64,68.7-28,90.54
			c-16.31,14.05-38.26,24.07-45.81,44.24c-6.76,18.08,0.99,38.95,14.02,53.19c13.03,14.24,30.57,23.34,47.42,32.73
			s33.92,19.84,44.91,35.7c16.72,24.13,15.41,59.25-3.05,82.07s-52.54,31.43-79.63,20.12c-23.53-9.83-39.83-32.12-49.49-55.71
			s-13.81-49.02-20.45-73.64c-3.14-11.65-7.28-23.82-16.59-31.5s-25.3-8.39-32.13,1.56C710,1908.53,706.46,1925.58,704.56,1937.84z"
			/>
		<path fill="#D8B466" d="M836.96,2210.02c-6.2,9.82-15.3,17.49-26.1,21.76c-0.83,0.33-1.61,0.61-2.32,0.84
			c-32.06,10.14-68.57,10.02-97.83-6.54c-29.26-16.56-48.93-51.55-41.88-84.43c5.31-24.74,24.68-45.07,47.81-55.32
			s49.53-11.31,74.48-7.11c22.7,3.82,44.57,11.8,67.37,15c22.79,3.2,47.82,0.9,65.72-13.57c14.76-11.94,22.51-30.23,32.91-46.11
			c18.96-28.95,52.7-52.02,86.65-45.29c32.83,6.51,55.92,41.61,52.66,74.92c-3.27,33.31-29.75,61.98-61.71,71.93
			c-20.56,6.4-44.68,6.86-59.63,22.36c-13.39,13.89-14.59,36.13-8.3,54.37c6.29,18.25,18.76,33.57,30.49,48.9
			c11.73,15.33,23.23,31.69,27,50.62c5.74,28.79-9.43,60.49-35.45,74.08c-26.02,13.59-60.7,7.94-81.06-13.22
			c-17.68-18.38-23.76-45.31-23.24-70.8c0.52-25.49,6.83-50.47,10.54-75.7c1.76-11.94,2.8-24.75-2.68-35.5
			c-5.48-10.75-19.87-17.76-30.1-11.35C853.61,2185.3,843.58,2199.54,836.96,2210.02z"/>
		<path fill="#D8B466" d="M600.06,2480.14c-6.2,9.82-15.3,17.49-26.1,21.76c-0.83,0.33-1.61,0.61-2.32,0.84
			c-32.06,10.14-68.57,10.02-97.83-6.54c-29.26-16.56-48.93-51.55-41.88-84.43c5.31-24.74,24.68-45.07,47.81-55.32
			c23.13-10.25,49.53-11.31,74.48-7.11c22.7,3.82,44.57,11.8,67.37,15c22.79,3.2,47.82,0.9,65.72-13.57
			c14.76-11.94,22.51-30.23,32.91-46.11c18.96-28.95,52.7-52.02,86.65-45.29c32.83,6.51,55.92,41.61,52.66,74.92
			s-29.75,61.98-61.71,71.93c-20.56,6.4-44.68,6.86-59.63,22.36c-13.39,13.89-14.59,36.13-8.3,54.37
			c6.29,18.25,18.76,33.57,30.49,48.9c11.73,15.33,23.23,31.69,27,50.62c5.74,28.79-9.43,60.49-35.45,74.08s-60.7,7.94-81.06-13.22
			c-17.68-18.38-23.76-45.31-23.24-70.8s6.83-50.47,10.54-75.7c1.76-11.94,2.8-24.75-2.68-35.5c-5.48-10.75-19.87-17.76-30.1-11.35
			C616.71,2455.41,606.68,2469.65,600.06,2480.14z"/>
		<path fill="#D8B466" d="M920.27,2571.1c-8.5,7.91-19.27,13-30.79,14.37c-0.89,0.11-1.71,0.18-2.46,0.22
			c-33.59,1.6-68.85-7.84-92.91-31.33c-24.06-23.49-34.13-62.35-18.91-92.33c11.45-22.56,35.38-37.26,60.37-41.26
			c24.98-4,50.78,1.73,73.83,12.17c20.97,9.5,40.08,22.8,61.29,31.72s46,13.1,67,3.68c17.32-7.77,29.49-23.47,43.61-36.17
			c25.73-23.14,64.25-36.82,95.35-21.64c30.08,14.68,43.43,54.53,31.75,85.9c-11.67,31.37-44.6,52.31-78.05,53.76
			c-21.51,0.93-44.95-4.79-63.36,6.38c-16.5,10.01-23.34,31.2-21.92,50.45s9.55,37.25,16.97,55.07
			c7.42,17.81,14.35,36.58,13.16,55.84c-1.81,29.3-24.58,56.07-53.22,62.56c-28.63,6.49-60.72-7.85-74.99-33.5
			c-12.39-22.29-11.39-49.88-4.37-74.39c7.02-24.51,19.5-47.04,29.54-70.49c4.75-11.09,9.03-23.21,6.48-35.01
			c-2.55-11.79-14.67-22.25-26.2-18.67C942.68,2551.45,929.35,2562.65,920.27,2571.1z"/>
		<path fill="#D8B466" d="M405.85,2114.69c-10.68-4.54-19.72-12.3-25.67-22.27c-0.46-0.77-0.86-1.49-1.2-2.16
			c-15.15-30.02-20.9-66.07-9.25-97.61c11.65-31.54,43.03-56.58,76.61-54.89c25.27,1.27,48.44,17.13,62.28,38.31
			c13.83,21.18,19.12,47.07,18.98,72.37c-0.13,23.02-4.49,45.89-3.99,68.9s6.79,47.35,23.95,62.69
			c14.15,12.65,33.45,17.36,50.8,25.08c31.62,14.07,59.8,43.66,58.62,78.25c-1.15,33.45-32.09,61.88-65.5,64
			c-33.41,2.12-65.95-19.41-80.9-49.36c-9.62-19.26-13.95-43-31.65-55.26c-15.86-10.99-38-8.6-55,0.54s-30.12,23.91-43.37,37.94
			c-13.24,14.04-27.55,28.02-45.63,34.78c-27.5,10.29-61.22,0.4-78.82-23.1c-17.59-23.5-17.58-58.64,0.03-82.13
			c15.3-20.4,40.91-30.73,66.15-34.31c25.25-3.58,50.91-1.36,76.41-1.75c12.07-0.18,24.88-1.21,34.61-8.35
			c9.73-7.14,14.34-22.47,6.37-31.53C432.93,2127.16,417.26,2119.54,405.85,2114.69z"/>
		<path fill="#D8B466" d="M405.07,1687.74c-10.78,4.3-22.66,5.15-33.91,2.26c-0.86-0.22-1.66-0.45-2.37-0.69
			c-31.89-10.65-61.36-32.21-75.29-62.81s-9.27-70.47,15.76-92.92c18.84-16.89,46.46-21.94,71.2-16.64
			c24.74,5.31,46.72,19.97,64.43,38.04c16.11,16.44,29.12,35.75,45.68,51.74s38.15,28.85,61.14,27.66
			c18.96-0.98,35.98-11.22,53.74-17.95c32.36-12.27,73.21-11.09,96.72,14.3c22.73,24.57,20.77,66.54-1.45,91.57
			c-22.23,25.03-60.5,32.64-92.2,21.9c-20.39-6.91-40.18-20.72-61.38-16.97c-19,3.36-33.04,20.65-38.68,39.11
			s-4.56,38.19-4.09,57.48c0.48,19.29,0.16,39.29-7.92,56.82c-12.29,26.66-43.19,43.39-72.24,39.08
			c-29.04-4.3-53.77-29.27-57.8-58.35c-3.5-25.26,7.42-50.62,22.83-70.94c15.41-20.32,35.2-36.81,53.03-55.03
			c8.44-8.63,16.82-18.38,18.7-30.29c1.88-11.92-5.63-26.05-17.67-26.88C433.08,1677.53,416.59,1683.15,405.07,1687.74z"/>
		<path fill="#D8B466" d="M347.61,1406.64c-11.2-3.05-21.21-9.52-28.45-18.59c-0.56-0.7-1.06-1.36-1.48-1.98
			c-19.07-27.69-29.64-62.64-22.37-95.47c7.27-32.83,34.98-61.88,68.48-64.75c25.21-2.16,50.32,10.42,66.89,29.54
			c16.57,19.12,25.31,44.06,28.59,69.14c2.98,22.82,1.75,46.08,5.37,68.81c3.61,22.73,13.13,45.99,32.2,58.87
			c15.74,10.62,35.49,12.68,53.72,17.98c33.23,9.67,65.16,35.18,68.66,69.61c3.38,33.3-23.43,65.65-56.24,72.27
			s-67.97-10.32-86.83-37.97c-12.13-17.79-19.63-40.72-38.83-50.48c-17.2-8.74-38.82-3.38-54.42,7.97s-26.62,27.76-37.84,43.46
			c-11.22,15.7-23.51,31.48-40.51,40.63c-25.85,13.91-60.6,8.68-81.21-12.23c-20.61-20.91-25.35-55.73-11.07-81.38
			c12.4-22.28,36.38-35.98,60.91-42.93s50.26-8.23,75.47-12.06c11.93-1.81,24.49-4.56,33.16-12.95c8.68-8.39,11.17-24.2,2.05-32.1
			C376.13,1415.33,359.57,1409.9,347.61,1406.64z"/>
		<path fill="#D8B466" d="M3628.64,782.31c-11.2-3.05-21.21-9.52-28.45-18.59c-0.56-0.7-1.06-1.36-1.48-1.98
			c-19.07-27.69-29.64-62.64-22.37-95.47c7.27-32.83,34.98-61.88,68.48-64.75c25.21-2.16,50.32,10.42,66.89,29.54
			c16.57,19.12,25.31,44.06,28.59,69.14c2.98,22.82,1.75,46.08,5.37,68.81c3.61,22.73,13.13,45.99,32.2,58.87
			c15.74,10.62,35.49,12.68,53.72,17.98c33.23,9.67,65.16,35.18,68.66,69.61c3.38,33.3-23.43,65.65-56.24,72.27
			c-32.81,6.62-67.97-10.32-86.83-37.97c-12.13-17.79-19.63-40.72-38.83-50.48c-17.2-8.74-38.82-3.38-54.42,7.97
			c-15.61,11.35-26.62,27.76-37.84,43.46c-11.22,15.7-23.51,31.48-40.51,40.63c-25.85,13.91-60.6,8.68-81.21-12.23
			c-20.61-20.91-25.35-55.73-11.07-81.38c12.4-22.28,36.38-35.98,60.91-42.93c24.53-6.96,50.26-8.23,75.47-12.06
			c11.93-1.81,24.49-4.56,33.16-12.95c8.68-8.39,11.17-24.2,2.05-32.1C3657.15,791,3640.6,785.58,3628.64,782.31z"/>
	</g>
	<path opacity="0.49" clip-path="url(#SVGID_252_)" fill="#E2CC6F" d="M1511.35,2552.65c-184.21-61.42-370.82-123.99-532.79-231.09
		s-299.15-265.84-337.57-456.17s42.59-410.43,216.77-496.25c149.97-73.9,332.91-39.87,489.18-99.29
		c86.9-33.04,160.68-93.21,244.2-134.05c178.38-87.24,388.19-80.62,584.01-47.64s388.45,90.4,586.85,98.77
		c403.74,17.04,810.02-186.51,1038.09-520.1c0,0-2427.39-725.22-2467.25-720.79s-2842.81,1602.96-2820.67,1629.53
		c22.14,26.57,2391.15,1478.97,2391.15,1478.97L1511.35,2552.65z"/>
	<use xlink:href="#SVGID_151_"  overflow="visible" fill="none" stroke="#6D4A1F" stroke-width="30.9964" stroke-miterlimit="10"/>
</g>
</svg>
