<?xml version="1.0" encoding="utf-8"?>
<!-- Generator: Adobe Illustrator 19.0.0, SVG Export Plug-In . SVG Version: 6.00 Build 0)  -->
<svg version="1.1" id="Layer_1" xmlns="http://www.w3.org/2000/svg" xmlns:xlink="http://www.w3.org/1999/xlink" x="0px" y="0px"
	 viewBox="0 0 4096 3112" enable-background="new 0 0 4096 3112" xml:space="preserve">
<g>
	<defs>
		<path id="SVGID_1_" d="M2185.8,984.63c87.4,38.73,187.11,224.03,217.59,389.32c10.25,55.57,26.67,109.79,48.8,161.79
			c42.01,98.72,94.97,247.02,40.09,259.12c0,0,134.8,91.27-82.15,434.6s-469.71,94.78-469.71,94.78s-107.42-77.93-94.78-206.42
			c12.64-128.48-235.91-518.15-235.91-518.15s-210.63-225.38-208.52-444.43c1.64-170.38,11.14-225.81,83.09-281.77
			c48.04-37.38,105.76-60.11,166.2-67.33c79.57-9.51,202.95-11.25,327.02,38.2c36.47,14.53,69.37,36.65,97.27,64.26
			C2097.7,931.28,2135,962.12,2185.8,984.63z"/>
	</defs>
	<use xlink:href="#SVGID_1_"  overflow="visible" fill="#9E7781"/>
	<clipPath id="SVGID_2_">
		<use xlink:href="#SVGID_1_"  overflow="visible"/>
	</clipPath>
	<path clip-path="url(#SVGID_2_)" fill="#895D67" d="M1539.52,952.33c45.32,55.41,100.62,66.02,140.57,77.43
		c50.65,14.47,103.93,15.86,156.48,19.48c52.55,3.61,106.16,9.88,153.49,32.99c47.33,23.11,87.87,66.1,95.02,118.29
		c-9.33-13.72-34.19-1.65-34.32,14.94c-0.12,16.59,15.59,29.35,31.57,33.83c15.98,4.48,33,3.35,49.26,6.65
		c32.08,6.52,59.05,30.55,73.46,59.95c14.4,29.4,17.18,63.53,12.48,95.93c-2.05-9.27-7.01-23.94-18.1-19.72
		c-11.09,4.23-14.35,19.82-8.58,30.19c5.78,10.37,17.69,15.89,29.38,17.92c11.69,2.03,23.69,1.25,35.49,2.51
		c48.24,5.16,89.39,48.82,91.68,97.28c-18.97-11.12-44.03,12.9-39.1,34.33c4.93,21.43,29.13,33.75,51.1,32.97
		c21.97-0.78,42.24-11.34,61.86-21.26c19.62-9.93,40.5-19.69,62.46-18.69l221.29,7.04l-67.4,263.29l-164.29-37.91l-92.68-2.11
		l-40.02-10.53l-6.32-48.45l2.11-27.38l-44.23-27.38l-87.41-110.58l-31.59-84.25l-67.4-44.76l-21.06-105.32l-58.45-51.6
		l-87.94-72.49l-25.98-44.23l-126.38-47.74l-121.46-61.79l-91.27-69.51L1539.52,952.33z"/>
	<path clip-path="url(#SVGID_2_)" fill="#895D67" d="M1567.14,983.6c62.63,100.4,156.15,181.24,264.57,228.66
		c26.08,73.44,93.19,130.75,169.81,145c-15.69,61.28,12.3,131.19,65.96,164.69c12.29,7.67,26.23,14.06,34.26,26.11
		c7.51,11.27,8.48,25.48,10.94,38.8c11.2,60.62,60.68,112.4,120.73,126.34c9.78,61.78,38.7,120.4,81.77,165.76
		c4.75-30.23,20.21-58.66,42.99-79.08c-23.48-23.11-31.39-60.65-19.24-91.27c-73.86-28.71-128.84-100.96-136.83-179.8
		c-1.93-19.06,5.05-44.98,24.19-44.29c-12.67,11.06-32.33,10.94-47.5,3.67c-15.17-7.27-26.65-20.39-36.74-33.85
		c-22.91-30.54-41-64.7-53.4-100.81c-3.66-10.67-6.78-22.64-2.2-32.95s20.39-15.59,27.33-6.7
		c-85.31-5.47-163.86-68.86-187.25-151.08C1787.16,1124.84,1681.38,1072,1567.14,983.6"/>
	<path clip-path="url(#SVGID_2_)" fill="#895D67" d="M2080.46,2159.06c-28.52,20.65-66.81-24.36-81.54-56.35
		c-14.73-31.98-16.55-68.12-20.42-103.12c-20.04-181.56-103.02-355.58-231.49-485.43c-66.26-66.98-144.86-123.41-196.42-202.27
		c-72.67-111.14-81.89-252.99-63.72-384.53c11.09-80.3,31.48-158.83,50.88-237.41c9.75-39.5,56.17-143.82,5.36-165.44
		c-48.36-20.58-138.13,12.99-182.35,33.2c-57.67,26.36-109.35,66.22-149.22,115.54c-88.53,109.54-121.07,257.17-109.5,397.53
		c11.57,140.36,63.94,274.56,130.03,398.93c66.09,124.37,146.11,240.73,218.39,361.61c132.67,221.9,241.38,462.12,417.21,651.65
		c95.33,102.76,217.53,191.83,357.31,202.22c142.48,10.59,283.63-66.21,368.63-181.06c85-114.85,117.71-262.81,109.93-405.47
		c-3.63-66.57-16.06-134.03-48.61-192.2c-32.56-58.18-87.5-106.24-152.96-118.92c-65.45-12.67-140,16.01-170.73,75.17
		c-26.57,51.14-17.79,112.36-18.4,169.98c-0.08,7.59-0.46,15.34-1.18,23.13c-5.96,64.6-70.24,108.1-132.17,88.77
		C2150.48,2135.52,2114.77,2134.22,2080.46,2159.06z"/>
	<g clip-path="url(#SVGID_2_)">
		<path fill="#512C34" d="M2741.45,2121.9c0,0-1.09-4.28-3.12-12.32c-0.46-2.02-1.19-4.21-1.87-6.65c-0.69-2.43-1.45-5.08-2.27-7.94
			c-0.92-2.84-1.91-5.89-2.96-9.14c-0.52-1.62-1.06-3.3-1.62-5.02c-0.62-1.7-1.25-3.46-1.9-5.26c-5.15-14.4-12.18-31.58-21.88-50.36
			c-1.22-2.34-2.46-4.72-3.73-7.13c-1.27-2.41-2.67-4.79-4.03-7.24c-0.69-1.22-1.38-2.45-2.07-3.69c-0.69-1.24-1.39-2.48-2.16-3.7
			c-1.5-2.46-3.01-4.95-4.55-7.47c-1.49-2.54-3.18-5.01-4.82-7.56c-1.66-2.53-3.28-5.12-5.02-7.67
			c-3.58-5.05-7.08-10.31-11.03-15.41c-0.97-1.29-1.94-2.58-2.92-3.89c-0.97-1.3-1.95-2.62-2.99-3.89c-2.05-2.57-4.11-5.16-6.2-7.78
			c-1.02-1.32-2.13-2.59-3.23-3.88c-1.1-1.28-2.2-2.57-3.3-3.87c-1.1-1.29-2.21-2.6-3.33-3.9c-1.16-1.27-2.32-2.55-3.48-3.83
			c-2.35-2.54-4.66-5.16-7.09-7.7c-2.44-2.53-4.91-5.07-7.39-7.64c-2.49-2.56-5.13-5-7.71-7.53c-1.31-1.25-2.58-2.54-3.93-3.76
			c-1.35-1.22-2.71-2.44-4.07-3.67c-21.61-19.82-46.62-38.13-74.15-53.87c-13.8-7.82-28.27-14.93-43.3-21.11l-2.81-1.19
			c-0.94-0.39-1.9-0.73-2.85-1.1c-1.9-0.72-3.81-1.44-5.72-2.17c-1.92-0.7-3.8-1.5-5.75-2.13c-1.94-0.65-3.88-1.3-5.82-1.96
			c-1.94-0.66-3.88-1.32-5.83-1.98c-1.97-0.59-3.93-1.18-5.91-1.77c-1.97-0.59-3.94-1.19-5.91-1.78l-0.74-0.22l-0.23-0.07
			l-0.39-0.11l-1.57-0.42l-3.14-0.85c-1.92-0.47-3.79-0.96-5.75-1.41c-1.96-0.43-3.93-0.92-5.88-1.28l-2.93-0.59l-2.92-0.5
			c-1.95-0.36-3.88-0.6-5.82-0.88c-1.94-0.29-3.85-0.42-5.77-0.64c-1.9-0.12-3.81-0.29-5.7-0.35c-1.87-0.03-3.77-0.16-5.61-0.09
			l-2.78,0.04l-2.73,0.18c-1.84,0.06-3.59,0.35-5.37,0.54c-0.9,0.07-1.75,0.29-2.62,0.42c-0.86,0.16-1.75,0.28-2.6,0.47l-2.53,0.61
			l-1.27,0.3l-1.22,0.39l-2.45,0.76c-0.81,0.26-1.58,0.61-2.38,0.91l-1.19,0.45l-0.59,0.22c0.82-0.36,0.01,0,0.1-0.04l-0.37,0.17
			l-3,1.38c-0.29,0.13-0.43,0.21-0.58,0.3l-0.47,0.26l-0.95,0.51c-0.33,0.18-0.61,0.31-0.97,0.53l-1.08,0.66
			c-1.47,0.84-2.85,1.84-4.26,2.79c-1.34,1.05-2.73,2.04-4.01,3.2c-10.51,8.88-18.57,21.73-24.05,36.1
			c-5.46,14.4-8.77,30.17-10.1,46.04c-0.33,3.97-0.54,7.95-0.65,11.93c-0.03,2.1-0.06,4.2-0.09,6.29c0.01,2.02,0.01,4.04,0.02,6.06
			c0.04,8.18,0.34,16.51,0.78,24.8c0.87,16.61,2.34,33.3,3.26,50.04c0.23,4.18,0.47,8.36,0.63,12.55c0.09,2.09,0.18,4.18,0.24,6.27
			l0.1,3.13l0.05,1.68l0.03,1.52c0.03,2.04,0.06,4.08,0.1,6.11c0.01,2.13,0.01,4.25,0.02,6.36c-0.07,4.19-0.16,8.34-0.36,12.49
			c-0.38,8.3-1.05,16.54-2.06,24.68c-1.05,8.14-2.47,16.19-4.37,24.06c-0.5,1.96-0.93,3.93-1.49,5.87
			c-0.55,1.94-1.11,3.87-1.66,5.79c-1.24,3.82-2.43,7.62-3.89,11.32c-0.35,0.93-0.7,1.85-1.04,2.78c-0.37,0.92-0.77,1.82-1.15,2.73
			c-0.79,1.81-1.49,3.64-2.35,5.4c-0.85,1.77-1.69,3.53-2.53,5.28l-0.47,0.94l-0.33,0.59l-0.65,1.18l-1.3,2.34l-0.65,1.17
			c-0.22,0.39-0.42,0.76-0.7,1.21c-0.53,0.86-1.06,1.72-1.58,2.58c-0.53,0.85-1.06,1.7-1.58,2.55l-0.79,1.26l-0.82,1.18
			c-1.09,1.56-2.18,3.11-3.27,4.66c-1.13,1.51-2.31,2.98-3.46,4.45c-4.7,5.81-9.66,11.24-15.09,15.95
			c-2.61,2.46-5.49,4.59-8.22,6.78c-1.42,1.05-2.87,2.03-4.29,3.03c-0.71,0.5-1.43,0.99-2.13,1.49c-0.74,0.45-1.48,0.91-2.21,1.36
			c-1.47,0.89-2.94,1.78-4.4,2.66c-1.51,0.79-3.02,1.57-4.51,2.35c-0.75,0.38-1.49,0.78-2.24,1.15c-0.77,0.33-1.54,0.67-2.3,1
			c-1.53,0.65-3.05,1.3-4.57,1.94c-1.56,0.54-3.1,1.07-4.64,1.6c-0.77,0.26-1.53,0.52-2.29,0.78c-0.78,0.21-1.56,0.41-2.34,0.62
			c-1.55,0.4-3.09,0.8-4.62,1.2c-1.54,0.34-3.1,0.58-4.63,0.86c-3.04,0.64-6.12,0.83-9.12,1.13l-1.12,0.1l-0.74,0.06l-0.52,0.01
			c-0.69,0.01-1.37,0.02-2.06,0.04c-0.35,0-0.65,0.02-1.05,0.01l-1.17-0.02c-0.78-0.02-1.55-0.04-2.33-0.06
			c-11.82-0.61-22.37-3.7-31.3-7.96c-8.93-4.28-16.33-9.61-22.11-15.27c-2.89-2.83-5.41-5.71-7.59-8.55
			c-2.13-2.89-3.94-5.7-5.42-8.43c-3-5.44-4.66-10.46-5.67-14.54c-0.23-1.03-0.5-1.98-0.64-2.9c-0.15-0.91-0.29-1.76-0.42-2.55
			c-0.19-1.59-0.32-2.92-0.41-3.99c-0.08-2.14-0.13-3.25-0.13-3.25s0.23,1.08,0.66,3.17c0.26,1.03,0.61,2.31,1.05,3.81
			c0.51,1.48,1.06,3.2,1.86,5.07c1.58,3.74,3.88,8.2,7.37,12.84c1.73,2.33,3.79,4.66,6.09,7.02c2.34,2.32,4.98,4.63,7.93,6.83
			c5.91,4.37,13.09,8.33,21.36,11.1c8.25,2.72,17.62,4.39,27.31,3.77c0.57-0.05,1.14-0.1,1.71-0.15l0.86-0.07
			c0.28-0.02,0.66-0.08,0.99-0.12c0.68-0.09,1.36-0.18,2.04-0.26l0.51-0.07c0.13-0.01-0.19,0,0.06-0.03l0.23-0.05l0.93-0.19
			c2.48-0.51,5.01-0.9,7.49-1.71c1.25-0.37,2.51-0.68,3.76-1.09c1.23-0.46,2.48-0.92,3.73-1.39c0.62-0.23,1.25-0.46,1.88-0.7
			c0.61-0.28,1.22-0.57,1.84-0.85c1.23-0.56,2.46-1.13,3.7-1.7c1.2-0.66,2.41-1.33,3.63-2c0.61-0.33,1.22-0.66,1.83-1
			c0.6-0.36,1.18-0.75,1.78-1.13c1.18-0.75,2.38-1.51,3.57-2.28c1.15-0.85,2.3-1.7,3.47-2.55c0.58-0.43,1.16-0.85,1.74-1.28
			l1.67-1.41c1.11-0.95,2.25-1.87,3.36-2.84c2.12-2.07,4.37-4.03,6.37-6.3l1.55-1.66c0.52-0.55,1.04-1.11,1.51-1.71
			c0.98-1.17,1.97-2.34,2.96-3.52c1-1.17,1.87-2.46,2.82-3.69l1.4-1.87c0.46-0.63,0.87-1.3,1.31-1.95c0.86-1.31,1.76-2.6,2.61-3.94
			c0.8-1.36,1.61-2.73,2.42-4.11l0.61-1.03l0.53-1.02l1.05-2.03l1.06-2.03c0.18-0.31,0.36-0.73,0.55-1.14l0.55-1.21
			c0.37-0.81,0.74-1.62,1.11-2.44l0.56-1.22l0.28-0.61c0.08-0.17-0.19,0.37-0.02,0l0.11-0.29c0.61-1.53,1.23-3.07,1.84-4.62
			c0.63-1.54,1.12-3.15,1.69-4.72c0.27-0.79,0.56-1.58,0.82-2.38l0.73-2.44c1.03-3.23,1.84-6.57,2.69-9.91
			c0.36-1.69,0.73-3.39,1.1-5.1c0.38-1.7,0.63-3.45,0.96-5.18c4.97-27.82,3.61-58.69,0.36-90.88c-1.65-16.19-3.56-32.93-5-50.24
			c-0.72-8.67-1.3-17.43-1.62-26.43c-0.05-2.28-0.1-4.56-0.15-6.85c-0.01-2.21-0.02-4.43-0.03-6.65c0.05-4.66,0.2-9.33,0.51-14
			c0.64-9.35,1.79-18.74,3.66-28.11c0.93-4.69,2-9.38,3.33-14.04c1.3-4.66,2.83-9.31,4.56-13.92c3.47-9.21,7.84-18.31,13.43-26.95
			c2.76-4.33,5.9-8.51,9.31-12.51c3.4-4.01,7.17-7.8,11.27-11.28c2.01-1.77,4.2-3.37,6.35-4.99c2.24-1.53,4.46-3.07,6.81-4.42
			c2.15-1.36,5.15-2.85,7.54-4.06l3.01-1.36l1.22-0.55l0.95-0.37l1.9-0.73c1.27-0.47,2.53-0.98,3.8-1.4l3.85-1.18l1.93-0.58
			l1.94-0.46l3.89-0.9c1.3-0.28,2.59-0.47,3.89-0.7c1.3-0.2,2.6-0.48,3.89-0.6c2.58-0.28,5.18-0.64,7.73-0.73
			c10.26-0.65,20.26-0.02,29.8,1.46c2.38,0.38,4.77,0.73,7.1,1.2l3.51,0.67l3.46,0.76c2.32,0.48,4.57,1.07,6.84,1.62
			c2.27,0.56,4.59,1.22,6.86,1.82l3.12,0.91l1.56,0.45l0.39,0.11l0.55,0.17l0.81,0.26c2.16,0.69,4.31,1.38,6.47,2.07
			c2.15,0.69,4.3,1.38,6.45,2.07c2.12,0.77,4.23,1.55,6.34,2.32c2.11,0.78,4.21,1.56,6.31,2.34c2.11,0.75,4.15,1.68,6.22,2.51
			c2.06,0.85,4.12,1.71,6.18,2.56c1.03,0.43,2.06,0.84,3.08,1.29l3.03,1.39c2.02,0.92,4.03,1.85,6.04,2.77
			c2.01,0.93,4.03,1.82,5.98,2.84c3.93,1.99,7.86,3.94,11.74,5.95c3.82,2.12,7.62,4.24,11.42,6.34c3.74,2.19,7.41,4.47,11.09,6.68
			c14.56,9.11,28.34,18.88,41.11,29.29c12.81,10.36,24.69,21.26,35.54,32.51c10.86,11.24,20.93,22.63,29.84,34.28
			c8.94,11.61,17.13,23.16,24.2,34.73c14.41,22.97,24.99,45.49,32.89,65.87c7.88,20.41,12.93,38.78,16.2,54.02
			c0.42,1.9,0.82,3.75,1.21,5.55c0.33,1.81,0.65,3.57,0.96,5.28c0.6,3.42,1.17,6.61,1.65,9.59c0.8,6.01,1.54,11.09,1.95,15.21
			C2741.07,2117.5,2741.45,2121.9,2741.45,2121.9z"/>
	</g>
	<use xlink:href="#SVGID_1_"  overflow="visible" fill="none" stroke="#512C34" stroke-width="35.8073" stroke-miterlimit="10"/>
</g>
<g>
	<path fill="#512C34" d="M1504.46,1176.33l-2.62-3.39l0.69-0.16c-0.35,11.15,0.11,22.23,1.4,33.16c0.38,2.73,0.64,5.46,1.1,8.17
		l0.67,4.06l0.34,2.03l0.41,2.02c1.02,5.38,2.21,10.71,3.62,15.98c2.81,10.54,6.22,20.88,10.31,30.94
		c4.03,10.07,8.65,19.9,13.78,29.43c5.07,9.57,10.64,18.86,16.62,27.87c5.96,9.03,12.28,17.82,18.97,26.32
		c6.71,8.48,13.65,16.79,20.93,24.78c3.64,4,7.35,7.93,11.13,11.8l5.7,5.77l5.83,5.68l5.99,5.82l5.95,5.49l5.94,5.47l6.15,5.42
		l6.12,5.44l6.23,5.36l6.24,5.35l6.33,5.28c16.93,14.02,34.14,27.89,51.55,41.77c8.72,6.92,17.37,14,26.04,21.1
		c8.67,7.12,17.31,14.33,25.89,21.68c2.16,1.81,4.27,3.7,6.39,5.58l6.35,5.64c4.24,3.75,8.38,7.67,12.58,11.49
		c4.18,3.86,8.25,7.87,12.38,11.8l1.71,1.65l1.47,1.48l2.94,2.96l5.88,5.93c16.02,16.69,30.96,33.91,45,51.98
		c6.97,9.06,13.73,18.27,20.22,27.67c3.33,4.64,6.4,9.45,9.58,14.2c3.22,4.71,6.14,9.62,9.16,14.46
		c11.92,19.46,22.94,39.46,32.71,60.04l3.68,7.71l3.5,7.79l3.49,7.79l3.28,7.88l3.25,7.89l3.06,7.96l3.05,7.96
		c1,2.66,1.91,5.35,2.87,8.03l2.84,8.03c0.96,2.67,1.76,5.4,2.64,8.1l2.59,8.11c0.89,2.69,1.62,5.44,2.44,8.16
		c1.59,5.45,3.23,10.87,4.63,16.37c1.45,5.48,2.92,10.95,4.15,16.49c1.26,5.53,2.64,11.01,3.72,16.58l1.71,8.31
		c0.28,1.39,0.58,2.77,0.83,4.16l0.73,4.18c2,11.13,3.73,22.3,5.15,33.5c2.78,22.41,4.38,44.92,4.59,67.39
		c0.23,22.47-0.82,44.91-3.48,67.1c-1.33-22.31-3.4-44.44-6.44-66.37c-3.07-21.92-7.01-43.65-11.94-65.08
		c-2.47-10.72-5.1-21.38-8.05-31.95c-2.94-10.57-6-21.09-9.42-31.5c-1.6-5.23-3.51-10.37-5.24-15.56
		c-1.71-5.19-3.65-10.31-5.54-15.43c-0.97-2.56-1.84-5.14-2.88-7.67l-3.03-7.61c-1.02-2.53-1.99-5.08-3.04-7.6l-3.17-7.55
		c-1.06-2.51-2.09-5.04-3.19-7.53l-3.35-7.46l-3.36-7.45l-3.53-7.37l-3.51-7.37l-3.67-7.29l-3.67-7.29l-3.84-7.2
		c-10.29-19.16-21.26-37.93-33.21-56.06c-3.01-4.52-5.96-9.07-9.08-13.5c-3.1-4.45-6.1-8.97-9.35-13.31
		c-6.33-8.8-12.91-17.42-19.68-25.87c-13.46-16.95-27.79-33.35-42.71-48.67l-5.84-5.96l-2.92-2.98l-1.46-1.49l-1.29-1.25
		c-3.91-3.77-7.75-7.59-11.72-11.31c-4.01-3.7-7.93-7.45-12-11.1c-4.08-3.65-8.11-7.32-12.23-10.95
		c-16.36-14.61-33.32-28.78-50.28-43.2c-16.93-14.45-34.07-28.91-50.71-44.14l-6.25-5.7l-6.19-5.8l-6.18-5.81l-6.09-5.94l-6.05-5.98
		l-6.01-6.19l-5.98-6.19l-5.66-6.14c-7.82-8.3-15.24-17.1-22.35-26.07c-7.1-9-13.92-18.21-20.23-27.78
		c-6.33-9.55-12.3-19.35-17.76-29.43c-5.43-10.1-10.4-20.44-14.8-31.02c-4.34-10.61-8.14-21.43-11.22-32.45
		c-3.02-11.03-5.44-22.23-6.91-33.53c-3.04-22.57-2.6-45.57,1.96-67.5l0.22-1.05l0.47,0.89L1504.46,1176.33z"/>
</g>
<g>
	<path fill="#512C34" d="M1565.49,984.63c6.73,5.05,13.57,9.93,20.44,14.75c6.87,4.82,13.79,9.55,20.75,14.22
		c6.96,4.67,13.98,9.23,21,13.78l10.6,6.72l10.65,6.62l10.71,6.5l10.78,6.38c7.2,4.22,14.4,8.42,21.7,12.45l5.45,3.05l5.49,2.99
		c3.66,1.98,7.28,4.03,10.97,5.95l11.04,5.82l11.12,5.64c3.7,1.89,7.43,3.72,11.15,5.55c3.73,1.82,7.43,3.7,11.2,5.43l11.26,5.28
		l11.35,5.07c1.89,0.84,3.76,1.73,5.67,2.54l5.7,2.45c3.81,1.61,7.58,3.3,11.42,4.84l11.49,4.64c1.91,0.79,3.83,1.53,5.77,2.25
		l5.79,2.19c7.68,3.03,15.47,5.71,23.22,8.5c3.89,1.35,7.81,2.6,11.71,3.9l5.86,1.93c1.95,0.64,3.93,1.2,5.89,1.8l11.79,3.58
		l11.85,3.29l5.92,1.64l5.96,1.47l11.92,2.93l7.71,1.9l3.43,8.24l0.45,1.08l0.58,1.34c0.4,0.91,0.82,1.84,1.25,2.78
		c0.87,1.87,1.79,3.75,2.75,5.62c1.94,3.74,3.94,7.48,6.11,11.15c1.06,1.85,2.2,3.65,3.3,5.48c1.16,1.79,2.28,3.61,3.48,5.38
		c2.37,3.55,4.83,7.05,7.39,10.47c2.55,3.43,5.21,6.77,7.94,10.05c1.39,1.62,2.75,3.26,4.17,4.85l4.3,4.73l4.42,4.61
		c1.45,1.55,3.03,2.98,4.54,4.48c0.77,0.74,1.51,1.5,2.29,2.22l2.36,2.14c1.58,1.42,3.11,2.89,4.76,4.23l4.87,4.1l5.02,3.91
		c1.65,1.34,3.41,2.52,5.12,3.77c1.73,1.22,3.41,2.51,5.21,3.63l5.3,3.49c1.79,1.12,3.63,2.18,5.44,3.27l2.72,1.63l2.78,1.52
		l5.56,3.05l5.69,2.8l2.84,1.4l2.91,1.27l5.82,2.55c1.97,0.79,3.95,1.52,5.93,2.29c3.92,1.61,8,2.82,12.01,4.19
		c2,0.72,4.07,1.21,6.11,1.81l6.14,1.73l12.73,3.58l0.67,13.41l0.06,1.17l0.1,1.49c0.07,1.02,0.16,2.06,0.27,3.12
		c0.21,2.11,0.45,4.25,0.72,6.4c0.57,4.31,1.24,8.64,2.09,12.96c0.4,2.16,0.89,4.32,1.33,6.47c0.52,2.15,0.99,4.3,1.54,6.44
		c1.09,4.28,2.28,8.55,3.61,12.77c1.31,4.23,2.76,8.41,4.29,12.56c0.8,2.06,1.56,4.14,2.4,6.19l2.56,6.12l2.72,6.04
		c0.89,2.03,1.93,3.97,2.89,5.96c0.49,0.99,0.96,1.99,1.48,2.97l1.57,2.92c1.06,1.94,2.05,3.91,3.2,5.8l3.35,5.71l3.56,5.58
		c1.15,1.89,2.46,3.66,3.71,5.48c1.27,1.8,2.48,3.65,3.85,5.38l3.99,5.28c1.37,1.73,2.81,3.4,4.19,5.12l2.09,2.57l2.2,2.47l4.4,4.95
		l4.62,4.75l2.31,2.38l2.42,2.27l4.84,4.55c1.66,1.47,3.36,2.89,5.04,4.34c3.3,2.96,6.89,5.6,10.37,8.36
		c1.72,1.41,3.59,2.63,5.39,3.94l5.43,3.9l6.6,4.74l0.62,7.22l0.06,0.74l0.09,0.89l0.2,1.86c0.16,1.27,0.31,2.53,0.49,3.83
		c0.17,1.28,0.36,2.57,0.57,3.87c0.2,1.29,0.4,2.59,0.64,3.89c0.88,5.19,1.95,10.38,3.13,15.55c0.61,2.58,1.2,5.17,1.89,7.74l1,3.86
		l1.09,3.84c0.7,2.57,1.48,5.11,2.26,7.65c0.74,2.56,1.61,5.07,2.45,7.59c0.81,2.54,1.74,5.03,2.65,7.52
		c0.46,1.25,0.89,2.51,1.38,3.74l1.47,3.7l1.47,3.71l1.58,3.66c1.07,2.43,2.08,4.89,3.25,7.27c1.16,2.39,2.23,4.82,3.45,7.17
		l3.62,7.09l3.87,6.94l0.97,1.74l1.04,1.69l2.08,3.39l2.07,3.39l2.21,3.29l2.21,3.3c0.73,1.1,1.47,2.2,2.28,3.25l4.72,6.38
		c1.62,2.09,3.31,4.12,4.96,6.19c0.84,1.02,1.63,2.09,2.52,3.07l2.64,2.96l2.64,2.97l1.32,1.49l1.39,1.41l5.58,5.65
		c1.88,1.86,3.9,3.58,5.84,5.38l2.94,2.68l3.07,2.52c2.06,1.67,4.09,3.39,6.17,5.04l6.44,4.69c1.09,0.77,2.12,1.61,3.25,2.32
		l3.36,2.15c2.25,1.42,4.46,2.93,6.76,4.28l6.99,3.92c1.17,0.65,2.31,1.36,3.51,1.95l3.61,1.76l7.24,3.54l-5.29-0.25
		c0.4-0.09,1.13-0.3,1.73-0.47c0.64-0.2,1.28-0.38,1.92-0.61c1.29-0.42,2.58-0.89,3.87-1.38c2.58-0.97,5.12-2.1,7.64-3.29
		c1.24-0.62,2.51-1.2,3.72-1.87l1.84-0.98l1.8-1.04c1.22-0.68,2.39-1.42,3.56-2.17c1.19-0.72,2.31-1.54,3.45-2.33
		c2.27-1.6,4.45-3.31,6.54-5.14c1.09-0.87,2.04-1.87,3.06-2.81c1.03-0.93,1.94-1.97,2.9-2.97c0.47-0.51,0.97-0.99,1.41-1.52
		l1.32-1.6l1.33-1.6l1.21-1.68c0.81-1.12,1.66-2.23,2.34-3.43l1.1-1.77l0.55-0.89c0.17-0.3,0.32-0.61,0.48-0.92
		c0.63-1.24,1.3-2.46,1.91-3.72l1.64-3.86c0.55-1.29,0.92-2.65,1.4-3.98c0.21-0.67,0.49-1.33,0.65-2.02l0.51-2.06
		c0.79-2.73,1.15-5.56,1.63-8.39c0.17-1.42,0.25-2.86,0.38-4.29l0.19-2.16l0.02-2.17l0.04-4.36l-0.29-4.37l-0.14-2.19
		c-0.05-0.73-0.19-1.45-0.27-2.18l-0.58-4.38c-0.15-1.47-0.53-2.9-0.8-4.35l-0.88-4.36c-0.72-2.88-1.51-5.75-2.27-8.64
		c1.18,2.74,2.39,5.47,3.55,8.24l1.51,4.24c0.47,1.43,1.06,2.82,1.42,4.29l1.21,4.37c0.19,0.73,0.43,1.46,0.57,2.2l0.44,2.23
		l0.88,4.49l0.55,4.56l0.27,2.29l0.1,2.31c0.05,1.54,0.14,3.09,0.14,4.63c-0.14,3.09-0.18,6.21-0.68,9.31l-0.3,2.33
		c-0.09,0.78-0.3,1.54-0.45,2.31c-0.34,1.53-0.59,3.1-1.03,4.61l-1.36,4.55c-0.53,1.49-1.13,2.96-1.7,4.45
		c-0.15,0.37-0.28,0.75-0.44,1.11l-0.51,1.08l-1.03,2.16c-0.65,1.46-1.46,2.83-2.25,4.22l-1.19,2.08l-1.32,2l-1.32,2
		c-0.44,0.67-0.95,1.28-1.42,1.93c-0.96,1.27-1.91,2.57-2.97,3.75c-1.05,1.2-2.05,2.45-3.18,3.57c-2.18,2.33-4.49,4.53-6.89,6.62
		c-1.21,1.03-2.41,2.09-3.67,3.05c-1.25,0.98-2.5,1.97-3.8,2.88l-1.94,1.39l-1.98,1.32c-1.31,0.9-2.68,1.71-4.03,2.54
		c-2.74,1.61-5.52,3.16-8.41,4.55c-1.44,0.7-2.89,1.38-4.38,2.02c-0.73,0.33-1.51,0.63-2.26,0.95c-0.81,0.31-1.48,0.59-2.51,0.93
		l-2.47,0.83l-2.82-1.08l-8.12-3.1l-4.07-1.56c-1.35-0.53-2.65-1.18-3.99-1.76l-7.94-3.64c-2.62-1.28-5.15-2.72-7.74-4.07
		l-3.86-2.07c-1.3-0.68-2.5-1.5-3.76-2.25l-7.48-4.59c-2.43-1.62-4.81-3.33-7.23-4.99c-1.2-0.84-2.41-1.67-3.6-2.54l-3.45-2.72
		c-2.28-1.84-4.64-3.6-6.87-5.51l-6.6-5.82l-1.65-1.46l-1.57-1.54l-3.15-3.08l-3.15-3.09c-1.06-1.02-2.01-2.14-3.02-3.2
		c-1.98-2.16-4.02-4.28-5.95-6.5l-5.64-6.76c-0.96-1.12-1.85-2.28-2.73-3.45l-2.67-3.5l-2.66-3.51l-2.52-3.61l-2.51-3.61l-1.25-1.81
		l-1.18-1.85l-4.73-7.42l-4.45-7.57c-1.47-2.54-2.79-5.14-4.18-7.72c-1.42-2.57-2.66-5.21-3.96-7.83l-1.93-3.94l-1.81-3.99
		l-1.81-3.99c-0.59-1.33-1.14-2.69-1.71-4.03c-1.13-2.69-2.28-5.38-3.3-8.11c-1.05-2.72-2.13-5.44-3.09-8.2
		c-0.98-2.75-1.99-5.49-2.86-8.28l-1.35-4.17l-1.26-4.2c-0.86-2.79-1.63-5.61-2.4-8.44c-1.52-5.65-2.92-11.34-4.12-17.11
		c-0.32-1.44-0.6-2.89-0.88-4.34c-0.29-1.45-0.56-2.91-0.82-4.38c-0.27-1.46-0.5-2.96-0.75-4.45l-0.34-2.29l-0.16-1.19l-0.17-1.34
		l7.22,11.96l-6.31-4.17c-2.09-1.41-4.23-2.76-6.24-4.3c-4.05-3.02-8.2-5.93-12.07-9.2c-1.96-1.6-3.94-3.18-5.89-4.81l-5.68-5.06
		l-2.84-2.54l-2.73-2.66l-5.45-5.32l-5.23-5.55l-2.61-2.79l-2.49-2.89c-1.66-1.93-3.33-3.85-4.94-5.82l-4.71-6.01
		c-1.6-1.98-3.04-4.08-4.54-6.13c-1.47-2.07-3.01-4.11-4.38-6.25l-4.21-6.37l-3.97-6.51c-1.35-2.15-2.54-4.4-3.8-6.61l-1.86-3.33
		c-0.61-1.11-1.17-2.25-1.76-3.38c-1.14-2.27-2.37-4.5-3.43-6.81l-3.24-6.9l-2.99-7c-0.97-2.35-1.86-4.72-2.79-7.08
		c-1.79-4.75-3.47-9.54-5-14.38c-1.55-4.83-2.94-9.72-4.22-14.63c-0.65-2.46-1.21-4.94-1.81-7.41c-0.53-2.49-1.11-4.97-1.58-7.47
		c-1.01-5-1.83-10.05-2.53-15.16c-0.34-2.56-0.65-5.13-0.88-7.75c-0.12-1.31-0.23-2.63-0.32-3.98l-0.12-2.06l-0.05-1.09l-0.04-1.3
		l13.4,16.99l-7.08-2.02c-2.35-0.7-4.73-1.3-7.05-2.13c-4.65-1.59-9.34-3.05-13.9-4.93c-2.29-0.9-4.59-1.77-6.87-2.7l-6.76-2.99
		l-3.37-1.5l-3.31-1.65l-6.61-3.3l-6.47-3.58l-3.23-1.8l-3.14-1.95c-2.09-1.31-4.2-2.58-6.27-3.92l-6.11-4.16
		c-2.06-1.35-4-2.87-5.99-4.32c-1.97-1.48-3.98-2.9-5.87-4.47l-5.75-4.63l-5.57-4.84c-1.88-1.59-3.63-3.31-5.43-4.98l-2.69-2.52
		c-0.89-0.85-1.74-1.73-2.61-2.6c-3.5-3.44-6.84-7.03-10.13-10.66l-4.79-5.57c-1.57-1.87-3.09-3.8-4.63-5.69
		c-3.03-3.84-5.97-7.75-8.78-11.74c-2.83-3.99-5.52-8.06-8.13-12.2c-1.31-2.06-2.54-4.18-3.81-6.26c-1.21-2.13-2.46-4.23-3.62-6.39
		c-2.37-4.29-4.6-8.67-6.69-13.16c-1.04-2.25-2.05-4.52-3.03-6.84c-0.49-1.16-0.97-2.33-1.44-3.54l-0.71-1.84l-0.36-0.97l-0.41-1.15
		l11.14,10.13l-12.42-3.55l-6.2-1.78l-6.14-1.95l-12.27-3.91l-12.14-4.27c-2.02-0.73-4.05-1.41-6.05-2.17l-6-2.3
		c-3.99-1.55-8.01-3.04-11.98-4.64c-7.9-3.29-15.85-6.44-23.63-9.97l-5.85-2.61c-1.95-0.86-3.9-1.74-5.82-2.67l-11.56-5.47
		c-3.86-1.82-7.64-3.78-11.46-5.67l-5.71-2.85c-1.9-0.95-3.78-1.97-5.66-2.95l-11.27-6l-11.15-6.2c-3.73-2.03-7.38-4.21-11.06-6.33
		c-3.67-2.14-7.37-4.22-10.97-6.47l-10.86-6.64l-10.75-6.8c-7.13-4.59-14.24-9.19-21.21-14.01c-7.02-4.74-13.93-9.63-20.81-14.54
		l-10.24-7.49l-10.14-7.62l-10.03-7.75l-9.9-7.9c-3.27-2.68-6.56-5.31-9.8-8.02c-3.23-2.72-6.47-5.42-9.66-8.18
		c-6.43-5.46-12.71-11.09-18.93-16.77C1577.5,996.45,1571.38,990.65,1565.49,984.63z"/>
</g>
<path fill="none" stroke="#512C34" stroke-width="35.8073" stroke-miterlimit="10" d="M2333.59,1705.69
	c-13.69,88.47,37.91,93.73,37.91,93.73"/>
<g>
	<path fill="#512C34" d="M1928.53,1212.06c0,0-0.15-0.1-0.44-0.29c-0.28-0.19-0.73-0.47-1.26-0.86c-0.55-0.36-1.17-0.91-1.91-1.58
		c-0.78-0.68-1.51-1.48-2.38-2.44c-1.66-1.92-3.5-4.49-5.09-7.8c-1.58-3.3-2.92-7.34-3.54-12.01c-0.65-4.67-0.53-9.97,0.76-15.56
		l0.12-0.53l0.03-0.13l0.01-0.07c-0.14,0.3,0.2-0.48,0.17-0.42l0.04-0.2l0.18-0.8l0.19-0.8l0.1-0.4c0.02-0.11,0.12-0.37,0.18-0.54
		c0.29-0.78,0.58-1.57,0.88-2.36c0.16-0.41,0.31-0.76,0.46-1.1l0.45-1.04c1.21-2.79,2.75-5.51,4.56-8.11
		c0.89-1.31,1.88-2.57,2.91-3.83c1.08-1.2,2.15-2.44,3.34-3.58c1.17-1.16,2.44-2.24,3.72-3.32c1.32-1.04,2.68-2.05,4.11-2.98
		c0.7-0.48,1.43-0.94,2.18-1.36c0.75-0.42,1.48-0.88,2.27-1.26l2.34-1.17l2.43-1.02c0.81-0.35,1.65-0.62,2.49-0.92l1.26-0.43
		l1.45-0.41l1.84-0.49c0.98-0.22,1.96-0.43,2.94-0.63c1.04-0.22,1.84-0.3,2.7-0.41c0.85-0.1,1.71-0.24,2.56-0.29
		c1.7-0.15,3.4-0.22,5.08-0.19c3.36-0.01,6.64,0.34,9.79,0.9c6.32,1.1,12.09,3.24,17.23,5.87c2.56,1.34,4.98,2.77,7.2,4.36
		l0.83,0.59l0.41,0.29l0.1,0.07c-0.18-0.09,0.3,0.17,0.26,0.15l0.04,0.03l0.16,0.13c0.43,0.36,0.86,0.72,1.28,1.07
		c0.49,0.41,0.97,0.81,1.46,1.21c0.53,0.43,1.04,0.88,1.55,1.32c3.72,3.37,6.73,6.88,9.19,10.26c2.46,3.39,4.37,6.66,5.87,9.64
		c1.5,2.98,2.6,5.69,3.41,7.96c0.41,1.13,0.76,2.16,1.02,3.07c0.28,0.9,0.49,1.69,0.66,2.33c0.17,0.63,0.27,1.15,0.35,1.49
		c0.07,0.34,0.11,0.51,0.11,0.51s-2.84-0.74-7.25-2.35c-1.12-0.39-2.31-0.84-3.61-1.33c-1.31-0.46-2.67-1-4.12-1.55
		c-2.89-1.1-6.05-2.33-9.37-3.54c-3.32-1.21-6.79-2.42-10.3-3.47c-0.4-0.1-0.81-0.19-1.2-0.3l-0.59-0.16l-0.76-0.23
		c-0.53-0.17-1.06-0.33-1.59-0.5l-0.2-0.07l-0.05-0.02c-0.06-0.03,0.38,0.21,0.17,0.1l-0.08-0.02l-0.33-0.08l-0.65-0.16
		c-0.87-0.22-1.75-0.39-2.62-0.59c-0.88-0.18-1.76-0.33-2.63-0.51c-3.51-0.61-7-1-10.31-1.07c-0.83-0.04-1.64-0.01-2.45-0.02
		c-0.79,0.08-1.6,0.03-2.36,0.12c-0.78,0.03-1.53,0.15-2.28,0.21c-0.38,0.01-0.73,0.11-1.1,0.16c-0.36,0.05-0.78,0.11-0.95,0.16
		c-0.23,0.04-0.45,0.07-0.69,0.08l-1.74,0.43l-0.45,0.11l-0.22,0.06l-0.11,0.03c-0.49,0.14,0.61-0.17,0.48-0.14l-0.03,0.01
		l-0.49,0.14c-0.33,0.1-0.67,0.15-0.99,0.28c-1.33,0.39-2.66,0.91-3.98,1.48c-1.33,0.57-2.65,1.24-3.92,2
		c-1.3,0.72-2.55,1.56-3.74,2.45c-0.61,0.44-1.18,0.91-1.78,1.37c-0.53,0.5-1.15,0.96-1.67,1.48l-0.78,0.71l-0.67,0.53
		c-0.06,0.06-0.1,0.04-0.19,0.18l-0.24,0.33l-0.49,0.66l-0.5,0.65l-0.12,0.16c-0.05,0.09,0.28-0.65,0.13-0.33l-0.02,0.03l-0.04,0.05
		l-0.18,0.21c-1.93,2.24-3.66,4.8-5.04,7.49c-1.4,2.67-2.51,5.45-3.34,8.1c-0.83,2.65-1.38,5.17-1.77,7.36
		c-0.32,2.2-0.59,3.95-0.67,5.3c-0.03,0.65-0.1,1.18-0.12,1.52C1928.55,1211.88,1928.53,1212.06,1928.53,1212.06z"/>
</g>
<g>
	<path fill="#512C34" d="M2093.3,1363.89c0,0-0.15-0.07-0.45-0.22c-0.29-0.15-0.74-0.35-1.28-0.64c-0.55-0.29-1.23-0.66-1.98-1.12
		c-0.78-0.45-1.63-1-2.57-1.64c-1.89-1.29-4.07-2.98-6.38-5.28c-2.32-2.29-4.73-5.24-6.83-9.09c-0.54-0.96-1.01-1.99-1.49-3.06
		c-0.09-0.55-0.04-0.17-0.06-0.31l-0.02-0.04l-0.04-0.08l-0.08-0.16l-0.15-0.31l-0.3-0.63c-0.09-0.16-0.2-0.53-0.3-0.87l-0.31-1.02
		c-0.21-0.72-0.38-1.31-0.53-1.95c-0.16-0.63-0.31-1.28-0.43-1.94c-0.28-1.31-0.45-2.68-0.57-4.09c-0.13-1.41-0.15-2.87-0.1-4.38
		c0.04-0.75,0.08-1.52,0.15-2.29c0.1-0.78,0.2-1.56,0.33-2.35c0.53-3.17,1.55-6.51,3.22-9.81c0.44-0.82,0.89-1.64,1.38-2.45
		c0.52-0.8,1.03-1.62,1.62-2.4l0.91-1.16l0.47-0.58l0.12-0.14l0.06-0.07c0.31-0.3-0.61,0.57,0.71-0.69l0.13-0.16l1.08-1.24
		l0.28-0.31l0.67-0.59c0.46-0.4,0.93-0.79,1.4-1.18c0.48-0.39,0.96-0.77,1.45-1.14l0.36-0.27l0.31-0.21l0.62-0.41
		c0.82-0.55,1.67-1.08,2.53-1.57c0.86-0.45,1.73-0.89,2.61-1.32c3.51-1.61,7.16-2.7,10.64-3.24c3.48-0.54,6.92-0.74,10.13-0.54
		c6.48,0.36,12.39,1.8,17.8,3.98l1.01,0.41l0.25,0.1l0.49,0.19l0.09,0.05l0.38,0.18l1.5,0.72l1.54,0.79
		c0.64,0.34,1.28,0.67,1.91,1.01c0.64,0.33,1.26,0.69,1.88,1.04c0.56,0.35,1.12,0.7,1.67,1.04c1.1,0.69,2.18,1.4,3.2,2.15
		c4.15,2.96,7.79,6.26,10.85,9.71c3.05,3.45,5.6,6.96,7.54,10.43c0.5,0.85,0.96,1.71,1.38,2.57c0.42,0.86,0.85,1.66,1.2,2.5
		c0.35,0.83,0.7,1.64,1,2.43c0.32,0.78,0.61,1.56,0.83,2.34c0.47,1.55,0.96,2.92,1.23,4.31c0.3,1.36,0.6,2.57,0.72,3.74
		c0.36,2.27,0.44,4.09,0.44,5.35c0.02,0.62-0.01,1.11-0.02,1.44c-0.01,0.32-0.02,0.49-0.02,0.49s-0.15-0.07-0.45-0.22
		c-0.29-0.14-0.75-0.34-1.29-0.63c-0.55-0.28-1.22-0.61-1.97-1.02c-0.79-0.38-1.66-0.82-2.61-1.32c-1.92-0.97-4.17-2.11-6.68-3.31
		c-1.24-0.61-2.6-1.19-3.93-1.84c-1.39-0.6-2.77-1.26-4.25-1.88c-2.89-1.29-6.01-2.49-9.18-3.7c-3.17-1.21-6.46-2.33-9.79-3.35
		c-0.82-0.29-1.68-0.48-2.51-0.75l-1.24-0.37c-0.37-0.09-0.75-0.16-1.11-0.27c-0.87-0.24-1.75-0.47-2.63-0.71l-1.6-0.47l-0.4-0.12
		l-0.1-0.03c0.72,0.27,0.18,0.07,0.33,0.13l-0.04-0.01l-0.14-0.03l-0.57-0.12c-1.51-0.34-3.02-0.61-4.47-0.81
		c-1.46-0.24-2.84-0.34-4.12-0.42c-1.3-0.1-2.4-0.04-3.38-0.02c-0.99,0.03-1.69,0.16-2.31,0.18c-0.14,0.02-0.28,0.03-0.43,0.03
		c-0.12,0.02-0.22,0.06-0.36,0.05l-0.1,0l-0.05,0c-0.01,0,0.02-0.02,0.02-0.03c0.04-0.05,0.08-0.11,0.11-0.18s0.05-0.14,0.07-0.22
		c0-0.03,0.02-0.09,0.01-0.11l-0.33,0.24l-1.35,0.94l-0.17,0.12c1.3-1.24,0.36-0.34,0.64-0.62l-0.01,0l-0.02,0.01l-0.08,0.02
		l-0.18,0.03c-0.12,0.04-0.24,0.09-0.39,0.11c-0.13,0.05-0.26,0.13-0.42,0.19c-1.17,0.57-2.61,2.16-3.71,4.27
		c-0.28,0.52-0.54,1.08-0.78,1.65c-0.13,0.29-0.25,0.58-0.35,0.87c-0.1,0.29-0.24,0.63-0.34,0.81l-0.17,0.34
		c-0.06,0.11-0.12,0.2-0.14,0.48l-0.1,0.69l-0.05,0.34l-0.03,0.17l-0.01,0.09l-0.01,0.04c-0.02-0.1,0.04,0.29-0.05-0.22
		c-0.15,0.66-0.29,1.33-0.41,2.02c-0.49,2.74-0.65,5.62-0.7,8.35c-0.05,2.73,0.04,5.27,0.07,7.44c0.03,1.08,0.06,2.06,0.06,2.94
		c0.02,0.87,0.02,1.62,0.01,2.24c0.01,0.61-0.02,1.11-0.03,1.43C2093.31,1363.72,2093.3,1363.89,2093.3,1363.89z"/>
</g>
<g>
	<path fill="#512C34" d="M2199.95,1545.28c0,0-0.14-0.1-0.4-0.3c-0.26-0.2-0.67-0.49-1.15-0.89c-0.49-0.39-1.09-0.87-1.76-1.48
		c-0.68-0.59-1.45-1.28-2.25-2.09c-1.66-1.59-3.52-3.61-5.5-6.14c-1.97-2.54-3.99-5.6-5.78-9.38c-1.77-3.78-3.31-8.32-3.91-13.71
		c-0.07-0.68-0.17-1.35-0.2-2.05c-0.02-0.7-0.03-1.41-0.05-2.13c-0.07-1.43,0.08-2.92,0.2-4.42c0.13-1.5,0.43-3.03,0.71-4.58
		c-0.06,0.14,0.56-1.5,0.3-0.83l0.01-0.05l0.02-0.1l0.04-0.2l0.09-0.4l0.17-0.79c0.11-0.53,0.24-1.06,0.37-1.59
		c0.65-1.73,1.42-3.61,2.26-5.37c0.79-1.46,1.6-2.95,2.49-4.39c0.96-1.36,1.93-2.77,2.99-4.08c1.1-1.25,2.21-2.56,3.41-3.71
		c4.78-4.71,10.46-8.29,16.42-10.73c5.98-2.44,12.27-3.78,18.54-3.99c3.13-0.13,6.26,0.05,9.33,0.5l1.15,0.16l0.29,0.04l0.07,0.01
		c0.25,0.03-0.45-0.05,0.57,0.06l0.1,0.03l0.41,0.1c0.54,0.14,1.08,0.27,1.61,0.41c0.86,0.2,2.68,0.71,4.12,1.13
		c1.58,0.42,2.75,0.94,4.03,1.43c1.28,0.47,2.46,1.06,3.64,1.63c1.19,0.55,2.3,1.18,3.39,1.81c1.1,0.61,2.14,1.27,3.14,1.95
		c4.02,2.69,7.35,5.65,10.1,8.59c2.72,2.97,4.9,5.88,6.6,8.61c1.7,2.72,2.97,5.21,3.89,7.33c0.92,2.12,1.53,3.85,1.88,5.07
		c0.19,0.6,0.31,1.08,0.4,1.4c0.08,0.32,0.13,0.48,0.13,0.48s-0.17-0.03-0.5-0.09c-0.32-0.06-0.82-0.13-1.43-0.26
		c-0.62-0.12-1.36-0.28-2.22-0.47c-0.88-0.17-1.85-0.39-2.92-0.65c-1.09-0.22-2.25-0.51-3.5-0.8c-1.29-0.24-2.57-0.62-3.99-0.91
		c-2.81-0.62-5.86-1.28-9.04-1.91c-3.18-0.6-6.49-1.13-9.78-1.49c-1.64-0.2-3.29-0.31-4.91-0.4c-0.81-0.02-1.62-0.1-2.42-0.08
		c-0.78,0.01-1.68-0.05-2.23,0.03c-0.69,0.05-1,0.09-2.32,0.09c-0.55,0-1.11,0.01-1.66,0.01l-0.42,0l-0.1,0
		c0.99,0.11,0.26,0.03,0.47,0.06l-0.03,0.01l-0.13,0.02c-0.17,0.03-0.34,0.05-0.52,0.07c-0.69,0.09-1.36,0.13-2.06,0.3
		c-0.69,0.11-1.38,0.19-2.07,0.38c-2.76,0.59-5.52,1.41-8.07,2.45c-2.56,1.03-4.88,2.27-6.89,3.57c-0.53,0.31-0.92,0.7-1.44,1.01
		c-0.47,0.33-0.86,0.7-1.34,1.04c-0.41,0.36-0.8,0.73-1.24,1.08c-0.19,0.17-0.46,0.21-0.81,0.38c-0.28,0.47-0.55,0.94-0.84,1.4
		l-0.43,0.69l-0.21,0.34l-0.11,0.17l-0.05,0.09l-0.03,0.04c-0.27,0.7,0.33-0.91,0.27-0.74c-0.29,0.5-0.7,0.95-1.02,1.48
		c-0.63,1.05-1.3,2.17-1.82,3.44c-1.1,2.51-1.93,5.47-2.54,8.5c-0.61,3.03-1.02,6.1-1.41,8.95c-0.37,2.96-0.69,5.54-0.95,7.67
		c-0.28,2.2-0.58,3.99-0.8,5.23c-0.1,0.61-0.22,1.1-0.28,1.42C2199.99,1545.12,2199.95,1545.28,2199.95,1545.28z"/>
</g>
</svg>
