<?xml version="1.0" encoding="utf-8"?>
<!-- Generator: Adobe Illustrator 19.0.0, SVG Export Plug-In . SVG Version: 6.00 Build 0)  -->
<svg version="1.1" id="Layer_1" xmlns="http://www.w3.org/2000/svg" xmlns:xlink="http://www.w3.org/1999/xlink" x="0px" y="0px"
	 viewBox="0 0 4096 3112" enable-background="new 0 0 4096 3112" xml:space="preserve">
<g id="Female_Highlights">
	<path id="Breasts" opacity="0.38" fill="#FFFFFF" d="M1908.54,972.23c-12.13-13.42-33.97-10.27-41.68,6.1
		c-17.34,36.79-36.79,94.06-8.85,125.01c43.33,48,119.33,28.67,138.67-14c19.33-42.67,101.33-34.67,106,0
		c4.67,34.67,55.33,70,120.67,26c43.61-29.37,22.76-92,4.08-130.41c-7.59-15.6-28.31-19.08-40.57-6.8
		C2140.64,1024.35,2029.19,1105.62,1908.54,972.23z"/>
	<path id="Chest" opacity="0.38" fill="#FFFFFF" d="M2048.42,1027.33c62,0,111.75-39.07,123.08-63.33c3.5-7.5,5.5-13.17,8.29-17.23
		c12.16-17.71,14.14-40.6,4.2-59.64c-3.71-7.11-8.18-13.29-12.71-18.52c-13.1-15.12-31.02-22.19-50.95-23.86
		c-15.48-1.3-36.24,1.88-57.17,11.16c-8.8,3.9-18.89,3.96-27.72,0.11c-21.41-9.35-43.41-12.56-58.94-11.26
		c-19.93,1.67-37.85,8.75-50.95,23.86c-4.53,5.22-9,11.41-12.71,18.52c-9.94,19.04-7.95,41.93,4.2,59.64
		c2.79,4.06,4.87,9.89,8.29,17.23C1936.64,988.27,1986.41,1027.33,2048.42,1027.33z"/>
	<path id="Neck" opacity="0.38" fill="#FFFFFF" d="M1981,718c0,0,70,77.5,133,3.5c0,0,6.5,46-16,99.5c0,0-43.5,22-102,0
		C1996,821,1974,782.5,1981,718z"/>
	<path id="Left_Shoulder" opacity="0.38" fill="#FFFFFF" d="M2121.33,772c0,0,14.67,32.67,89,48.33c0,0-30,18.67-98.67,10.33
		C2111.67,830.67,2126.33,790.33,2121.33,772z"/>
	<path id="Right_Shoulder" opacity="0.38" fill="#FFFFFF" d="M1974.17,772c0,0-14.67,32.67-89,48.33c0,0,30,18.67,98.67,10.33
		C1983.83,830.67,1969.17,790.33,1974.17,772z"/>
	<path id="Left_Arm" opacity="0.38" fill="#FFFFFF" d="M2235.47,838.74c28.5,5.68,100.13,34.32,98.53,178.59c0,0,16.67,74,12.67,150
		s-60.67,51.33-60.67,51.33s-24.67-32.67-28.67-116.67c0,0,25.67-42.67-0.67-92c0,0-1.15-51.44-34.34-65.57
		c-4.79-2.04-6.32-8.16-2.79-11.99c9.77-10.55,19.33-33.84,7.2-84.55C2225.46,842.57,2230.1,837.67,2235.47,838.74z"/>
	<path id="Left_Forearm" opacity="0.38" fill="#FFFFFF" d="M2283.5,1239c0,0,41.05,22.27,68.05-15.62c1.84-2.59,5.83-1.87,6.74,1.17
		c1.9,6.3,6.3,15.06,16.37,24.79c20,19.33,20,190,20,190s-6,63.33,23.33,182.67c0,0-27.33-16.67-57.33,3.33c0,0,14.67-26.67-6-100
		c-20.67-73.33-44-144.67-44-144.67S2272.33,1296,2283.5,1239z"/>
	<path id="Left_Hand" opacity="0.38" fill="#FFFFFF" d="M2360,1631.33c0,0,30-16.33,57-4.33s39.33,44.67,44.67,65.67
		c3.22,12.66,12.37,24.84,19.13,32.51c3.22,3.65-0.94,9.16-5.27,6.94c-6.38-3.27-14.11-11.22-20.86-29.45
		c-14.67-39.67-13.67,29-13.67,29l-1.67,24.23c-0.21,3.11-0.1,6.23,0.33,9.32c1.72,12.24,5.94,46.94,2.08,70.28
		c-4.75,28.75-9-17-9-17s-0.25-57-11.75-72.75c-9.86-13.5-6.67,20.39-5.56,30.35c0.21,1.85,0.32,3.71,0.32,5.57l0.24,72.58
		c0,0-2.37,10.76-6.8,4.55c-1.68-2.35-2.41-5.25-2.24-8.14c0.85-14.85,3.63-75.06-6.21-93.42c-9.92-18.51-10.9,22.41-10.99,32.38
		c-0.01,1.4-0.09,2.8-0.21,4.19c-0.6,6.58-2.19,27.85-0.04,49.78c0.18,1.87,0.06,3.76-0.47,5.56c-0.98,3.38-3.04,7.6-6.55,2.5
		c-2.04-2.97-2.93-6.58-2.74-10.18c0.71-13.44,2.54-55.76-0.99-84.24c-4.25-34.25-16.5,0.5-16.5,0.5s-5.25,32.75,0,62.75
		c0,0-1.25,9-4.25,0.75c-2.09-5.75-3.7-37.25-4.48-55.81c-0.28-6.77-0.24-13.54,0.02-20.31c0.33-8.46-0.34-23.53-7.54-36.13
		C2335.33,1690.33,2349.67,1632.33,2360,1631.33z"/>
	<path id="Right_Arm" opacity="0.38" fill="#FFFFFF" d="M1860.07,838.74c-28.5,5.68-100.13,34.32-98.53,178.59
		c0,0-16.67,74-12.67,150s60.67,51.33,60.67,51.33s24.67-32.67,28.67-116.67c0,0-25.67-42.67,0.67-92c0,0,1.15-51.44,34.34-65.57
		c4.79-2.04,6.32-8.16,2.79-11.99c-9.77-10.55-19.33-33.84-7.2-84.55C1870.08,842.57,1865.44,837.67,1860.07,838.74z"/>
	<path id="Right_Forearm" opacity="0.38" fill="#FFFFFF" d="M1812.04,1239c0,0-41.05,22.27-68.05-15.62
		c-1.84-2.59-5.83-1.87-6.74,1.17c-1.9,6.3-6.3,15.06-16.37,24.79c-20,19.33-20,190-20,190s6,63.33-23.33,182.67
		c0,0,27.33-16.67,57.33,3.33c0,0-14.67-26.67,6-100c20.67-73.33,44-144.67,44-144.67S1823.21,1296,1812.04,1239z"/>
	<path id="Right_Hand" opacity="0.38" fill="#FFFFFF" d="M1735.54,1631.33c0,0-30-16.33-57-4.33s-39.33,44.67-44.67,65.67
		c-3.22,12.66-12.37,24.84-19.13,32.51c-3.22,3.65,0.94,9.16,5.27,6.94c6.38-3.27,14.11-11.22,20.86-29.45
		c14.67-39.67,13.67,29,13.67,29l1.67,24.23c0.21,3.11,0.1,6.23-0.33,9.32c-1.72,12.24-5.94,46.94-2.08,70.28c4.75,28.75,9-17,9-17
		s0.25-57,11.75-72.75c9.86-13.5,6.67,20.39,5.56,30.35c-0.21,1.85-0.32,3.71-0.32,5.57l-0.24,72.58c0,0,2.37,10.76,6.8,4.55
		c1.68-2.35,2.41-5.25,2.24-8.14c-0.85-14.85-3.63-75.06,6.21-93.42c9.92-18.51,10.9,22.41,10.99,32.38c0.01,1.4,0.09,2.8,0.21,4.19
		c0.6,6.58,2.19,27.85,0.04,49.78c-0.18,1.87-0.06,3.76,0.47,5.56c0.98,3.38,3.04,7.6,6.55,2.5c2.04-2.97,2.93-6.58,2.74-10.18
		c-0.71-13.44-2.54-55.76,0.99-84.24c4.25-34.25,16.5,0.5,16.5,0.5s5.25,32.75,0,62.75c0,0,1.25,9,4.25,0.75
		c2.09-5.75,3.7-37.25,4.48-55.81c0.28-6.77,0.24-13.54-0.02-20.31c-0.33-8.46,0.34-23.53,7.54-36.13
		C1760.21,1690.33,1745.88,1632.33,1735.54,1631.33z"/>
	<path id="Abdomen" opacity="0.38" fill="#FFFFFF" d="M2050.5,1526c56.49,0,114.12-12.37,153.2-23
		c25.21-6.85,39.98-33.06,32.73-58.16c-7.26-25.1-15.21-60.92-19.42-106.84c-4.88-53.1-2.41-102.38,0.87-136.39
		c1.95-20.26-14.31-37.75-34.65-36.95c-23.17,0.91-55.45-4.13-94.83-26.31c-23.48-13.23-52.3-13.23-75.78,0
		c-39.38,22.18-71.66,27.21-94.83,26.31c-20.34-0.8-36.6,16.69-34.65,36.95c3.28,34.01,5.74,83.29,0.87,136.39
		c-4.22,45.92-12.17,81.74-19.42,106.84c-7.26,25.1,7.52,51.3,32.73,58.16C1936.38,1513.63,1994.01,1526,2050.5,1526z"/>
	<path id="Head" opacity="0.38" fill="#FFFFFF" d="M2087,486.67c0,0,39.67,9,41,41.33s9.33,54.67,9.33,54.67
		s8.25,100.55-50.45,135.49c-2.85,1.7-5.61,3.54-8.26,5.54c-4.97,3.75-14.21,9.63-23.29,9.63c-13.33,0-32.67-13.67-32.67-13.67
		s-64-30.67-59-131c0,0,47-27,65-68S2087,486.67,2087,486.67z"/>
	<path id="Vagina" opacity="0.38" fill="#FFFFFF" d="M1956.52,1529.84c43.38,9.28,112.65,17.5,183.21-1.11
		c15.48-4.08,27.84,12.99,19.09,26.4c-22.37,34.26-57.99,80.93-98.73,104.76c-6.22,3.64-14.06,2.97-19.66-1.57
		c-19.1-15.45-64.68-54.27-101.27-100.7C1929.08,1544.85,1940.6,1526.44,1956.52,1529.84z"/>
	<path id="Left_Lower_Limb" opacity="0.38" fill="#FFFFFF" d="M2090.22,1672.03c41.13-36.5,149.56-120.51,190.29-32.56
		c2.43,5.25,3.61,10.99,3.58,16.78c-0.21,38.55-4.29,206.97-57.01,363.82l-3.78,81.84c-0.61,13.33-7.63,25.65-19.02,32.6
		c-14.95,9.12-39.29,15.55-73.93-0.57c-14.16-6.59-23.14-20.88-23.25-36.5c-0.39-56.62-4.04-210.72-29.94-389.69
		C2075.23,1694.4,2080.14,1680.98,2090.22,1672.03z"/>
	<path id="Left_Leg" opacity="0.38" fill="#FFFFFF" d="M2122.67,2150.24c18.02,11.69,49.32,22.39,89.11-2.42
		c6.16-3.84,13.91,1.56,12.44,8.67l-3.14,15.07c0,0,31.5,133.49-1.5,259.49s-39,254.99-39,254.99s-18-10.5-39,4.5
		c0,0-16.09-39.53-6.09-71.03s1.5-115,1.5-115s-25-147.5-11-264.5l-15.88-81.25C2108.73,2151.62,2116.58,2146.29,2122.67,2150.24z"
		/>
	<path id="Left_Foot" opacity="0.38" fill="#FFFFFF" d="M2136,2701.33c0,0,33.67-18.33,53.33-2.33c19.67,16,22.33,40.33,22.33,40.33
		s35.48,38.92,39.24,66.96c3.76,28.04-98.24,18.04-98.24,18.04s-19-6-7.33-24.67c0,0-19.33-12.33-12.67-50.67
		C2139.33,2710.67,2106.33,2726.33,2136,2701.33z"/>
	<path id="Right_Lower_Limb" opacity="0.38" fill="#FFFFFF" d="M2004.14,1672.03c-41.13-36.5-149.56-120.51-190.29-32.56
		c-2.43,5.25-3.61,10.99-3.58,16.78c0.21,38.55,4.29,206.97,57.01,363.82l3.78,81.84c0.62,13.33,7.64,25.65,19.02,32.6
		c14.95,9.12,39.29,15.55,73.93-0.57c14.16-6.59,23.14-20.88,23.25-36.5c0.39-56.62,4.04-210.72,29.94-389.69
		C2019.12,1694.4,2014.22,1680.98,2004.14,1672.03z"/>
	<path id="Right_Leg" opacity="0.38" fill="#FFFFFF" d="M1971.68,2150.24c-18.02,11.69-49.32,22.39-89.11-2.42
		c-6.16-3.84-13.91,1.56-12.43,8.67l3.14,15.07c0,0-31.5,133.49,1.5,259.49c33,125.99,39,254.99,39,254.99s18-10.5,39,4.5
		c0,0,16.09-39.53,6.09-71.03s-1.5-115-1.5-115s25-147.5,11-264.5l15.88-81.25C1985.63,2151.62,1977.78,2146.29,1971.68,2150.24z"/>
	<path id="Right_Foot" opacity="0.38" fill="#FFFFFF" d="M1958.36,2701.33c0,0-33.67-18.33-53.33-2.33
		c-19.67,16-22.33,40.33-22.33,40.33s-35.48,38.92-39.24,66.96c-3.76,28.04,98.24,18.04,98.24,18.04s19-6,7.33-24.67
		c0,0,19.33-12.33,12.67-50.67C1955.02,2710.67,1988.02,2726.33,1958.36,2701.33z"/>
</g>
</svg>
