<?xml version="1.0" encoding="utf-8"?>
<!-- Generator: Adobe Illustrator 19.0.0, SVG Export Plug-In . SVG Version: 6.00 Build 0)  -->
<svg version="1.1" id="Layer_1" xmlns="http://www.w3.org/2000/svg" xmlns:xlink="http://www.w3.org/1999/xlink" x="0px" y="0px"
	 viewBox="0 0 4096 3112" enable-background="new 0 0 4096 3112" xml:space="preserve">
<pattern  y="3112" width="89" height="89" patternUnits="userSpaceOnUse" id="New_Pattern_Swatch_2" viewBox="0 -89 89 89" overflow="visible">
	<g>
		<polygon fill="none" points="0,-89 89,-89 89,0 0,0 		"/>
		<polygon fill="#AA8368" points="89,0 0,0 0,-89 89,-89 		"/>
	</g>
</pattern>
<pattern  y="3112" width="89" height="89" patternUnits="userSpaceOnUse" id="New_Pattern_Swatch_3" viewBox="0 -89 89 89" overflow="visible">
	<g>
		<polygon fill="none" points="0,0 89,0 89,-89 0,-89 		"/>
		<polygon fill="#6D503D" points="89,0 0,0 0,-89 89,-89 		"/>
	</g>
</pattern>
<g id="Female_Body">
	<g>
		<defs>
			<path id="SVGID_1_" d="M2119.54,412.05c12.2,0.9,23.12,9.62,29.34,20.16c6.22,10.53,8.88,22.73,11.46,34.68
				c7.01,32.55,14.02,65.09,21.03,97.64c5.54,25.74,11.1,52.32,6.16,78.18c-3.03,15.86-10.04,30.94-20.2,43.49
				c0.24-7.22,3.04-14.32,7.79-19.76c-9.73,17.51-23.64,32.67-40.25,43.85c3.32-5.48,6.63-10.96,9.95-16.44
				c-4.97,5.33-10.09,10.78-16.65,13.97s-14.95,3.65-20.75-0.76c-9.39-7.16-7.11-21.82-2.63-32.75
				c7.89-19.24,19.76-36.84,34.64-51.38c4.81-4.7,10.34-9.95,10.29-16.68c-0.07-9.47-10.53-14.7-17.62-20.97
				c-9.76-8.64-14.17-21.62-19.98-33.29c-5.82-11.67-14.91-23.47-27.83-25.19c-13.18-1.75-25.01,7.51-35.07,16.2
				c-25.84,22.32-51.67,44.64-77.51,66.96c-5.42,4.68-11.2,9.99-12.24,17.07c-1.04,7.04,3.03,13.95,8.32,18.72
				s11.76,7.97,17.58,12.06c28.02,19.67,37.25,61.75,20.05,91.34c-32.72-22.31-61.07-50.99-83-83.96c0.25,6.88,0.5,13.76,0.74,20.64
				c-16.84-29.58-21.05-65.01-18.02-98.91c3.03-33.9,12.87-66.78,22.65-99.38c6.49-21.65,13.33-43.94,27.81-61.29
				c18.86-22.58,48.45-33.75,77.64-37.47C2066.3,384.57,2099.72,385.24,2119.54,412.05z"/>
		</defs>
		<use xlink:href="#SVGID_1_"  overflow="visible" fill="#D8AC84"/>
		<clipPath id="SVGID_2_">
			<use xlink:href="#SVGID_1_"  overflow="visible"/>
		</clipPath>
		<g clip-path="url(#SVGID_2_)">
			<g>
				<path fill="#F7D8A6" d="M2098.03,433.25c-4.75-14.79-17.97-25.91-32.78-30.6c-14.8-4.69-30.96-3.56-45.95,0.49
					c-18.39,4.97-35.59,14.28-49.81,26.96c10.89-9.28,25.74-13.75,39.95-12.04c-14.69,6.11-29.62,12.38-41.81,22.59
					c-12.19,10.22-21.44,25.18-20.88,41.08c17.15-23.89,41.96-42.19,69.84-51.55c-21.73,9.91-37.34,30.22-46.56,52.25
					c-9.22,22.03-12.81,45.94-16.32,69.57c12.56-39.29,43.83-72.13,82.45-86.61c7.79-2.92,16.59-5.46,25-4.19
					c7.71,1.16,14.19,8.57,21.78,8.46C2099.63,469.44,2101.85,445.14,2098.03,433.25z"/>
				<path fill="#F7D8A6" d="M2140.47,448.05c-2.18-4.87-4.74-10.14-9.61-12.32c-7.32-3.28-16.1,2.68-18.82,10.23
					c-2.72,7.55-1.13,15.88,0.48,23.74c16.26,5.56,28.4,19.76,35.42,35.44c7.02,15.68,9.62,32.93,12.14,49.93
					c6.1,2.33,9.49,8.59,12,14.39c-7.52-21.18-12.46-43.76-13.59-66.24C2157.46,482.66,2148.89,466.9,2140.47,448.05z"/>
				<path fill="#F7D8A6" d="M2163.6,654.72c2.98-10.9,4.66-22.14,5.03-33.43c0.25-7.69-2.3-17.61,0.03-24.57
					c10.04,3.76,15.14,20.06,13.99,29.91c-2.92-4.43-5.4-9.22-8.18-13.78c1.57,7.63,1.54,15.45-0.52,22.99
					C2172.04,642.82,2165.3,648.5,2163.6,654.72z"/>
				<path fill="#F7D8A6" d="M1958.47,717.7c-12.08-26.26-21.46-53.76-27.97-81.93c-2.33,8.65-2.47,17.89-0.4,26.61
					c-12.15-23.7-14.34-52.31-5.94-77.58c-3.43,5.52-6.86,11.04-10.28,16.57c0.08-21.45,9.17-42.72,24.62-57.6
					c3.58,18.5,7.15,36.99,10.73,55.49c2.05,10.58,4.18,21.39,9.62,30.69c6.68,11.42,17.71,19.49,27.2,28.71
					c14.46,14.05,25.92,31.72,30.11,51.45c4.18,19.72,0.45,41.55-12.23,57.22c-4.68,5.78-11.68,10.99-18.96,9.44
					c-7.74-1.65-11.86-9.91-14.9-17.22c-5.64-13.57-11.28-27.15-16.92-40.72c3.98-2.05,9.52,0.02,11.16,4.19"/>
				<path fill="#F7D8A6" d="M1993.6,511.11c-7.92,13.99-12.58,29.54-17.18,44.94c7.51-5.9,10.16-15.86,13.74-24.71
					c8.98-22.21,26.58-40.82,48.26-51.02C2018.08,476.22,2002.72,495.02,1993.6,511.11z"/>
			</g>
		</g>
		<use xlink:href="#SVGID_1_"  overflow="visible" fill="none" stroke="#966E4D" stroke-width="4.5196" stroke-miterlimit="10"/>
	</g>
	<g>
		<defs>
			<path id="SVGID_3_" d="M2141.82,573.66c0.62-0.77,18.32-22.5,21.65,13.58c3.39,36.72-10.17,72.31-22.6,58.75
				c0,0,0,37.29-19.21,55.93l1.13,55.93c0,0,9.98,35.78,95.1,56.87c0,0,38.6,16.42,57.96,20.15c13.81,2.66,26.22,10.35,34.77,21.52
				c17.94,23.44,37.63,72.68,33.81,175.27c0,0,15.82,87.39,12.8,138.6c0,0,1.69,44.07,23.73,67.23
				c22.03,23.16,28.25,172.31,32.01,249.14c3.77,76.83,17.71,135.59,17.71,135.59s33.9,25.42,39.55,73.44
				c0,0,8.47,25.42,27.68,39.55c11.74,8.63-0.86,8.12-12.43,6.41c-9.36-1.38-17.85-6.32-23.7-13.76c-6.28-8-13.52-18.51-14.15-25.23
				c0,0,0.37,18.64-1.89,58.56c0,0,4.15,52.35,0.38,77.59c0,0-7.4,20.49-15.27,6.8c-2.49-4.33-3.42-9.37-2.95-14.34
				c1.37-14.41-2.88-47.28-7.4-66.66l0.35,90.97c0.02,4.15-1.32,8.24-4.01,11.4c-3.09,3.64-7.62,5.9-12.36-2.31
				c-1.63-2.83-2.39-6.09-2.29-9.35c0.51-16.29,1.91-75.13-3.92-90.33c0,0-8.14,22.43-4.33,74.01c0.5,6.79,1.82,13.55-2.03,19.17
				c-4.13,6.02-10.01,9.21-15.79-6.23c-1.32-3.53-1.94-7.28-1.9-11.05l0.88-74.77c0,0,0.57-10.54-3.57-12.8
				c-4.15-2.26-4.52,12.62-4.52,12.62s-2.55,36.83-1.03,56.84c0.21,2.81-0.47,5.66-2.06,7.99c-2.43,3.56-6.49,5.27-10.85-10.98
				c-4.04-15.07-5.1-39.07-5.28-56.57c-0.13-12.84-1.82-25.61-4.86-38.09c-4.83-19.81-9.29-55.58,6.38-94.4
				c23.73-58.75-58.75-276.26-58.75-276.26s-18.74-43.58-18.25-108.54c0.1-13.25-1.95-26.41-5.84-39.08
				c-5.64-18.37-12.76-46.63-12.07-70.45c0,0-1.13-16.95-6.78-25.99c0,0-17.51,76.83-18.08,140.11
				c-0.19,21.09-0.63,39.55-1.13,54.78c-0.99,30.11,3.7,60.12,13.78,88.51c9.86,27.77,22.43,68.58,32.17,118.47
				c0,0,28.62,70.05,23.34,127.29c-5.27,57.25,0.76,222.97-55.74,391.7l-1.5,140.11c0,0,36.53,124.29-5.28,264.4
				c0,0-16.58,99.43-34.65,161.2c0,0,7.54,75.32-5.27,94.91c0,0,22.6,34.64,24.1,48.96c0,0,35.4,40.68,39.17,68.55
				c0,0-3.77,21.84-25.61,16.19c0,0-7.15,15.06-19.97,3.76c0,0-15.43,13.19-27.49,0.38c0,0-18.08,19.58-37.29,3.01
				c-19.21-16.56-13.56-28.99-13.56-28.99s-13.93-5.65-9.41-51.6c0,0-14.69-19.97-2.64-53.86l0.38-25.6c0,0-9.04-21.85,0-52.36
				c9.04-30.51,5.27-107.71,5.27-107.71s-25.23-84.74-16.19-180.78l0.37-93.41c0,0-21.84-112.99-18.82-145.37
				c3.01-32.39-23.35-247.07-23.35-247.07s-18.84-124.29-9.04-165.72h-26.43c9.8,41.43-9.04,165.72-9.04,165.72
				s-26.36,214.68-23.34,247.07c3.01,32.38-18.84,145.37-18.84,145.37l0.37,93.41c9.04,96.04-16.19,180.78-16.19,180.78
				s-3.76,77.21,5.28,107.71c9.04,30.51,0,52.36,0,52.36l0.37,25.6c12.06,33.9-2.63,53.86-2.63,53.86
				c4.52,45.95-9.42,51.6-9.42,51.6s5.65,12.43-13.56,28.99c-19.21,16.58-37.29-3.01-37.29-3.01c-12.04,12.8-27.49-0.38-27.49-0.38
				c-12.8,11.3-19.97-3.76-19.97-3.76c-21.84,5.65-25.6-16.19-25.6-16.19c3.76-27.87,39.16-68.55,39.16-68.55
				c1.51-14.32,24.11-48.96,24.11-48.96c-12.81-19.59-5.28-94.91-5.28-94.91c-18.08-61.77-34.65-161.2-34.65-161.2
				c-41.81-140.11-5.27-264.4-5.27-264.4l-1.51-140.11c-56.49-168.73-50.46-334.45-55.74-391.7
				c-5.28-57.24,23.35-127.29,23.35-127.29c9.74-49.89,22.3-90.7,32.16-118.48c10.08-28.39,14.77-58.4,13.78-88.5
				c-0.5-15.23-0.94-33.69-1.13-54.78c-0.56-63.27-18.08-140.11-18.08-140.11c-5.65,9.04-6.78,25.99-6.78,25.99
				c0.69,23.82-6.43,52.08-12.07,70.45c-3.89,12.67-5.94,25.83-5.84,39.08c0.49,64.96-18.25,108.54-18.25,108.54
				s-82.48,217.5-58.75,276.26c15.68,38.82,11.22,74.6,6.38,94.4c-3.04,12.48-4.73,25.24-4.86,38.08
				c-0.18,17.51-1.24,41.51-5.29,56.58c-4.36,16.24-8.42,14.54-10.85,10.98c-1.59-2.33-2.27-5.17-2.06-7.99
				c1.52-20.01-1.02-56.84-1.02-56.84s-0.38-14.88-4.52-12.62c-4.15,2.26-3.58,12.8-3.58,12.8l0.86,73.26
				c0.07,5.69-1.07,11.36-3.54,16.49c-5.13,10.66-10.2,7.85-13.91,2.6c-2.61-3.69-3.66-8.27-3.26-12.78
				c4.94-56.05-3.31-80.7-3.31-80.7c-5.76,15.03-4.45,72.69-3.92,89.75c0.13,4.14-0.97,8.25-3.35,11.63
				c-4.35,6.16-8.43,3.97-11.29,0.61c-2.69-3.16-4.03-7.25-4.01-11.4l0.35-90.97c-7.68,16.8-8.78,52.48-7.38,66.8
				c0.46,4.7-0.4,9.46-2.64,13.61c-4.72,8.76-9.29,5.01-12.25,0.47c-2.18-3.35-3.48-7.19-3.89-11.16
				c-2.76-26.46,0.93-73.12,0.93-73.12c-2.26-39.92-1.89-58.56-1.89-58.56c-0.63,6.71-7.87,17.23-14.15,25.23
				c-5.85,7.44-14.33,12.38-23.7,13.76c-11.57,1.7-24.17,2.22-12.43-6.41c19.21-14.12,27.68-39.55,27.68-39.55
				c5.65-48.02,39.55-73.44,39.55-73.44s13.94-58.75,17.71-135.59c3.76-76.83,9.98-225.98,32.01-249.14
				c22.03-23.16,23.73-67.23,23.73-67.23c-3.01-51.22,12.81-138.6,12.81-138.6c-3.82-102.59,15.87-151.82,33.81-175.27
				c8.55-11.17,20.96-18.85,34.77-21.52c19.36-3.73,57.97-20.15,57.97-20.15c85.11-21.08,95.09-56.87,95.09-56.87l1.13-55.93
				c-19.21-18.64-19.21-55.93-19.21-55.93c-12.43,13.56-25.99-22.03-22.6-58.75c3.33-36.08,21.03-14.35,21.65-13.58
				c19.23-3.3,36.03-17.08,47.57-32.81s21.02-33.28,35.47-46.38c14.95-13.55,34.84-21.53,55.01-22.07
				c8.26,15.55,34.51,13.31,42.73,28.88c3.47,6.58,2.57,14.49,2.22,21.92C2136.41,539.42,2136.52,558.33,2141.82,573.66z"/>
		</defs>
		<use xlink:href="#SVGID_3_"  overflow="visible" fill="#E0B496"/>
		<clipPath id="SVGID_4_">
			<use xlink:href="#SVGID_3_"  overflow="visible"/>
		</clipPath>
		<g opacity="0.76" clip-path="url(#SVGID_4_)">
			<path fill="url(#New_Pattern_Swatch_2)" d="M1976.09,1616.01c0,0-35.64-38.42-45.67-47.03c-10.39-8.92-48.77-54.61-61.49-50.42
				c-54.04,17.81-39.56,106.73-66.62,126.72c-3.16,2.35-7.26,4.36-10.91,2.86c-4.17-1.71-5.39-6.93-6.02-11.4
				c-13.09-93.38-14.64-191.43,20.92-278.76c2.88-7.09,6.24-14.39,12.36-19c5.72-4.32,14.29,4.77,19.42-0.24
				c2.03-1.98,4.06-4.11,6.08-6.32c6.54-13.16,96.32-189.57,202.85-189.57c110.68,0,201.69,183.79,201.69,183.79
				s-2.23-2.26-6.3-6.17c5.22,6.72,10.65,12.92,16.1,18.26c5.12,5.01,13.7-4.08,19.42,0.24c6.12,4.61,9.47,11.91,12.36,19
				c35.56,87.32,34.01,185.38,20.92,278.76c-0.64,4.47-1.85,9.69-6.02,11.4c-3.64,1.5-7.75-0.51-10.92-2.86
				c-27.06-19.98-31.82-88.94-63.2-101.07c-12.77-4.93-27.5-2.68-39.74,3.44c-12.24,6.14-19.29,13.92-28.44,24.1
				c-31.19,34.71-13.42,22.22-43.22,54.99c45.67-68.92,77.69-176.32,77.69-176.32c14.17-31.87,19.78-67.03,20.43-101.9
				c0.01-0.54,0.02-1.09,0.03-1.63c0.44-31.96-14.3-62.27-39.7-81.67c-39.84-30.45-89.21-60.79-127.77-60.79
				c-41.49,0-91.76,30.76-132.33,62.22c-25.1,19.46-39.76,49.58-39.23,81.34c0,0.18,0.01,0.35,0.01,0.53
				c0.65,34.87,6.27,70.04,20.43,101.9L1976.09,1616.01z"/>
			<path fill="url(#New_Pattern_Swatch_2)" d="M2034.68,576.77c4.38,4.52,6,11,6.95,17.22c1.59,10.37,1.86,20.88,2.12,31.37
				c0.11,4.22,0.21,8.45-0.25,12.65c-0.21,1.94-0.59,3.95-1.8,5.47c-1.58,1.98-4.2,2.7-6.59,3.54s-4.95,2.16-5.71,4.57
				c5.65-8.27,6.64-18.77,7.45-28.75c0.69-8.45,1.38-16.95,0.67-25.41c-0.53-6.31-2.05-12.97-6.6-17.37
				c-1.62-1.56-15.12-8.59-13.48-10.48c1.15-1.32,7.4,1.39,8.85,1.95C2029.39,572.72,2032.35,574.37,2034.68,576.77z"/>
			<path fill="url(#New_Pattern_Swatch_2)" d="M1810.69,967.42c12.82,7.74,26.93,6.63,40.54,0.4s24.8-16.65,35.73-26.89
				c-15.35,33.7-30.79,67.68-39.3,103.72c-2.74,11.62-4.75,23.78-2.16,35.44c2.92,13.14,11.49,24.46,21.77,33.15
				c18.02,15.25,41.9,23.38,65.48,22.29c23.58-1.09,46.61-11.38,63.15-28.22c0,0,1.24,4.92-12.46,17.02l-13.61,10.36l-25.85,10.59
				l-32.34,1.98l-38.7-12.99l-26.69-27.26l-11.58-24.15l-3.2-31.59l5.27-23.35l7.34-14.31l-0.56-3.01l-18.64-24.86L1810.69,967.42z"
				/>
			<path fill="url(#New_Pattern_Swatch_2)" d="M2282.35,967.42c-12.82,7.74-26.93,6.63-40.54,0.4
				c-13.62-6.23-24.8-16.65-35.73-26.89c15.35,33.7,30.79,67.68,39.3,103.72c2.74,11.62,4.75,23.78,2.16,35.44
				c-2.92,13.14-11.5,24.46-21.77,33.15c-18.02,15.25-41.9,23.38-65.48,22.29c-23.58-1.09-46.61-11.38-63.15-28.22
				c0,0-1.24,4.92,12.46,17.02l13.61,10.36l25.85,10.59l32.34,1.98l38.7-12.99l26.69-27.26l11.58-24.15l3.2-31.59l-5.27-23.35
				l-7.34-14.31l0.56-3.01l18.64-24.86L2282.35,967.42z"/>
			<path fill="url(#New_Pattern_Swatch_2)" d="M2004.27,749.72c1.05,7.87,1.38,17.28,8.12,21.46c3.7,2.29,8.42,2.23,12.66,1.23
				c4.24-0.99,8.24-2.82,12.47-3.84c7.6-1.85,15.83-1.01,22.89,2.35c6,2.85,12.01,7.58,18.5,6.15c6.07-1.34,9.62-7.55,12.03-13.28
				c6.54-15.5,12.32-27.26,13.2-44.06c-5.51,5.4-12.43,8.87-17.94,14.26c-5.41,5.3-11.86,6.94-18.64,10.31
				c-12.51,6.21-25.31,1.86-38.13-3.67c-12.81-5.53-22.15-15.24-33.73-22.27c1.16,4.45,3.07,12.24,4.81,16.74
				C2002.34,739.8,2003.61,744.72,2004.27,749.72z"/>
			<path fill="url(#New_Pattern_Swatch_2)" d="M2001.08,823.7c-17.15-0.41-34.29-0.82-51.44-1.23c4.5-0.33,8.54-0.69,12.09-3.04
				c3.55-2.35,6.42-5.58,9.11-8.88c4.11-5.04,7.92-10.32,11.39-15.82c1.9-3,5.66-12.25,9.13-5.46c2.18,4.26,0.98,12.65,2.32,17.62
				C1994.29,809.13,1998.46,823.64,2001.08,823.7z"/>
			<path fill="url(#New_Pattern_Swatch_2)" d="M2094.7,823.7c17.15-0.41,34.29-0.82,51.44-1.23c-4.5-0.33-8.54-0.69-12.09-3.04
				c-3.55-2.35-6.42-5.58-9.11-8.88c-4.11-5.04-7.92-10.32-11.39-15.82c-1.9-3-5.66-12.25-9.13-5.46
				c-2.18,4.26-0.98,12.65-2.32,17.62C2101.48,809.13,2097.31,823.64,2094.7,823.7z"/>
			<path fill="url(#New_Pattern_Swatch_2)" d="M1773.27,1062.36c1.23,5.05,2.89,10.55,7.26,13.37c8.34,5.39,19.13-2.98,23.27-12.01
				c4.14-9.02,5.93-19.9,13.79-25.96c4.77,15.38-3.09,31.94-13.42,44.28s-23.35,22.51-31.89,36.16
				c-9.22,14.72-12.52,32.45-12.99,49.81c-0.39,14.27,1.23,29.25,9.15,41.13s23.6,19.5,36.93,14.41
				c-13.88,9.87-33.76,7.9-48.14-1.24s-24.02-24.15-31.05-39.67c-14.87-32.81-18.93-70-13.24-105.45
				c5.12-31.88,19.86-76.51,46.84-96.71c6.56,7.54,4.22,28.78,5.56,39.18C1767.19,1034.03,1769.84,1048.29,1773.27,1062.36z"/>
			<path fill="url(#New_Pattern_Swatch_2)" d="M1668.56,1359.54c-1.75,36.48,1.37,73.19,9.26,108.86
				c1.58,7.17,3.42,14.45,7.41,20.61c3.99,6.16,10.54,11.11,17.88,11.35c13.15,0.43,21.85-13.06,27.78-24.8
				c10.03-19.86,20.07-39.72,30.1-59.58c2.08-4.11,4.24-8.33,7.72-11.34s8.66-4.55,12.79-2.51c6.51,3.21,6.61,12.33,5.51,19.5
				c-10.53,68.84-43.56,135.35-36.58,204.64c0.47,4.69-1.06,11.58-5.68,10.62c-3.05-0.64-3.96-4.42-4.85-7.41
				c-3.86-12.96-18.22-20.58-31.75-20.57c-13.52,0.01-26.27,6.07-37.98,12.84c-7.5,4.33-16.97,9.04-24.22,4.28
				c6.85-4.78,13.83-9.69,18.72-16.46c4.89-6.77,7.37-15.88,4.24-23.62c-2.71-6.71-8.98-11.19-13.66-16.71
				c-7.71-9.11-11.09-21.23-11.82-33.15c-0.73-11.91,0.95-23.82,2.26-35.68c3.36-30.41,4.28-61.09,2.73-91.65
				c-0.53-10.43-1.33-21,0.83-31.21c2.16-10.21,7.8-20.24,17.08-25.02"/>
			<path fill="url(#New_Pattern_Swatch_2)" d="M2324.01,1062.36c-1.23,5.05-2.89,10.55-7.26,13.37
				c-8.34,5.39-19.13-2.98-23.27-12.01s-5.93-19.9-13.79-25.96c-4.77,15.38,3.09,31.94,13.42,44.28s23.35,22.51,31.89,36.16
				c9.22,14.72,12.52,32.45,12.99,49.81c0.39,14.27-1.23,29.25-9.15,41.13c-7.92,11.88-23.6,19.5-36.93,14.41
				c13.88,9.87,33.76,7.9,48.14-1.24c14.37-9.14,24.02-24.15,31.05-39.67c14.87-32.81,18.93-70,13.24-105.45
				c-5.12-31.88-19.86-76.51-46.84-96.71c-6.56,7.54-4.22,28.78-5.56,39.18C2330.09,1034.03,2327.44,1048.29,2324.01,1062.36z"/>
			<path fill="url(#New_Pattern_Swatch_2)" d="M2428.72,1359.54c1.75,36.48-1.37,73.19-9.26,108.86
				c-1.58,7.17-3.42,14.45-7.41,20.61c-3.99,6.16-10.54,11.11-17.88,11.35c-13.15,0.43-21.85-13.06-27.78-24.8
				c-10.03-19.86-20.07-39.72-30.1-59.58c-2.08-4.11-4.24-8.33-7.72-11.34s-8.66-4.55-12.79-2.51c-6.51,3.21-6.61,12.33-5.51,19.5
				c10.53,68.84,43.56,135.35,36.58,204.64c-0.47,4.69,1.06,11.58,5.68,10.62c3.05-0.64,3.96-4.42,4.85-7.41
				c3.86-12.96,18.22-20.58,31.75-20.57c13.52,0.01,26.27,6.07,37.98,12.84c7.5,4.33,16.97,9.04,24.22,4.28
				c-6.85-4.78-13.83-9.69-18.72-16.46c-4.89-6.77-7.37-15.88-4.24-23.62c2.71-6.71,8.98-11.19,13.66-16.71
				c7.71-9.11,11.09-21.23,11.82-33.15c0.73-11.91-0.95-23.82-2.26-35.68c-3.36-30.41-4.28-61.09-2.73-91.65
				c0.53-10.43,1.33-21-0.83-31.21c-2.16-10.21-7.8-20.24-17.08-25.02"/>
			<path fill="url(#New_Pattern_Swatch_2)" d="M1933.22,1992.34c-5.75-34.56,3.92-69.61,13.49-103.31
				c20.15-70.93,46.89-164.81,67.05-235.73c2.9,8.92,13.56,18.08,19.96,24.48c6.63,6.63,15.88,12.22,23.46,17.75
				c12.43,9.06,10.62,27.77,7.83,42.9c-14.64,79.27-20.4,160.17-17.27,240.72c0.8,20.49,2.17,40.96,4.12,61.37
				c1.45,15.16,9.21,38.53,3.25,53.04c-13.93,33.9-48.91,6.64-65.1-8.21C1962.79,2060.39,1939.41,2029.6,1933.22,1992.34z"/>
			<path fill="url(#New_Pattern_Swatch_2)" d="M1983.49,2539.26c4.24,7.88,9.46,16.17,17.9,19.15
				c17.24,6.07,32.32-13.12,39.51-29.92c37.35-87.25,38.17-190.99,0.72-278.41c-19.88-46.41-53.97-39.32-73.53,4.81
				c-18.51,41.75-24.83,91.27-23.44,136.55C1946.22,2442.8,1959.13,2493.94,1983.49,2539.26z"/>
			<path fill="url(#New_Pattern_Swatch_2)" d="M2162.49,1997.99c5.75-34.56-3.92-69.61-13.49-103.31
				c-20.15-70.93-46.89-164.81-67.05-235.73c-2.9,8.92-13.56,18.08-19.96,24.48c-6.63,6.63-15.88,12.22-23.46,17.75
				c-12.43,9.06-10.62,27.77-7.83,42.9c14.64,79.27,20.4,160.17,17.27,240.72c-0.8,20.49-2.17,40.96-4.12,61.37
				c-1.45,15.16-9.21,38.53-3.25,53.04c13.93,33.9,48.91,6.64,65.1-8.21C2132.91,2066.04,2156.29,2035.25,2162.49,1997.99z"/>
			<path fill="url(#New_Pattern_Swatch_2)" d="M2111.65,2539.26c-4.24,7.88-9.46,16.17-17.9,19.15
				c-17.24,6.07-32.32-13.12-39.51-29.92c-37.35-87.25-38.17-190.99-0.72-278.41c19.88-46.41,53.97-39.32,73.53,4.81
				c18.51,41.75,24.83,91.27,23.44,136.55C2148.92,2442.8,2136,2493.94,2111.65,2539.26z"/>
		</g>
		<path clip-path="url(#SVGID_4_)" fill="#D19686" d="M1885.42,1111.51l14.5-1.69l9.13-5.84l2.73-10.92l-1.88-9.32
			c0,0-9.32-16.76-28.34-8.19l-6.97,4.52l-4.99,9.04l0.09,12.71l11.3,9.7H1885.42z"/>
		<path clip-path="url(#SVGID_4_)" fill="#D19686" d="M2207.82,1111.51l-14.5-1.69l-9.13-5.84l-2.73-10.92l1.88-9.32
			c0,0,9.32-16.76,28.34-8.19l6.97,4.52l4.99,9.04l-0.09,12.71l-11.3,9.7H2207.82z"/>
		<g clip-path="url(#SVGID_4_)">
			<g>
				<path fill="url(#New_Pattern_Swatch_3)" d="M1848.84,800.03c0,0,0.38-0.13,1.1-0.37c0.35-0.13,0.8-0.25,1.34-0.38
					c0.27-0.07,0.56-0.14,0.88-0.21c0.31-0.05,0.65-0.1,1-0.16c1.42-0.23,3.18-0.37,5.19-0.25c2.02,0.1,4.3,0.42,6.71,1.08
					c2.41,0.64,4.97,1.57,7.54,2.82c1.3,0.61,2.56,1.31,3.89,2.09c1.21,0.71,2.55,1.57,3.8,2.43c2.54,1.72,5.03,3.63,7.51,5.57
					c2.48,1.93,4.93,3.92,7.43,5.76c1.23,0.93,2.52,1.86,3.73,2.67c0.66,0.44,1.33,0.87,1.99,1.31c0.64,0.4,1.28,0.79,1.91,1.18
					c2.59,1.54,5.23,3,7.84,4.3c2.62,1.29,5.2,2.49,7.68,3.57c2.49,1.07,4.84,2.09,7.05,2.99c2.21,0.9,4.24,1.72,6.04,2.45
					c1.81,0.71,3.38,1.38,4.68,1.91c2.59,1.08,4.06,1.75,4.06,1.75s-0.4-0.06-1.15-0.16c-0.74-0.12-1.84-0.26-3.22-0.51
					c-1.38-0.24-3.07-0.52-4.98-0.92c-1.92-0.39-4.09-0.83-6.42-1.44c-4.7-1.13-10.14-2.75-15.8-5.09
					c-2.83-1.18-5.69-2.54-8.54-4.14c-0.71-0.41-1.43-0.83-2.15-1.24c-0.67-0.42-1.34-0.85-2.01-1.27
					c-1.44-0.95-2.75-1.86-4.07-2.85c-2.62-1.97-5.1-4.02-7.5-6.04c-2.4-2.01-4.72-3.99-7.01-5.79c-1.15-0.92-2.24-1.71-3.43-2.59
					c-1.09-0.78-2.24-1.55-3.35-2.24c-2.24-1.38-4.44-2.57-6.55-3.48c-2.12-0.89-4.13-1.57-5.96-2.01
					c-1.83-0.43-3.47-0.69-4.84-0.76c-0.69-0.06-1.3-0.07-1.83-0.07c-0.54-0.02-1-0.01-1.38,0.02
					C1849.24,800.01,1848.84,800.03,1848.84,800.03z"/>
			</g>
			<g>
				<path fill="url(#New_Pattern_Swatch_3)" d="M2005.69,839.56c0,0,0.15-0.08,0.44-0.24c0.29-0.14,0.71-0.38,1.25-0.61
					c0.53-0.26,1.21-0.53,2.03-0.77c0.41-0.13,0.85-0.25,1.32-0.39c0.47-0.12,0.95-0.19,1.47-0.3c0.51-0.09,1.06-0.2,1.62-0.26
					c0.56-0.05,1.14-0.09,1.75-0.13c0.61-0.06,1.22-0.04,1.85-0.02c0.63,0.01,1.28,0.04,1.94,0.09c1.31,0.16,2.67,0.31,4.01,0.67
					c1.37,0.27,2.69,0.78,4.03,1.22c1.29,0.58,2.6,1.1,3.79,1.82c1.23,0.64,2.34,1.46,3.41,2.22c0.52,0.41,1.02,0.82,1.49,1.24
					c0.48,0.41,0.95,0.82,1.35,1.27c0.41,0.44,0.81,0.87,1.2,1.28c0.37,0.43,0.7,0.87,1.01,1.29c0.31,0.43,0.62,0.81,0.88,1.21
					c0.24,0.41,0.47,0.8,0.69,1.17c0.43,0.72,0.76,1.39,0.98,1.96c0.47,1.12,0.68,1.78,0.68,1.78s-0.61-0.38-1.55-1.07
					c-0.45-0.36-1.06-0.75-1.72-1.19c-0.32-0.23-0.67-0.47-1.03-0.72c-0.37-0.24-0.76-0.48-1.17-0.74c-0.78-0.54-1.68-1.06-2.6-1.61
					c-0.45-0.29-0.93-0.56-1.43-0.82c-0.5-0.25-0.98-0.56-1.49-0.83c-1.05-0.5-2.08-1.07-3.19-1.55c-1.08-0.53-2.23-0.96-3.35-1.44
					c-1.15-0.41-2.28-0.87-3.44-1.21c-1.14-0.4-2.29-0.68-3.4-1.02c-0.56-0.14-1.12-0.27-1.66-0.4c-0.54-0.15-1.08-0.27-1.61-0.37
					c-1.05-0.22-2.06-0.45-3-0.58c-0.48-0.09-0.93-0.17-1.36-0.25c-0.43-0.06-0.84-0.11-1.23-0.17c-0.78-0.12-1.49-0.25-2.09-0.28
					c-0.59-0.05-1.06-0.14-1.38-0.17C2005.86,839.59,2005.69,839.56,2005.69,839.56z"/>
			</g>
			<g>
				<path fill="url(#New_Pattern_Swatch_3)" d="M2058.1,853.13c0,0,0.08-0.16,0.23-0.46c0.16-0.29,0.37-0.74,0.69-1.27
					c0.16-0.27,0.31-0.57,0.52-0.88c0.21-0.32,0.46-0.64,0.73-1c0.26-0.36,0.56-0.73,0.88-1.13c0.32-0.38,0.69-0.74,1.06-1.14
					c0.38-0.39,0.77-0.8,1.21-1.19c0.44-0.38,0.92-0.76,1.4-1.16c0.48-0.42,1.01-0.77,1.56-1.14c0.54-0.37,1.11-0.74,1.7-1.09
					c1.2-0.65,2.45-1.34,3.81-1.84c1.32-0.59,2.75-0.95,4.15-1.38c1.44-0.28,2.87-0.63,4.32-0.72c1.43-0.2,2.86-0.16,4.23-0.15
					c0.68,0.04,1.36,0.1,2.01,0.17c0.65,0.07,1.29,0.13,1.91,0.28c0.61,0.13,1.21,0.26,1.78,0.38c0.57,0.14,1.11,0.33,1.63,0.49
					c0.51,0.18,1.01,0.33,1.47,0.51c0.45,0.21,0.88,0.4,1.28,0.58c0.4,0.19,0.77,0.36,1.1,0.54c0.33,0.18,0.63,0.38,0.89,0.55
					c1.07,0.67,1.63,1.11,1.63,1.11s-0.74,0.02-1.96-0.04c-0.6-0.05-1.34-0.04-2.17-0.04c-0.41-0.01-0.85-0.02-1.31-0.03
					c-0.46,0.01-0.94,0.03-1.44,0.04c-0.99-0.01-2.06,0.07-3.18,0.14c-0.56,0.02-1.13,0.07-1.71,0.14
					c-0.58,0.08-1.17,0.09-1.77,0.17c-1.19,0.19-2.42,0.32-3.65,0.57c-1.24,0.19-2.47,0.51-3.71,0.78
					c-1.22,0.35-2.46,0.63-3.65,1.04c-1.21,0.34-2.35,0.81-3.5,1.19c-0.56,0.21-1.1,0.47-1.64,0.67c-0.55,0.2-1.07,0.43-1.58,0.67
					c-1.02,0.46-2,0.89-2.87,1.36c-0.45,0.22-0.88,0.43-1.29,0.63c-0.4,0.22-0.77,0.42-1.13,0.62c-0.72,0.38-1.4,0.72-1.91,1.06
					c-0.52,0.33-0.97,0.55-1.26,0.72C2058.26,853.05,2058.1,853.13,2058.1,853.13z"/>
			</g>
			<g>
				<path fill="url(#New_Pattern_Swatch_3)" d="M2152.6,836.58c0,0,0.45-0.1,1.29-0.27c0.84-0.16,2.07-0.44,3.65-0.72
					c1.57-0.29,3.48-0.66,5.67-1.01c2.19-0.37,4.67-0.79,7.37-1.18c2.7-0.41,5.63-0.85,8.73-1.27c3.1-0.42,6.37-0.84,9.76-1.23
					c3.38-0.4,6.91-0.79,10.43-1.16c3.5-0.4,6.96-0.84,10.17-1.78c1.6-0.46,3.14-1.03,4.58-1.75l0.07-0.03l0.03-0.02
					c0.08-0.04-0.07,0.04-0.04,0.02l0.15-0.08l0.3-0.16l0.59-0.33c0.43-0.22,0.7-0.42,1.04-0.62c0.32-0.19,0.65-0.4,0.98-0.65
					c0.33-0.24,0.67-0.45,0.99-0.72c2.6-1.99,4.95-4.41,7.17-6.9c2.22-2.49,4.35-5.03,6.53-7.37l0.41-0.44
					c0.18-0.2,0.28-0.29,0.43-0.44c0.27-0.27,0.54-0.55,0.81-0.82c0.58-0.55,1.14-1.13,1.72-1.62c1.14-1.02,2.31-1.94,3.46-2.77
					c2.29-1.69,4.65-2.91,6.82-3.73c2.17-0.83,4.18-1.2,5.83-1.28c1.65-0.08,2.93,0.09,3.78,0.25c0.84,0.2,1.29,0.3,1.29,0.3
					s-0.46,0.01-1.31,0.02c-0.85,0.02-2.08,0.18-3.58,0.53c-1.5,0.38-3.24,1.09-5.09,2.13c-1.84,1.06-3.77,2.5-5.68,4.28
					c-0.95,0.9-1.91,1.87-2.84,2.94c-0.48,0.53-0.91,1.06-1.39,1.61c-0.24,0.3-0.48,0.59-0.72,0.89c-0.11,0.14-0.27,0.33-0.34,0.43
					l-0.35,0.45c-1.88,2.42-3.77,5.1-5.94,7.83c-1.07,1.37-2.23,2.75-3.49,4.09c-1.26,1.35-2.61,2.68-4.13,3.89
					c-0.36,0.32-0.77,0.59-1.16,0.89c-0.38,0.29-0.8,0.58-1.25,0.87c-0.43,0.28-0.9,0.6-1.27,0.8l-0.59,0.33l-0.3,0.17l-0.15,0.08
					l-0.25,0.13c-1.8,0.92-3.67,1.63-5.56,2.18c-3.79,1.07-7.59,1.51-11.21,1.8c-3.61,0.28-7.1,0.49-10.51,0.68
					c-3.41,0.2-6.7,0.35-9.83,0.47c-3.13,0.13-6.09,0.2-8.82,0.26c-2.73,0.08-5.24,0.1-7.46,0.11c-2.22,0.03-4.16,0-5.76-0.02
					c-1.6,0-2.86-0.06-3.71-0.08C2153.06,836.6,2152.6,836.58,2152.6,836.58z"/>
			</g>
			<g>
				<path fill="url(#New_Pattern_Swatch_3)" d="M1812.4,969.6l8.54,10.37l8.46,10.43l8.41,10.47l8.35,10.51l0.66,0.83l-0.55,1.02
					c-2.65,4.91-4.82,10.04-6.6,15.3c-1.66,5.31-2.87,10.73-3.63,16.23c-0.63,5.51-0.89,11.05-0.68,16.58
					c0.32,5.53,1.09,11.01,2.3,16.39c1.34,5.35,3.04,10.6,5.23,15.65l1.8,3.71l0.45,0.93l0.11,0.23l0.03,0.06
					c0.02,0.04-0.06-0.12-0.01-0.02l0.07,0.12l0.26,0.46l1.06,1.85c1.37,2.56,2.92,4.69,4.4,6.97c3.25,4.44,6.84,8.62,10.76,12.51
					c4,3.8,8.31,7.26,12.87,10.37c4.63,3.01,9.49,5.63,14.53,7.91c5.08,2.15,10.34,3.89,15.72,5.16c2.71,0.5,5.41,1.12,8.16,1.37
					l2.06,0.26l0.51,0.07l0.13,0.02c0.09,0.01-0.05,0-0.01,0l0.07,0l0.27,0.02l1.06,0.07l4.26,0.26c5.42,0.09,11.02-0.3,16.5-1.15
					c5.47-0.98,10.89-2.34,16.17-4.17c5.24-1.94,10.33-4.29,15.24-7.01c4.85-2.83,9.46-6.07,13.83-9.64
					c4.27-3.69,8.28-7.7,11.92-12.09c-3.25,4.66-6.93,9.06-11.02,13.08c-4.15,3.95-8.68,7.51-13.48,10.69
					c-4.86,3.1-9.99,5.77-15.33,8c-5.38,2.12-10.93,3.86-16.61,5.05c-5.72,1.08-11.48,1.69-17.42,1.77l-4.26-0.12l-1.07-0.03
					l-0.27-0.01l-0.21-0.01l-0.14-0.01l-0.54-0.05l-2.18-0.22c-2.92-0.22-5.78-0.81-8.67-1.29c-5.71-1.23-11.31-2.96-16.74-5.14
					c-5.39-2.27-10.56-5.05-15.48-8.2c-4.86-3.26-9.45-6.9-13.73-10.91c-4.2-4.09-8.04-8.53-11.45-13.3c-1.61-2.49-3.36-5-4.65-7.47
					l-1.05-1.86l-0.26-0.46l-0.07-0.12l-0.08-0.14l-0.03-0.06l-0.12-0.25l-0.47-0.99l-1.89-3.97c-2.28-5.4-4.13-10.98-5.4-16.7
					c-1.18-5.73-1.87-11.55-2.09-17.38c-0.1-5.84,0.24-11.67,1.13-17.43c0.98-5.74,2.44-11.39,4.35-16.88
					c2.02-5.46,4.56-10.7,7.53-15.68l0.11,1.85l-7.86-10.89l-7.8-10.93l-7.75-10.97L1812.4,969.6z"/>
			</g>
			<g>
				<path fill="url(#New_Pattern_Swatch_3)" d="M1773.03,1228.06c0,0,0.13-0.02,0.39-0.05c0.25-0.02,0.62-0.07,1.08-0.08
					c0.46,0,1.02-0.07,1.62-0.11c0.6-0.03,1.26-0.07,1.99-0.13c0.72-0.03,1.5-0.1,2.31-0.15c0.81-0.03,1.65-0.15,2.51-0.19
					c0.86-0.09,1.74-0.17,2.64-0.26c0.9-0.08,1.8-0.21,2.7-0.31c0.9-0.14,1.8-0.24,2.69-0.39c0.89-0.14,1.77-0.29,2.62-0.42
					c0.84-0.18,1.69-0.29,2.48-0.46c0.8-0.15,1.56-0.28,2.27-0.44c1.47-0.29,2.7-0.53,3.56-0.69c0.89-0.18,1.45-0.24,1.45-0.24
					s-0.28,0.47-0.86,1.2c-0.29,0.37-0.66,0.81-1.12,1.26c-0.45,0.47-1,0.96-1.63,1.44c-0.62,0.51-1.34,0.98-2.13,1.45
					c-0.78,0.48-1.66,0.88-2.57,1.29c-0.93,0.36-1.89,0.75-2.92,0.98c-1.01,0.31-2.07,0.45-3.12,0.64
					c-1.06,0.09-2.12,0.22-3.18,0.18c-1.05,0.02-2.08-0.1-3.07-0.21c-0.99-0.16-1.94-0.33-2.81-0.59c-0.88-0.25-1.7-0.53-2.43-0.86
					c-0.73-0.3-1.39-0.64-1.96-0.98c-0.57-0.32-1.03-0.64-1.39-0.92c-0.37-0.27-0.65-0.52-0.84-0.68
					C1773.13,1228.15,1773.03,1228.06,1773.03,1228.06z"/>
			</g>
			<g>
				<path fill="url(#New_Pattern_Swatch_3)" d="M2285.2,1216.47c0,0,0.1,0.07,0.29,0.19c0.18,0.13,0.47,0.32,0.78,0.58
					c0.31,0.27,0.73,0.55,1.16,0.85c0.42,0.31,0.88,0.65,1.42,1.01c0.5,0.38,1.07,0.74,1.65,1.13c0.56,0.41,1.21,0.76,1.81,1.17
					c0.65,0.36,1.27,0.78,1.95,1.14c0.65,0.39,1.35,0.74,2.02,1.11c0.69,0.33,1.37,0.7,2.07,1.01c0.69,0.34,1.38,0.62,2.05,0.94
					c0.69,0.25,1.34,0.58,2,0.81c0.65,0.25,1.27,0.51,1.87,0.7c0.59,0.24,1.15,0.42,1.66,0.59c0.51,0.18,0.97,0.36,1.35,0.46
					c0.77,0.24,1.24,0.44,1.24,0.44s-0.39,0.29-1.15,0.68c-0.38,0.21-0.85,0.42-1.4,0.6c-0.28,0.1-0.58,0.19-0.9,0.29
					c-0.32,0.09-0.66,0.14-1.02,0.21c-0.36,0.06-0.73,0.13-1.12,0.17c-0.39,0.03-0.79,0.04-1.21,0.06
					c-0.84,0.04-1.71-0.06-2.62-0.17c-0.89-0.17-1.83-0.33-2.73-0.67c-0.93-0.26-1.8-0.71-2.69-1.11c-0.84-0.5-1.7-0.96-2.45-1.57
					c-0.79-0.55-1.46-1.22-2.11-1.86c-0.61-0.68-1.19-1.34-1.64-2.05c-0.46-0.7-0.86-1.37-1.15-2.04c-0.15-0.34-0.3-0.64-0.41-0.95
					c-0.11-0.33-0.21-0.63-0.29-0.92c-0.18-0.57-0.27-1.07-0.31-1.48c-0.06-0.4-0.07-0.75-0.09-0.97
					C2285.2,1216.59,2285.2,1216.47,2285.2,1216.47z"/>
			</g>
			<g>
				<path fill="url(#New_Pattern_Swatch_3)" d="M2062.43,1413.22c0,0-0.02-0.16-0.05-0.46c0-0.3-0.11-0.74-0.21-1.21
					c-0.27-1-0.82-2.3-1.83-3.46c-0.98-1.16-2.42-2.15-3.88-2.39l-0.27-0.04l-0.13-0.02l-0.01,0c0.29,0.06,0.07,0.02,0.14,0.03
					l-0.03,0l-0.05-0.01l-0.11-0.01c-0.26-0.02-0.67-0.09-0.73-0.03c-0.13,0.02-0.24,0.02-0.45,0.07c-0.19,0.02-0.37,0.05-0.56,0.11
					c-0.75,0.19-1.52,0.52-2.19,1c-0.69,0.46-1.26,1.06-1.71,1.69c-0.12,0.16-0.21,0.32-0.3,0.49c-0.11,0.16-0.18,0.33-0.25,0.5
					c-0.09,0.17-0.12,0.34-0.19,0.51l-0.02,0.06l-0.01,0.03l-0.01,0.02c0.01-0.06-0.02,0.16,0.01-0.14l0,0.01l-0.04,0.21l-0.08,0.42
					c-0.12,0.58-0.12,1.43,0.04,2.19c0.16,0.77,0.45,1.52,0.81,2.19c0.71,1.35,1.74,2.34,2.57,2.95c0.43,0.26,0.79,0.52,1.06,0.63
					c0.27,0.14,0.41,0.21,0.41,0.21s-0.15,0.05-0.45,0.11c-0.3,0.07-0.75,0.13-1.35,0.12c-0.58-0.04-1.33-0.11-2.14-0.41
					c-0.82-0.27-1.69-0.75-2.54-1.43c-0.85-0.69-1.67-1.6-2.3-2.76c-0.63-1.17-1.09-2.52-1.1-4.22l-0.01-0.43l0-0.22l0.06-0.44
					c0.06-0.39,0.1-0.8,0.22-1.18c0.19-0.78,0.49-1.55,0.9-2.24c0.78-1.42,1.91-2.61,3.21-3.54c1.33-0.89,2.85-1.52,4.45-1.73
					c0.4-0.07,0.8-0.1,1.21-0.1c0.38-0.02,0.86,0.02,1.31,0.07c0.53,0.05,0.69,0.13,1,0.19l0.36,0.08l0.28,0.1l0.55,0.2
					c1.44,0.58,2.6,1.51,3.45,2.51c0.85,1.01,1.41,2.1,1.75,3.13c0.34,1.04,0.47,2.02,0.43,2.88c-0.01,0.86-0.21,1.58-0.38,2.14
					c-0.2,0.58-0.43,0.98-0.59,1.22C2062.52,1413.09,2062.43,1413.22,2062.43,1413.22z"/>
			</g>
			<g>
				<path fill="url(#New_Pattern_Swatch_3)" d="M1896.52,1073.64c0,0,0.12,0.03,0.36,0.09c0.24,0.07,0.6,0.14,1.05,0.29
					c0.91,0.27,2.23,0.76,3.8,1.61c1.57,0.84,3.37,2.09,5.13,3.87c1.76,1.79,3.43,4.13,4.58,7.08c1.12,2.93,1.72,6.43,1.24,10.14
					c-0.47,3.71-2.13,7.52-4.76,10.73c-1.33,1.61-2.9,3.06-4.64,4.3c-1.83,1.28-3.77,2.27-5.88,3c-4.19,1.48-8.91,1.8-13.41,0.72
					c-0.56-0.15-1.12-0.3-1.67-0.48l-0.82-0.3l-0.41-0.15l-0.1-0.04l-0.05-0.02l-0.14-0.06l-0.17-0.08l-0.69-0.31
					c-0.23-0.1-0.45-0.2-0.74-0.36c-0.53-0.29-1.11-0.58-1.58-0.9c-1.95-1.22-3.68-2.74-5.13-4.45c-2.93-3.41-4.71-7.63-5.13-11.85
					c-0.07-0.52-0.1-1.05-0.1-1.57l-0.01-0.78v-0.18l0-0.04l0.01-0.09l0.02-0.18l0.04-0.35c0.11-0.94,0.14-1.81,0.44-2.89
					c0.12-0.51,0.25-1.01,0.37-1.51c0.15-0.48,0.35-0.92,0.53-1.38c0.19-0.45,0.34-0.9,0.56-1.33c0.23-0.41,0.46-0.82,0.69-1.23
					c0.42-0.84,1.01-1.55,1.54-2.27c0.5-0.74,1.17-1.33,1.74-1.97c1.2-1.22,2.48-2.26,3.79-3.12c2.62-1.72,5.26-2.81,7.65-3.52
					c1.22-0.29,2.34-0.59,3.42-0.7c0.53-0.07,1.04-0.18,1.53-0.2c0.49-0.02,0.96-0.04,1.41-0.06c0.89-0.08,1.68,0.05,2.37,0.06
					c0.69,0.01,1.27,0.12,1.74,0.21C1896.02,1073.55,1896.52,1073.64,1896.52,1073.64z M1896.52,1073.64c0,0-0.5-0.08-1.44-0.23
					c-0.47-0.08-1.05-0.19-1.74-0.19c-0.69-0.01-1.48-0.13-2.37-0.01c-0.44,0.04-0.91,0.07-1.39,0.11
					c-0.49,0.03-0.99,0.17-1.51,0.26c-1.06,0.15-2.15,0.54-3.32,0.9c-2.3,0.86-4.78,2.16-7.04,4.1c-1.14,0.96-2.21,2.07-3.17,3.32
					c-0.44,0.66-0.97,1.26-1.31,1.99c-0.38,0.71-0.81,1.4-1.07,2.18c-0.15,0.38-0.3,0.76-0.45,1.14c-0.13,0.39-0.2,0.8-0.31,1.2
					c-0.09,0.4-0.22,0.8-0.28,1.2c-0.04,0.39-0.08,0.78-0.11,1.18c-0.14,0.71-0.05,1.71-0.02,2.64l0.01,0.35l0.01,0.18l0,0.09
					l0,0.04c0-0.25,0-0.05,0.01-0.09l0.1,0.63c0.05,0.42,0.13,0.84,0.23,1.25c0.75,3.32,2.57,6.45,5.02,8.96
					c1.23,1.25,2.62,2.35,4.13,3.22c0.38,0.25,0.72,0.37,1.08,0.58c0.15,0.09,0.4,0.2,0.63,0.3l0.7,0.3l0.17,0.08
					c0.04,0.02-0.16-0.07-0.06-0.03l0.04,0.01l0.08,0.03l0.31,0.11l0.62,0.22c0.42,0.13,0.85,0.23,1.26,0.35
					c3.41,0.85,7.09,0.71,10.53-0.2c1.7-0.46,3.4-1.14,4.88-1.96c1.57-0.85,3-1.89,4.25-3.09c2.53-2.39,4.41-5.34,5.27-8.5
					c0.44-1.57,0.64-3.18,0.64-4.76c-0.02-1.57-0.23-3.1-0.6-4.53c-0.72-2.86-2.15-5.33-3.75-7.17c-1.59-1.87-3.34-3.17-4.87-4.07
					c-1.53-0.91-2.85-1.38-3.76-1.68c-0.45-0.16-0.81-0.24-1.04-0.3C1896.64,1073.67,1896.52,1073.64,1896.52,1073.64z"/>
			</g>
			<g>
				<path fill="url(#New_Pattern_Swatch_3)" d="M1887.53,1087.12c0,0-0.13,0.03-0.38,0.08c-0.25,0.02-0.61,0.15-0.97,0.27
					c-0.79,0.31-1.76,0.87-2.54,1.78c-0.79,0.88-1.38,2.09-1.4,3.14l0,0.19l0,0.05l0,0.02l0,0.01c0,0.03,0.03-0.26,0.02-0.13l0,0.02
					l0,0.18c0,0.23-0.01,0.53,0.03,0.55l0.09,0.32c0.03,0.14,0.06,0.27,0.11,0.41c0.19,0.54,0.46,1.11,0.85,1.6
					c0.36,0.51,0.84,0.95,1.32,1.32c0.25,0.18,0.5,0.33,0.76,0.47c0.13,0.08,0.26,0.11,0.39,0.18l0.05,0.02l0.01,0.01l0.01,0
					c0.11,0.02-0.14-0.03-0.11-0.02l0.04,0.01l0.17,0.05l0.34,0.1c0.43,0.16,1.15,0.27,1.77,0.26c0.64,0.01,1.29-0.08,1.91-0.22
					c1.23-0.27,2.3-0.78,3.05-1.22c0.35-0.24,0.68-0.42,0.86-0.58c0.21-0.15,0.32-0.23,0.32-0.23s0,0.14-0.04,0.39
					c-0.03,0.25-0.09,0.63-0.25,1.1c-0.17,0.45-0.38,1.03-0.77,1.61c-0.37,0.6-0.9,1.21-1.58,1.79c-0.68,0.58-1.53,1.12-2.55,1.5
					c-1.04,0.37-2.13,0.62-3.54,0.53l-0.35-0.02l-0.18-0.01l-0.04,0l-0.18-0.03l-0.12-0.02c-0.32-0.07-0.66-0.12-0.97-0.22
					c-0.64-0.18-1.27-0.43-1.85-0.77c-1.18-0.64-2.19-1.57-3.01-2.64c-0.79-1.09-1.38-2.35-1.63-3.71
					c-0.07-0.34-0.13-0.67-0.14-1.02c-0.01-0.18-0.02-0.33-0.02-0.52l0.02-0.6c0.02-0.46,0.07-0.63,0.11-0.87l0.03-0.17l0-0.02
					l0.02-0.15l0-0.02l0.02-0.06l0.04-0.12l0.15-0.49c0.42-1.29,1.15-2.33,1.96-3.1c0.82-0.78,1.72-1.3,2.6-1.63
					c0.87-0.33,1.71-0.46,2.45-0.44c0.73-0.01,1.35,0.17,1.82,0.33c0.5,0.18,0.82,0.39,1.01,0.54
					C1887.42,1087.03,1887.53,1087.12,1887.53,1087.12z"/>
			</g>
			<g>
				<path fill="url(#New_Pattern_Swatch_3)" d="M2280.94,969.6l-7.68,11.02l-7.75,10.97l-7.8,10.93l-7.86,10.89l0.11-1.85
					c2.97,4.98,5.52,10.22,7.53,15.68c1.92,5.49,3.37,11.14,4.35,16.88c0.89,5.76,1.23,11.59,1.13,17.43
					c-0.22,5.83-0.92,11.64-2.09,17.38c-1.27,5.71-3.12,11.29-5.4,16.7l-1.89,3.97l-0.47,0.99l-0.12,0.25l-0.03,0.06l-0.08,0.14
					l-0.07,0.12l-0.26,0.46l-1.05,1.86c-1.29,2.47-3.04,4.98-4.65,7.47c-3.41,4.78-7.26,9.22-11.45,13.3
					c-4.27,4.01-8.86,7.65-13.73,10.91c-4.92,3.16-10.09,5.93-15.48,8.2c-5.43,2.18-11.03,3.9-16.74,5.14
					c-2.88,0.47-5.75,1.07-8.67,1.29l-2.18,0.22l-0.54,0.05l-0.14,0.01l-0.21,0.01l-0.27,0.01l-1.07,0.03l-4.26,0.12
					c-5.95-0.08-11.71-0.69-17.42-1.77c-5.69-1.19-11.24-2.92-16.61-5.05c-5.34-2.23-10.47-4.9-15.33-8
					c-4.8-3.18-9.33-6.74-13.48-10.69c-4.09-4.02-7.77-8.41-11.02-13.08c3.64,4.38,7.65,8.4,11.92,12.09
					c4.37,3.58,8.99,6.81,13.83,9.64c4.91,2.72,10,5.07,15.24,7.01c5.28,1.83,10.7,3.19,16.17,4.17c5.49,0.86,11.08,1.24,16.5,1.15
					l4.25-0.26l1.06-0.07l0.27-0.02l0.07,0c0.04,0-0.11,0.01-0.01,0l0.13-0.02l0.51-0.07l2.06-0.26c2.75-0.25,5.45-0.88,8.16-1.37
					c5.38-1.28,10.63-3.01,15.72-5.16c5.03-2.28,9.9-4.89,14.53-7.91c4.56-3.11,8.87-6.57,12.87-10.37
					c3.91-3.88,7.51-8.07,10.76-12.51c1.48-2.28,3.03-4.41,4.4-6.97l1.06-1.85l0.26-0.46l0.07-0.12c0.05-0.09-0.03,0.06-0.01,0.02
					l0.03-0.06l0.11-0.23l0.45-0.93l1.8-3.71c2.19-5.05,3.89-10.3,5.23-15.65c1.21-5.38,1.98-10.87,2.3-16.39
					c0.21-5.53-0.05-11.07-0.68-16.58c-0.76-5.49-1.97-10.92-3.63-16.23c-1.79-5.26-3.96-10.39-6.6-15.3l-0.55-1.02l0.66-0.83
					l8.35-10.51l8.41-10.47l8.46-10.43L2280.94,969.6z"/>
			</g>
			<g>
				<path fill="url(#New_Pattern_Swatch_3)" d="M2196.82,1073.64c0,0-0.12,0.03-0.36,0.1c-0.24,0.07-0.59,0.15-1.04,0.3
					c-0.9,0.29-2.23,0.77-3.75,1.68c-1.52,0.9-3.28,2.2-4.87,4.07c-1.6,1.84-3.03,4.31-3.75,7.17c-0.37,1.43-0.58,2.96-0.6,4.53
					c0,1.57,0.2,3.18,0.64,4.76c0.86,3.16,2.74,6.12,5.27,8.5c1.25,1.2,2.69,2.24,4.25,3.09c1.48,0.81,3.18,1.5,4.88,1.96
					c3.43,0.91,7.12,1.06,10.53,0.2c0.42-0.13,0.85-0.22,1.26-0.35l0.62-0.22l0.31-0.11l0.08-0.03l0.04-0.01
					c0.1-0.04-0.09,0.04-0.06,0.03l0.17-0.08l0.7-0.3c0.23-0.1,0.48-0.2,0.63-0.3c0.35-0.21,0.7-0.33,1.08-0.58
					c1.51-0.88,2.9-1.97,4.13-3.22c2.45-2.51,4.27-5.64,5.02-8.96c0.11-0.41,0.18-0.83,0.23-1.25l0.1-0.63c0,0.05,0-0.16,0.01,0.09
					l0-0.04l0-0.09l0.01-0.18l0.01-0.35c0.02-0.92,0.11-1.92-0.02-2.64c-0.04-0.39-0.08-0.79-0.11-1.18c-0.06-0.4-0.19-0.8-0.28-1.2
					c-0.11-0.4-0.18-0.81-0.31-1.2c-0.15-0.38-0.3-0.76-0.45-1.14c-0.26-0.78-0.69-1.47-1.07-2.18c-0.35-0.73-0.88-1.34-1.31-1.99
					c-0.96-1.25-2.04-2.36-3.17-3.32c-2.26-1.94-4.75-3.24-7.04-4.1c-1.17-0.36-2.26-0.75-3.32-0.9c-0.53-0.09-1.02-0.23-1.51-0.26
					c-0.49-0.04-0.95-0.08-1.39-0.11c-0.88-0.12-1.68,0-2.37,0.01c-0.69,0-1.27,0.11-1.74,0.19
					C2197.32,1073.56,2196.82,1073.64,2196.82,1073.64z M2196.82,1073.64c0,0,0.5-0.09,1.44-0.25c0.47-0.09,1.05-0.2,1.74-0.21
					c0.69-0.02,1.48-0.14,2.37-0.06c0.45,0.02,0.91,0.04,1.41,0.06c0.49,0.01,1,0.13,1.53,0.2c1.07,0.11,2.2,0.41,3.42,0.7
					c2.39,0.71,5.03,1.8,7.65,3.52c1.31,0.86,2.59,1.9,3.79,3.12c0.57,0.63,1.24,1.22,1.74,1.97c0.53,0.72,1.12,1.43,1.54,2.27
					c0.23,0.41,0.46,0.82,0.69,1.23c0.21,0.42,0.37,0.88,0.56,1.33c0.17,0.46,0.38,0.9,0.53,1.38c0.12,0.5,0.25,1.01,0.37,1.51
					c0.3,1.08,0.32,1.95,0.44,2.89l0.04,0.35l0.02,0.18l0.01,0.09l0,0.04l0,0.18l-0.01,0.78c0,0.53-0.03,1.05-0.1,1.57
					c-0.42,4.21-2.2,8.44-5.13,11.85c-1.45,1.71-3.18,3.23-5.13,4.45c-0.46,0.32-1.05,0.61-1.58,0.9c-0.29,0.16-0.51,0.25-0.74,0.36
					l-0.69,0.31l-0.17,0.08l-0.15,0.06l-0.05,0.02l-0.1,0.04l-0.41,0.15l-0.82,0.3c-0.55,0.18-1.11,0.33-1.67,0.48
					c-4.5,1.08-9.22,0.75-13.41-0.72c-2.11-0.73-4.05-1.72-5.88-3c-1.75-1.24-3.32-2.69-4.64-4.3c-2.64-3.21-4.29-7.02-4.76-10.73
					c-0.48-3.71,0.12-7.21,1.24-10.14c1.16-2.95,2.82-5.29,4.58-7.08c1.76-1.78,3.56-3.03,5.13-3.87c1.57-0.85,2.88-1.34,3.8-1.61
					c0.45-0.15,0.81-0.22,1.05-0.29C2196.7,1073.67,2196.82,1073.64,2196.82,1073.64z"/>
			</g>
			<g>
				<path fill="url(#New_Pattern_Swatch_3)" d="M2205.81,1087.12c0,0,0.11-0.08,0.31-0.24c0.19-0.15,0.52-0.36,1.01-0.54
					c0.47-0.15,1.09-0.33,1.82-0.33c0.73-0.02,1.58,0.11,2.45,0.44c0.87,0.33,1.78,0.85,2.6,1.63c0.81,0.78,1.55,1.82,1.96,3.1
					l0.15,0.49l0.04,0.12l0.02,0.06l0,0.02l0.02,0.15l0,0.02l0.03,0.17c0.04,0.24,0.09,0.41,0.11,0.87l0.02,0.6
					c0,0.19-0.01,0.35-0.02,0.52c-0.01,0.35-0.07,0.68-0.14,1.02c-0.25,1.35-0.84,2.62-1.63,3.71c-0.82,1.07-1.83,1.99-3.01,2.64
					c-0.58,0.34-1.2,0.59-1.85,0.77c-0.31,0.11-0.65,0.15-0.97,0.22l-0.12,0.02l-0.18,0.03l-0.04,0l-0.18,0.01l-0.35,0.02
					c-1.41,0.09-2.5-0.16-3.54-0.53c-1.01-0.38-1.86-0.92-2.55-1.5c-0.68-0.58-1.21-1.2-1.58-1.79c-0.39-0.58-0.61-1.16-0.77-1.61
					c-0.16-0.46-0.22-0.84-0.25-1.1c-0.03-0.25-0.04-0.39-0.04-0.39s0.11,0.08,0.32,0.23c0.18,0.16,0.51,0.34,0.86,0.58
					c0.75,0.44,1.82,0.95,3.05,1.22c0.61,0.14,1.26,0.22,1.91,0.22c0.62,0.01,1.34-0.11,1.77-0.26l0.34-0.1l0.17-0.05l0.04-0.01
					c0.03-0.01-0.22,0.04-0.11,0.02l0.01,0l0.01-0.01l0.05-0.02c0.13-0.07,0.27-0.1,0.39-0.18c0.26-0.14,0.51-0.29,0.76-0.47
					c0.48-0.37,0.95-0.8,1.32-1.32c0.39-0.49,0.66-1.06,0.85-1.6c0.05-0.14,0.09-0.27,0.11-0.41l0.09-0.32
					c0.05-0.02,0.03-0.32,0.03-0.55l0-0.18l0-0.02c-0.02-0.13,0.02,0.16,0.02,0.13l0-0.01l0-0.02l0-0.05l0-0.19
					c-0.02-1.05-0.61-2.26-1.4-3.14c-0.78-0.91-1.75-1.48-2.54-1.78c-0.37-0.12-0.72-0.25-0.97-0.27
					C2205.94,1087.14,2205.81,1087.12,2205.81,1087.12z"/>
			</g>
			<g>
				<path fill="url(#New_Pattern_Swatch_3)" d="M1708.36,1683.2c1.08,0.2,2.12,0.46,3.17,0.73c1.04,0.32,2.07,0.69,3.11,1.07
					c1,0.43,2,0.87,2.99,1.34c0.97,0.5,1.92,1.04,2.88,1.58c0.91,0.6,1.84,1.18,2.75,1.81c0.88,0.66,1.75,1.32,2.61,2
					c0.83,0.71,1.65,1.45,2.46,2.19c0.79,0.77,1.54,1.56,2.31,2.36c0.73,0.82,1.43,1.67,2.14,2.51c0.67,0.87,1.31,1.77,1.96,2.65
					c0.61,0.91,1.18,1.86,1.77,2.78l1.56,2.9c0.45,1,0.91,2,1.33,3.01c0.39,1.03,0.74,2.06,1.09,3.09c0.29,1.06,0.57,2.11,0.82,3.17
					c0.2,1.08,0.37,2.16,0.52,3.23l-0.58-0.34c0.7,0.03,1.41,0.07,2.12,0.14c-0.64,0.32-1.28,0.61-1.93,0.88l-0.29,0.12l-0.3-0.46
					c-0.58-0.9-1.15-1.8-1.69-2.7c-0.58-0.88-1.14-1.76-1.69-2.63c-0.58-0.86-1.16-1.71-1.71-2.57c-0.61-0.83-1.18-1.67-1.76-2.51
					l-1.8-2.45c-0.62-0.8-1.26-1.59-1.85-2.4c-0.64-0.78-1.3-1.55-1.91-2.34c-0.66-0.76-1.33-1.51-1.97-2.29
					c-0.69-0.74-1.38-1.47-2.04-2.23c-0.71-0.72-1.41-1.44-2.1-2.18c-0.73-0.69-1.45-1.41-2.16-2.14c-0.76-0.67-1.48-1.39-2.23-2.09
					c-0.76-0.68-1.53-1.35-2.29-2.06c-0.79-0.65-1.57-1.34-2.36-2.03c-0.8-0.65-1.6-1.31-2.4-2.02
					C1710.01,1684.61,1709.17,1683.93,1708.36,1683.2z"/>
			</g>
			<g>
				<path fill="url(#New_Pattern_Swatch_3)" d="M1667.46,1740.1c0,0,1.06,0.06,2.86,0.23c1.8,0.15,4.37,0.44,7.32,0.44
					c1.47,0,3.04-0.09,4.6-0.36c1.55-0.26,3.16-0.74,4.53-1.45c1.53-0.76,2.88-1.77,4.36-2.98c1.45-1.21,2.95-2.58,4.61-3.96
					l0.64-0.5l0.38-0.29l0.31-0.23l1.25-0.9c0.94-0.63,1.91-1.24,2.85-1.74c1.88-1.06,3.83-1.92,5.77-2.57
					c1.93-0.68,3.85-1.15,5.69-1.46c1.83-0.33,3.59-0.44,5.2-0.49c0.81-0.01,1.58,0.02,2.31,0.04c0.73,0.07,1.42,0.13,2.06,0.19
					c1.29,0.16,2.4,0.37,3.3,0.59c0.9,0.18,1.59,0.44,2.06,0.58c0.47,0.16,0.71,0.24,0.71,0.24s-0.26,0.03-0.75,0.08
					c-0.49,0.04-1.2,0.11-2.09,0.22c-0.89,0.08-1.97,0.28-3.18,0.45c-1.21,0.22-2.56,0.5-4.01,0.86c-0.72,0.2-1.47,0.36-2.23,0.61
					c-0.38,0.11-0.77,0.23-1.16,0.34c-0.39,0.13-0.78,0.27-1.18,0.41c-1.59,0.54-3.22,1.2-4.86,1.98c-0.82,0.38-1.63,0.81-2.46,1.23
					c-0.8,0.47-1.63,0.91-2.42,1.42c-0.82,0.49-1.54,1.03-2.3,1.53l-1.23,0.91l-0.31,0.23l-0.08,0.06l-0.02,0.01
					c-0.02,0.01,0.1-0.07,0.04-0.03l-0.04,0.03l-0.14,0.11l-0.56,0.46c-1.52,1.22-3.07,2.6-4.8,3.88c-0.86,0.65-1.77,1.26-2.73,1.82
					c-0.48,0.28-0.97,0.54-1.47,0.79l-0.82,0.37l-0.69,0.26c-2.17,0.83-4.26,1.08-6.22,1.1c-1.96,0.01-3.74-0.27-5.32-0.63
					c-1.59-0.36-2.97-0.85-4.18-1.3c-1.21-0.43-2.22-0.92-3.05-1.3c-0.83-0.38-1.47-0.73-1.9-0.95
					C1667.7,1740.22,1667.46,1740.1,1667.46,1740.1z"/>
			</g>
			<g>
				<path fill="url(#New_Pattern_Swatch_3)" d="M2396.1,1685.93c0,0,0.12,0.14,0.35,0.41c0.22,0.27,0.55,0.66,0.96,1.15
					c0.4,0.48,0.93,1.03,1.5,1.67c0.59,0.62,1.27,1.3,2.01,2.01c0.77,0.69,1.58,1.43,2.49,2.13c0.89,0.73,1.88,1.4,2.9,2.09
					c1.03,0.67,2.13,1.28,3.26,1.87c1.14,0.55,2.31,1.08,3.52,1.51l0.94,0.32c0.36,0.13,0.62,0.19,0.92,0.28
					c0.56,0.17,1.2,0.32,1.81,0.48c1.24,0.26,2.48,0.49,3.7,0.63c1.22,0.12,2.42,0.24,3.56,0.24c1.15,0.04,2.25-0.01,3.28-0.05
					c1.02-0.07,1.97-0.16,2.83-0.26c0.85-0.12,1.61-0.21,2.23-0.33c0.63-0.11,1.13-0.2,1.47-0.27c0.35-0.06,0.53-0.09,0.53-0.09
					s-0.13,0.13-0.38,0.38c-0.26,0.23-0.62,0.62-1.16,1c-0.52,0.41-1.17,0.88-1.97,1.36c-0.4,0.24-0.84,0.46-1.3,0.71
					c-0.47,0.23-0.98,0.44-1.5,0.68c-1.07,0.41-2.27,0.82-3.57,1.09c-1.3,0.3-2.71,0.47-4.18,0.54c-1.47,0.05-3-0.03-4.54-0.25
					c-0.77-0.14-1.53-0.24-2.34-0.48c-0.39-0.1-0.83-0.21-1.14-0.32l-1.1-0.35c-1.49-0.57-2.93-1.24-4.27-2.04
					c-1.33-0.81-2.56-1.72-3.65-2.7c-1.09-0.99-2.06-2.02-2.87-3.08c-0.83-1.04-1.49-2.12-2.06-3.12c-0.26-0.52-0.51-1-0.73-1.48
					c-0.2-0.49-0.4-0.94-0.55-1.37c-0.3-0.88-0.51-1.66-0.65-2.31c-0.17-0.64-0.19-1.15-0.25-1.5
					C2396.12,1686.11,2396.1,1685.93,2396.1,1685.93z"/>
			</g>
			<g>
				<path fill="url(#New_Pattern_Swatch_3)" d="M2359.43,1708.45c0,0,0.28-0.05,0.8-0.15c0.26-0.05,0.58-0.09,0.97-0.12
					c0.39-0.05,0.85-0.07,1.35-0.06c1.01-0.01,2.26,0.06,3.65,0.36c1.4,0.28,2.96,0.72,4.58,1.39c1.62,0.67,3.32,1.55,5.01,2.6
					c0.85,0.52,1.69,1.1,2.54,1.71c0.81,0.56,1.68,1.25,2.51,1.88c1.66,1.3,3.32,2.67,4.97,4.01c1.66,1.33,3.33,2.64,5.05,3.78
					c0.43,0.28,0.85,0.58,1.29,0.83l0.58,0.36l0.73,0.4c1.01,0.57,1.83,0.96,2.71,1.39c1.85,0.82,3.74,1.52,5.62,2.12
					c1.88,0.59,3.76,1.05,5.56,1.47c1.81,0.4,3.54,0.75,5.16,1.04c3.28,0.6,6,1.09,7.92,1.44c1.93,0.36,3.03,0.63,3.03,0.63
					s-0.28,0.05-0.8,0.15c-0.52,0.08-1.29,0.23-2.26,0.35c-0.97,0.13-2.16,0.3-3.53,0.41c-1.37,0.12-2.91,0.25-4.61,0.29
					c-1.7,0.05-3.55,0.02-5.51-0.1c-1.96-0.15-4.05-0.38-6.19-0.83c-2.14-0.45-4.35-1.06-6.53-1.93c-1.11-0.48-2.3-0.98-3.21-1.5
					l-0.73-0.39l-0.85-0.49c-0.52-0.3-1.01-0.63-1.51-0.95c-1.96-1.34-3.77-2.8-5.44-4.29c-1.68-1.48-3.22-2.98-4.7-4.4
					c-0.74-0.7-1.47-1.39-2.18-2.06c-0.7-0.66-1.41-1.28-2.1-1.88c-1.39-1.19-2.74-2.25-4.05-3.15c-1.31-0.89-2.56-1.65-3.73-2.23
					c-1.17-0.57-2.23-1.01-3.14-1.3c-0.91-0.29-1.63-0.49-2.16-0.59C2359.71,1708.51,2359.43,1708.45,2359.43,1708.45z"/>
			</g>
			<g>
				<path fill="url(#New_Pattern_Swatch_3)" d="M1879.41,1520.95c0,0,1.35,1.1,3.88,3.15c2.53,2.06,6.26,5.05,10.9,8.99
					c2.34,1.95,4.91,4.13,7.69,6.53c2.79,2.38,5.79,4.99,8.96,7.81c6.37,5.6,13.48,12.02,21.09,19.18
					c3.82,3.56,7.74,7.34,11.81,11.23c4.03,3.93,8.19,8.01,12.4,12.27c8.45,8.49,17.25,17.55,26.07,27.19
					c8.84,9.62,17.88,19.66,26.75,30.13c2.21,2.63,4.42,5.26,6.65,7.91c2.23,2.64,4.4,5.32,6.64,7.88
					c4.45,5.1,9.27,9.84,14.93,12.87c5.65,3.05,12.11,4.5,18.07,2.82c1.37-0.38,2.86-0.97,4.25-1.68c1.4-0.71,2.77-1.55,4.1-2.48
					c2.67-1.85,5.22-4.04,7.78-6.28c2.58-2.25,5.14-4.5,7.63-6.75c2.53-2.22,4.99-4.52,7.45-6.77c4.89-4.55,9.65-9.12,14.24-13.7
					c9.16-9.19,17.78-18.32,25.64-27.26c7.85-8.95,15.04-17.63,21.46-25.81c6.4-8.22,12.32-15.81,18.2-22.02
					c2.9-3.13,5.81-5.9,8.6-8.31c1.44-1.17,2.77-2.34,4.16-3.32c0.68-0.5,1.35-0.99,2-1.47c0.66-0.46,1.34-0.87,1.98-1.3
					c5.16-3.34,9.66-5.15,12.76-6.18c1.54-0.53,2.78-0.77,3.59-1.01c0.81-0.22,1.23-0.33,1.23-0.33s-0.41,0.14-1.21,0.4
					c-0.79,0.29-2,0.6-3.51,1.22c-3.02,1.19-7.32,3.3-12.23,6.82c-4.91,3.51-10.3,8.52-15.77,14.92
					c-5.52,6.35-11.05,14.11-17.22,22.53c-6.17,8.45-13.12,17.41-20.85,26.6c-7.7,9.2-16.16,18.63-25.3,28.01
					c-9.15,9.35-18.92,18.8-29.26,27.81c-2.59,2.28-5.24,4.59-8.23,6.69c-3,2.09-6.26,3.94-10.13,5.02l-0.63,0.16l-0.31,0.08
					l-0.24,0.06l-0.18,0.04l-1.44,0.27c-0.97,0.13-1.94,0.25-2.91,0.27c-1.94,0.08-3.87-0.06-5.76-0.38
					c-3.78-0.64-7.35-1.98-10.65-3.74c-6.63-3.62-11.83-8.89-16.44-14.2c-2.31-2.67-4.48-5.38-6.68-8.01
					c-2.2-2.64-4.39-5.28-6.58-7.9c-8.81-10.43-17.57-20.63-26.26-30.31c-8.68-9.69-17.19-18.95-25.41-27.6
					c-8.21-8.65-16.09-16.73-23.44-24.11c-3.68-3.68-7.23-7.2-10.63-10.51c-3.37-3.34-6.61-6.47-9.67-9.4
					c-3.04-2.95-5.94-5.65-8.59-8.18c-2.65-2.54-5.11-4.84-7.34-6.9c-4.45-4.15-7.95-7.41-10.36-9.6
					C1880.69,1522.13,1879.41,1520.95,1879.41,1520.95z"/>
			</g>
			<g>
				<path fill="url(#New_Pattern_Swatch_3)" d="M1887.16,2133.75c0,0,0.19,0.28,0.55,0.79c0.33,0.54,0.92,1.25,1.61,2.12
					c0.76,0.85,1.7,1.85,2.89,2.84c1.17,1.01,2.61,1.99,4.25,2.9c3.26,1.82,7.43,3.26,11.95,3.61l0.85,0.05l0.36,0.02l0.47,0.01
					c0.62,0.01,1.3,0.04,1.83,0c0.56-0.02,1.12-0.04,1.72-0.11c0.59-0.04,1.19-0.1,1.78-0.19c2.38-0.33,4.79-0.86,7.14-1.63
					c2.36-0.75,4.66-1.72,6.89-2.79c2.23-1.1,4.33-2.27,6.38-3.57c4.01-2.53,7.64-5.32,10.72-7.75c3.1-2.47,5.69-4.53,7.5-5.97
					c0.9-0.73,1.65-1.27,2.15-1.66c0.5-0.37,0.77-0.57,0.77-0.57s-0.73,1.13-2.11,3.02c-1.38,1.89-3.4,4.55-6.06,7.57
					c-2.68,3.02-6,6.38-10.15,9.51c-2.02,1.52-4.29,3.03-6.7,4.31c-2.41,1.31-4.99,2.41-7.66,3.29c-2.68,0.85-5.47,1.45-8.26,1.69
					c-1.4,0.15-2.76,0.17-4.21,0.12c-0.75-0.01-1.33-0.08-1.97-0.12l-0.47-0.04l-0.1-0.01l-0.03,0l-0.06-0.01l-0.13-0.02l-0.25-0.04
					l-1.01-0.15c-5.34-0.88-9.91-3.2-13.17-5.88c-1.64-1.33-2.96-2.75-3.97-4.11c-1.05-1.33-1.73-2.65-2.26-3.71
					c-0.5-1.11-0.81-1.98-0.97-2.59C1887.25,2134.07,1887.16,2133.75,1887.16,2133.75z"/>
			</g>
			<g>
				<path fill="url(#New_Pattern_Swatch_3)" d="M2152.85,2132.5c0,0,0.21,0.14,0.61,0.4c0.39,0.26,0.96,0.69,1.69,1.13
					c0.71,0.48,1.62,0.98,2.65,1.56c0.52,0.27,1.08,0.55,1.66,0.85c0.59,0.27,1.22,0.55,1.87,0.85c1.32,0.53,2.74,1.09,4.29,1.52
					c1.52,0.48,3.17,0.81,4.86,1.11c1.7,0.27,3.46,0.39,5.24,0.44c1.78-0.01,3.58-0.12,5.35-0.39l1.37-0.25
					c0.52-0.08,0.89-0.2,1.31-0.3c0.81-0.18,1.69-0.46,2.54-0.71c1.68-0.6,3.32-1.25,4.85-2.02c1.52-0.8,2.99-1.61,4.29-2.54
					c1.34-0.88,2.52-1.85,3.62-2.76c0.53-0.48,1.03-0.94,1.52-1.38c0.47-0.46,0.91-0.9,1.32-1.32c0.79-0.87,1.52-1.63,2.05-2.31
					c0.57-0.66,0.97-1.21,1.26-1.58c0.3-0.37,0.46-0.57,0.46-0.57s-0.06,0.25-0.16,0.71c-0.13,0.45-0.25,1.16-0.57,1.99
					c-0.15,0.42-0.31,0.9-0.51,1.4c-0.21,0.5-0.46,1.03-0.73,1.61c-0.29,0.56-0.63,1.14-0.97,1.77c-0.37,0.61-0.8,1.22-1.23,1.88
					c-0.94,1.25-2.02,2.59-3.34,3.84c-1.29,1.29-2.82,2.47-4.48,3.59c-1.68,1.09-3.53,2.05-5.5,2.84c-1.01,0.35-1.98,0.75-3.09,1.01
					c-0.54,0.14-1.11,0.3-1.57,0.38l-1.55,0.3c-2.15,0.3-4.32,0.41-6.44,0.28c-2.11-0.16-4.17-0.5-6.1-1.03
					c-1.92-0.55-3.74-1.22-5.36-2.05c-1.64-0.79-3.08-1.73-4.35-2.64c-0.61-0.5-1.21-0.94-1.75-1.41c-0.52-0.49-1.02-0.94-1.47-1.38
					c-0.43-0.47-0.83-0.9-1.18-1.31c-0.35-0.42-0.65-0.83-0.93-1.18c-0.57-0.7-0.88-1.32-1.15-1.71
					C2152.98,2132.72,2152.85,2132.5,2152.85,2132.5z"/>
			</g>
			<g>
				<path fill="url(#New_Pattern_Swatch_3)" d="M2206.15,2738.27c0,0,0.26,0.02,0.76,0.06c0.49,0.06,1.22,0.11,2.12,0.24
					c0.91,0.11,2.01,0.26,3.27,0.51c1.26,0.22,2.68,0.48,4.21,0.84c1.53,0.34,3.18,0.77,4.91,1.26c1.73,0.48,3.53,1.07,5.39,1.69
					c1.85,0.65,3.76,1.33,5.66,2.12c1.92,0.75,3.82,1.63,5.73,2.48c1.88,0.92,3.77,1.81,5.57,2.8c1.83,0.94,3.57,1.98,5.26,2.98
					c1.67,1.03,3.27,2.03,4.75,3.06c1.48,1.02,2.87,2,4.11,2.96c1.26,0.94,2.37,1.86,3.34,2.69c0.99,0.8,1.81,1.56,2.49,2.19
					c1.35,1.25,2.08,2.02,2.08,2.02s-1-0.36-2.69-1.07c-0.84-0.37-1.87-0.78-3.02-1.3c-1.15-0.51-2.46-1.09-3.88-1.71
					c-1.4-0.64-2.92-1.34-4.53-2.07c-1.59-0.74-3.28-1.53-5.02-2.34c-3.47-1.62-7.16-3.35-10.86-5.08c-1.85-0.86-3.7-1.72-5.51-2.57
					c-1.82-0.85-3.61-1.69-5.35-2.51c-1.74-0.82-3.42-1.6-5.01-2.35c-1.6-0.76-3.1-1.48-4.5-2.15c-1.39-0.69-2.67-1.31-3.79-1.87
					c-1.13-0.55-2.11-1.08-2.94-1.49c-0.82-0.4-1.45-0.77-1.89-1C2206.38,2738.4,2206.15,2738.27,2206.15,2738.27z"/>
			</g>
			<g>
				<path fill="url(#New_Pattern_Swatch_3)" d="M2130.8,2718.91c0,0,0.02,0.38,0.06,1.08c0.02,0.71,0.12,1.74,0.09,3.06
					c0.01,1.33-0.01,2.94-0.13,4.78c-0.06,0.92-0.13,1.9-0.21,2.93c-0.08,1.03-0.23,2.11-0.35,3.24c-0.28,2.25-0.6,4.69-1.04,7.23
					c-0.43,2.55-0.93,5.22-1.48,7.97c-0.55,2.73-1.12,5.56-1.69,8.43c-0.55,2.86-1.12,5.75-1.6,8.64c-0.49,2.93-0.86,5.75-1.18,8.6
					c-0.25,2.84-0.48,5.65-0.52,8.36c-0.04,2.71-0.01,5.33,0.21,7.81c0.16,2.48,0.5,4.81,0.86,6.96c0.23,1.07,0.45,2.09,0.66,3.06
					c0.26,0.97,0.5,1.88,0.73,2.74c0.28,0.85,0.56,1.63,0.79,2.38c0.24,0.74,0.53,1.39,0.76,2c0.45,1.22,0.91,2.14,1.2,2.79
					c0.29,0.65,0.44,1,0.44,1s-0.25-0.28-0.71-0.82c-0.44-0.55-1.19-1.31-1.91-2.42c-0.37-0.55-0.83-1.14-1.25-1.83
					c-0.42-0.69-0.84-1.45-1.31-2.27c-0.41-0.84-0.85-1.74-1.31-2.69c-0.41-0.97-0.8-2.01-1.21-3.09c-0.74-2.19-1.48-4.61-1.95-7.23
					c-0.53-2.61-0.83-5.4-1-8.29c-0.08-1.45-0.12-2.92-0.09-4.4c-0.02-1.49,0.08-2.99,0.16-4.5c0.2-3.01,0.6-6.12,1.07-9.09
					c0.53-3,1.13-5.97,1.82-8.87c0.69-2.89,1.43-5.71,2.18-8.41c1.5-5.41,2.98-10.39,4.21-14.68c0.58-2.15,1.12-4.13,1.6-5.87
					c0.44-1.76,0.82-3.3,1.14-4.57C2130.46,2720.38,2130.8,2718.91,2130.8,2718.91z"/>
			</g>
			<g>
				<path fill="url(#New_Pattern_Swatch_3)" d="M1965.62,2715c0,0,0.25,0.98,0.57,2.7c0.34,1.71,0.75,4.16,1.2,7.07
					c0.94,5.8,1.96,13.43,4.32,20.46c0.28,0.79,0.63,1.87,0.95,2.62c0.31,0.81,0.68,1.66,1.04,2.49c0.78,1.63,1.57,3.23,2.46,4.7
					c0.9,1.47,1.8,2.88,2.79,4.12c0.95,1.28,1.96,2.39,2.92,3.42c0.5,0.49,0.99,0.97,1.44,1.41c0.49,0.43,0.95,0.83,1.39,1.21
					c0.91,0.71,1.72,1.37,2.43,1.83c0.7,0.5,1.29,0.84,1.68,1.09c0.4,0.26,0.61,0.39,0.61,0.39s-0.25-0.03-0.72-0.09
					c-0.46-0.08-1.18-0.12-2.03-0.37c-0.43-0.12-0.92-0.22-1.43-0.39c-0.51-0.17-1.06-0.38-1.66-0.59
					c-0.58-0.25-1.18-0.54-1.83-0.84c-0.62-0.34-1.27-0.71-1.94-1.11c-1.3-0.86-2.69-1.86-4-3.09c-1.34-1.21-2.6-2.63-3.8-4.19
					c-1.19-1.56-2.27-3.29-3.24-5.11c-0.45-0.93-0.94-1.83-1.33-2.85c-0.45-1.05-0.72-1.84-1.1-2.9c-0.62-1.98-1.15-3.98-1.52-5.97
					c-0.37-1.99-0.61-3.95-0.76-5.85c-0.28-3.8-0.17-7.31,0.07-10.3c0.25-2.99,0.62-5.45,0.94-7.17c0.14-0.86,0.3-1.54,0.39-2
					C1965.56,2715.24,1965.62,2715,1965.62,2715z"/>
			</g>
			<g>
				<path fill="url(#New_Pattern_Swatch_3)" d="M1830.49,2769.37c0,0-0.12-0.27-0.36-0.77c-0.17-0.52-0.45-1.39-0.36-2.49
					c0.06-1.1,0.41-2.46,1.15-3.82c0.71-1.37,1.75-2.76,3.03-4.1c1.27-1.36,2.82-2.61,4.33-3.87c1.55-1.28,3.2-2.61,4.97-3.93
					c1.76-1.33,3.63-2.65,5.6-3.92c1.96-1.28,4.03-2.48,6.17-3.59c2.15-1.08,4.36-2.08,6.62-2.88c1.23-0.45,2.14-0.74,3.38-1.08
					c1.17-0.34,2.28-0.59,3.42-0.8c2.25-0.44,4.46-0.68,6.56-0.72c2.1-0.04,4.09,0.06,5.9,0.35c0.9,0.12,1.76,0.31,2.57,0.49
					c0.8,0.23,1.57,0.4,2.26,0.65c1.41,0.44,2.58,0.96,3.51,1.43c0.94,0.45,1.64,0.89,2.1,1.19c0.46,0.3,0.71,0.46,0.71,0.46
					s-0.29-0.06-0.83-0.16c-0.27-0.06-0.6-0.13-0.98-0.21c-0.39-0.06-0.84-0.13-1.34-0.22c-0.99-0.16-2.21-0.28-3.58-0.38
					c-1.38-0.09-2.92-0.08-4.59,0.01c-1.67,0.07-3.46,0.3-5.33,0.62c-1.87,0.31-3.82,0.77-5.8,1.36c-0.98,0.3-2.01,0.61-2.97,0.96
					c-0.48,0.17-0.97,0.34-1.51,0.56l-0.8,0.3c-0.11,0.04-0.32,0.12-0.35,0.14l-0.38,0.16c-2.01,0.84-4.03,1.76-6.01,2.8
					c-2,1.01-3.95,2.12-5.89,3.23c-1.92,1.13-3.82,2.27-5.65,3.39c-1.85,1.13-3.63,2.22-5.32,3.25c-1.73,1.06-3.31,1.93-4.65,2.88
					c-1.35,0.94-2.52,1.89-3.4,2.86c-0.87,0.97-1.49,1.93-1.82,2.82c-0.18,0.44-0.25,0.86-0.34,1.23c-0.04,0.36-0.08,0.69-0.08,0.96
					C1830.48,2769.08,1830.49,2769.37,1830.49,2769.37z"/>
			</g>
			<path fill="none" stroke="url(#New_Pattern_Swatch_3)" stroke-width="4.5196" stroke-miterlimit="5" d="M1948.8,664.36
				c0.76,6.23,4.6,11.61,8.52,16.51c15.88,19.9,35.12,37.1,56.66,50.66c11.83,7.45,24.96,13.96,38.94,13.99
				c10.88,0.02,21.44-3.92,30.94-9.24c24.63-13.79,41.34-39.17,59-61.19"/>
			<g>
				<line fill="#E0B496" x1="2047.65" y1="1644.82" x2="2047.65" y2="1725.05"/>
				<path fill="url(#New_Pattern_Swatch_3)" d="M2047.65,1644.82c0,0,0.07,0.31,0.19,0.9c0.11,0.59,0.3,1.45,0.48,2.55
					c0.39,2.19,0.87,5.33,1.28,9.09c0.42,3.76,0.79,8.15,1.04,12.85c0.13,2.35,0.23,4.78,0.29,7.25c0.08,2.47,0.09,4.97,0.11,7.48
					c-0.02,2.51-0.02,5.01-0.1,7.48c-0.05,2.47-0.16,4.9-0.28,7.25c-0.25,4.7-0.62,9.09-1.04,12.85c-0.42,3.76-0.9,6.89-1.29,9.09
					c-0.17,1.1-0.37,1.96-0.48,2.55c-0.13,0.59-0.19,0.9-0.19,0.9s-0.07-0.31-0.19-0.9c-0.11-0.59-0.31-1.45-0.48-2.55
					c-0.39-2.19-0.87-5.33-1.29-9.09c-0.42-3.76-0.8-8.15-1.04-12.85c-0.12-2.35-0.23-4.78-0.28-7.25c-0.08-2.47-0.08-4.97-0.1-7.48
					c0.02-2.51,0.03-5.01,0.11-7.48c0.06-2.47,0.16-4.9,0.29-7.25c0.25-4.7,0.62-9.09,1.04-12.85c0.42-3.76,0.9-6.89,1.28-9.09
					c0.17-1.1,0.37-1.96,0.48-2.55C2047.59,1645.14,2047.65,1644.82,2047.65,1644.82z"/>
			</g>
			<g>
				<path fill="url(#New_Pattern_Swatch_3)" d="M2155.21,2810.46c0,0-0.25,0.51-0.68,1.4c-0.39,0.88-0.92,2.12-1.17,3.48
					c-0.06,0.34-0.11,0.68-0.12,1.03c0,0.17-0.01,0.34-0.01,0.51c0,0.08,0,0.17,0.01,0.26l0.01,0.13l0,0.06l0,0.03l0,0.02
					c0-0.04-0.01,0.09,0.01-0.08l0,0.01c0.03,0.21,0.03,0.54,0.08,0.6l0.13,0.41c0.12,0.3,0.22,0.6,0.39,0.88
					c0.17,0.27,0.33,0.54,0.53,0.75c0.2,0.21,0.41,0.39,0.6,0.53c0.2,0.14,0.4,0.19,0.58,0.26l0.07,0.02l0.03,0.01
					c0.04,0.01-0.3-0.07-0.15-0.04l0.01,0l0.02,0l0.05,0.01l0.4,0.08c0.19,0,0.05,0,0.23-0.01c0.47,0.03,1.11-0.15,1.86-0.45
					c0.74-0.33,1.55-0.76,2.37-1.24c0.84-0.49,1.62-0.97,2.67-1.49c0.96-0.45,1.93-0.78,2.87-0.96c0.94-0.18,1.85-0.22,2.64-0.11
					c0.8,0.1,1.46,0.39,1.93,0.68c0.24,0.14,0.44,0.29,0.58,0.45c0.15,0.14,0.27,0.27,0.36,0.39c0.17,0.23,0.24,0.35,0.24,0.35
					s-0.14-0.02-0.41-0.07c-0.25-0.05-0.64-0.06-1.07-0.03c-0.88,0.08-1.94,0.55-3.07,1.38c-0.57,0.41-1.16,0.91-1.75,1.48
					c-0.51,0.49-1.24,1.26-2.03,1.97c-0.8,0.72-1.73,1.47-2.89,2.11c-1.16,0.64-2.61,1.18-4.32,1.2c-0.36,0.02-1.04-0.07-1.39-0.14
					l-0.39-0.09l-0.26-0.06l-0.16-0.05l-0.31-0.11c-0.83-0.3-1.58-0.77-2.2-1.31c-1.24-1.1-1.98-2.47-2.35-3.81
					c-0.19-0.67-0.29-1.35-0.3-2.02c0-0.33,0-0.65,0.04-1.04c0.03-0.42,0.09-0.56,0.14-0.81l0-0.01c0.02-0.18,0.01-0.06,0.01-0.1
					l0.01-0.03l0.01-0.05l0.03-0.11l0.06-0.21c0.04-0.14,0.08-0.28,0.13-0.42c0.09-0.27,0.19-0.53,0.31-0.78
					c0.23-0.49,0.49-0.94,0.77-1.33c1.13-1.58,2.42-2.41,3.32-2.89c0.45-0.25,0.84-0.39,1.09-0.49
					C2155.07,2810.5,2155.21,2810.46,2155.21,2810.46z"/>
			</g>
			<g>
				<path fill="url(#New_Pattern_Swatch_3)" d="M2195.13,2814.33c0,0-0.06,0.08-0.17,0.24c-0.13,0.14-0.27,0.4-0.4,0.64
					c-0.29,0.56-0.54,1.33-0.57,2.13c-0.05,0.79,0.16,1.61,0.5,2.05l0.07,0.08l0.03,0.04l0,0c-0.11-0.27-0.03-0.07-0.05-0.13
					l0.01,0.01l0.02,0.03l0.03,0.05c0.07,0.11,0.2,0.38,0.21,0.3c0.03-0.05,0.16,0.11,0.27,0.17c0.22,0.17,0.49,0.34,0.78,0.47
					c0.29,0.13,0.59,0.22,0.87,0.27c0.14,0.03,0.27,0.05,0.4,0.06c0.07,0.02,0.13,0,0.19,0.01l0.02,0l0.01,0l0.01,0
					c-0.06,0.03,0.14-0.06-0.13,0.06l0.01,0l0.12-0.03l0.24-0.07c0.15,0.03,0.54-0.08,0.85-0.25c0.33-0.17,0.65-0.41,0.94-0.69
					c0.59-0.55,1-1.24,1.23-1.83c0.09-0.28,0.19-0.55,0.22-0.72c0.04-0.19,0.07-0.29,0.07-0.29s0.09,0.05,0.24,0.18
					s0.37,0.33,0.59,0.64c0.2,0.31,0.45,0.73,0.59,1.27c0.16,0.53,0.22,1.17,0.15,1.88c-0.07,0.71-0.29,1.48-0.71,2.24
					c-0.44,0.76-1.03,1.5-2.05,2.11l-0.21,0.14l-0.1,0.07l-0.32,0.14c-0.25,0.1-0.5,0.22-0.77,0.29c-0.52,0.16-1.07,0.27-1.62,0.28
					c-1.1,0.04-2.18-0.18-3.16-0.62c-0.98-0.45-1.86-1.12-2.55-1.97c-0.36-0.44-0.61-0.85-0.9-1.49c-0.17-0.36-0.15-0.42-0.22-0.61
					l-0.02-0.06l-0.01-0.03l0-0.02c-0.02-0.06,0.05,0.13-0.06-0.14l0-0.01l-0.04-0.2l-0.07-0.39c-0.17-1.05-0.03-2.03,0.26-2.85
					c0.29-0.82,0.73-1.49,1.21-2.01c0.49-0.52,1.01-0.89,1.51-1.13c0.49-0.25,0.97-0.34,1.34-0.4c0.39-0.06,0.69-0.02,0.87,0.02
					C2195.02,2814.31,2195.13,2814.33,2195.13,2814.33z"/>
			</g>
			<g>
				<path fill="url(#New_Pattern_Swatch_3)" d="M2216.97,2816.58c0.2,0.14,0.36,0.29,0.55,0.43c0.18,0.12,0.34,0.21,0.5,0.29
					l0.49,0.24l0.47,0.18c0.31,0.1,0.6,0.17,0.87,0.22c0.15,0.01,0.28,0.04,0.41,0.06c0.14,0.01,0.27,0.01,0.39,0.03
					c0.25,0.01,0.49,0,0.7,0c0.22-0.03,0.42-0.04,0.6-0.08c0.09-0.03,0.17-0.05,0.25-0.06c0.08-0.03,0.15-0.05,0.22-0.07
					c0.06-0.04,0.13-0.05,0.2-0.07c0.06-0.04,0.12-0.06,0.18-0.07l-1.45,1.38c0.22-0.46,0.42-0.94,0.62-1.45
					c0.11-0.25,0.19-0.52,0.3-0.79l0.29-0.85c0.04-0.15,0.09-0.3,0.14-0.45c0.04-0.15,0.08-0.31,0.14-0.47l0.27-1.01l0.26-1.14
					c0.08-0.4,0.15-0.83,0.24-1.31c0.23,0.09,0.43,0.2,0.65,0.31l0.57,0.41c0.37,0.29,0.68,0.63,0.98,1
					c0.28,0.37,0.52,0.77,0.73,1.19c0.2,0.42,0.36,0.87,0.48,1.32l0.15,0.7l0.08,0.71c0.05,0.48,0.01,0.96-0.02,1.44
					c-0.05,0.48-0.15,0.96-0.27,1.43c-0.14,0.47-0.31,0.93-0.53,1.38l-0.49,1.04l-0.96,0.34c-0.29,0.1-0.58,0.21-0.87,0.29
					c-0.3,0.06-0.59,0.12-0.89,0.16c-0.59,0.05-1.18,0.03-1.74-0.07l-0.81-0.2c-0.26-0.09-0.51-0.2-0.76-0.3
					c-0.24-0.13-0.48-0.24-0.7-0.38l-0.64-0.47c-0.4-0.35-0.75-0.72-1.05-1.14c-0.29-0.42-0.52-0.88-0.68-1.35
					c-0.07-0.25-0.13-0.49-0.17-0.73c-0.03-0.25-0.05-0.49-0.04-0.74c0.02-0.27,0.04-0.51,0.09-0.74
					C2216.79,2817.01,2216.85,2816.8,2216.97,2816.58z"/>
			</g>
			<g>
				<path fill="url(#New_Pattern_Swatch_3)" d="M2237.11,2808.65c0.14,0.21,0.24,0.42,0.36,0.63c0.13,0.18,0.25,0.34,0.36,0.47
					l0.38,0.42l0.38,0.36c0.26,0.22,0.51,0.4,0.76,0.57c0.14,0.07,0.26,0.15,0.37,0.23c0.13,0.07,0.26,0.12,0.37,0.19
					c0.24,0.12,0.48,0.2,0.69,0.29c0.23,0.06,0.43,0.13,0.63,0.18c0.1,0.01,0.19,0.02,0.28,0.05c0.09,0,0.17,0.01,0.26,0.03
					c0.08-0.01,0.16,0,0.24,0.01c0.07-0.01,0.15-0.01,0.22,0l-2.72,2.4c0.1-0.65,0.2-1.29,0.32-1.95c0.07-0.33,0.1-0.66,0.18-1
					c0.06-0.34,0.13-0.68,0.2-1.03c0.07-0.35,0.14-0.71,0.23-1.07c0.08-0.37,0.17-0.74,0.26-1.13c0.1-0.39,0.18-0.79,0.31-1.21
					c0.11-0.42,0.22-0.85,0.39-1.32c0.43,0.26,0.78,0.56,1.11,0.88c0.34,0.32,0.62,0.67,0.9,1.04c0.53,0.73,0.93,1.54,1.23,2.38
					c0.59,1.68,0.74,3.51,0.47,5.28l-0.38,2.46l-2.34-0.06c-0.31-0.01-0.63-0.02-0.94-0.05c-0.31-0.05-0.61-0.11-0.91-0.18
					c-0.29-0.09-0.58-0.19-0.86-0.3c-0.27-0.13-0.53-0.26-0.79-0.41c-0.49-0.31-0.95-0.66-1.33-1.06c-0.19-0.21-0.37-0.41-0.54-0.63
					l-0.44-0.69c-0.26-0.48-0.46-0.97-0.6-1.48c-0.05-0.26-0.11-0.52-0.14-0.78c-0.02-0.27-0.03-0.53-0.03-0.78
					c0.03-0.26,0.05-0.52,0.09-0.77c0.07-0.25,0.13-0.5,0.22-0.73c0.11-0.25,0.22-0.48,0.35-0.69
					C2236.79,2809,2236.93,2808.82,2237.11,2808.65z"/>
			</g>
			<g>
				<path fill="url(#New_Pattern_Swatch_3)" d="M1940.03,2815.54c0,0,0.14,0.05,0.4,0.14c0.25,0.1,0.64,0.24,1.09,0.49
					c0.9,0.49,2.19,1.31,3.32,2.89c0.28,0.39,0.54,0.84,0.77,1.33c0.12,0.25,0.22,0.51,0.31,0.78c0.05,0.13,0.09,0.27,0.13,0.42
					l0.06,0.21l0.03,0.11l0.01,0.05l0.01,0.03c0,0.04-0.01-0.08,0.01,0.1l0,0.01c0.05,0.25,0.12,0.39,0.14,0.81
					c0.04,0.39,0.04,0.71,0.04,1.04c-0.01,0.66-0.11,1.34-0.3,2.02c-0.37,1.34-1.11,2.72-2.35,3.81c-0.62,0.54-1.37,1.02-2.2,1.31
					l-0.31,0.11l-0.16,0.05l-0.26,0.06l-0.39,0.09c-0.35,0.06-1.02,0.15-1.39,0.14c-1.7-0.01-3.16-0.56-4.32-1.2
					c-1.16-0.64-2.09-1.39-2.89-2.11c-0.79-0.71-1.52-1.48-2.03-1.97c-0.59-0.56-1.18-1.06-1.75-1.48
					c-1.13-0.83-2.19-1.31-3.07-1.38c-0.43-0.04-0.82-0.03-1.07,0.03c-0.27,0.04-0.41,0.07-0.41,0.07s0.07-0.12,0.24-0.35
					c0.08-0.12,0.2-0.24,0.36-0.39c0.15-0.16,0.34-0.3,0.58-0.45c0.47-0.29,1.14-0.59,1.93-0.68c0.79-0.11,1.7-0.08,2.64,0.11
					c0.94,0.19,1.91,0.51,2.87,0.96c1.06,0.52,1.83,1.01,2.67,1.49c0.82,0.49,1.63,0.91,2.37,1.24c0.74,0.3,1.39,0.47,1.86,0.45
					c0.18,0.01,0.04,0.01,0.23,0.01l0.4-0.08l0.05-0.01l0.02,0l0.01,0c0.15-0.04-0.19,0.05-0.15,0.04l0.03-0.01l0.07-0.02
					c0.18-0.07,0.38-0.12,0.58-0.26c0.19-0.14,0.4-0.31,0.6-0.53c0.2-0.22,0.36-0.48,0.53-0.75c0.17-0.28,0.27-0.58,0.39-0.88
					l0.13-0.41c0.05-0.05,0.05-0.39,0.08-0.6l0-0.01c0.02,0.17,0,0.04,0.01,0.08l0-0.02l0-0.03l0.01-0.06l0.01-0.13
					c0.01-0.08,0.01-0.17,0.01-0.26c0.01-0.17,0-0.34-0.01-0.51c-0.01-0.35-0.06-0.69-0.12-1.03c-0.24-1.36-0.77-2.6-1.17-3.48
					C1940.28,2816.05,1940.03,2815.54,1940.03,2815.54z"/>
			</g>
			<g>
				<path fill="url(#New_Pattern_Swatch_3)" d="M1898.61,2818.85c0,0,0.1-0.02,0.29-0.06c0.18-0.03,0.47-0.07,0.87-0.02
					c0.37,0.06,0.85,0.14,1.34,0.4c0.5,0.24,1.02,0.61,1.51,1.13c0.48,0.52,0.92,1.19,1.21,2.01c0.29,0.82,0.43,1.8,0.26,2.85
					l-0.07,0.39l-0.04,0.2l0,0.01c-0.11,0.27-0.03,0.08-0.06,0.14l0,0.02l-0.01,0.03l-0.02,0.06c-0.06,0.19-0.05,0.25-0.22,0.61
					c-0.29,0.64-0.55,1.05-0.9,1.49c-0.69,0.85-1.57,1.52-2.55,1.97c-0.98,0.44-2.07,0.66-3.16,0.62c-0.55-0.01-1.1-0.11-1.62-0.28
					c-0.26-0.07-0.52-0.18-0.77-0.29l-0.32-0.14l-0.1-0.07l-0.21-0.14c-1.02-0.62-1.61-1.36-2.05-2.11
					c-0.43-0.76-0.64-1.54-0.71-2.24c-0.07-0.71,0-1.35,0.15-1.88c0.14-0.53,0.39-0.95,0.59-1.27c0.21-0.31,0.43-0.51,0.59-0.64
					c0.15-0.13,0.24-0.18,0.24-0.18s0.02,0.1,0.07,0.29c0.02,0.18,0.13,0.44,0.22,0.72c0.23,0.58,0.64,1.28,1.23,1.83
					c0.29,0.27,0.61,0.52,0.94,0.68c0.31,0.17,0.7,0.28,0.85,0.25l0.24,0.07l0.12,0.03l0.01,0c-0.27-0.11-0.07-0.03-0.13-0.06
					l0.01,0l0.01,0l0.02,0c0.07-0.01,0.12,0.01,0.19-0.01c0.13-0.02,0.26-0.03,0.4-0.06c0.28-0.05,0.58-0.14,0.87-0.27
					c0.29-0.13,0.56-0.3,0.78-0.47c0.11-0.07,0.24-0.23,0.27-0.17c0.01,0.08,0.13-0.19,0.21-0.3l0.03-0.05l0.02-0.03l0.01-0.01
					c-0.02,0.06,0.06-0.14-0.05,0.13l0,0l0.03-0.04l0.07-0.08c0.35-0.44,0.55-1.25,0.5-2.05c-0.03-0.8-0.28-1.57-0.57-2.13
					c-0.14-0.24-0.27-0.5-0.4-0.64C1898.67,2818.94,1898.61,2818.85,1898.61,2818.85z"/>
			</g>
			<g>
				<path fill="url(#New_Pattern_Swatch_3)" d="M1879.21,2821.29c0.11,0.22,0.18,0.43,0.27,0.64c0.04,0.23,0.07,0.47,0.09,0.74
					c0.01,0.24-0.01,0.48-0.04,0.74c-0.04,0.24-0.11,0.48-0.17,0.73c-0.16,0.47-0.39,0.93-0.68,1.35c-0.29,0.42-0.65,0.79-1.05,1.14
					l-0.64,0.47c-0.23,0.14-0.47,0.26-0.7,0.38c-0.25,0.1-0.5,0.22-0.76,0.3l-0.81,0.2c-0.56,0.1-1.15,0.12-1.74,0.07
					c-0.3-0.04-0.59-0.1-0.89-0.16c-0.29-0.08-0.58-0.19-0.87-0.29l-0.96-0.34l-0.49-1.04c-0.21-0.45-0.39-0.91-0.53-1.38
					c-0.13-0.47-0.22-0.95-0.27-1.43c-0.03-0.48-0.06-0.96-0.02-1.44l0.08-0.71l0.15-0.7c0.12-0.46,0.29-0.9,0.48-1.32
					c0.2-0.42,0.45-0.82,0.73-1.19c0.29-0.37,0.61-0.71,0.98-1l0.57-0.41c0.22-0.11,0.42-0.23,0.65-0.31
					c0.1,0.48,0.16,0.91,0.24,1.31l0.26,1.14l0.27,1.01c0.06,0.16,0.09,0.32,0.14,0.47c0.05,0.15,0.11,0.3,0.14,0.45l0.29,0.85
					c0.12,0.27,0.19,0.53,0.3,0.79c0.21,0.51,0.41,0.99,0.62,1.45l-1.45-1.38c0.06,0.02,0.12,0.04,0.18,0.07
					c0.07,0.02,0.13,0.03,0.2,0.07c0.07,0.01,0.15,0.03,0.22,0.07c0.08,0.01,0.16,0.03,0.25,0.06c0.18,0.03,0.38,0.05,0.6,0.08
					c0.22,0,0.45,0.01,0.7,0c0.12-0.02,0.25-0.02,0.39-0.03c0.13-0.02,0.26-0.05,0.41-0.06c0.27-0.06,0.57-0.12,0.87-0.22l0.47-0.18
					l0.49-0.24c0.15-0.08,0.32-0.17,0.5-0.29C1878.85,2821.58,1879.01,2821.43,1879.21,2821.29z"/>
			</g>
			<g>
				<path fill="url(#New_Pattern_Swatch_3)" d="M1859.82,2812.6c0.18,0.17,0.32,0.35,0.49,0.53c0.12,0.21,0.23,0.44,0.35,0.69
					c0.09,0.23,0.16,0.48,0.22,0.73c0.04,0.25,0.07,0.5,0.09,0.77c0,0.25-0.01,0.51-0.03,0.78c-0.03,0.26-0.09,0.51-0.14,0.78
					c-0.13,0.51-0.34,1.01-0.6,1.48l-0.44,0.69c-0.17,0.22-0.35,0.42-0.54,0.63c-0.39,0.41-0.84,0.75-1.33,1.06
					c-0.25,0.15-0.52,0.28-0.79,0.41c-0.28,0.11-0.57,0.21-0.86,0.3c-0.3,0.07-0.61,0.13-0.91,0.18c-0.31,0.03-0.63,0.04-0.94,0.05
					l-2.34,0.06l-0.38-2.46c-0.27-1.77-0.12-3.6,0.47-5.28c0.3-0.84,0.7-1.65,1.23-2.38c0.27-0.36,0.56-0.72,0.9-1.04
					c0.33-0.32,0.69-0.62,1.11-0.88c0.16,0.47,0.28,0.9,0.39,1.32c0.12,0.42,0.21,0.82,0.31,1.21c0.09,0.39,0.18,0.76,0.26,1.13
					c0.08,0.37,0.16,0.72,0.23,1.07c0.07,0.35,0.14,0.69,0.2,1.03c0.08,0.34,0.12,0.67,0.18,1c0.12,0.66,0.22,1.31,0.32,1.95
					l-2.72-2.4c0.07-0.01,0.14-0.01,0.22,0c0.08-0.01,0.15-0.02,0.23-0.01c0.08-0.02,0.17-0.03,0.26-0.03
					c0.09-0.02,0.18-0.04,0.28-0.05c0.2-0.04,0.4-0.11,0.63-0.18c0.21-0.09,0.45-0.18,0.69-0.29c0.11-0.07,0.24-0.13,0.37-0.19
					c0.11-0.07,0.23-0.15,0.37-0.23c0.24-0.17,0.5-0.35,0.76-0.57l0.38-0.36l0.38-0.42c0.12-0.14,0.24-0.29,0.36-0.47
					C1859.59,2813.02,1859.68,2812.81,1859.82,2812.6z"/>
			</g>
			<g>
				<path fill="url(#New_Pattern_Swatch_3)" d="M2174.55,2804.17c0,0,0.19,0.07,0.55,0.2c0.18,0.06,0.39,0.16,0.65,0.29
					c0.26,0.12,0.56,0.29,0.86,0.49c1.26,0.77,2.87,2.3,4.22,4.46c0.68,1.07,1.31,2.28,1.9,3.57c0.58,1.29,1.12,2.62,1.65,4.02
					c0.53,1.4,1.05,2.88,1.49,4.43c0.46,1.55,0.82,3.18,1.09,4.84c0.24,1.67,0.4,3.39,0.34,5.1c-0.02,0.43-0.04,0.85-0.06,1.28
					c-0.05,0.42-0.09,0.85-0.14,1.26c-0.07,0.4-0.13,0.8-0.2,1.2c-0.09,0.43-0.2,0.87-0.3,1.3c-0.86,3.23-2.51,5.94-4.33,7.83
					c-0.93,0.93-1.88,1.68-2.79,2.22c-0.46,0.26-0.9,0.49-1.3,0.67c-0.43,0.16-0.81,0.31-1.16,0.43c-0.71,0.21-1.27,0.31-1.66,0.35
					c-0.38,0.04-0.59,0.06-0.59,0.06s0.16-0.13,0.47-0.36c0.31-0.2,0.72-0.59,1.23-1.02c0.25-0.23,0.5-0.51,0.78-0.79
					c0.25-0.32,0.54-0.62,0.81-0.98c0.55-0.71,1.08-1.56,1.58-2.51c0.97-1.92,1.74-4.3,2.05-6.87c0.02-0.3,0.05-0.6,0.08-0.9
					c0.02-0.35,0.04-0.7,0.06-1.05c0.01-0.68,0-1.37-0.02-2.06c-0.07-1.39-0.2-2.82-0.44-4.27c-0.21-1.45-0.51-2.9-0.82-4.36
					c-0.33-1.48-0.65-2.93-0.97-4.34c-0.31-1.43-0.6-2.81-0.88-4.12c-0.27-1.29-0.54-2.48-0.84-3.55c-0.59-2.15-1.33-3.87-2.05-5.02
					c-0.36-0.57-0.65-1.02-0.9-1.31C2174.67,2804.33,2174.55,2804.17,2174.55,2804.17z"/>
			</g>
			<g>
				<path fill="url(#New_Pattern_Swatch_3)" d="M2199.34,2804.2c0,0,0.2,0.07,0.57,0.19c0.36,0.13,0.91,0.32,1.56,0.65
					c1.33,0.61,3.17,1.65,5.11,3.29c0.97,0.82,1.96,1.8,2.92,2.92c0.49,0.57,0.92,1.14,1.41,1.83c0.21,0.3,0.42,0.58,0.63,0.91
					c0.21,0.35,0.43,0.71,0.65,1.07c0.82,1.41,1.53,2.96,2.08,4.6c0.57,1.64,0.95,3.37,1.16,5.14c0.19,1.77,0.21,3.57,0,5.32
					c-0.06,0.44-0.11,0.87-0.19,1.31c-0.1,0.45-0.16,0.81-0.29,1.33c-0.11,0.39-0.19,0.71-0.32,1.14c-0.14,0.43-0.28,0.87-0.44,1.26
					c-1.2,3.15-3.13,5.68-5.07,7.43c-0.98,0.88-1.97,1.55-2.87,2.08c-0.91,0.52-1.76,0.86-2.45,1.1c-0.7,0.24-1.26,0.37-1.65,0.44
					c-0.38,0.07-0.59,0.11-0.59,0.11s0.16-0.14,0.45-0.4c0.3-0.23,0.7-0.64,1.2-1.11c0.5-0.49,1.05-1.11,1.65-1.83
					c0.58-0.74,1.2-1.57,1.77-2.52c1.14-1.91,2.2-4.24,2.78-6.82c0.06-0.3,0.12-0.61,0.18-0.91c0.07-0.31,0.12-0.74,0.19-1.1
					c0.06-0.57,0.14-1.33,0.18-1.99c0.06-1.38,0.03-2.79-0.15-4.2c-0.14-1.41-0.43-2.81-0.79-4.19c-0.37-1.37-0.81-2.71-1.32-3.98
					c-0.13-0.3-0.25-0.6-0.38-0.9c-0.15-0.33-0.3-0.66-0.45-0.99c-0.24-0.55-0.58-1.17-0.87-1.73c-0.61-1.14-1.24-2.19-1.86-3.16
					c-1.25-1.93-2.47-3.49-3.36-4.58C2199.87,2804.83,2199.34,2804.2,2199.34,2804.2z"/>
			</g>
			<g>
				<path fill="url(#New_Pattern_Swatch_3)" d="M2221.61,2801.96c0.01,0.01,0.21-0.12,0.68-0.22c0.46-0.1,1.19-0.21,2.11-0.02
					c0.91,0.18,2.02,0.58,3.09,1.42c1.09,0.84,2.04,2.04,2.81,3.45c0.77,1.4,1.36,2.97,1.92,4.53c0.57,1.62,1.09,3.33,1.53,5.15
					c0.44,1.81,0.82,3.71,1.08,5.65c0.28,1.95,0.45,3.92,0.51,5.97c0.02,2.04-0.06,4.11-0.42,6.16c-0.32,2.05-0.93,4.06-1.78,5.91
					c-0.44,0.94-0.87,1.76-1.49,2.67c-0.44,0.62-1.17,1.61-1.82,2.23c-1.32,1.35-2.77,2.37-4.21,3.09c-2.9,1.45-5.69,1.6-7.44,1.24
					c-0.44-0.06-0.83-0.17-1.16-0.28c-0.33-0.09-0.6-0.2-0.81-0.3c-0.42-0.2-0.64-0.3-0.64-0.3s0.25-0.01,0.71-0.02
					c0.22,0.01,0.5-0.01,0.82-0.06c0.32-0.03,0.68-0.07,1.08-0.16c1.59-0.3,3.71-1.19,5.67-2.87c0.98-0.84,1.92-1.87,2.72-3.06
					c0.21-0.3,0.39-0.59,0.54-0.88c0.15-0.24,0.36-0.68,0.56-1.05c0.14-0.33,0.28-0.66,0.43-1c0.13-0.37,0.28-0.72,0.39-1.1
					c0.49-1.5,0.81-3.12,1-4.82c0.19-1.7,0.25-3.48,0.2-5.28c-0.02-1.79-0.16-3.66-0.3-5.47c-0.15-1.82-0.34-3.61-0.55-5.34
					c-0.22-1.73-0.46-3.42-0.72-5c-0.27-1.63-0.5-3.09-0.83-4.35c-0.33-1.25-0.79-2.34-1.35-3.17c-0.58-0.84-1.27-1.49-1.93-1.89
					c-0.66-0.4-1.28-0.62-1.71-0.7c-0.21-0.04-0.39-0.07-0.51-0.08C2221.67,2801.96,2221.61,2801.96,2221.61,2801.96z"/>
			</g>
			<g>
				<path fill="url(#New_Pattern_Swatch_3)" d="M2240.31,2798.29c0,0,0.2-0.06,0.58-0.17c0.19-0.06,0.42-0.1,0.72-0.14
					c0.15-0.02,0.32-0.04,0.49-0.06c0.17,0,0.35,0.01,0.55,0.01c0.77,0.02,1.75,0.16,2.78,0.57c1.04,0.4,2.13,1.03,3.2,1.87
					c1.06,0.84,2.09,1.87,3.04,3.06c0.49,0.61,0.9,1.19,1.38,1.93c0.4,0.62,0.78,1.26,1.18,1.91c0.4,0.71,0.78,1.45,1.16,2.21
					c0.35,0.75,0.69,1.51,1.02,2.28c0.3,0.79,0.62,1.57,0.89,2.38c0.25,0.81,0.5,1.63,0.75,2.45c0.2,0.83,0.39,1.66,0.59,2.49
					c0.17,0.83,0.31,1.67,0.43,2.5c0.24,1.66,0.36,3.31,0.4,4.91c-0.01,0.8,0.01,1.58-0.02,2.35c-0.05,0.76-0.11,1.51-0.16,2.24
					c-0.17,1.45-0.36,2.81-0.65,4.05c-0.24,1.24-0.61,2.35-0.89,3.33c-0.34,0.97-0.67,1.8-0.95,2.48c-0.61,1.34-1.02,2.07-1.02,2.07
					s-0.07-0.85-0.09-2.29c-0.03-0.71-0.07-1.58-0.11-2.57c-0.08-0.99-0.09-2.08-0.21-3.27c-0.07-1.19-0.21-2.46-0.34-3.8
					c-0.08-0.67-0.16-1.35-0.25-2.05c-0.12-0.69-0.2-1.4-0.31-2.12c-0.12-0.71-0.25-1.44-0.37-2.17c-0.14-0.73-0.3-1.47-0.44-2.21
					c-0.15-0.74-0.36-1.48-0.5-2.23c-0.19-0.74-0.38-1.48-0.57-2.23c-0.21-0.74-0.42-1.47-0.63-2.21c-0.25-0.72-0.46-1.45-0.69-2.17
					c-0.26-0.71-0.51-1.42-0.74-2.12c-0.26-0.67-0.53-1.34-0.76-2c-0.29-0.7-0.6-1.38-0.87-2.07c-0.21-0.55-0.53-1.19-0.8-1.76
					c-0.57-1.15-1.18-2.19-1.81-3.09c-1.26-1.81-2.68-3.05-3.9-3.63c-0.31-0.15-0.58-0.27-0.83-0.36c-0.25-0.1-0.48-0.18-0.67-0.21
					C2240.52,2798.35,2240.31,2798.29,2240.31,2798.29z"/>
			</g>
			<g>
				<path fill="url(#New_Pattern_Swatch_3)" d="M1925.31,2800.84c0,0-0.17,0.21-0.48,0.61c-0.31,0.39-0.81,0.96-1.36,1.69
					c-0.58,0.71-1.2,1.63-1.95,2.64c-0.34,0.53-0.71,1.08-1.1,1.67c-0.36,0.6-0.74,1.22-1.14,1.88c-0.74,1.34-1.53,2.77-2.22,4.35
					c-0.74,1.55-1.35,3.26-1.95,5.01c-0.57,1.77-1.03,3.62-1.43,5.5c-0.16,0.95-0.33,1.91-0.44,2.87c-0.06,0.48-0.14,0.96-0.16,1.45
					l-0.1,1.38c-0.1,2.22-0.04,3.91,0.09,5.9c0.2,1.92,0.45,3.81,0.84,5.62c0.41,1.8,0.85,3.56,1.42,5.18
					c0.52,1.64,1.16,3.15,1.75,4.56c0.63,1.38,1.25,2.66,1.84,3.77c0.63,1.08,1.16,2.07,1.66,2.84c0.48,0.79,0.89,1.39,1.16,1.81
					c0.27,0.43,0.42,0.65,0.42,0.65s-0.22-0.15-0.65-0.43c-0.4-0.3-1.06-0.68-1.77-1.3c-0.36-0.3-0.78-0.63-1.21-1.01
					c-0.43-0.38-0.86-0.82-1.34-1.29c-0.45-0.49-0.94-1.01-1.45-1.56c-0.49-0.57-0.96-1.2-1.49-1.84c-0.96-1.34-1.96-2.84-2.84-4.54
					c-0.91-1.68-1.67-3.56-2.34-5.55c-0.65-2-1.14-4.13-1.45-6.32c-0.3-2.14-0.37-4.66-0.29-6.65l0.15-1.77
					c0.04-0.56,0.13-1.12,0.21-1.68c0.13-1.12,0.41-2.21,0.64-3.29c0.55-2.15,1.25-4.22,2.11-6.13c0.88-1.91,1.83-3.69,2.92-5.27
					c1.05-1.6,2.2-2.99,3.3-4.22c0.59-0.59,1.12-1.17,1.67-1.68c0.56-0.49,1.1-0.96,1.6-1.4c0.53-0.41,1.01-0.8,1.47-1.14
					c0.47-0.34,0.92-0.62,1.32-0.88c0.78-0.55,1.45-0.84,1.89-1.1C1925.07,2800.97,1925.31,2800.84,1925.31,2800.84z"/>
			</g>
			<g>
				<path fill="url(#New_Pattern_Swatch_3)" d="M1896.6,2810.37c0,0-0.2,0.09-0.58,0.26c-0.39,0.16-0.89,0.43-1.52,0.8
					c-1.25,0.74-2.84,2.01-4.29,3.83c-0.73,0.91-1.42,1.95-2.02,3.11c-0.15,0.29-0.3,0.58-0.44,0.88l-0.11,0.22
					c0.01,0-0.06,0.15-0.09,0.22l-0.23,0.53c-0.23,0.62-0.49,1.25-0.7,1.95c-0.45,1.37-0.79,2.84-1.11,4.37
					c-0.29,1.53-0.56,3.12-0.77,4.75c-0.24,1.63-0.44,3.26-0.6,4.81c-0.06,0.78-0.12,1.54-0.16,2.29c-0.03,0.75-0.02,1.47-0.01,2.18
					c0.06,1.42,0.21,2.76,0.53,4c0.28,1.2,0.75,2.33,1.29,3.32c1.07,2.01,2.51,3.41,3.69,4.22c0.6,0.38,1.11,0.68,1.48,0.83
					c0.37,0.17,0.57,0.26,0.57,0.26s-0.22,0.02-0.63,0.06c-0.41,0.02-1.04,0.04-1.83-0.11c-0.78-0.15-1.75-0.42-2.78-0.95
					c-1.02-0.53-2.1-1.3-3.11-2.33c-1-1.03-1.95-2.3-2.68-3.84c-0.72-1.49-1.22-3.18-1.52-4.93c-0.29-1.75-0.39-3.55-0.32-5.33
					c0.05-1.79,0.25-3.54,0.47-5.27c0.26-1.73,0.57-3.49,1.03-5.22c0.46-1.72,1.04-3.42,1.8-5c0.37-0.78,0.79-1.56,1.25-2.31
					l0.32-0.48l0.18-0.28l0.18-0.26c0.24-0.35,0.49-0.68,0.75-0.99c1.03-1.27,2.17-2.31,3.31-3.13c1.15-0.82,2.29-1.41,3.35-1.81
					c1.05-0.41,2.02-0.59,2.8-0.69c0.78-0.11,1.43-0.08,1.82-0.05C1896.38,2810.35,1896.6,2810.37,1896.6,2810.37z"/>
			</g>
			<g>
				<path fill="url(#New_Pattern_Swatch_3)" d="M1875.2,2809.45c0,0-0.13,0.17-0.37,0.48c-0.25,0.31-0.61,0.76-1.06,1.34
					c-0.45,0.56-0.95,1.27-1.54,2.07c-0.57,0.81-1.19,1.72-1.83,2.72c-0.62,1.02-1.28,2.11-1.89,3.3c-0.64,1.17-1.21,2.45-1.79,3.77
					c-0.56,1.33-1.05,2.72-1.51,4.13c-0.2,0.72-0.42,1.44-0.59,2.17c-0.09,0.36-0.2,0.73-0.26,1.1l-0.22,1.04
					c-0.32,1.71-0.47,2.99-0.62,4.53c-0.09,1.49-0.16,2.96-0.13,4.4c0.05,1.43,0.11,2.83,0.27,4.16c0.13,1.33,0.34,2.59,0.54,3.76
					c0.22,1.17,0.46,2.24,0.69,3.21c0.25,0.95,0.45,1.81,0.67,2.5c0.21,0.7,0.37,1.25,0.49,1.63c0.11,0.39,0.17,0.59,0.17,0.59
					s-0.15-0.15-0.44-0.42c-0.27-0.29-0.73-0.68-1.19-1.26c-0.5-0.56-1.07-1.27-1.67-2.14c-0.3-0.43-0.58-0.91-0.9-1.41
					c-0.3-0.51-0.58-1.06-0.9-1.64c-0.56-1.17-1.14-2.47-1.59-3.91c-0.48-1.43-0.84-2.98-1.11-4.62c-0.25-1.63-0.38-3.35-0.36-5.1
					c0.02-1.7,0.25-3.69,0.52-5.21l0.31-1.37c0.09-0.44,0.22-0.86,0.34-1.29c0.22-0.86,0.55-1.68,0.83-2.51
					c0.63-1.63,1.38-3.18,2.22-4.6c0.85-1.42,1.76-2.73,2.74-3.88c0.95-1.16,1.97-2.16,2.93-3.04c0.5-0.42,0.97-0.83,1.44-1.19
					c0.48-0.35,0.92-0.69,1.36-0.98c0.88-0.58,1.67-1.03,2.35-1.37c0.65-0.37,1.21-0.55,1.57-0.72
					C1875,2809.53,1875.2,2809.45,1875.2,2809.45z"/>
			</g>
			<g>
				<path fill="url(#New_Pattern_Swatch_3)" d="M1855.5,2801.05c0,0-0.15,0.13-0.44,0.36c-0.14,0.12-0.33,0.25-0.52,0.43
					c-0.18,0.19-0.38,0.39-0.6,0.6c-0.21,0.25-0.44,0.52-0.67,0.81c-0.2,0.33-0.46,0.62-0.66,1.01c-0.46,0.71-0.84,1.6-1.21,2.57
					c-0.74,1.95-1.26,4.36-1.74,7.04c-0.23,1.32-0.47,2.79-0.74,4.23c-0.25,1.44-0.54,2.88-0.76,4.31
					c-0.25,1.42-0.43,2.83-0.58,4.19c-0.13,1.36-0.21,2.73-0.2,3.96c0.01,0.77,0.04,1.26,0.08,1.9c0.04,0.61,0.12,1.21,0.21,1.79
					c0.17,1.17,0.43,2.26,0.73,3.26c0.6,2,1.45,3.61,2.16,4.72c0.37,0.53,0.66,0.99,0.9,1.25c0.23,0.29,0.35,0.45,0.35,0.45
					s-0.19-0.07-0.54-0.19c-0.35-0.13-0.86-0.34-1.47-0.69c-0.6-0.36-1.35-0.83-2.09-1.52c-0.74-0.67-1.53-1.52-2.24-2.56
					c-0.71-1.03-1.36-2.23-1.9-3.57c-0.28-0.67-0.5-1.38-0.7-2.11c-0.21-0.71-0.36-1.61-0.48-2.25c-0.25-1.6-0.34-3.17-0.28-4.79
					c0.04-1.61,0.24-3.21,0.48-4.78c0.28-1.56,0.6-3.09,0.99-4.56c0.18-0.74,0.39-1.46,0.59-2.16c0.2-0.71,0.41-1.44,0.66-2.14
					c0.94-2.81,2.18-5.45,3.76-7.43c0.79-0.98,1.6-1.82,2.45-2.42c0.4-0.32,0.83-0.55,1.21-0.77c0.4-0.19,0.77-0.35,1.1-0.49
					c0.71-0.25,1.24-0.36,1.6-0.4C1855.3,2801.07,1855.5,2801.05,1855.5,2801.05z"/>
			</g>
		</g>
		
			<use xlink:href="#SVGID_3_"  overflow="visible" fill="none" stroke="url(#New_Pattern_Swatch_3)" stroke-width="4.5196" stroke-miterlimit="10"/>
	</g>
	<g>
		<g>
			<path fill="url(#New_Pattern_Swatch_3)" d="M2158.79,584.61c-0.49,0.22-0.92,0.53-1.33,0.82c-0.41,0.31-0.79,0.63-1.13,0.99
				c-0.36,0.33-0.67,0.72-0.99,1.08c-0.28,0.41-0.61,0.75-0.86,1.17c-0.24,0.42-0.54,0.78-0.75,1.22c-0.21,0.44-0.47,0.82-0.67,1.26
				c-0.19,0.44-0.39,0.88-0.59,1.3l-0.51,1.35c-0.19,0.44-0.33,0.9-0.46,1.37l-0.44,1.38c-0.11,0.47-0.23,0.95-0.35,1.42
				c-0.11,0.48-0.27,0.93-0.35,1.42l-0.3,1.45c-0.09,0.48-0.22,0.96-0.29,1.45c-0.16,0.98-0.31,1.96-0.51,2.94l0.02-0.21
				c-0.03,0.44-0.06,0.8-0.1,1.19c-0.04,0.38-0.1,0.76-0.16,1.14c-0.11,0.76-0.25,1.51-0.43,2.26c-0.33,1.5-0.8,2.99-1.43,4.43
				c-0.65,1.43-1.46,2.88-2.7,4.03c-0.31,0.29-0.66,0.54-1.02,0.77c-0.37,0.22-0.78,0.38-1.19,0.49c-0.42,0.1-0.83,0.15-1.24,0.11
				c-0.4-0.04-0.78-0.15-1.13-0.3c0.38-0.08,0.73-0.15,1.05-0.29c0.32-0.15,0.6-0.31,0.85-0.51c0.25-0.21,0.45-0.45,0.64-0.7
				c0.18-0.25,0.34-0.52,0.48-0.81c0.28-0.57,0.5-1.18,0.68-1.82c0.08-0.32,0.17-0.64,0.24-0.97c0.07-0.33,0.13-0.66,0.19-0.99
				c0.24-1.33,0.37-2.7,0.49-4.08l0.13-2.07l0.04-1.03l0.02-0.99l0-0.08l0.01-0.12c0.12-1.07,0.28-2.15,0.43-3.22
				c0.06-0.54,0.22-1.07,0.33-1.6l0.37-1.6c0.13-0.53,0.33-1.05,0.49-1.58c0.17-0.53,0.34-1.05,0.54-1.56l0.68-1.53
				c0.23-0.51,0.47-1.01,0.77-1.49c0.28-0.49,0.56-0.97,0.87-1.45c0.33-0.46,0.67-0.92,1.01-1.37c0.34-0.45,0.76-0.86,1.14-1.27
				c0.37-0.42,0.85-0.77,1.27-1.14c0.42-0.38,0.94-0.66,1.4-0.98c0.5-0.28,1-0.54,1.53-0.75c0.53-0.2,1.07-0.35,1.62-0.47
				C2157.7,584.59,2158.25,584.52,2158.79,584.61z"/>
		</g>
		<g>
			<path fill="url(#New_Pattern_Swatch_3)" d="M2151.46,615.23c0,0,0.19,0.36,0.34,1.01c0.17,0.66,0.3,1.62,0.21,2.77
				c-0.02,0.29-0.05,0.59-0.1,0.9c-0.06,0.31-0.13,0.62-0.21,0.95c-0.16,0.65-0.42,1.32-0.73,2c-0.35,0.65-0.71,1.36-1.23,1.96
				c-0.26,0.3-0.48,0.65-0.78,0.92l-0.9,0.82c-0.6,0.55-1.34,0.93-2.01,1.34c-0.71,0.36-1.45,0.6-2.15,0.84
				c-0.72,0.16-1.43,0.26-2.09,0.35c-0.66,0.07-1.29-0.01-1.86-0.04c-0.57-0.04-1.08-0.11-1.53-0.26c-0.45-0.12-0.83-0.27-1.14-0.38
				c-0.62-0.23-0.96-0.42-0.96-0.42s0.35-0.23,0.92-0.52c0.29-0.15,0.63-0.33,1.02-0.5c0.39-0.15,0.81-0.39,1.25-0.63
				c0.44-0.24,0.93-0.42,1.39-0.7c0.46-0.28,0.95-0.54,1.44-0.8c0.45-0.33,0.93-0.61,1.4-0.91c0.22-0.17,0.43-0.35,0.66-0.51
				c0.23-0.15,0.46-0.31,0.65-0.52c0.43-0.35,0.86-0.71,1.24-1.11c0.42-0.37,0.76-0.81,1.16-1.2c0.34-0.43,0.73-0.83,1.04-1.25
				c0.33-0.42,0.65-0.83,0.93-1.23c0.31-0.39,0.55-0.78,0.81-1.12c0.22-0.35,0.47-0.66,0.64-0.92c0.17-0.27,0.33-0.47,0.42-0.62
				C2151.4,615.31,2151.46,615.23,2151.46,615.23z"/>
		</g>
		<g>
			<path fill="url(#New_Pattern_Swatch_3)" d="M1936.34,584.61c0.54-0.08,1.09-0.01,1.65,0.06c0.54,0.12,1.09,0.26,1.62,0.47
				c0.53,0.2,1.03,0.47,1.53,0.75c0.46,0.31,0.98,0.6,1.4,0.98c0.43,0.37,0.91,0.72,1.27,1.14c0.38,0.41,0.8,0.82,1.14,1.27
				c0.34,0.45,0.68,0.9,1.01,1.37c0.3,0.47,0.59,0.96,0.87,1.45c0.29,0.49,0.54,0.99,0.77,1.49l0.68,1.53
				c0.19,0.52,0.37,1.04,0.54,1.56c0.16,0.53,0.37,1.05,0.49,1.58l0.37,1.6c0.11,0.53,0.27,1.06,0.33,1.6
				c0.15,1.07,0.31,2.14,0.43,3.22l0.01,0.12l0,0.08l0.02,0.99l0.04,1.03l0.13,2.07c0.11,1.38,0.25,2.75,0.49,4.08
				c0.06,0.33,0.12,0.66,0.19,0.99c0.07,0.33,0.16,0.65,0.24,0.97c0.18,0.63,0.39,1.25,0.68,1.82c0.14,0.28,0.3,0.55,0.48,0.81
				c0.19,0.25,0.39,0.49,0.64,0.7c0.25,0.21,0.53,0.36,0.85,0.51c0.32,0.14,0.67,0.22,1.05,0.29c-0.35,0.15-0.72,0.25-1.13,0.3
				c-0.4,0.04-0.82-0.01-1.24-0.11c-0.41-0.11-0.82-0.27-1.19-0.49c-0.36-0.22-0.72-0.48-1.02-0.77c-1.25-1.15-2.06-2.6-2.7-4.03
				c-0.63-1.45-1.1-2.93-1.43-4.43c-0.18-0.75-0.31-1.5-0.43-2.26c-0.06-0.38-0.11-0.76-0.16-1.14c-0.04-0.39-0.08-0.75-0.1-1.19
				l0.02,0.21c-0.19-0.98-0.35-1.96-0.51-2.94c-0.07-0.49-0.2-0.96-0.29-1.45l-0.3-1.45c-0.08-0.49-0.24-0.95-0.35-1.42
				c-0.13-0.47-0.24-0.95-0.35-1.42l-0.44-1.38c-0.13-0.47-0.27-0.93-0.46-1.37l-0.51-1.35c-0.21-0.43-0.4-0.86-0.59-1.3
				c-0.2-0.44-0.45-0.83-0.67-1.26c-0.21-0.44-0.51-0.8-0.75-1.22c-0.25-0.42-0.57-0.76-0.86-1.17c-0.32-0.35-0.63-0.75-0.99-1.08
				c-0.35-0.36-0.73-0.68-1.13-0.99C1937.25,585.13,1936.83,584.83,1936.34,584.61z"/>
		</g>
		<g>
			<path fill="url(#New_Pattern_Swatch_3)" d="M1943.67,615.23c0,0,0.05,0.08,0.16,0.23c0.09,0.15,0.26,0.36,0.42,0.62
				c0.16,0.27,0.42,0.57,0.64,0.92c0.26,0.34,0.5,0.73,0.81,1.12c0.28,0.4,0.6,0.81,0.93,1.23c0.32,0.43,0.7,0.83,1.04,1.25
				c0.4,0.39,0.73,0.83,1.16,1.2c0.38,0.4,0.81,0.76,1.24,1.11c0.19,0.2,0.42,0.36,0.65,0.52c0.23,0.15,0.44,0.33,0.66,0.51
				c0.47,0.3,0.95,0.58,1.4,0.91c0.49,0.25,0.97,0.52,1.44,0.8c0.47,0.27,0.95,0.45,1.39,0.7c0.44,0.24,0.86,0.47,1.25,0.63
				c0.39,0.17,0.73,0.36,1.02,0.5c0.57,0.3,0.92,0.52,0.92,0.52s-0.34,0.19-0.96,0.42c-0.31,0.11-0.7,0.26-1.14,0.38
				c-0.45,0.15-0.96,0.21-1.53,0.26c-0.57,0.03-1.2,0.11-1.86,0.04c-0.66-0.08-1.36-0.18-2.09-0.35c-0.7-0.25-1.44-0.49-2.15-0.84
				c-0.68-0.41-1.41-0.79-2.01-1.34l-0.9-0.82c-0.3-0.27-0.52-0.62-0.78-0.92c-0.52-0.6-0.88-1.31-1.23-1.96
				c-0.31-0.68-0.57-1.35-0.73-2c-0.07-0.33-0.15-0.64-0.21-0.95c-0.04-0.31-0.07-0.61-0.1-0.9c-0.09-1.15,0.05-2.11,0.21-2.77
				C1943.48,615.58,1943.67,615.23,1943.67,615.23z"/>
		</g>
		<g>
			<path fill="url(#New_Pattern_Swatch_3)" d="M2035.27,645.27c0,0-0.08,0.42-0.24,1.07c-0.15,0.66-0.38,1.55-0.65,2.53
				c-0.27,0.98-0.56,2.06-0.76,3.08c-0.09,0.51-0.18,1.01-0.2,1.45c-0.03,0.45-0.03,0.84,0.02,1.17c0.04,0.34,0.09,0.63,0.22,0.95
				c0.04,0.16,0.14,0.32,0.2,0.5c0.09,0.17,0.21,0.34,0.31,0.54c0.14,0.19,0.27,0.38,0.41,0.56c0.16,0.19,0.32,0.37,0.47,0.57
				c0.36,0.36,0.69,0.75,1.05,1.08c0.34,0.36,0.7,0.68,1.01,0.99c0.31,0.31,0.59,0.61,0.84,0.83c0.48,0.47,0.76,0.81,0.76,0.81
				s-0.39,0.15-1.08,0.29c-0.34,0.07-0.76,0.16-1.24,0.17c-0.48,0.03-1.03,0.04-1.63-0.03c-0.6-0.05-1.25-0.21-1.94-0.42
				c-0.34-0.13-0.69-0.29-1.05-0.45c-0.36-0.17-0.71-0.42-1.07-0.65c-0.7-0.53-1.41-1.19-1.95-2.08c-0.56-0.86-0.91-1.92-1.04-2.95
				c-0.14-1.04-0.02-2.05,0.21-2.93c0.23-0.9,0.59-1.68,0.99-2.36c0.39-0.69,0.87-1.26,1.33-1.78c0.48-0.5,0.96-0.93,1.43-1.27
				c0.94-0.7,1.84-1.12,2.5-1.36c0.32-0.13,0.61-0.19,0.79-0.24C2035.17,645.28,2035.27,645.27,2035.27,645.27z"/>
		</g>
	</g>
	<g id="Eye">
		<path fill="#FFFFFF" d="M1989.49,587.1l17.16-3.96l18.51,5.25l5.78,4.05l-4.31,3.93l-7.04,2.81c0,0-12.45,3.72-25.29-4.36
			l-5.56-6.18L1989.49,587.1z"/>
		<circle fill="#6D472C" cx="2009.44" cy="590.87" r="8.09"/>
		<circle cx="2009.71" cy="590.77" r="4.77"/>
		<circle fill="#FFFFFF" cx="2005.57" cy="589.62" r="2.37"/>
		<circle fill="#FFFFFF" cx="2013.37" cy="590.37" r="1.18"/>
		<path d="M1982.98,586.9c0,0,24.41-16.26,42.63-0.53c0,0,4.49,4.31,9.61,8.43c0,0-4.59,0.04-6.91,1.74s-8.93,3.69-11.88,3.14
			c0,0,8.2-1.67,12.87-6.98c0,0-19.83-10.17-36.76-3.19c0,0,0.56,4.93,8.08,8.5C2000.62,598.01,1988.99,595.43,1982.98,586.9z"/>
		<path d="M1978.59,574.45c0,0,26.06-10.97,50.33,1.89c1.59,0.84,3.51,0.94,5.12,0.15c2.09-1.04,2.9-1.7-2.48-6.74
			C2022.34,561.12,1994.42,565.53,1978.59,574.45z"/>
	</g>
	<g id="Eye_1_">
		<path fill="#FFFFFF" d="M2117.55,587.1l-17.16-3.96l-18.51,5.25l-5.78,4.05l4.31,3.93l7.04,2.81c0,0,12.45,3.72,25.29-4.36
			l5.56-6.18L2117.55,587.1z"/>
		<circle fill="#6D472C" cx="2097.61" cy="590.87" r="8.09"/>
		<circle cx="2097.33" cy="590.77" r="4.77"/>
		<circle fill="#FFFFFF" cx="2101.47" cy="589.62" r="2.37"/>
		<circle fill="#FFFFFF" cx="2093.68" cy="590.37" r="1.18"/>
		<path d="M2124.07,586.9c0,0-24.42-16.26-42.63-0.53c0,0-4.49,4.31-9.61,8.43c0,0,4.59,0.04,6.91,1.74s8.93,3.69,11.88,3.14
			c0,0-8.2-1.67-12.87-6.98c0,0,19.83-10.17,36.76-3.19c0,0-0.56,4.93-8.08,8.5C2106.43,598.01,2118.06,595.43,2124.07,586.9z"/>
		<path d="M2125.34,574.45c0,0-26.06-10.97-50.33,1.89c-1.59,0.84-3.51,0.94-5.12,0.15c-2.09-1.04-2.9-1.7,2.48-6.74
			C2081.59,561.12,2109.51,565.53,2125.34,574.45z"/>
	</g>
	<ellipse cx="2062.93" cy="659.66" rx="6.33" ry="2.3"/>
	<ellipse cx="2039.52" cy="659.66" rx="6.33" ry="2.3"/>
	<g id="lips">
		<defs>
			<path id="SVGID_5_" d="M2024.36,693.02c0,0,13.36-8.25,20.57-9.18c0,0,3.07,0.11,7.27,3.53c0,0,5.44-3.48,7.45-3.42
				c2.01,0.05,12,4.83,19.86,9.12c0,0-12.94,12.76-27.01,9.94C2052.49,703.01,2037.95,706.16,2024.36,693.02z"/>
		</defs>
		<use xlink:href="#SVGID_5_"  overflow="visible" fill="#D6AF9F"/>
		<clipPath id="SVGID_6_">
			<use xlink:href="#SVGID_5_"  overflow="visible"/>
		</clipPath>
		<path clip-path="url(#SVGID_6_)" fill="none" stroke="#754F4B" stroke-width="1.1514" stroke-miterlimit="5" d="M2017.09,693.61
			l5.91-1.03c0,0,8.27,2.23,16.43,0.71s24.59,0.11,24.59,0.11s20.63,1.25,23.94-1.68"/>
		<use xlink:href="#SVGID_5_"  overflow="visible" fill="none" stroke="#754F4B" stroke-width="2.3028" stroke-miterlimit="5"/>
	</g>
</g>
</svg>
